<?xml version="1.0" encoding="UTF-8"?>
<svg version="1.1" viewBox="0 0 24 24" xmlns="http://www.w3.org/2000/svg" xmlns:xlink="http://www.w3.org/1999/xlink">
    <!--Generated by IJSVG (https://github.com/iconjar/IJSVG)-->
    <g fill="#FFF">
        <path opacity="0" d="M0,0h24v24h-24Z"></path>
        <path d="M19,3h-12l-1.31134e-07,3.55271e-15c-1.65685,7.24234e-08 -3,1.34315 -3,3c0,0 0,1.77636e-15 0,1.77636e-15v12l3.37508e-14,4.52987e-07c2.50178e-07,1.65685 1.34315,3 3,3h12h-4.37114e-08c0.552285,2.41411e-08 1,-0.447715 1,-1v-16v0c0,-0.552285 -0.447715,-1 -1,-1Zm-12,2h11v10h-11l-1.77394e-07,1.40637e-09c-0.341143,0.00270458 -0.679326,0.0635775 -1,0.18v-9.18l1.15463e-14,1.50996e-07c-8.33927e-08,-0.552285 0.447715,-1 1,-1Zm0,14h-4.37114e-08c-0.552285,-2.41411e-08 -1,-0.447715 -1,-1c2.41411e-08,-0.552285 0.447715,-1 1,-1h11v2Z"></path>
    </g>
</svg>