<?xml version="1.0" encoding="UTF-8"?>
<svg version="1.1" viewBox="0 0 24 24" xmlns="http://www.w3.org/2000/svg" xmlns:xlink="http://www.w3.org/1999/xlink">
    <!--Generated by IJSVG (https://github.com/iconjar/IJSVG)-->
    <g fill="#FFF">
        <path opacity="0" d="M0,0h24v24h-24Z" transform="matrix(6.12323e-17,-1,1,6.12323e-17,0,24)"></path>
        <path d="M12,17l4.69723e-08,2.36877e-10c-0.516988,-0.00260711 -1.00538,-0.237624 -1.33,-0.64l-4.21,-5.1l-1.60003e-07,-1.99694e-07c-0.501921,-0.626431 -0.602834,-1.48419 -0.26,-2.21l-2.09829e-09,4.76033e-09c0.278329,-0.631438 0.899988,-1.04197 1.59,-1.05h8.42l-4.51616e-08,-5.25739e-10c0.690012,0.00803261 1.31167,0.418562 1.59,1.05l3.5895e-08,7.59934e-08c0.342834,0.725814 0.241921,1.58357 -0.26,2.21l-4.21,5.1l4.05936e-08,-5.03173e-08c-0.324618,0.402376 -0.813012,0.637393 -1.33,0.64Zm-3.91,-7l3.91,4.82l4,-4.82Z"></path>
    </g>
</svg>