<?xml version="1.0" encoding="UTF-8"?>
<svg version="1.1" viewBox="0 0 24 24" xmlns="http://www.w3.org/2000/svg" xmlns:xlink="http://www.w3.org/1999/xlink">
    <!--Generated by IJSVG (https://github.com/iconjar/IJSVG)-->
    <g fill="#FFF">
        <path opacity="0" d="M0,0h24v24h-24Z"></path>
        <path d="M5.5,18l4.7735e-08,4.76483e-10c-0.234901,-0.00234472 -0.461478,-0.0873112 -0.64,-0.24l6.77786e-07,5.33414e-07c-2.07757,-1.63504 -3.31104,-4.11666 -3.36,-6.76l-1.19024e-07,6.42607e-06c0.0489591,-2.64334 1.28243,-5.12496 3.36,-6.76l-1.11862e-07,1.18279e-07c0.379488,-0.401257 1.01241,-0.418904 1.41366,-0.0394157c0.401257,0.379488 0.418904,1.01241 0.0394157,1.41366c-0.0519931,0.0549756 -0.110058,0.103872 -0.17308,0.145751l5.95936e-08,-4.67246e-08c-1.6158,1.26687 -2.58346,3.18754 -2.64,5.23999l-1.81269e-07,-6.58123e-06c0.0565305,2.05246 1.02419,3.97313 2.63999,5.24l3.78684e-08,3.18044e-08c0.419465,0.352295 0.477426,0.976494 0.13,1.4l6.18423e-08,-7.42473e-08c-0.190356,0.22854 -0.472568,0.360483 -0.77,0.36Z"></path>
        <path d="M12,7l-1.64514e-07,-2.52362e-09c0.337836,0.00518235 0.673728,0.0522072 0.999999,0.14v-4.14v0c0,-0.552285 -0.447715,-1 -1,-1c-0.552285,0 -1,0.447715 -1,1v4.14l8.35655e-08,-2.24857e-08c0.326271,-0.0877927 0.662164,-0.134818 1,-0.14Z"></path>
        <path d="M12,15l-1.93003e-07,-2.96065e-09c-0.337836,-0.00518237 -0.673728,-0.0522073 -0.999999,-0.14v5.14l1.06581e-14,1.50996e-07c8.33927e-08,0.552285 0.447715,1 1,1c0.552285,-8.33927e-08 1,-0.447715 1,-1v-5.14l-2.39483e-08,6.44398e-09c-0.326271,0.0877926 -0.662163,0.134818 -0.999999,0.14Z"></path>
        <path d="M16,16l-4.94217e-08,8.02594e-11c-0.297432,0.000483014 -0.579643,-0.13146 -0.77,-0.36l9.44201e-09,1.15096e-08c-0.347426,-0.423506 -0.289465,-1.04771 0.13,-1.4l2.98658e-07,-2.33763e-07c1.00045,-0.783064 1.60131,-1.97012 1.64,-3.24l-7.88991e-09,-2.58936e-07c-0.0386939,-1.26988 -0.63955,-2.45694 -1.64,-3.24l4.80976e-08,3.19617e-08c-0.459985,-0.305668 -0.585083,-0.926351 -0.279416,-1.38634c0.305668,-0.459985 0.926351,-0.585083 1.38634,-0.279416c0.0630217,0.041879 0.121087,0.0907757 0.17308,0.145751l5.05435e-08,3.98565e-08c1.46108,1.15215 2.32746,2.89959 2.36,4.76l8.96036e-08,-5.1225e-06c-0.0325419,1.86041 -0.898917,3.60785 -2.36,4.76l-1.21285e-08,1.03735e-08c-0.178522,0.152691 -0.405101,0.237659 -0.640004,0.240003Z"></path>
        <path d="M8,16l4.7735e-08,4.76483e-10c-0.234901,-0.00234472 -0.461478,-0.0873112 -0.64,-0.24l-4.98333e-07,-3.92965e-07c-1.46108,-1.15215 -2.32746,-2.89959 -2.36,-4.76l-7.90879e-08,4.52132e-06c0.0325421,-1.86041 0.898917,-3.60785 2.36,-4.76l-1.11862e-07,1.18279e-07c0.379488,-0.401257 1.01241,-0.418904 1.41366,-0.0394157c0.401257,0.379488 0.418904,1.01241 0.0394157,1.41366c-0.0519931,0.0549756 -0.110058,0.103872 -0.17308,0.145751l-1.64338e-07,1.2863e-07c-1.00045,0.783064 -1.6013,1.97012 -1.64,3.24l-4.96273e-09,-1.6287e-07c0.0386937,1.26988 0.63955,2.45694 1.64,3.24l3.78684e-08,3.18044e-08c0.419465,0.352295 0.477426,0.976494 0.13,1.4l7.46665e-08,-8.96438e-08c-0.190356,0.22854 -0.472567,0.360483 -0.77,0.36Z"></path>
        <path d="M18.5,18l-4.94217e-08,8.02594e-11c-0.297432,0.000483014 -0.579643,-0.13146 -0.77,-0.36l9.442e-09,1.15096e-08c-0.347426,-0.423506 -0.289465,-1.04771 0.13,-1.4l1.43684e-07,-1.12655e-07c1.6158,-1.26687 2.58347,-3.18754 2.64,-5.24l1.90846e-07,6.92895e-06c-0.0565304,-2.05246 -1.02419,-3.97313 -2.63999,-5.24l4.80976e-08,3.19617e-08c-0.459985,-0.305668 -0.585083,-0.926351 -0.279416,-1.38634c0.305668,-0.459985 0.926351,-0.585083 1.38634,-0.279416c0.0630217,0.041879 0.121087,0.0907757 0.17308,0.145751l-3.48775e-08,-2.74484e-08c2.07757,1.63504 3.31103,4.11666 3.35999,6.76l1.14182e-07,-6.16463e-06c-0.0489592,2.64334 -1.28243,5.12496 -3.36,6.76l-1.16995e-08,1.00065e-08c-0.178522,0.152689 -0.405099,0.237655 -0.64,0.24Z"></path>
        <path d="M12,12l-4.37114e-08,-1.77636e-15c-0.552285,-2.41411e-08 -1,-0.447715 -1,-1c2.41411e-08,-0.552285 0.447715,-1 1,-1c0.552285,2.41411e-08 1,0.447715 1,1v0c0,0.552285 -0.447715,1 -1,1Zm0,-1Zm0,0Zm0,0Zm0,0Zm0,0Zm0,0Zm0,0Z"></path>
    </g>
</svg>