<?xml version="1.0" encoding="UTF-8"?>
<svg version="1.1" viewBox="0 0 24 24" xmlns="http://www.w3.org/2000/svg" xmlns:xlink="http://www.w3.org/1999/xlink">
    <!--Generated by IJSVG (https://github.com/iconjar/IJSVG)-->
    <g fill="#FFF">
        <path opacity="0" d="M0,0h24v24h-24Z"></path>
        <path d="M12,21l-1.88533e-08,1.09001e-10c-0.265803,0.00153675 -0.521281,-0.102813 -0.71,-0.29l-7.77,-7.78l-8.27187e-08,-8.3583e-08c-2.02845,-2.04965 -2.02845,-5.35035 1.65437e-07,-7.4l4.17776e-08,-4.16597e-08c2.04514,-2.03937 5.35486,-2.03937 7.4,8.20728e-08l1.08,1.08l1.08,-1.08l4.17776e-08,-4.16597e-08c2.04514,-2.03937 5.35486,-2.03937 7.4,8.20728e-08l-2.02084e-08,-2.04196e-08c2.02845,2.04965 2.02845,5.35035 4.04168e-08,7.4l-7.77,7.78l5.43839e-08,-5.39424e-08c-0.188719,0.187187 -0.444197,0.291537 -0.71,0.29Zm-4.78,-15l6.34579e-08,2.87294e-10c-0.855065,-0.00387115 -1.67611,0.334631 -2.28,0.94l-2.25982e-07,2.27172e-07c-1.25729,1.26391 -1.25728,3.30609 4.51964e-07,4.57l7.06,7.07l7.06,-7.07l2.62209e-08,-2.6359e-08c1.25729,-1.26391 1.25729,-3.30609 -5.24418e-08,-4.57l1.47677e-08,1.3952e-08c-1.27962,-1.20894 -3.28038,-1.20894 -4.56,-2.7904e-08l-1.79,1.8l-3.03541e-08,3.0604e-08c-0.38892,0.392122 -1.02208,0.394718 -1.4142,0.00579826c-0.00194069,-0.00192484 -0.00387348,-0.00385763 -0.00579832,-0.00579832l-1.79,-1.8l8.05483e-08,8.07459e-08c-0.603887,-0.605369 -1.42494,-0.943871 -2.28,-0.94Z"></path>
    </g>
</svg>