<?xml version="1.0" encoding="UTF-8"?>
<svg version="1.1" viewBox="0 0 24 24" xmlns="http://www.w3.org/2000/svg" xmlns:xlink="http://www.w3.org/1999/xlink">
    <!--Generated by IJSVG (https://github.com/iconjar/IJSVG)-->
    <g fill="#FFF">
        <path opacity="0" d="M0,0h24v24h-24Z"></path>
        <path d="M14.31,12.41l-1.31,1.25v-5.66v0c0,-0.552285 -0.447715,-1 -1,-1c-0.552285,0 -1,0.447715 -1,1v5.59l-1.29,-1.3l6.9121e-08,6.91211e-08c-0.392122,-0.392122 -1.02788,-0.392122 -1.42,-1.38242e-07c-0.392122,0.392122 -0.392122,1.02788 -1.38242e-07,1.42c0,0 1.77636e-15,0 1.77636e-15,0l3,3l1.05043e-09,1.00556e-09c0.0951037,0.0910406 0.207249,0.162406 0.33,0.21l-4.36855e-08,-1.93081e-08c0.24204,0.106977 0.51796,0.106977 0.76,3.86162e-08l-5.35857e-08,2.15891e-08c0.0587886,-0.0236853 0.112949,-0.0575352 0.16,-0.1l-2.61721e-08,1.11578e-08c0.0557544,-0.0237695 0.106615,-0.0576765 0.15,-0.1l3,-2.86l5.073e-08,-4.8281e-08c0.400406,-0.381077 0.416076,-1.01459 0.0349999,-1.415c-0.381077,-0.400406 -1.01459,-0.416076 -1.415,-0.0349999Z"></path>
        <path d="M12,2l-4.37114e-07,1.06581e-14c-5.52285,2.41411e-07 -10,4.47715 -10,10c2.41411e-07,5.52285 4.47715,10 10,10c5.52285,-2.41411e-07 10,-4.47715 10,-10l7.10543e-15,4.37114e-07c0,-5.52285 -4.47715,-10 -10,-10Zm0,18l-3.49691e-07,-7.10543e-15c-4.41828,-1.93129e-07 -8,-3.58172 -8,-8c1.93129e-07,-4.41828 3.58172,-8 8,-8c4.41828,1.93129e-07 8,3.58172 8,8v1.77636e-15c0,4.41828 -3.58172,8 -8,8c0,0 -3.55271e-15,0 -3.55271e-15,0Z"></path>
    </g>
</svg>