<?xml version="1.0" encoding="UTF-8"?>
<svg version="1.1" viewBox="0 0 24 24" xmlns="http://www.w3.org/2000/svg" xmlns:xlink="http://www.w3.org/1999/xlink">
    <!--Generated by IJSVG (https://github.com/iconjar/IJSVG)-->
    <g fill="#FFF">
        <path opacity="0" d="M0,0h24v24h-24Z"></path>
        <path d="M20.21,5.71l6.9121e-08,-6.91211e-08c0.392122,-0.392122 0.392122,-1.02788 -1.38242e-07,-1.42c-0.392122,-0.392122 -1.02788,-0.392122 -1.42,1.38242e-07l-6.28,6.31l-3.3,-3.31l4.03411e-08,-8.49569e-08c0.1914,-0.403082 0.290473,-0.843784 0.29,-1.29v0c0,-1.65685 -1.34315,-3 -3,-3c-1.65685,0 -3,1.34315 -3,3c0,1.65685 1.34315,3 3,3c0,0 1.77636e-15,0 1.77636e-15,0l7.23674e-08,-4.28869e-10c0.44698,-0.00264893 0.887719,-0.105146 1.29,-0.3l3.31,3.3l-3.29,3.3l2.30152e-07,1.11468e-07c-0.408361,-0.197779 -0.856265,-0.300352 -1.31,-0.3l-1.31134e-07,3.55271e-15c-1.65685,7.24234e-08 -3,1.34315 -3,3c7.24234e-08,1.65685 1.34315,3 3,3c1.65685,-7.24234e-08 3,-1.34315 3,-3c0,0 0,-3.55271e-15 0,-3.55271e-15l4.89856e-08,5.42808e-06c-0.00393505,-0.436086 -0.102899,-0.866071 -0.289998,-1.26Zm-13.71,1.29h-4.37114e-08c-0.552285,-2.41411e-08 -1,-0.447715 -1,-1c2.41411e-08,-0.552285 0.447715,-1 1,-1c0.552285,2.41411e-08 1,0.447715 1,1v0c0,0.552285 -0.447715,1 -1,1Zm0,12h-4.37114e-08c-0.552285,-2.41411e-08 -1,-0.447715 -1,-1c2.41411e-08,-0.552285 0.447715,-1 1,-1c0.552285,2.41411e-08 1,0.447715 1,1v0c0,0.552285 -0.447715,1 -1,1Z"></path>
        <path d="M15.21,13.29l6.9121e-08,6.91211e-08c-0.392122,-0.392122 -1.02788,-0.392122 -1.42,-1.38242e-07c-0.392122,0.392122 -0.392122,1.02788 -1.38242e-07,1.42c0,0 1.77636e-15,0 1.77636e-15,0l5,5l-3.12092e-08,-3.14662e-08c0.38892,0.392122 1.02208,0.394718 1.4142,0.00579839c0.00194069,-0.00192484 0.00387348,-0.00385763 0.00579832,-0.00579832l4.18882e-08,-4.15461e-08c0.392122,-0.38892 0.394718,-1.02208 0.00579824,-1.4142c-0.00192484,-0.00194069 -0.00385763,-0.00387348 -0.00579832,-0.00579832Z"></path>
    </g>
</svg>