<?xml version="1.0" encoding="UTF-8"?>
<svg version="1.1" viewBox="0 0 24 24" xmlns="http://www.w3.org/2000/svg" xmlns:xlink="http://www.w3.org/1999/xlink">
    <!--Generated by IJSVG (https://github.com/iconjar/IJSVG)-->
    <g fill="#FFF">
        <path opacity="0" d="M0,0h24v24h-24Z" transform="matrix(6.12323e-17,1,-1,6.12323e-17,24,-7.34788e-16)"></path>
        <path d="M17,2h-10l-1.31134e-07,3.55271e-15c-1.65685,7.24234e-08 -3,1.34315 -3,3c0,0 0,1.77636e-15 0,1.77636e-15v14l3.37508e-14,4.52987e-07c2.50178e-07,1.65685 1.34315,3 3,3h10l-1.31134e-07,-3.55271e-15c1.65685,7.24234e-08 3,-1.34315 3,-3v-14v0c0,-1.65685 -1.34315,-3 -3,-3Zm1,17v0c0,0.552285 -0.447715,1 -1,1h-10h-4.37114e-08c-0.552285,-2.41411e-08 -1,-0.447715 -1,-1c0,0 0,-3.55271e-15 0,-3.55271e-15v-14l1.24345e-14,1.50996e-07c-8.33927e-08,-0.552285 0.447715,-1 1,-1h10l-4.37114e-08,8.88178e-16c0.552285,-2.41411e-08 1,0.447715 1,1Z"></path>
        <path d="M13.0607,15.4393c0.585786,0.585786 0.585786,1.53553 0,2.12132c-0.585786,0.585786 -1.53553,0.585786 -2.12132,0c-0.585786,-0.585786 -0.585786,-1.53553 0,-2.12132c0.585786,-0.585786 1.53553,-0.585786 2.12132,0"></path>
        <path d="M14.5,6h-5l-4.37114e-08,8.88178e-16c-0.552285,2.41411e-08 -1,0.447715 -1,1c2.41411e-08,0.552285 0.447715,1 1,1h5l-4.37114e-08,-8.88178e-16c0.552285,2.41411e-08 1,-0.447715 1,-1c2.41411e-08,-0.552285 -0.447715,-1 -1,-1Z"></path>
    </g>
</svg>