<?xml version="1.0" encoding="UTF-8"?>
<svg version="1.1" viewBox="0 0 24 24" xmlns="http://www.w3.org/2000/svg" xmlns:xlink="http://www.w3.org/1999/xlink">
    <!--Generated by IJSVG (https://github.com/iconjar/IJSVG)-->
    <g fill="#FFF">
        <path opacity="0" d="M0,0h24v24h-24Z"></path>
        <path d="M12.7071,10.2929c0.390524,0.390524 0.390524,1.02369 0,1.41421c-0.390524,0.390524 -1.02369,0.390524 -1.41421,0c-0.390524,-0.390524 -0.390524,-1.02369 0,-1.41421c0.390524,-0.390524 1.02369,-0.390524 1.41421,0"></path>
        <path d="M16.7071,10.2929c0.390524,0.390524 0.390524,1.02369 0,1.41421c-0.390524,0.390524 -1.02369,0.390524 -1.41421,0c-0.390524,-0.390524 -0.390524,-1.02369 0,-1.41421c0.390524,-0.390524 1.02369,-0.390524 1.41421,0"></path>
        <path d="M8.70711,10.2929c0.390524,0.390524 0.390524,1.02369 0,1.41421c-0.390524,0.390524 -1.02369,0.390524 -1.41421,0c-0.390524,-0.390524 -0.390524,-1.02369 0,-1.41421c0.390524,-0.390524 1.02369,-0.390524 1.41421,0"></path>
        <path d="M19,3h-14l-1.31134e-07,3.55271e-15c-1.65685,7.24234e-08 -3,1.34315 -3,3c0,0 0,1.77636e-15 0,1.77636e-15v15l5.23151e-09,3.03314e-06c0.000622788,0.360764 0.195515,0.693225 0.510003,0.869998l-1.28177e-07,-7.26424e-08c0.149455,0.0847013 0.31821,0.129473 0.489997,0.129998l5.90362e-08,-1.73621e-11c0.179483,-5.27977e-05 0.355644,-0.0484107 0.51,-0.14l4.49,-2.72l4.74894e-09,-2.82716e-09c0.165966,-0.0988034 0.356993,-0.147429 0.55,-0.14h10.45l-1.31134e-07,-3.55271e-15c1.65685,7.24234e-08 3,-1.34315 3,-3v-10v0c0,-1.65685 -1.34315,-3 -3,-3Zm1,13v0c0,0.552285 -0.447715,1 -1,1h-10.45l3.1966e-08,2.54374e-11c-0.546176,-0.000434646 -1.08211,0.148243 -1.55,0.43l-3,1.8v-13.23l1.24345e-14,1.50996e-07c-8.33927e-08,-0.552285 0.447715,-1 1,-1h14l-4.37114e-08,8.88178e-16c0.552285,-2.41411e-08 1,0.447715 1,1Z"></path>
    </g>
</svg>