<?xml version="1.0" encoding="UTF-8"?>
<svg version="1.1" viewBox="0 0 24 24" xmlns="http://www.w3.org/2000/svg" xmlns:xlink="http://www.w3.org/1999/xlink">
    <!--Generated by IJSVG (https://github.com/iconjar/IJSVG)-->
    <g fill="#FFF">
        <path opacity="0" d="M0,0h24v24h-24Z" transform="matrix(-1,1.22465e-16,-1.22465e-16,-1,24,24)"></path>
        <path d="M5,6c-0.55228,0 -1,-0.44772 -1,-1v0c0,-0.55228 0.44772,-1 1,-1h14c0.55228,0 1,0.44772 1,1v0c0,0.55228 -0.44772,1 -1,1Z" transform="matrix(-1,1.22465e-16,-1.22465e-16,-1,24,10)"></path>
        <path d="M18,7c-0.55228,0 -1,-0.44772 -1,-1v0c0,-0.55228 0.44772,-1 1,-1h2c0.55228,0 1,0.44772 1,1v0c0,0.55228 -0.44772,1 -1,1Z" transform="matrix(6.12323e-17,1,-1,6.12323e-17,25,-13)"></path>
        <path d="M4,7c-0.55228,0 -1,-0.44772 -1,-1v0c0,-0.55228 0.44772,-1 1,-1h2c0.55228,0 1,0.44772 1,1v0c0,0.55228 -0.44772,1 -1,1Z" transform="matrix(6.12323e-17,1,-1,6.12323e-17,11,1)"></path>
        <path d="M8,14l-4.37114e-08,-1.77636e-15c-0.314757,-1.37585e-08 -0.611146,-0.148194 -0.8,-0.4l5.13133e-08,6.84178e-08c-0.331371,-0.441828 -0.241828,-1.06863 0.2,-1.4c0,0 1.77636e-15,0 1.77636e-15,0l4,-3l-1.21714e-08,8.89412e-09c0.35142,-0.256796 0.82858,-0.256796 1.18,-1.77882e-08l4,2.82l-3.10385e-08,-2.20183e-08c0.448815,0.318383 0.556067,0.939552 0.24,1.39l5.32397e-09,-7.59768e-09c-0.316938,0.452293 -0.940523,0.56202 -1.39282,0.245082c-0.00240228,-0.00168337 -0.00479715,-0.0033773 -0.00718453,-0.00508174l-3.42,-2.41l-3.4,2.56l5.57032e-08,-4.17774e-08c-0.173096,0.129822 -0.38363,0.2 -0.6,0.2Z"></path>
        <path d="M12,21h-4.37114e-08c-0.552285,-2.41411e-08 -1,-0.447715 -1,-1c0,0 0,-3.55271e-15 0,-3.55271e-15v-8l1.06581e-14,1.50996e-07c-8.33927e-08,-0.552285 0.447715,-1 1,-1c0.552285,-8.33927e-08 1,0.447715 1,1c0,0 0,0 0,0v8v0c0,0.552285 -0.447715,1 -1,1Z"></path>
    </g>
</svg>