<?xml version="1.0" encoding="UTF-8"?>
<svg version="1.1" viewBox="0 0 24 24" xmlns="http://www.w3.org/2000/svg" xmlns:xlink="http://www.w3.org/1999/xlink">
    <!--Generated by IJSVG (https://github.com/iconjar/IJSVG)-->
    <g fill="#FFF">
        <path opacity="0" d="M0,0h24v24h-24Z"></path>
        <path d="M21.66,4.25l1.43767e-08,1.26273e-08c-0.414397,-0.363971 -1.04524,-0.323704 -1.41,0.09l-1.87,2.15l-0.63,-0.71l2.45547e-08,2.76933e-08c-0.367269,-0.414214 -1.00079,-0.452269 -1.415,-0.0850001c-0.414214,0.367269 -0.452269,1.00079 -0.0850001,1.415c0,0 9.90927e-09,1.11759e-08 9.90927e-09,1.11759e-08l1.39,1.56l7.94344e-08,8.80204e-08c0.191389,0.212076 0.464341,0.332175 0.75,0.33l-4.73059e-08,5.35627e-10c0.283733,-0.00321259 0.552742,-0.126812 0.74,-0.34l2.61,-3l2.457e-08,-2.76021e-08c0.366495,-0.411722 0.330713,-1.04237 -0.0800001,-1.41Z"></path>
        <path d="M10,11l-1.74846e-07,-3.55271e-15c2.20914,9.65645e-08 4,-1.79086 4,-4c9.65645e-08,-2.20914 -1.79086,-4 -4,-4c-2.20914,-9.65645e-08 -4,1.79086 -4,4l4.61853e-14,-6.03983e-07c-3.33571e-07,2.20914 1.79086,4 4,4Zm0,-6l-8.74228e-08,1.77636e-15c1.10457,-4.82823e-08 2,0.89543 2,2c4.82823e-08,1.10457 -0.89543,2 -2,2c-1.10457,4.82823e-08 -2,-0.89543 -2,-2l2.30926e-14,3.01992e-07c-1.66785e-07,-1.10457 0.89543,-2 2,-2Z"></path>
        <path d="M10,13l-3.0598e-07,7.10543e-15c-3.86599,1.68988e-07 -7,3.13401 -7,7c0,0 0,3.55271e-15 0,3.55271e-15l1.06581e-14,1.50996e-07c8.33927e-08,0.552285 0.447715,1 1,1c0.552285,-8.33927e-08 1,-0.447715 1,-1l5.68434e-14,7.54979e-07c-4.16963e-07,-2.76142 2.23858,-5 5,-5c2.76142,-4.16963e-07 5,2.23858 5,5c0,0 0,3.55271e-15 0,3.55271e-15l1.06581e-14,1.50996e-07c8.33927e-08,0.552285 0.447715,1 1,1c0.552285,-8.33927e-08 1,-0.447715 1,-1v0c0,-3.86599 -3.13401,-7 -7,-7Z"></path>
    </g>
</svg>