<?xml version="1.0" encoding="UTF-8"?>
<svg version="1.1" viewBox="0 0 24 24" xmlns="http://www.w3.org/2000/svg" xmlns:xlink="http://www.w3.org/1999/xlink">
    <!--Generated by IJSVG (https://github.com/iconjar/IJSVG)-->
    <g fill="#FFF">
        <path opacity="0" d="M0,0h24v24h-24Z" transform="matrix(-1,1.22465e-16,-1.22465e-16,-1,24,24)"></path>
        <path d="M21,11.35l1.65872e-08,2.68687e-07c-0.0234148,-0.379283 -0.25978,-0.71252 -0.61,-0.86l-2.15,-0.92l2.26,-1.3l6.12535e-08,-3.52316e-08c0.326732,-0.187929 0.520037,-0.54361 0.5,-0.92l1.65872e-08,2.68687e-07c-0.0234148,-0.379283 -0.25978,-0.71252 -0.61,-0.86l-8,-3.41l-8.23564e-08,-3.4881e-08c-0.249282,-0.10558 -0.530718,-0.10558 -0.78,6.97621e-08l-8,3.41l2.18554e-08,-9.20346e-09c-0.350219,0.14748 -0.586585,0.480717 -0.61,0.86l1.57023e-08,-2.94961e-07c-0.0200373,0.37639 0.173268,0.732071 0.5,0.92l2.26,1.3l-2.15,0.92l2.18554e-08,-9.20346e-09c-0.350219,0.14748 -0.586585,0.480717 -0.61,0.86l1.57023e-08,-2.94961e-07c-0.0200373,0.37639 0.173268,0.732071 0.5,0.92l2.26,1.3l-2.15,0.92l2.18554e-08,-9.20346e-09c-0.350219,0.14748 -0.586585,0.480717 -0.61,0.86l1.57023e-08,-2.94961e-07c-0.0200373,0.37639 0.173268,0.732071 0.5,0.92l8,4.6l-5.04736e-08,-2.91409e-08c0.309401,0.178633 0.690599,0.178633 1,5.82819e-08l8,-4.6l6.12535e-08,-3.52316e-08c0.326732,-0.187929 0.520037,-0.54361 0.5,-0.92l1.65872e-08,2.68687e-07c-0.0234148,-0.379283 -0.25978,-0.71252 -0.61,-0.86l-2.15,-0.92l2.26,-1.3l6.12535e-08,-3.52316e-08c0.326732,-0.187929 0.520037,-0.54361 0.5,-0.92Zm-9,-6.26l5.76,2.45l-5.76,3.31l-5.76,-3.31Zm-0.5,7.78l-5.04736e-08,-2.91409e-08c0.309401,0.178633 0.690599,0.178633 1,5.82819e-08l3.57,-2l1.69,0.72l-5.76,3.26l-5.76,-3.31l1.69,-0.72Zm6.26,2.67l-5.76,3.31l-5.76,-3.31l1.69,-0.72l3.57,2.05l-5.04736e-08,-2.91409e-08c0.309401,0.178633 0.690599,0.178633 1,5.82819e-08l3.57,-2.05Z"></path>
    </g>
</svg>