<?xml version="1.0" encoding="UTF-8"?>
<svg version="1.1" viewBox="0 0 24 24" xmlns="http://www.w3.org/2000/svg" xmlns:xlink="http://www.w3.org/1999/xlink">
    <!--Generated by IJSVG (https://github.com/iconjar/IJSVG)-->
    <g fill="#FFF">
        <path opacity="0" d="M0,0h24v24h-24Z"></path>
        <path d="M20,11.83l-4.37114e-08,1.77636e-15c-0.552285,2.41411e-08 -1,0.447715 -1,1c0,0 0,0 0,0v5.57v0c0,0.331371 -0.268629,0.6 -0.6,0.6c0,0 -3.55271e-15,0 -3.55271e-15,0h-12.8l-2.62268e-08,-3.55271e-15c-0.331371,-1.44847e-08 -0.6,-0.268629 -0.6,-0.6c0,0 0,-3.55271e-15 0,-3.55271e-15v-12.8l7.10543e-15,-9.05975e-08c5.00356e-08,-0.331371 0.268629,-0.6 0.6,-0.6h9.57l-4.37114e-08,-1.77636e-15c0.552285,2.41411e-08 1,-0.447715 1,-1c2.41411e-08,-0.552285 -0.447715,-1 -1,-1h-9.57l-1.13494e-07,4.34021e-10c-1.43366,0.00548258 -2.59452,1.16634 -2.6,2.6v12.8l-1.04671e-07,-2.74085e-05c0.00546753,1.43366 1.16631,2.59453 2.59997,2.60003h12.8l-1.14677e-07,4.3854e-10c1.43366,-0.00548246 2.59452,-1.16634 2.6,-2.6v-5.57v0c0,-0.552285 -0.447715,-1 -1,-1Z"></path>
        <path d="M10.72,11l-2.40247e-08,-2.1606e-08c-0.410648,-0.369306 -1.04293,-0.335791 -1.41223,0.0748572c-0.331107,0.368173 -0.342916,0.92322 -0.027769,1.30514l2.22,2.33l4.13682e-08,4.33961e-08c0.187809,0.197015 0.447812,0.308961 0.72,0.31l8.56711e-09,5.00364e-11c0.270714,0.00158111 0.530502,-0.106664 0.72,-0.3l6.78,-7l1.83453e-08,-1.88694e-08c0.386599,-0.397645 0.377645,-1.0334 -0.02,-1.42c-0.397645,-0.386599 -1.0334,-0.377645 -1.42,0.02l-6.05,6.26Z"></path>
    </g>
</svg>