<?xml version="1.0" encoding="UTF-8"?>
<svg version="1.1" viewBox="0 0 24 24" xmlns="http://www.w3.org/2000/svg" xmlns:xlink="http://www.w3.org/1999/xlink">
    <!--Generated by IJSVG (https://github.com/iconjar/IJSVG)-->
    <g fill="#FFF">
        <path opacity="0" d="M0,0h24v24h-24Z"></path>
        <path d="M8.61,22l7.97077e-08,4.70564e-10c-0.487976,-0.00288082 -0.961789,-0.164328 -1.35,-0.46l-2.07,-1.54l2.42529e-07,1.89095e-07c-0.991823,-0.773306 -1.2069,-2.18667 -0.49,-3.22l9.04331e-09,-1.33532e-08c0.370591,-0.54721 0.456135,-1.239 0.23,-1.86l-0.06,-0.16l4.93779e-08,1.76271e-07c-0.15743,-0.561997 -0.573482,-1.0152 -1.12,-1.22h-0.16l6.0965e-08,2.05002e-08c-1.21569,-0.40879 -1.87576,-1.72001 -1.48,-2.94l0.82,-2.6l-3.24272e-08,1.2941e-07c0.15271,-0.609433 0.560928,-1.12335 1.12,-1.41l-2.57167e-07,1.32504e-07c0.520056,-0.267956 1.12714,-0.311319 1.68,-0.12l-1.51547e-08,-5.10028e-09c0.60479,0.203541 1.27109,0.0949862 1.78,-0.29l0.13,-0.1l-1.36804e-08,1.0916e-08c0.459577,-0.366709 0.728055,-0.922052 0.73,-1.51v-0.24l6.35327e-09,1.44584e-06c-0.00559666,-1.27357 1.01652,-2.31354 2.29,-2.33h2.55l-6.9665e-08,-1.87736e-10c0.601221,0.00162018 1.17702,0.242735 1.6,0.67l-5.66013e-08,-5.7565e-08c0.440295,0.447791 0.684866,1.05202 0.68,1.68v0.28l-9.24895e-08,5.02653e-06c-0.0102891,0.559227 0.245845,1.09005 0.690004,1.43l0.11,0.08l-4.30495e-08,-3.2282e-08c0.455536,0.341597 1.04938,0.438705 1.59,0.26l0.34,-0.11l6.54172e-08,-2.16847e-08c1.18477,-0.392731 2.46358,0.249341 2.85631,1.43411c0.00833866,0.0251555 0.0162342,0.0504558 0.023683,0.0758891l0.79,2.52l9.2237e-08,2.93864e-07c0.379893,1.21033 -0.264961,2.50445 -1.46,2.93l-0.2,0.07l1.0288e-07,-3.36882e-08c-0.597333,0.195598 -1.05835,0.675351 -1.23,1.28l-7.99808e-08,2.78142e-07c-0.161074,0.560153 -0.0697786,1.1627 0.25,1.65l0.26,0.38l8.471e-09,1.22949e-08c0.715852,1.03899 0.496489,2.45608 -0.5,3.23l-2.01,1.55l3.39973e-08,-2.59998e-08c-0.982688,0.751521 -2.38854,0.564123 -3.14006,-0.418565c-0.0277764,-0.0363203 -0.0544341,-0.0734827 -0.0799358,-0.111435l-0.12,-0.17l-1.55964e-12,-2.34124e-12c-0.332911,-0.5003 -0.899241,-0.794792 -1.5,-0.78l9.44378e-08,-2.44562e-09c-0.571952,0.0148116 -1.1028,0.300652 -1.43,0.77l-0.23,0.33l1.05666e-08,-1.58304e-08c-0.344731,0.516463 -0.887572,0.867501 -1.5,0.97l-1.5412e-08,1.50986e-09c-0.129689,0.0127052 -0.26031,0.0127053 -0.389999,1.14483e-07Zm-4.21,-10.38l-2.66196e-07,-9.49208e-08c1.14516,0.408346 2.02843,1.33615 2.38,2.5v0.12l-4.26769e-08,-1.17917e-07c0.438068,1.21039 0.266871,2.55764 -0.46,3.62l-2.12905e-08,2.35227e-08c-0.131019,0.144756 -0.131019,0.365244 4.2581e-08,0.51l2.15,1.63l-8.2183e-09,-6.45529e-09c0.10858,0.0852875 0.265741,0.0664048 0.351029,-0.0421756c0.00694194,-0.00883786 0.01328,-0.0181338 0.0189712,-0.0278244l0.23,-0.33l-3.53547e-08,5.1085e-08c1.18489,-1.71208 3.53335,-2.13946 5.24544,-0.954563c0.373028,0.258164 0.696399,0.581535 0.954563,0.954563l0.12,0.18l-2.14708e-08,-3.04643e-08c0.0429878,0.0609941 0.107164,0.103778 0.18,0.12l-1.84816e-08,-2.72709e-09c0.0675029,0.00996056 0.136144,-0.00810286 0.19,-0.05l2.06,-1.56l1.49927e-08,-1.19002e-08c0.149727,-0.118843 0.180462,-0.333987 0.07,-0.49l-0.26,-0.38l1.32483e-07,1.93184e-07c-0.686214,-1.00062 -0.881168,-2.25862 -0.53,-3.42l5.61297e-08,-1.92471e-07c0.356629,-1.2229 1.28523,-2.19625 2.49,-2.61l0.2,-0.07l-5.50994e-09,2.2072e-09c0.173512,-0.0695063 0.258379,-0.266041 0.19,-0.44l-0.78,-2.49l1.44046e-09,3.3512e-09c-0.0378438,-0.0880431 -0.110133,-0.156718 -0.2,-0.19l1.73682e-08,8.81006e-09c-0.0597119,-0.0302891 -0.130288,-0.0302891 -0.19,-1.76201e-08l-0.34,0.11l-2.5019e-07,8.25726e-08c-1.16752,0.385329 -2.44986,0.17223 -3.43,-0.57l-0.0399998,-0.0900003l3.30883e-09,2.50581e-09c-0.939268,-0.711317 -1.4908,-1.82178 -1.49,-3v-0.31l1.0148e-08,-5.4032e-07c0.00181017,-0.0963846 -0.0340689,-0.18967 -0.1,-0.26l-6.1037e-09,-5.51618e-09c-0.0575306,-0.0519929 -0.132458,-0.0805367 -0.21,-0.08h-2.54l8.72706e-11,-5.44809e-12c-0.170876,0.0106672 -0.30075,0.157837 -0.290083,0.328712c2.67981e-05,0.000429273 5.44895e-05,0.00085849 8.30741e-05,0.00128765v0.25l2.09812e-08,0.000404541c0,1.21003 -0.561655,2.35151 -1.52032,3.08984l-0.13,0.1l9.14051e-08,-6.95934e-08c-1.03622,0.788952 -2.39725,1.01017 -3.63,0.59l-9.91776e-10,-3.32864e-10c-0.0454217,-0.0152446 -0.0945783,-0.0152446 -0.14,6.65729e-10l-8.74048e-09,5.30989e-09c-0.0564364,0.0342855 -0.0989392,0.087414 -0.12,0.15l-0.829679,2.60975l-1.32066e-08,4.05757e-08c-0.0601462,0.184793 0.037228,0.383967 0.22,0.45Z"></path>
        <path d="M12,15.5l-1.5299e-07,-3.55271e-15c-1.933,-8.4494e-08 -3.5,-1.567 -3.5,-3.5c8.4494e-08,-1.933 1.567,-3.5 3.5,-3.5c1.933,8.4494e-08 3.5,1.567 3.5,3.5v0c0,1.933 -1.567,3.5 -3.5,3.5Zm0,-5l-6.55671e-08,1.77636e-15c-0.828427,3.62117e-08 -1.5,0.671573 -1.5,1.5c3.62117e-08,0.828427 0.671573,1.5 1.5,1.5c0.828427,-3.62117e-08 1.5,-0.671573 1.5,-1.5v0c0,-0.828427 -0.671573,-1.5 -1.5,-1.5Z"></path>
    </g>
</svg>