<?xml version="1.0" encoding="UTF-8"?>
<svg version="1.1" viewBox="0 0 24 24" xmlns="http://www.w3.org/2000/svg" xmlns:xlink="http://www.w3.org/1999/xlink">
    <!--Generated by IJSVG (https://github.com/iconjar/IJSVG)-->
    <g fill="#FFF">
        <path opacity="0" d="M0,0h24v24h-24Z"></path>
        <path d="M9,3h-4l-8.74228e-08,1.77636e-15c-1.10457,4.82823e-08 -2,0.895431 -2,2c0,0 0,8.88178e-16 0,8.88178e-16v4l2.30926e-14,3.01992e-07c1.66785e-07,1.10457 0.895431,2 2,2h4l-8.74228e-08,-1.77636e-15c1.10457,4.82823e-08 2,-0.89543 2,-2v-4v0c0,-1.10457 -0.895431,-2 -2,-2Zm-4,6v-4h4v4Z"></path>
        <path d="M19,3h-4l-8.74228e-08,1.77636e-15c-1.10457,4.82823e-08 -2,0.895431 -2,2c0,0 0,8.88178e-16 0,8.88178e-16v4l2.30926e-14,3.01992e-07c1.66785e-07,1.10457 0.895431,2 2,2h4l-8.74228e-08,-1.77636e-15c1.10457,4.82823e-08 2,-0.89543 2,-2v-4v0c0,-1.10457 -0.895431,-2 -2,-2Zm-4,6v-4h4v4Z"></path>
        <path d="M9,13h-4l-8.74228e-08,1.77636e-15c-1.10457,4.82823e-08 -2,0.895431 -2,2c0,0 0,0 0,0v4l2.30926e-14,3.01992e-07c1.66785e-07,1.10457 0.895431,2 2,2h4l-8.74228e-08,-3.55271e-15c1.10457,4.82823e-08 2,-0.89543 2,-2v-4v0c0,-1.10457 -0.895431,-2 -2,-2Zm-4,6v-4h4v4Z"></path>
        <path d="M19,13h-4l-8.74228e-08,1.77636e-15c-1.10457,4.82823e-08 -2,0.895431 -2,2c0,0 0,0 0,0v4l2.30926e-14,3.01992e-07c1.66785e-07,1.10457 0.895431,2 2,2h4l-8.74228e-08,-3.55271e-15c1.10457,4.82823e-08 2,-0.89543 2,-2v-4v0c0,-1.10457 -0.895431,-2 -2,-2Zm-4,6v-4h4v4Z"></path>
    </g>
</svg>