<?xml version="1.0" encoding="UTF-8"?>
<svg version="1.1" viewBox="0 0 24 24" xmlns="http://www.w3.org/2000/svg" xmlns:xlink="http://www.w3.org/1999/xlink">
    <!--Generated by IJSVG (https://github.com/iconjar/IJSVG)-->
    <g fill="#FFF">
        <path opacity="0" d="M0,0h24v24h-24Z" transform="matrix(6.12323e-17,1,-1,6.12323e-17,24,-7.34788e-16)"></path>
        <path d="M13.83,19l-2.16844e-08,7.37295e-11c-0.302588,0.00102885 -0.58937,-0.135009 -0.78,-0.37l-4.83,-6l-3.84993e-08,-4.68365e-08c-0.303317,-0.369002 -0.303317,-0.900998 7.69985e-08,-1.27l5,-6l-6.14392e-08,7.39191e-08c0.353462,-0.425259 0.984741,-0.483462 1.41,-0.13c0.425259,0.353462 0.483462,0.984741 0.13,1.41l-4.47,5.36l4.32,5.36l1.45801e-08,1.75015e-08c0.3535,0.42433 0.29608,1.05489 -0.12825,1.40839c-0.182783,0.152273 -0.413866,0.234393 -0.65175,0.231614Z"></path>
    </g>
</svg>