<?xml version="1.0" encoding="UTF-8"?>
<svg version="1.1" viewBox="0 0 24 24" xmlns="http://www.w3.org/2000/svg" xmlns:xlink="http://www.w3.org/1999/xlink">
    <!--Generated by IJSVG (https://github.com/iconjar/IJSVG)-->
    <g fill="#FFF">
        <path opacity="0" d="M0,0h24v24h-24Z" transform="matrix(6.12323e-17,-1,1,6.12323e-17,0,24)"></path>
        <path d="M19.78,10.38l-4,-5l5.75381e-08,6.09561e-08c-0.379102,-0.401622 -1.012,-0.419878 -1.41363,-0.0407762c-0.354176,0.334316 -0.415988,0.87517 -0.146374,1.28078l2.7,3.38h-8.92l-1.31134e-07,3.55271e-15c-1.65685,7.24234e-08 -3,1.34315 -3,3c0,0 0,1.77636e-15 0,1.77636e-15v5l1.06581e-14,1.50996e-07c8.33927e-08,0.552285 0.447715,1 1,1c0.552285,-8.33927e-08 1,-0.447715 1,-1v-5l1.06581e-14,1.50996e-07c-8.33927e-08,-0.552285 0.447715,-1 1,-1h8.92l-2.7,3.38l-1.91122e-08,2.42229e-08c-0.340357,0.43137 -0.268908,1.05655 0.16,1.4l-8.64121e-08,-6.93305e-08c0.175939,0.14116 0.394436,0.218691 0.62,0.22l3.26927e-08,-1.50724e-10c0.304272,-0.00140278 0.591353,-0.141263 0.78,-0.38l4,-5l-8.12822e-09,1.02862e-08c0.287198,-0.363445 0.287198,-0.876555 1.62564e-08,-1.24Z"></path>
    </g>
</svg>