<?xml version="1.0" encoding="UTF-8"?>
<svg version="1.1" viewBox="0 0 24 24" xmlns="http://www.w3.org/2000/svg" xmlns:xlink="http://www.w3.org/1999/xlink">
    <!--Generated by IJSVG (https://github.com/iconjar/IJSVG)-->
    <g fill="#FFF">
        <path opacity="0" d="M0,0h24v24h-24Z" transform="matrix(6.12323e-17,1,-1,6.12323e-17,24,-7.34788e-16)"></path>
        <path d="M4.29,12l4.48,-5.36l-4.02432e-09,4.84176e-09c0.353462,-0.425259 0.295259,-1.05654 -0.13,-1.41c-0.425259,-0.353462 -1.05654,-0.295259 -1.41,0.13l-5,6l-3.84993e-08,4.68365e-08c-0.303317,0.369002 -0.303317,0.900998 7.69985e-08,1.27l4.83,6l-7.62649e-08,-9.40124e-08c0.19063,0.234991 0.477412,0.371029 0.78,0.37l4.08381e-08,1.39238e-10c0.552282,0.00188304 1.00152,-0.444303 1.0034,-0.996585c0.000786178,-0.23058 -0.078136,-0.454348 -0.223404,-0.633415Z"></path>
        <path d="M21.78,11.37l-4.78,-6l1.28632e-08,1.59259e-08c-0.347939,-0.430782 -0.979218,-0.497939 -1.41,-0.15c-0.430782,0.347939 -0.497939,0.979218 -0.15,1.41l4.27,5.37l-4.48,5.37l-3.44578e-08,4.13518e-08c-0.353552,0.424287 -0.29621,1.05485 0.128077,1.4084c0.000640201,0.000533469 0.00128107,0.00106614 0.0019226,0.00159801l-1.82298e-08,-1.46302e-08c0.181281,0.145486 0.407582,0.223277 0.64,0.22l-3.8001e-08,-6.17142e-11c0.297432,0.00048304 0.579643,-0.13146 0.77,-0.36l5,-6l1.51235e-08,-1.8105e-08c0.306235,-0.366609 0.310424,-0.898614 0.00999997,-1.27Z"></path>
        <path d="M15.72,11.41l6.14762e-09,6.11115e-09c-0.390037,-0.387724 -1.01996,-0.387724 -1.41,-1.22223e-08l-1.31,1.23v-4.64v0c0,-0.552285 -0.447715,-1 -1,-1c-0.552285,0 -1,0.447715 -1,1v4.59l-1.29,-1.3l6.9121e-08,6.91211e-08c-0.392122,-0.392122 -1.02788,-0.392122 -1.42,-1.38242e-07c-0.392122,0.392122 -0.392122,1.02788 -1.38242e-07,1.42c0,0 1.77636e-15,0 1.77636e-15,0l3,3l1.52377e-08,1.51139e-08c0.188719,0.187187 0.444197,0.291537 0.71,0.29l-3.82506e-08,1.52328e-10c0.25747,-0.00102532 0.504623,-0.101319 0.69,-0.28l3,-2.9l1.06909e-08,-1.0302e-08c0.396145,-0.381734 0.40955,-1.01176 0.03,-1.41Z"></path>
    </g>
</svg>