<?xml version="1.0" encoding="UTF-8"?>
<svg version="1.1" viewBox="0 0 24 24" xmlns="http://www.w3.org/2000/svg" xmlns:xlink="http://www.w3.org/1999/xlink">
    <!--Generated by IJSVG (https://github.com/iconjar/IJSVG)-->
    <g fill="#FFF">
        <path opacity="0" d="M0,0h24v24h-24Z"></path>
        <path d="M13.54,18l-5.3491e-08,6.39311e-11c-0.473311,0.000565677 -0.93238,-0.161874 -1.3,-0.46l-5.1,-4.21l1.26338e-07,1.00578e-07c-0.734539,-0.58477 -0.85595,-1.65428 -0.27118,-2.38882c0.0798753,-0.100333 0.170847,-0.191305 0.27118,-0.27118l5.1,-4.21l-2.10577e-07,1.68723e-07c0.626431,-0.501922 1.48419,-0.602834 2.21,-0.26l-1.24136e-07,-5.47176e-08c0.631438,0.278329 1.04197,0.899988 1.05,1.59v8.42l7.41081e-08,-6.36696e-06c-0.00803013,0.690012 -0.418557,1.31167 -1.04999,1.59l5.71241e-08,-2.59771e-08c-0.285867,0.129998 -0.595968,0.198152 -0.909999,0.2Zm-4.86,-6l4.82,4v-7.91Z"></path>
    </g>
</svg>