<?xml version="1.0" encoding="UTF-8"?>
<svg version="1.1" viewBox="0 0 24 24" xmlns="http://www.w3.org/2000/svg" xmlns:xlink="http://www.w3.org/1999/xlink">
    <!--Generated by IJSVG (https://github.com/iconjar/IJSVG)-->
    <g fill="#FFF">
        <path opacity="0" d="M0,0h24v24h-24Z"></path>
        <path d="M12,2l-4.37114e-07,1.06581e-14c-5.52285,2.41411e-07 -10,4.47715 -10,10c2.41411e-07,5.52285 4.47715,10 10,10c5.52285,-2.41411e-07 10,-4.47715 10,-10l7.10543e-15,4.37114e-07c0,-5.52285 -4.47715,-10 -10,-10Zm8,10l-1.29147e-08,-1.03797e-05c0.00221172,1.77666 -0.593011,3.50246 -1.68999,4.9l-11.21,-11.21l-7.31515e-07,5.74193e-07c1.39755,-1.09698 3.12334,-1.69221 4.9,-1.69l-3.49691e-07,7.10543e-15c4.41828,-1.93129e-07 8,3.58172 8,8Zm-16,0l1.34715e-08,1.0827e-05c-0.00221182,-1.77666 0.593011,-3.50246 1.68999,-4.9l11.21,11.21l1.86872e-07,-1.46682e-07c-1.39755,1.09698 -3.12334,1.69221 -4.9,1.69l-3.49691e-07,-7.10543e-15c-4.41828,-1.93129e-07 -8,-3.58172 -8,-8c0,0 0,-3.55271e-15 0,-3.55271e-15Z"></path>
    </g>
</svg>