<?xml version="1.0" encoding="UTF-8"?>
<svg version="1.1" viewBox="0 0 24 24" xmlns="http://www.w3.org/2000/svg" xmlns:xlink="http://www.w3.org/1999/xlink">
    <!--Generated by IJSVG (https://github.com/iconjar/IJSVG)-->
    <g fill="#FFF">
        <path opacity="0" d="M0,0h24v24h-24Z"></path>
        <path d="M13,2l-4.37114e-08,1.77636e-15c-0.552285,2.41411e-08 -1,0.447715 -1,1c0,0 0,0 0,0v8l1.06581e-14,1.50996e-07c8.33927e-08,0.552285 0.447715,1 1,1h8l-4.37114e-08,-1.77636e-15c0.552285,2.41411e-08 1,-0.447715 1,-1v0c0,-4.97056 -4.02944,-9 -9,-9Zm1,8v-5.93l2.82852e-07,4.07607e-08c3.07302,0.442842 5.48716,2.85698 5.93,5.93Z"></path>
        <path d="M20.82,14.06l-8.94745e-08,-3.19831e-08c-0.520058,-0.185897 -1.09235,0.0849936 -1.27825,0.605052c-0.000589048,0.00164789 -0.00117377,0.00329733 -0.00175416,0.00494829l9.69036e-08,-2.73931e-07c-1.47349,4.16533 -6.04467,6.3475 -10.21,4.874c-4.16533,-1.47349 -6.3475,-6.04467 -4.874,-10.21c0.805551,-2.27716 2.59684,-4.06845 4.874,-4.874l-1.02907e-07,3.59359e-08c0.521909,-0.182254 0.797254,-0.753091 0.615,-1.275c-0.182254,-0.521909 -0.753091,-0.797254 -1.275,-0.615l1.48028e-07,-5.22971e-08c-5.20742,1.83973 -7.93747,7.55258 -6.09774,12.76c1.83973,5.20742 7.55258,7.93747 12.76,6.09774c2.84958,-1.00673 5.09101,-3.24816 6.09774,-6.09774l4.01051e-08,-1.15624e-07c0.180027,-0.519023 -0.0923422,-1.08609 -0.61,-1.27Z"></path>
    </g>
</svg>