<?xml version="1.0" encoding="UTF-8"?>
<svg version="1.1" viewBox="0 0 24 24" xmlns="http://www.w3.org/2000/svg" xmlns:xlink="http://www.w3.org/1999/xlink">
    <!--Generated by IJSVG (https://github.com/iconjar/IJSVG)-->
    <g fill="#FFF">
        <path opacity="0" d="M0,0h24v24h-24Z" transform="matrix(-1,1.22465e-16,-1.22465e-16,-1,24,24)"></path>
        <path d="M19.2,7h-0.39l9.19726e-08,-2.45661e-07c0.119833,-0.320077 0.184091,-0.658277 0.19,-1l1.55354e-08,6.0247e-07c-0.0436637,-1.6933 -1.44647,-3.03356 -3.14,-3l-2.24195e-07,4.84173e-09c-1.62837,0.0351666 -3.10809,0.955195 -3.86,2.4l-3.95186e-08,-7.5935e-08c-0.751914,-1.44481 -2.23163,-2.36483 -3.86,-2.4l2.47647e-09,4.90736e-11c-1.69353,-0.0335602 -3.09634,1.3067 -3.14,3l-7.71769e-08,-4.46364e-06c0.00590817,0.341723 0.0701657,0.679923 0.189999,1h-0.389998l7.51364e-08,-7.13436e-09c-1.09962,0.104412 -1.9064,1.08047 -1.80199,2.1801c0.000630337,0.00663847 0.00129387,0.0132737 0.00199057,0.0199056v3.6l-6.42513e-08,6.66006e-07c-0.096397,0.99922 0.534624,1.92472 1.5,2.2v4.37l-6.61834e-08,-9.72447e-07c0.0641762,0.942959 0.865491,1.66459 1.81,1.63h11.38l-4.82434e-08,-1.70419e-09c0.959212,0.033884 1.76672,-0.711166 1.81,-1.67v-4.33l-6.85873e-08,1.95581e-08c0.965376,-0.275283 1.5964,-1.20078 1.5,-2.2v-3.6l1.15318e-07,-1.09772e-06c0.115402,-1.09852 -0.681576,-2.08261 -1.7801,-2.19801c-0.00663002,-0.000696497 -0.0132635,-0.00135984 -0.0199001,-0.00199001Zm-0.2,2.2v3.6l5.51097e-10,3.03653e-09c0.0120012,0.0661266 0.0120012,0.133873 -1.10219e-09,0.2h-6v-4h6l5.51097e-10,3.03653e-09c0.0120012,0.0661266 0.0120012,0.133873 -1.10219e-09,0.2Zm-3.14,-4.2l-5.72862e-08,3.33848e-09c0.589473,-0.0343529 1.09726,0.411075 1.14,1l5.26282e-08,-7.25204e-07c-0.0427382,0.588925 -0.550526,1.03435 -1.14,1h-2.46l-3.25553e-08,9.93978e-08c0.357346,-1.09105 1.31898,-1.87287 2.46,-2Zm-8.86,1l-5.48028e-08,7.55168e-07c0.0427382,-0.588925 0.550526,-1.03435 1.14,-1l-6.06138e-08,-6.97262e-09c1.13724,0.130821 2.09415,0.911971 2.45,2h-2.45l-4.98586e-08,2.90562e-09c-0.589473,0.0343528 -1.09726,-0.411075 -1.14,-1Zm-2,3.2l-3.52676e-10,-1.94324e-09c-0.0120012,-0.0661266 -0.0120012,-0.133873 7.05352e-10,-0.2h6v4h-6l-3.52676e-10,-1.94324e-09c-0.0120012,-0.0661266 -0.0120012,-0.133873 7.05352e-10,-0.2Zm1.5,5.8h4.5v4h-4.5Zm6.5,4v-4h4.5v4Z"></path>
    </g>
</svg>