<?xml version="1.0" encoding="UTF-8"?>
<svg version="1.1" viewBox="0 0 24 24" xmlns="http://www.w3.org/2000/svg" xmlns:xlink="http://www.w3.org/1999/xlink">
    <!--Generated by IJSVG (https://github.com/iconjar/IJSVG)-->
    <g fill="#FFF">
        <path opacity="0" d="M0,0h24v24h-24Z"></path>
        <path d="M13,8l-1.31134e-07,3.55271e-15c1.65685,-7.24234e-08 3,1.34315 3,3l1.06581e-14,1.50996e-07c8.33927e-08,0.552285 0.447715,1 1,1c0.552285,-8.33927e-08 1,-0.447715 1,-1v0c0,-2.76142 -2.23858,-5 -5,-5l-4.37114e-08,8.88178e-16c-0.552285,2.41411e-08 -1,0.447715 -1,1c2.41411e-08,0.552285 0.447715,1 1,1Z"></path>
        <path d="M13,4l-3.0598e-07,7.10543e-15c3.86599,-1.68988e-07 7,3.13401 7,7l1.06581e-14,1.50996e-07c8.33927e-08,0.552285 0.447715,1 1,1c0.552285,-8.33927e-08 1,-0.447715 1,-1v0c0,-4.97056 -4.02944,-9 -9,-9l-4.37114e-08,8.88178e-16c-0.552285,2.41411e-08 -1,0.447715 -1,1c2.41411e-08,0.552285 0.447715,1 1,1Z"></path>
        <path d="M21.75,15.91l1.13793e-08,3.32126e-08c-0.111816,-0.326355 -0.383948,-0.57203 -0.72,-0.65l-6,-1.37l8.9776e-08,2.03558e-08c-0.330917,-0.0750319 -0.677305,0.0228605 -0.92,0.26c-0.14,0.13 -0.15,0.14 -0.8,1.38l-6.98303e-07,-3.21774e-07c-2.1568,-0.993842 -3.885,-2.72914 -4.87,-4.89c1.27,-0.64 1.28,-0.64 1.41,-0.79l4.95589e-08,-5.07198e-08c0.237139,-0.242695 0.335032,-0.589083 0.26,-0.92l-1.37,-5.93l-1.07714e-08,-4.64247e-08c-0.0779702,-0.336052 -0.323646,-0.608184 -0.65,-0.72l-1.06751e-07,-3.81281e-08c-0.233533,-0.0834103 -0.474688,-0.143699 -0.719998,-0.18l3.93804e-07,9.13114e-08c-0.252748,-0.0586049 -0.510667,-0.0921009 -0.770001,-0.1l-1.33728e-07,-4.61853e-14c-2.54051,-7.97508e-07 -4.6,2.05949 -4.6,4.6c-1.61648e-13,5.1192e-07 -2.36255e-13,1.01777e-06 -2.27374e-13,1.52969e-06l-8.54637e-08,-6.60438e-05c0.010982,8.50062 6.89932,15.389 15.3999,15.4001l-2.01072e-07,-7.10543e-15c2.54051,1.11049e-07 4.6,-2.05949 4.6,-4.6l1.01985e-07,-8.46413e-05c0.000304426,-0.254528 -0.0197641,-0.508672 -0.0600132,-0.759997l8.31986e-08,4.91721e-07c-0.0420267,-0.248386 -0.1056,-0.492642 -0.19,-0.73Zm-4.35,4.09l-3.35398e-07,-2.50022e-10c-7.39833,-0.00551516 -13.3945,-6.00167 -13.4,-13.4l-1.0552e-07,2.76304e-05c0.00546753,-1.43366 1.16631,-2.59453 2.59997,-2.60003h0.33l1.07003,4.64l-0.54,0.28c-0.86,0.45 -1.54,0.81 -1.18,1.59l-2.18798e-07,-6.1941e-07c1.18718,3.36086 3.82412,6.00882 7.18,7.21c0.84,0.34 1.17,-0.29 1.62,-1.16l0.29,-0.55l4.63,1.06v0.33l1.04797e-07,-2.74418e-05c-0.00546745,1.43366 -1.16631,2.59453 -2.59997,2.60003Z"></path>
    </g>
</svg>