<?xml version="1.0" encoding="UTF-8"?>
<svg version="1.1" viewBox="0 0 24 24" xmlns="http://www.w3.org/2000/svg" xmlns:xlink="http://www.w3.org/1999/xlink">
    <!--Generated by IJSVG (https://github.com/iconjar/IJSVG)-->
    <g fill="#FFF">
        <path opacity="0" d="M0,0h24v24h-24Z"></path>
        <path d="M6.09,21.06h-4.37114e-08c-0.552285,-2.41411e-08 -1,-0.447715 -1,-1c0,0 0,-3.55271e-15 0,-3.55271e-15l-0.15,-14.66l-6.50758e-08,-1.60864e-06c-0.0504513,-1.24714 0.919659,-2.29905 2.1668,-2.3495c0.00439909,-0.000177958 0.00879868,-0.000343061 0.0131987,-0.000495307l9.59,-0.0499999l1.08251e-07,1.89069e-09c1.2535,0.0218934 2.25191,1.0558 2.23001,2.3093c-4.10296e-06,0.000234913 -8.24239e-06,0.000469825 -1.24183e-05,0.000704736l0.14,14.66l1.14436e-08,1.16807e-06c0.0034937,0.356629 -0.183212,0.688127 -0.490001,0.869999l7.80015e-08,-4.50342e-08c-0.309401,0.178633 -0.690599,0.178633 -1,9.00684e-08l-5.7,-3.16l-5.29,3.23l6.80114e-08,-3.79896e-08c-0.156648,0.0874998 -0.330923,0.138757 -0.51,0.15Zm5.76,-5.55l3.74146e-08,6.74003e-11c0.173762,0.000313023 0.345023,0.0414158 0.5,0.12l4.71,2.61l-0.12,-12.95c0,-0.2 -0.13,-0.34 -0.21,-0.33l-9.6,0.09c-0.08,0 -0.19,0.13 -0.19,0.33l0.12,12.9l4.28,-2.63l-1.39515e-07,7.98882e-08c0.155441,-0.0890074 0.330902,-0.137173 0.51,-0.14Z"></path>
    </g>
</svg>