<?xml version="1.0" encoding="UTF-8"?>
<svg version="1.1" viewBox="0 0 24 24" xmlns="http://www.w3.org/2000/svg" xmlns:xlink="http://www.w3.org/1999/xlink">
    <!--Generated by IJSVG (https://github.com/iconjar/IJSVG)-->
    <g fill="#FFF">
        <path opacity="0" d="M0,0h24v24h-24Z"></path>
        <path d="M12,19l-2.34365e-07,1.78996e-10c-1.46202,0.00111659 -2.862,-0.590631 -3.88,-1.64l-5.31752e-07,-5.48669e-07c-1.85992,-1.91909 -2.14621,-4.86909 -0.689999,-7.11l-1.43,-1.43l-4.56921e-07,6.27959e-07c-2.21412,3.04293 -1.91873,7.23741 0.700001,9.94l-4.04747e-07,-4.1749e-07c1.39018,1.43395 3.3028,2.2423 5.3,2.24l2.21502e-07,3.27649e-10c1.66242,0.00245905 3.27671,-0.557961 4.58,-1.59l-1.43,-1.41l-8.03256e-08,5.69366e-08c-0.92059,0.652535 -2.0216,1.00206 -3.15,1Z"></path>
        <path d="M12,5.43l3.88,4l1.71585e-07,1.76844e-07c1.32179,1.3623 1.8802,3.29238 1.49,5.15l1.63,1.57l-5.29855e-08,1.38712e-07c1.0748,-2.81373 0.414994,-5.99563 -1.69,-8.15l-4.6,-4.7l1.51741e-08,1.54811e-08c-0.187071,-0.190856 -0.442754,-0.298891 -0.71,-0.3l2.32189e-08,1.35611e-10c-0.270714,-0.00158112 -0.530502,0.106664 -0.72,0.3l-2.55,2.6l1.42,1.42Z"></path>
        <path d="M20.71,19.29l-16,-16l6.9121e-08,6.91211e-08c-0.392122,-0.392122 -1.02788,-0.392122 -1.42,-1.38242e-07c-0.392122,0.392122 -0.392122,1.02788 -1.38242e-07,1.42c0,0 0,0 0,0l16,16l-3.12092e-08,-3.14662e-08c0.38892,0.392122 1.02208,0.394718 1.4142,0.00579839c0.00194069,-0.00192484 0.00387348,-0.00385763 0.00579832,-0.00579832l4.18882e-08,-4.15461e-08c0.392122,-0.38892 0.394718,-1.02208 0.00579824,-1.4142c-0.00192484,-0.00194069 -0.00385763,-0.00387348 -0.00579832,-0.00579832Z"></path>
    </g>
</svg>