<?xml version="1.0" encoding="UTF-8"?>
<svg version="1.1" viewBox="0 0 24 24" xmlns="http://www.w3.org/2000/svg" xmlns:xlink="http://www.w3.org/1999/xlink">
    <!--Generated by IJSVG (https://github.com/iconjar/IJSVG)-->
    <g fill="#FFF">
        <path opacity="0" d="M0,0h24v24h-24Z"></path>
        <path d="M16,11h-5.66l1.25,-1.31l4.49398e-08,-4.72193e-08c0.381076,-0.400406 0.365406,-1.03392 -0.0350001,-1.415c-0.400406,-0.381076 -1.03392,-0.365406 -1.415,0.0350001l-2.86,3l3.73545e-10,-4.57531e-10c-0.0333841,0.04089 -0.0634782,0.0843592 -0.09,0.13l-1.48474e-08,1.84412e-08c-0.0461638,0.0573378 -0.0832616,0.121416 -0.11,0.19l-6.46032e-09,1.64353e-08c-0.0351533,0.0894315 -0.0554216,0.184017 -0.06,0.28l-0.0199999,0.0899999l-9.2831e-09,-7.67809e-07c0.00157989,0.130677 0.0287588,0.259778 0.0799997,0.38l-1.21475e-08,-2.97046e-08c0.0487431,0.119193 0.120049,0.22785 0.21,0.32l3,3l-3.12092e-08,-3.14662e-08c0.38892,0.392122 1.02208,0.394718 1.4142,0.00579839c0.00194069,-0.00192484 0.00387348,-0.00385763 0.00579832,-0.00579832l4.18882e-08,-4.15461e-08c0.392122,-0.38892 0.394718,-1.02208 0.00579824,-1.4142c-0.00192484,-0.00194069 -0.00385763,-0.00387348 -0.00579832,-0.00579832l-1.3,-1.28h5.59l-4.37114e-08,-1.77636e-15c0.552285,2.41411e-08 1,-0.447715 1,-1c2.41411e-08,-0.552285 -0.447715,-1 -1,-1Z"></path>
        <path d="M12,2l-4.37114e-07,1.06581e-14c-5.52285,2.41411e-07 -10,4.47715 -10,10c2.41411e-07,5.52285 4.47715,10 10,10c5.52285,-2.41411e-07 10,-4.47715 10,-10l7.10543e-15,4.37114e-07c0,-5.52285 -4.47715,-10 -10,-10Zm0,18l-3.49691e-07,-7.10543e-15c-4.41828,-1.93129e-07 -8,-3.58172 -8,-8c1.93129e-07,-4.41828 3.58172,-8 8,-8c4.41828,1.93129e-07 8,3.58172 8,8v1.77636e-15c0,4.41828 -3.58172,8 -8,8c0,0 -3.55271e-15,0 -3.55271e-15,0Z"></path>
    </g>
</svg>