<?xml version="1.0" encoding="UTF-8"?>
<svg version="1.1" viewBox="0 0 24 24" xmlns="http://www.w3.org/2000/svg" xmlns:xlink="http://www.w3.org/1999/xlink">
    <!--Generated by IJSVG (https://github.com/iconjar/IJSVG)-->
    <g fill="#FFF">
        <path opacity="0" d="M0,0h24v24h-24Z"></path>
        <path d="M12,13l-4.37114e-08,-1.77636e-15c0.552285,2.41411e-08 1,-0.447715 1,-1v-10v0c0,-0.552285 -0.447715,-1 -1,-1c-0.552285,0 -1,0.447715 -1,1v10l1.06581e-14,1.50996e-07c8.33927e-08,0.552285 0.447715,1 1,1Z"></path>
        <path d="M16.59,3.11l1.02621e-07,5.30402e-08c-0.491533,-0.254051 -1.09595,-0.0615335 -1.35,0.43c-0.254051,0.491533 -0.0615335,1.09595 0.43,1.35l3.00221e-07,1.54999e-07c3.92593,2.02689 5.46541,6.85259 3.43852,10.7785c-2.02689,3.92593 -6.85259,5.46541 -10.7785,3.43852c-3.92593,-2.02689 -5.46541,-6.85259 -3.43852,-10.7785c0.761618,-1.4752 1.96332,-2.67691 3.43852,-3.43852l1.03724e-07,-5.36102e-08c0.491533,-0.254051 0.684051,-0.858467 0.43,-1.35c-0.254051,-0.491533 -0.858467,-0.684051 -1.35,-0.43l2.52912e-07,-1.30664e-07c-4.9067,2.53499 -6.82935,8.56766 -4.29436,13.4744c2.53499,4.9067 8.56766,6.82935 13.4744,4.29436c4.9067,-2.53499 6.82935,-8.56766 4.29436,-13.4744c-0.951659,-1.84202 -2.45234,-3.3427 -4.29436,-4.29436Z"></path>
    </g>
</svg>