<?xml version="1.0" encoding="UTF-8"?>
<svg version="1.1" viewBox="0 0 24 24" xmlns="http://www.w3.org/2000/svg" xmlns:xlink="http://www.w3.org/1999/xlink">
    <!--Generated by IJSVG (https://github.com/iconjar/IJSVG)-->
    <g fill="#FFF">
        <path opacity="0" d="M0,0h24v24h-24Z"></path>
        <path d="M17.71,6.29l-3.03541e-08,-3.0604e-08c-0.38892,-0.392122 -1.02208,-0.394718 -1.4142,-0.00579826c-0.00194069,0.00192484 -0.00387348,0.00385763 -0.00579832,0.00579832l-8.29,8.3v-5.59v0c0,-0.552285 -0.447715,-1 -1,-1c-0.552285,0 -1,0.447715 -1,1v8l1.06581e-14,1.50996e-07c8.33927e-08,0.552285 0.447715,1 1,1h8h-4.37114e-08c0.552285,2.41411e-08 1,-0.447715 1,-1c2.41411e-08,-0.552285 -0.447715,-1 -1,-1h-5.59l8.3,-8.29l4.18882e-08,-4.15461e-08c0.392122,-0.38892 0.394718,-1.02208 0.00579824,-1.4142c-0.00192484,-0.00194069 -0.00385763,-0.00387348 -0.00579832,-0.00579832Z"></path>
    </g>
</svg>