<?xml version="1.0" encoding="UTF-8"?>
<svg version="1.1" viewBox="0 0 24 24" xmlns="http://www.w3.org/2000/svg" xmlns:xlink="http://www.w3.org/1999/xlink">
    <!--Generated by IJSVG (https://github.com/iconjar/IJSVG)-->
    <g fill="#FFF">
        <path opacity="0" d="M0,0h24v24h-24Z"></path>
        <path d="M19,7h-3v-1.5v0c0,-1.38071 -1.11929,-2.5 -2.5,-2.5h-3l-1.09278e-07,3.55271e-15c-1.38071,6.03528e-08 -2.5,1.11929 -2.5,2.5c0,0 0,1.77636e-15 0,1.77636e-15v1.5h-3l-1.31134e-07,3.55271e-15c-1.65685,7.24234e-08 -3,1.34315 -3,3c0,0 0,1.77636e-15 0,1.77636e-15v8l3.19744e-14,-4.52987e-07c-2.50178e-07,1.65685 1.34315,3 3,3h14l-1.31134e-07,-3.55271e-15c1.65685,7.24234e-08 3,-1.34315 3,-3v-8v0c0,-1.65685 -1.34315,-3 -3,-3Zm-9,-1.5l5.32907e-15,7.54979e-08c-4.16963e-08,-0.276142 0.223858,-0.5 0.5,-0.5h3l-2.18557e-08,1.77636e-15c0.276142,-1.20706e-08 0.5,0.223858 0.5,0.5v1.5h-4Zm10,12.5v0c0,0.552285 -0.447715,1 -1,1h-14h-4.37114e-08c-0.552285,-2.41411e-08 -1,-0.447715 -1,-1c0,0 0,-3.55271e-15 0,-3.55271e-15v-8l1.24345e-14,1.50996e-07c-8.33927e-08,-0.552285 0.447715,-1 1,-1h14l-4.37114e-08,1.77636e-15c0.552285,-2.41411e-08 1,0.447715 1,1Z"></path>
        <path d="M12,10.5l-1.5299e-07,3.55271e-15c-1.933,8.4494e-08 -3.5,1.567 -3.5,3.5c8.4494e-08,1.933 1.567,3.5 3.5,3.5c1.933,-8.4494e-08 3.5,-1.567 3.5,-3.5v0c0,-1.933 -1.567,-3.5 -3.5,-3.5Zm0,5l-6.55671e-08,-1.77636e-15c-0.828427,-3.62117e-08 -1.5,-0.671573 -1.5,-1.5c3.62117e-08,-0.828427 0.671573,-1.5 1.5,-1.5c0.828427,3.62117e-08 1.5,0.671573 1.5,1.5v0c0,0.828427 -0.671573,1.5 -1.5,1.5Z"></path>
    </g>
</svg>