<?xml version="1.0" encoding="UTF-8"?>
<svg version="1.1" viewBox="0 0 24 24" xmlns="http://www.w3.org/2000/svg" xmlns:xlink="http://www.w3.org/1999/xlink">
    <!--Generated by IJSVG (https://github.com/iconjar/IJSVG)-->
    <g fill="#FFF">
        <path opacity="0" d="M0,0h24v24h-24Z"></path>
        <path d="M12.7071,18.2929c0.390524,0.390524 0.390524,1.02369 0,1.41421c-0.390524,0.390524 -1.02369,0.390524 -1.41421,0c-0.390524,-0.390524 -0.390524,-1.02369 0,-1.41421c0.390524,-0.390524 1.02369,-0.390524 1.41421,0"></path>
        <path d="M12.44,11l-1.9,-1.89l-2.46,-2.44l-1.55,-1.55l-1.82,-1.83l6.91211e-08,6.91211e-08c-0.392122,-0.392122 -1.02788,-0.392122 -1.42,-1.38242e-07c-0.392122,0.392122 -0.392122,1.02788 -1.38242e-07,1.42c0,0 0,1.77636e-15 0,1.77636e-15l1.38,1.37l1.46,1.46l2.23,2.24l1.55,1.54l2.74,2.74l2.79,2.8l3.85,3.85l-3.12092e-08,-3.14662e-08c0.38892,0.392122 1.02208,0.394718 1.4142,0.00579839c0.00194069,-0.00192484 0.00387348,-0.00385763 0.00579832,-0.00579832l4.18882e-08,-4.15461e-08c0.392122,-0.38892 0.394718,-1.02208 0.00579824,-1.4142c-0.00192484,-0.00194069 -0.00385763,-0.00387348 -0.00579832,-0.00579832Z"></path>
        <path d="M21.72,7.93l-2.51862e-07,-2.44249e-07c-2.60457,-2.52583 -6.09184,-3.93581 -9.72,-3.93l3.42846e-07,-9.29417e-10c-1.50953,0.00409215 -3.00862,0.250563 -4.44,0.729999l1.62,1.62l-6.43352e-07,1.60754e-07c3.98848,-0.996598 8.2088,0.137897 11.16,3l4.73159e-08,4.56066e-08c0.185378,0.178681 0.43253,0.278975 0.69,0.28l4.13942e-09,-1.57971e-11c0.272188,-0.00103876 0.532191,-0.112985 0.72,-0.31l2.82441e-08,-3.04969e-08c0.366411,-0.395636 0.353139,-1.01054 -0.0300001,-1.39Z"></path>
        <path d="M3.82,6.65l-1.12211e-06,8.06999e-07c-0.542572,0.390207 -1.05716,0.817918 -1.54,1.28l-5.08352e-08,5.65261e-08c-0.369306,0.410648 -0.335791,1.04293 0.0748573,1.41223c0.368173,0.331107 0.92322,0.342916 1.30514,0.0277689l-5.00527e-07,4.72996e-07c0.4987,-0.47127 1.03368,-0.902599 1.6,-1.29Z"></path>
        <path d="M17,13.14l6.98655e-08,7.12788e-08c0.187071,0.190856 0.442754,0.298891 0.71,0.3l9.69066e-09,-3.6847e-11c0.552281,-0.00210005 0.99829,-0.451514 0.99619,-1.0038c-0.000972031,-0.255628 -0.0998035,-0.501179 -0.27619,-0.686205l1.66383e-07,1.72403e-07c-1.68499,-1.74597 -4.00359,-2.73759 -6.43,-2.75h-0.16l2.35,2.35l-3.33422e-07,-1.13054e-07c1.06708,0.361816 2.03105,0.975874 2.81,1.79Z"></path>
        <path d="M7.43,10.26l-1.27481e-06,7.42511e-07c-0.698787,0.407007 -1.33814,0.908392 -1.9,1.49l-6.01003e-08,6.35595e-08c-0.383838,0.40593 -0.365928,1.04616 0.0400012,1.43c0.40593,0.383838 1.04616,0.365928 1.43,-0.0400012l1.78368e-07,-1.77329e-07c0.582581,-0.579186 1.25875,-1.05588 2,-1.41Z"></path>
        <path d="M8.53,15.4l6.40666e-08,-6.1842e-08c-0.397645,0.383838 -0.408838,1.01735 -0.0250001,1.415c0.383838,0.397645 1.01735,0.408838 1.415,0.0250001l-3.28543e-08,3.03012e-08c1.06089,-0.978447 2.6612,-1.08263 3.84,-0.25l-2.52,-2.52l-5.78033e-08,8.71122e-09c-1.01879,0.153536 -1.96527,0.618046 -2.71,1.33Z"></path>
    </g>
</svg>