<?xml version="1.0" encoding="UTF-8"?>
<svg version="1.1" viewBox="0 0 24 24" xmlns="http://www.w3.org/2000/svg" xmlns:xlink="http://www.w3.org/1999/xlink">
    <!--Generated by IJSVG (https://github.com/iconjar/IJSVG)-->
    <g fill="#FFF">
        <path opacity="0" d="M0,0h24v24h-24Z"></path>
        <path d="M12,2l-4.37114e-07,1.06581e-14c-5.52285,2.41411e-07 -10,4.47715 -10,10c2.41411e-07,5.52285 4.47715,10 10,10c5.52285,-2.41411e-07 10,-4.47715 10,-10l7.10543e-15,4.37114e-07c0,-5.52285 -4.47715,-10 -10,-10Zm0,18l-3.49691e-07,-7.10543e-15c-4.41828,-1.93129e-07 -8,-3.58172 -8,-8c1.93129e-07,-4.41828 3.58172,-8 8,-8c4.41828,1.93129e-07 8,3.58172 8,8v1.77636e-15c0,4.41828 -3.58172,8 -8,8c0,0 -3.55271e-15,0 -3.55271e-15,0Z"></path>
        <path d="M14.71,9.29l-3.03541e-08,-3.0604e-08c-0.38892,-0.392122 -1.02208,-0.394718 -1.4142,-0.00579826c-0.00194069,0.00192484 -0.00387348,0.00385763 -0.00579832,0.00579832l-1.29,1.3l-1.29,-1.3l6.9121e-08,6.91211e-08c-0.392122,-0.392122 -1.02788,-0.392122 -1.42,-1.38242e-07c-0.392122,0.392122 -0.392122,1.02788 -1.38242e-07,1.42c0,0 1.77636e-15,0 1.77636e-15,0l1.3,1.29l-1.3,1.29l2.29995e-08,-2.28117e-08c-0.392122,0.38892 -0.394718,1.02208 -0.00579837,1.4142c0.00192484,0.00194069 0.00385763,0.00387348 0.00579832,0.00579832l-3.12092e-08,-3.14662e-08c0.38892,0.392122 1.02208,0.394718 1.4142,0.00579839c0.00194069,-0.00192484 0.00387348,-0.00385763 0.00579832,-0.00579832l1.29,-1.3l1.29,1.3l-3.12092e-08,-3.14662e-08c0.38892,0.392122 1.02208,0.394718 1.4142,0.00579839c0.00194069,-0.00192484 0.00387348,-0.00385763 0.00579832,-0.00579832l4.18882e-08,-4.15461e-08c0.392122,-0.38892 0.394718,-1.02208 0.00579824,-1.4142c-0.00192484,-0.00194069 -0.00385763,-0.00387348 -0.00579832,-0.00579832l-1.3,-1.29l1.3,-1.29l4.18882e-08,-4.15461e-08c0.392122,-0.38892 0.394718,-1.02208 0.00579824,-1.4142c-0.00192484,-0.00194069 -0.00385763,-0.00387348 -0.00579832,-0.00579832Z"></path>
    </g>
</svg>