<?xml version="1.0" encoding="UTF-8"?>
<svg version="1.1" viewBox="0 0 24 24" xmlns="http://www.w3.org/2000/svg" xmlns:xlink="http://www.w3.org/1999/xlink">
    <!--Generated by IJSVG (https://github.com/iconjar/IJSVG)-->
    <g fill="#FFF">
        <path opacity="0" d="M0,0h24v24h-24Z"></path>
        <path d="M18.26,3h-12.52l-1.19769e-07,3.55271e-15c-1.51326,6.61467e-08 -2.74,1.22674 -2.74,2.74c0,0 0,0 0,0v12.52l2.84217e-14,2.93959e-07c2.28496e-07,1.51326 1.22674,2.74 2.74,2.74h12.52l-8.7095e-08,7.10543e-15c1.51326,-1.14248e-07 2.74,-1.22674 2.74,-2.74v-12.52v0c0,-1.51326 -1.22674,-2.74 -2.74,-2.74Zm-11.26,8h-2v-2h2Zm-2,2h2v2h-2Zm4,-8h6v14h-6Zm10,6h-2v-2h2Zm-2,2h2v2h-2Zm2,-7.26v1.26h-2v-2h1.26h-3.23464e-08c0.408691,-1.78644e-08 0.74,0.331309 0.74,0.74Zm-13.26,-0.74h1.26v2h-2v-1.26l8.88178e-15,1.11737e-07c-6.17106e-08,-0.408691 0.331309,-0.74 0.74,-0.74Zm-0.74,13.26v-1.26h2v2h-1.26h-3.23464e-08c-0.408691,-1.78644e-08 -0.74,-0.331309 -0.74,-0.74Zm14,0v0c0,0.408691 -0.331309,0.74 -0.74,0.74h-1.26v-2h2Z"></path>
    </g>
</svg>