<?xml version="1.0" encoding="UTF-8"?>
<svg version="1.1" viewBox="0 0 24 24" xmlns="http://www.w3.org/2000/svg" xmlns:xlink="http://www.w3.org/1999/xlink">
    <!--Generated by IJSVG (https://github.com/iconjar/IJSVG)-->
    <g fill="#FFF">
        <path opacity="0" d="M0,0h24v24h-24Z"></path>
        <path d="M17.4,22l-4.49185e-07,-5.82229e-10c-8.50062,-0.0110186 -15.389,-6.89938 -15.4,-15.4l3.19744e-14,-2.45396e-07c3.83606e-07,-2.54051 2.05949,-4.6 4.6,-4.6l1.0759e-08,-8.1954e-11c0.258341,-0.0019678 0.516248,0.0214783 0.769999,0.0699998l2.55143e-07,3.77554e-08c0.24531,0.0363004 0.486465,0.0965891 0.719998,0.179999l-7.18501e-08,-2.52099e-08c0.334192,0.117257 0.581433,0.402535 0.65,0.75l1.37,6l1.2814e-08,5.65143e-08c0.0750318,0.330917 -0.0228606,0.677305 -0.26,0.92c-0.13,0.14 -0.14,0.15 -1.37,0.79l2.13952e-08,4.69362e-08c0.984994,2.16086 2.7132,3.89616 4.87,4.89c0.65,-1.24 0.66,-1.25 0.8,-1.38l-2.31765e-08,2.2646e-08c0.242695,-0.237139 0.589083,-0.335032 0.92,-0.26l6,1.37l3.84437e-09,8.91966e-10c0.336052,0.0779701 0.608184,0.323646 0.72,0.65l-5.46456e-08,-1.5368e-07c0.0843999,0.237358 0.147973,0.481614 0.19,0.73l1.45562e-07,9.09026e-07c0.0402447,0.251326 0.0603088,0.50547 0.0599999,0.759998l1.74183e-07,-1.14755e-05c-0.0383803,2.52879 -2.11101,4.55229 -4.63999,4.53001Zm-10.8,-18l-1.13494e-07,4.34021e-10c-1.43366,0.00548258 -2.59452,1.16634 -2.6,2.6l-5.27958e-07,-0.00073529c0.00510937,7.39833 6.00094,13.3948 13.3993,13.4007l-1.14677e-07,4.38536e-10c1.43366,-0.00548246 2.59452,-1.16634 2.6,-2.6v-0.33l-4.63926,-1.07l-0.29,0.55c-0.45,0.87 -0.78,1.5 -1.62,1.16l1.82368e-07,6.52755e-08c-3.35588,-1.20118 -5.99282,-3.84914 -7.18,-7.21c-0.36,-0.78 0.32,-1.14 1.18,-1.59l0.55,-0.27l-1.07,-4.64Z"></path>
    </g>
</svg>