<?xml version="1.0" encoding="UTF-8"?>
<svg version="1.1" viewBox="0 0 24 24" xmlns="http://www.w3.org/2000/svg" xmlns:xlink="http://www.w3.org/1999/xlink">
    <!--Generated by IJSVG (https://github.com/iconjar/IJSVG)-->
    <g fill="#FFF">
        <path opacity="0" d="M0,0h24v24h-24Z"></path>
        <path d="M15,16h-6h-4.37114e-08c-0.552285,2.41411e-08 -1,0.447715 -1,1c2.41411e-08,0.552285 0.447715,1 1,1h6h-4.37114e-08c0.552285,2.41411e-08 1,-0.447715 1,-1c2.41411e-08,-0.552285 -0.447715,-1 -1,-1Z"></path>
        <path d="M9,14h3l-4.37114e-08,-1.77636e-15c0.552285,2.41411e-08 1,-0.447715 1,-1c2.41411e-08,-0.552285 -0.447715,-1 -1,-1h-3l-4.37114e-08,1.77636e-15c-0.552285,2.41411e-08 -1,0.447715 -1,1c2.41411e-08,0.552285 0.447715,1 1,1Z"></path>
        <path d="M19.74,8.33l-5.44,-6l1.14656e-08,1.2704e-08c-0.189059,-0.209479 -0.457822,-0.329333 -0.74,-0.33h-7l-4.9149e-08,-5.86251e-10c-1.39718,-0.0166656 -2.54333,1.10246 -2.56,2.49964c-1.41436e-06,0.000118574 -2.82038e-06,0.000237149 -4.21806e-06,0.000355723v15l-6.45274e-08,-5.47477e-06c0.0164662,1.39718 1.16246,2.51648 2.55964,2.50001c0.000118553,-1.39717e-06 0.000237106,-2.80268e-06 0.000355658,-4.21653e-06h10.88l-1.44312e-07,-1.72167e-09c1.39718,0.0166687 2.54333,-1.10246 2.56,-2.49964c1.43684e-06,-0.000120437 2.86507e-06,-0.000240873 4.28471e-06,-0.00036131v-10.5l1.02041e-08,3.91162e-06c-0.000646037,-0.247836 -0.0933005,-0.486602 -0.259997,-0.670001Zm-5.74,-3.33l2.74,3h-2l3.75466e-08,2.26678e-09c-0.435512,-0.0262929 -0.76725,-0.40066 -0.740957,-0.836172c0.000278445,-0.00461212 0.000597347,-0.00922171 0.00095667,-0.0138282Zm3.44,15h-10.88l2.43823e-08,-1.41932e-09c-0.292216,0.0170102 -0.542894,-0.206088 -0.559904,-0.498305c-3.28941e-05,-0.000565082 -6.48828e-05,-0.00113022 -9.59662e-05,-0.0016954v-15l-3.2669e-09,5.94016e-08c0.0160738,-0.292269 0.266035,-0.51617 0.558305,-0.500096c0.000565185,3.10833e-05 0.00113032,6.3072e-05 0.0016954,9.59659e-05h5.44v3.15l-5.28163e-08,2.4101e-06c-0.0336031,1.5334 1.17685,2.80639 2.71,2.85h3.29v9.5l5.16781e-09,-9.39659e-08c-0.0160738,0.292269 -0.266035,0.51617 -0.558305,0.500096c-0.000565185,-3.10832e-05 -0.00113032,-6.30719e-05 -0.0016954,-9.59658e-05Z"></path>
    </g>
</svg>