<?xml version="1.0" encoding="UTF-8"?>
<svg version="1.1" viewBox="0 0 24 24" xmlns="http://www.w3.org/2000/svg" xmlns:xlink="http://www.w3.org/1999/xlink">
    <!--Generated by IJSVG (https://github.com/iconjar/IJSVG)-->
    <g fill="#FFF">
        <path opacity="0" d="M0,0h24v24h-24Z" transform="matrix(-1,1.22465e-16,-1.22465e-16,-1,24,24)"></path>
        <path d="M18.71,14.29l6.9121e-08,6.91211e-08c-0.392122,-0.392122 -1.02788,-0.392122 -1.42,-1.38242e-07c-0.392122,0.392122 -0.392122,1.02788 -1.38242e-07,1.42c0,0 0,0 0,0l0.29,0.29h-1.58l-1.74846e-07,-3.55271e-15c-2.20914,-9.65645e-08 -4,-1.79086 -4,-4c9.65645e-08,-2.20914 1.79086,-4 4,-4h1.59l-0.3,0.29l2.29995e-08,-2.28117e-08c-0.392122,0.38892 -0.394718,1.02208 -0.00579837,1.4142c0.00192484,0.00194069 0.00385763,0.00387348 0.00579832,0.00579832l3.68223e-08,3.65233e-08c0.188719,0.187187 0.444197,0.291537 0.71,0.29l5.06393e-08,2.92774e-10c0.265803,0.00153675 0.521281,-0.102813 0.71,-0.29l2,-2l1.5384e-08,-1.551e-08c0.187186,-0.188719 0.291537,-0.444197 0.29,-0.71l2.3561e-08,-4.07662e-06c0.00153568,-0.265803 -0.102816,-0.521281 -0.290003,-0.709999l-2,-2l6.9121e-08,6.91211e-08c-0.392122,-0.392122 -1.02788,-0.392122 -1.42,-1.38242e-07c-0.392122,0.392122 -0.392122,1.02788 -1.38242e-07,1.42c0,0 0,0 0,0l0.29,0.29h-1.58l6.52263e-08,-4.77129e-11c-2.01231,0.00147203 -3.88988,1.01161 -5,2.69l3.71803e-08,5.62129e-08c-1.11012,-1.67839 -2.98769,-2.68853 -5,-2.69h-2h-4.37114e-08c-0.552285,2.41411e-08 -1,0.447715 -1,1c2.41411e-08,0.552285 0.447715,1 1,1h2l2.17698e-07,8.88178e-15c2.20914,1.66785e-07 4,1.79086 4,4c-1.66785e-07,2.20914 -1.79086,4 -4,4h-2h-4.37114e-08c-0.552285,2.41411e-08 -1,0.447715 -1,1c2.41411e-08,0.552285 0.447715,1 1,1h2l1.25493e-07,-9.18021e-11c2.01231,-0.00147209 3.88988,-1.01161 5,-2.69l5.42615e-07,8.2038e-07c1.11012,1.67839 2.98769,2.68853 5,2.69h1.59l-0.3,0.29l2.29995e-08,-2.28117e-08c-0.392122,0.38892 -0.394718,1.02208 -0.00579837,1.4142c0.00192484,0.00194069 0.00385763,0.00387348 0.00579832,0.00579832l-3.78682e-08,-3.75608e-08c0.188719,0.187186 0.444196,0.291537 0.709999,0.29l5.06393e-08,2.92772e-10c0.265803,0.00153675 0.521281,-0.102813 0.71,-0.29l2,-2l-5.94757e-09,5.99626e-09c0.187187,-0.188719 0.291537,-0.444197 0.29,-0.71l2.3561e-08,-4.07662e-06c0.00153568,-0.265803 -0.102816,-0.521281 -0.290003,-0.709999Z"></path>
    </g>
</svg>