<?xml version="1.0" encoding="UTF-8"?>
<svg version="1.1" viewBox="0 0 24 24" xmlns="http://www.w3.org/2000/svg" xmlns:xlink="http://www.w3.org/1999/xlink">
    <!--Generated by IJSVG (https://github.com/iconjar/IJSVG)-->
    <g fill="#FFF">
        <path opacity="0" d="M0,0h24v24h-24Z" transform="matrix(-1,1.22465e-16,-1.22465e-16,-1,24,24)"></path>
        <path d="M18.62,8.22l-5,-4l-2.40099e-08,-1.89728e-08c-0.363445,-0.287198 -0.876555,-0.287198 -1.24,3.79457e-08l-5,4l-5.752e-08,5.42947e-08c-0.401622,0.379102 -0.419878,1.012 -0.040776,1.41363c0.334316,0.354176 0.875171,0.415987 1.28078,0.146374l3.38,-2.7v8.92v0c0,0.552285 -0.447715,1 -1,1h-5h-4.37114e-08c-0.552285,2.41411e-08 -1,0.447715 -1,1c2.41411e-08,0.552285 0.447715,1 1,1h5l-1.31134e-07,-3.55271e-15c1.65685,7.24234e-08 3,-1.34315 3,-3v-8.92l3.38,2.7l-4.93695e-09,-3.96105e-09c0.175939,0.141161 0.394436,0.218692 0.62,0.22l3.26927e-08,-1.50722e-10c0.304272,-0.00140278 0.591353,-0.141263 0.78,-0.38l1.88103e-09,-2.38402e-09c0.340357,-0.43137 0.268908,-1.05655 -0.16,-1.4Z"></path>
    </g>
</svg>