<?xml version="1.0" encoding="UTF-8"?>
<svg version="1.1" viewBox="0 0 24 24" xmlns="http://www.w3.org/2000/svg" xmlns:xlink="http://www.w3.org/1999/xlink">
    <!--Generated by IJSVG (https://github.com/iconjar/IJSVG)-->
    <g fill="#FFF">
        <path opacity="0" d="M0,0h24v24h-24Z" transform="matrix(-1,1.22465e-16,-1.22465e-16,-1,24,24)"></path>
        <path d="M3.95,13c-0.524666,0 -0.95,-0.425334 -0.95,-0.95v-0.1c0,-0.524666 0.425334,-0.95 0.95,-0.95h16.1c0.524666,0 0.95,0.425334 0.95,0.95v0.1c0,0.524666 -0.425334,0.95 -0.95,0.95Z"></path>
        <path d="M3.95,18c-0.524666,0 -0.95,-0.425334 -0.95,-0.95v-0.1c0,-0.524666 0.425334,-0.95 0.95,-0.95h16.1c0.524666,0 0.95,0.425334 0.95,0.95v0.1c0,0.524666 -0.425334,0.95 -0.95,0.95Z"></path>
        <path d="M3.95,8c-0.524666,0 -0.95,-0.425334 -0.95,-0.95v-0.1c0,-0.524666 0.425334,-0.95 0.95,-0.95h16.1c0.524666,0 0.95,0.425334 0.95,0.95v0.1c0,0.524666 -0.425334,0.95 -0.95,0.95Z"></path>
    </g>
</svg>