<?xml version="1.0" encoding="UTF-8"?>
<svg version="1.1" viewBox="0 0 24 24" xmlns="http://www.w3.org/2000/svg" xmlns:xlink="http://www.w3.org/1999/xlink">
    <!--Generated by IJSVG (https://github.com/iconjar/IJSVG)-->
    <g fill="#FFF">
        <path opacity="0" d="M0,0h24v24h-24Z"></path>
        <path d="M12,2l-4.37114e-07,1.06581e-14c-5.52285,2.41411e-07 -10,4.47715 -10,10c2.41411e-07,5.52285 4.47715,10 10,10c5.52285,-2.41411e-07 10,-4.47715 10,-10l7.10543e-15,4.37114e-07c0,-5.52285 -4.47715,-10 -10,-10Zm0,18l-3.49691e-07,-7.10543e-15c-4.41828,-1.93129e-07 -8,-3.58172 -8,-8c1.93129e-07,-4.41828 3.58172,-8 8,-8c4.41828,1.93129e-07 8,3.58172 8,8v1.77636e-15c0,4.41828 -3.58172,8 -8,8c0,0 -3.55271e-15,0 -3.55271e-15,0Z"></path>
        <path d="M10.52,11.78l1.64296e-07,-3.33867e-08c0.673853,-0.136934 1.14851,-0.742965 1.12,-1.43c0,-1 -0.77,-1.6 -1.94,-1.6h-2.7v6.5h2.7c1.3,-0.05 2.3,-0.72 2.3,-1.88l5.80265e-08,-1.25001e-06c0.0389267,-0.83857 -0.609312,-1.54992 -1.44788,-1.58885c-0.0107021,-0.000496795 -0.0214091,-0.000880426 -0.0321193,-0.00115083Zm-2.26,-2.11h1.15c0.6,0 0.95,0.32 0.95,0.85c0,0.53 -0.38,0.89 -1.25,0.89h-0.85Zm1,4.57h-1v-1.94h1.23c0.75,0 1.17,0.38 1.17,1c0,0.62 -0.42,0.94 -1.44,0.94Z"></path>
        <path d="M14.75,10.3l6.38389e-08,5.31748e-09c-1.1613,-0.0967308 -2.18113,0.766272 -2.27786,1.92757c-0.00893462,0.107264 -0.00964847,0.215055 -0.0021353,0.322428v0.45l3.62886e-08,-4.60196e-07c-0.0933433,1.18374 0.790596,2.21902 1.97433,2.31236c0.121734,0.00959933 0.244065,0.00881013 0.365666,-0.00235906l-1.255e-07,-1.4907e-08c1.02279,0.121488 1.9706,-0.553662 2.19,-1.56h-1.21l-2.30697e-09,7.66671e-09c-0.129425,0.430114 -0.55616,0.698958 -1,0.63l3.10105e-08,-7.76611e-10c-0.590759,0.0147947 -1.08166,-0.452117 -1.09645,-1.04288c-0.00123042,-0.0491312 0.000925614,-0.0982888 0.00645278,-0.147124v-0.14h3.3v-0.47l2.85232e-08,-3.66729e-07c0.0907907,-1.16732 -0.781907,-2.18722 -1.94923,-2.27801c-0.100085,-0.0077843 -0.200596,-0.00844992 -0.300775,-0.00199183Zm1,2h-2.02l-1.91702e-08,-2.12119e-07c-0.0497101,-0.550043 0.35589,-1.03624 0.905933,-1.08595c0.0312747,-0.00282645 0.0626653,-0.00417819 0.0940672,-0.00405072l-1.05841e-08,4.29612e-11c0.55228,-0.00224172 1.00181,0.443653 1.00405,0.995933c0.000127461,0.0314019 -0.00122428,0.0627925 -0.00405074,0.0940672Z"></path>
        <path d="M13.25,9.2h3v0.5h-3Z"></path>
    </g>
</svg>