<?xml version="1.0" encoding="UTF-8"?>
<svg version="1.1" viewBox="0 0 24 24" xmlns="http://www.w3.org/2000/svg" xmlns:xlink="http://www.w3.org/1999/xlink">
    <!--Generated by IJSVG (https://github.com/iconjar/IJSVG)-->
    <g fill="#FFF">
        <path opacity="0" d="M0,0h24v24h-24Z"></path>
        <path d="M12.7071,18.2929c0.390524,0.390524 0.390524,1.02369 0,1.41421c-0.390524,0.390524 -1.02369,0.390524 -1.41421,0c-0.390524,-0.390524 -0.390524,-1.02369 0,-1.41421c0.390524,-0.390524 1.02369,-0.390524 1.41421,0"></path>
        <path d="M12,14l3.5893e-08,9.30811e-13c-1.29427,-3.35784e-05 -2.53813,0.501811 -3.47,1.4l6.40666e-08,-6.1842e-08c-0.397645,0.383838 -0.408838,1.01735 -0.0250001,1.415c0.383838,0.397645 1.01735,0.408838 1.415,0.0250001l-2.17495e-07,1.99154e-07c1.17719,-1.07792 2.98281,-1.07792 4.16,-3.98307e-07l6.40666e-08,6.1842e-08c0.397645,0.383838 1.03116,0.372645 1.415,-0.0250001c0.383838,-0.397645 0.372645,-1.03116 -0.0250001,-1.415c0,0 -1.77636e-15,-1.77636e-15 -1.77636e-15,-1.77636e-15l2.57768e-07,2.48451e-07c-0.931874,-0.898189 -2.17573,-1.40003 -3.47,-1.4Z"></path>
        <path d="M12,9l3.82886e-07,-2.51795e-10c-2.4403,0.00160475 -4.77535,0.994088 -6.47,2.75l-4.79753e-08,5.07364e-08c-0.383838,0.405929 -0.36593,1.04616 0.0399995,1.43c0.405929,0.383838 1.04616,0.36593 1.43,-0.0399995l-4.65396e-07,4.82849e-07c2.6829,-2.78352 7.1143,-2.86508 9.89782,-0.182183c0.0618397,0.0596044 0.122577,0.120342 0.182182,0.182182l6.98655e-08,7.12788e-08c0.187071,0.190856 0.442754,0.298891 0.71,0.3l9.69066e-09,-3.6847e-11c0.552281,-0.00210005 0.99829,-0.451514 0.99619,-1.0038c-0.000972031,-0.255628 -0.0998035,-0.501179 -0.27619,-0.686205l7.31414e-08,7.57867e-08c-1.70429,-1.76593 -4.05582,-2.75928 -6.51,-2.75Z"></path>
        <path d="M21.72,7.93l-2.35988e-07,-2.27655e-07c-5.4238,-5.23228 -14.0162,-5.23228 -19.44,4.5531e-07l-5.08352e-08,5.65261e-08c-0.369306,0.410648 -0.335791,1.04293 0.0748573,1.41223c0.368173,0.331107 0.92322,0.342916 1.30514,0.0277689l-4.05912e-08,3.92358e-08c4.65116,-4.49584 12.0288,-4.49584 16.68,-7.84716e-08l4.73159e-08,4.56066e-08c0.185378,0.178681 0.43253,0.278975 0.69,0.28l4.13942e-09,-1.57971e-11c0.272188,-0.00103876 0.532191,-0.112985 0.72,-0.31l-5.57894e-09,5.85364e-09c0.37955,-0.398238 0.366145,-1.02827 -0.03,-1.41Z"></path>
    </g>
</svg>