<?xml version="1.0" encoding="UTF-8"?>
<svg version="1.1" viewBox="0 0 24 24" xmlns="http://www.w3.org/2000/svg" xmlns:xlink="http://www.w3.org/1999/xlink">
    <!--Generated by IJSVG (https://github.com/iconjar/IJSVG)-->
    <g fill="#FFF">
        <path opacity="0" d="M0,0h24v24h-24Z" transform="matrix(6.12323e-17,-1,1,6.12323e-17,0,24)"></path>
        <path d="M5,13h11.86l-3.63,4.36l-4.51996e-08,5.43808e-08c-0.353462,0.425259 -0.295259,1.05654 0.13,1.41c0.425259,0.353462 1.05654,0.295259 1.41,-0.13l5,-6l-6.33534e-09,8.988e-09c0.0336393,-0.0477243 0.0637206,-0.0978597 0.09,-0.15c0,-0.05 0.05,-0.08 0.07,-0.13l1.32616e-08,-3.35468e-08c0.0453265,-0.114659 0.0690588,-0.236711 0.0699999,-0.36l-1.31922e-08,-1.72801e-06c-0.000941334,-0.123289 -0.0246739,-0.245341 -0.0700006,-0.36c0,-0.05 -0.05,-0.08 -0.07,-0.13l-1.50573e-08,-2.98749e-08c-0.0262794,-0.0521403 -0.0563607,-0.102276 -0.09,-0.15l-5,-6l2.63662e-09,3.16549e-09c-0.190357,-0.228539 -0.472568,-0.360482 -0.769999,-0.359998l-1.56343e-08,-3.05462e-11c-0.233652,-0.000456509 -0.460088,0.0809189 -0.64,0.23l-1.0924e-07,9.05666e-08c-0.42517,0.35249 -0.484088,0.982908 -0.131598,1.40808c0.000531867,0.000641532 0.00106454,0.0012824 0.00159801,0.0019226l3.63,4.36h-11.86l-4.37114e-08,1.77636e-15c-0.552285,2.41411e-08 -1,0.447715 -1,1c2.41411e-08,0.552285 0.447715,1 1,1Z"></path>
    </g>
</svg>