<?xml version="1.0" encoding="UTF-8"?>
<svg version="1.1" viewBox="0 0 24 24" xmlns="http://www.w3.org/2000/svg" xmlns:xlink="http://www.w3.org/1999/xlink">
    <!--Generated by IJSVG (https://github.com/iconjar/IJSVG)-->
    <g fill="#FFF">
        <path opacity="0" d="M0,0h24v24h-24Z"></path>
        <path d="M18,3h-12l-1.31134e-07,3.55271e-15c-1.65685,7.24234e-08 -3,1.34315 -3,3c0,0 0,1.77636e-15 0,1.77636e-15v12l3.37508e-14,-4.52987e-07c-2.50178e-07,1.65685 1.34315,3 3,3h12l-1.31134e-07,-3.55271e-15c1.65685,7.24234e-08 3,-1.34315 3,-3v-12v0c0,-1.65685 -1.34315,-3 -3,-3Zm-12,2h12h-4.37114e-08c0.552285,-2.41411e-08 1,0.447715 1,1v8.36l-3.2,-2.73l-3.83156e-08,-3.15267e-08c-1.02251,-0.84134 -2.49749,-0.84134 -3.52,6.30534e-08l-7.28,6.07v-11.7l1.06581e-14,1.50996e-07c-8.33927e-08,-0.552285 0.447715,-1 1,-1Zm12,14h-11.44l7,-5.84l-2.75213e-08,2.04353e-08c0.276104,-0.205015 0.653896,-0.205015 0.93,-4.08707e-08l4.51,3.84v1v0c0,0.552285 -0.447715,1 -1,1Z"></path>
        <path d="M9.06066,7.43934c0.585786,0.585786 0.585786,1.53553 0,2.12132c-0.585786,0.585786 -1.53553,0.585786 -2.12132,0c-0.585786,-0.585786 -0.585786,-1.53553 0,-2.12132c0.585786,-0.585786 1.53553,-0.585786 2.12132,0"></path>
    </g>
</svg>