<?xml version="1.0" encoding="UTF-8"?>
<svg version="1.1" viewBox="0 0 24 24" xmlns="http://www.w3.org/2000/svg" xmlns:xlink="http://www.w3.org/1999/xlink">
    <!--Generated by IJSVG (https://github.com/iconjar/IJSVG)-->
    <g fill="#FFF">
        <path opacity="0" d="M0,0h24v24h-24Z"></path>
        <path d="M17.37,12.39l-5.37,4.32l-5.36,-4.48l5.63428e-09,4.68304e-09c-0.425259,-0.353462 -1.05654,-0.295259 -1.41,0.13c-0.353462,0.425259 -0.295259,1.05654 0.13,1.41c7.64926e-09,6.35783e-09 1.52985e-08,1.27157e-08 2.29478e-08,1.90735e-08l6,5l3.76243e-08,3.0927e-08c0.369002,0.303317 0.900998,0.303317 1.27,-6.18539e-08l6,-4.83l-3.23032e-09,2.59499e-09c0.430563,-0.345881 0.499211,-0.975314 0.15333,-1.40588c-0.00110642,-0.00137731 -0.00221649,-0.00275168 -0.0033302,-0.0041231l2.45849e-08,3.01233e-08c-0.349205,-0.427872 -0.97915,-0.491645 -1.40702,-0.14244c-0.000994241,0.000811442 -0.00198692,0.0016248 -0.00297803,0.00244006Z"></path>
        <path d="M11.36,11.77l3.76243e-08,3.0927e-08c0.369002,0.303317 0.900998,0.303317 1.27,-6.18539e-08l6,-4.83l-3.23032e-09,2.59499e-09c0.430563,-0.345881 0.499211,-0.975314 0.15333,-1.40588c-0.00110642,-0.00137731 -0.00221649,-0.00275168 -0.0033302,-0.0041231l1.25485e-08,1.56208e-08c-0.345881,-0.430563 -0.975314,-0.499211 -1.40588,-0.15333c-0.00137731,0.00110642 -0.00275168,0.00221649 -0.0041231,0.0033302l-5.37,4.33l-5.36,-4.48l1.70796e-08,1.4196e-08c-0.425259,-0.353462 -1.05654,-0.295259 -1.41,0.13c-0.353462,0.425259 -0.295259,1.05654 0.13,1.41Z"></path>
    </g>
</svg>