<?xml version="1.0" encoding="UTF-8"?>
<svg version="1.1" viewBox="0 0 24 24" xmlns="http://www.w3.org/2000/svg" xmlns:xlink="http://www.w3.org/1999/xlink">
    <!--Generated by IJSVG (https://github.com/iconjar/IJSVG)-->
    <g fill="#FFF">
        <path opacity="0" d="M0,0h24v24h-24Z"></path>
        <path d="M19,4h-14l-1.31134e-07,3.55271e-15c-1.65685,7.24234e-08 -3,1.34315 -3,3c0,0 0,1.77636e-15 0,1.77636e-15v10l3.19744e-14,-4.52987e-07c-2.50178e-07,1.65685 1.34315,3 3,3h14l-1.31134e-07,-3.55271e-15c1.65685,7.24234e-08 3,-1.34315 3,-3v-10v0c0,-1.65685 -1.34315,-3 -3,-3Zm-0.67,2l-6.33,4.75l-6.33,-4.75Zm0.67,12h-14h-4.37114e-08c-0.552285,-2.41411e-08 -1,-0.447715 -1,-1c0,0 0,-3.55271e-15 0,-3.55271e-15v-9.75l7.4,5.55l-7.79577e-08,-5.84683e-08c0.173096,0.129822 0.38363,0.2 0.6,0.2l-4.37114e-08,-1.77636e-15c0.21637,9.45784e-09 0.426904,-0.0701779 0.6,-0.2l7.4,-5.55v9.75v0c0,0.552285 -0.447715,1 -1,1Z"></path>
    </g>
</svg>