<?xml version="1.0" encoding="UTF-8"?>
<svg version="1.1" viewBox="0 0 24 24" xmlns="http://www.w3.org/2000/svg" xmlns:xlink="http://www.w3.org/1999/xlink">
    <!--Generated by IJSVG (https://github.com/iconjar/IJSVG)-->
    <g fill="#FFF">
        <path opacity="0" d="M0,0h24v24h-24Z"></path>
        <path d="M9.71,11.29l6.9121e-08,6.91211e-08c-0.392122,-0.392122 -1.02788,-0.392122 -1.42,-1.38242e-07c-0.392122,0.392122 -0.392122,1.02788 -1.38242e-07,1.42c0,0 1.77636e-15,0 1.77636e-15,0l3,3l1.52377e-08,1.51139e-08c0.188719,0.187187 0.444197,0.291537 0.71,0.29l3.99513e-08,-1.26737e-09c0.276718,-0.00877833 0.537413,-0.131885 0.72,-0.34l7,-8l2.40136e-08,-2.98141e-08c0.346436,-0.430117 0.278598,-1.05964 -0.151519,-1.40607c-0.403828,-0.325261 -0.989285,-0.287891 -1.34848,0.0860738l-6.22,7.2Z"></path>
        <path d="M21,11l-4.37114e-08,1.77636e-15c-0.552285,2.41411e-08 -1,0.447715 -1,1c0,0 0,0 0,0v0c0,4.41828 -3.58172,8 -8,8l-1.33432e-07,-6.10072e-11c-4.41828,-0.00202009 -7.99836,-3.58538 -7.99634,-8.00366c0.000965731,-2.11222 0.837227,-4.13834 2.32634,-5.63634l-3.72559e-07,3.77546e-07c1.49629,-1.51632 3.53973,-2.36685 5.67,-2.36l-3.63602e-07,-2.27649e-09c0.63945,0.00400354 1.27655,0.0777735 1.9,0.22l-1.75392e-08,-5.42508e-09c0.527621,0.1632 1.08764,-0.132222 1.25084,-0.659844c0.1632,-0.527621 -0.132222,-1.08764 -0.659844,-1.25084c-0.0396847,-0.012275 -0.0800958,-0.0220653 -0.120998,-0.029314l1.85004e-07,4.35228e-08c-0.776852,-0.182757 -1.57195,-0.276693 -2.37,-0.28l-9.41316e-08,4.89011e-10c-5.52277,0.0286908 -9.97661,4.52904 -9.94792,10.0518c0.0137329,2.64349 1.07362,5.17399 2.94792,7.03819l6.98035e-09,6.98352e-09c1.85669,1.85754 4.37365,2.90387 7,2.91l-4.37114e-07,-1.06581e-14c5.52285,2.41411e-07 10,-4.47715 10,-10v0c0,-0.552285 -0.447715,-1 -1,-1Z"></path>
    </g>
</svg>