<?xml version="1.0" encoding="UTF-8"?>
<svg version="1.1" viewBox="0 0 24 24" xmlns="http://www.w3.org/2000/svg" xmlns:xlink="http://www.w3.org/1999/xlink">
    <!--Generated by IJSVG (https://github.com/iconjar/IJSVG)-->
    <g fill="#FFF">
        <path opacity="0" d="M0,0h24v24h-24Z"></path>
        <path d="M14,13h-1v-1v0c0,-0.552285 -0.447715,-1 -1,-1c-0.552285,0 -1,0.447715 -1,1v1h-1l-4.37114e-08,1.77636e-15c-0.552285,2.41411e-08 -1,0.447715 -1,1c2.41411e-08,0.552285 0.447715,1 1,1h1v1l1.06581e-14,1.50996e-07c8.33927e-08,0.552285 0.447715,1 1,1c0.552285,-8.33927e-08 1,-0.447715 1,-1v-1h1l-4.37114e-08,-1.77636e-15c0.552285,2.41411e-08 1,-0.447715 1,-1c2.41411e-08,-0.552285 -0.447715,-1 -1,-1Z"></path>
        <path d="M19.5,7.05h-7l-2.63,-3.18l3.14858e-09,3.88145e-09c-0.18842,-0.232277 -0.470917,-0.368022 -0.77,-0.37h-4.6l8.18809e-08,1.00522e-09c-1.36033,-0.0167003 -2.47807,1.06974 -2.5,2.43v12.14l-9.69108e-08,-6.01189e-06c0.0219256,1.36026 1.13966,2.4467 2.49999,2.43001h15l-3.37463e-09,-4.14282e-11c1.36033,0.0167003 2.47807,-1.06974 2.5,-2.43v-8.59l1.00549e-07,6.23759e-06c-0.0219254,-1.36026 -1.13966,-2.4467 -2.49999,-2.43001Zm0.5,11l3.32813e-09,-5.42226e-08c-0.0155641,0.253574 -0.233743,0.446519 -0.487317,0.430955c-0.00423177,-0.000259742 -0.00845976,-0.000577976 -0.0126827,-0.000954613h-15l-1.32146e-08,1.17857e-09c-0.253047,0.0225686 -0.476477,-0.164271 -0.499045,-0.417317c-0.000376637,-0.00422298 -0.000694872,-0.00845096 -0.000954614,-0.0126827v-12.12l-1.27753e-09,2.08137e-08c0.0155641,-0.253574 0.233743,-0.446519 0.487317,-0.430955c0.00423177,0.000259742 0.00845976,0.000577977 0.0126827,0.000954614h4.13l2.6,3.18l5.44258e-08,6.70941e-08c0.18842,0.232277 0.470917,0.368022 0.77,0.37h7.5l-2.68409e-08,2.39388e-09c0.253047,-0.0225686 0.476477,0.164271 0.499045,0.417317c0.000376637,0.00422298 0.000694872,0.00845096 0.000954615,0.0126827Z"></path>
    </g>
</svg>