<?xml version="1.0" encoding="UTF-8"?>
<svg version="1.1" viewBox="0 0 24 24" xmlns="http://www.w3.org/2000/svg" xmlns:xlink="http://www.w3.org/1999/xlink">
    <!--Generated by IJSVG (https://github.com/iconjar/IJSVG)-->
    <g fill="#FFF">
        <path opacity="0" d="M0,0h24v24h-24Z" transform="matrix(6.12323e-17,1,-1,6.12323e-17,24,-7.34788e-16)"></path>
        <path d="M13.63,12l4,-3.79l-1.55234e-09,1.45193e-09c0.459821,-0.430077 0.483933,-1.15148 0.0538555,-1.6113c-0.0554593,-0.0592948 -0.117094,-0.112495 -0.183855,-0.158696l-4.67,-3.23l7.00929e-09,4.90718e-09c-0.356966,-0.249911 -0.823239,-0.280739 -1.21,-0.08l-9.44473e-08,4.90254e-08c-0.374453,0.19437 -0.612411,0.578174 -0.62,1v6.2l-3.19,-4l1.41693e-08,1.70032e-08c-0.358985,-0.430782 -0.999218,-0.488985 -1.43,-0.13c-0.430782,0.358985 -0.488985,0.999218 -0.13,1.43l3.47,4.37l-3.5,4.43l-1.91122e-08,2.42229e-08c-0.340357,0.43137 -0.268908,1.05655 0.16,1.4l-8.03383e-08,-5.43593e-08c0.182322,0.123364 0.400255,0.18312 0.62,0.17l3.26927e-08,-1.5072e-10c0.304272,-0.00140278 0.591353,-0.141263 0.78,-0.38l3.22,-4.06v6.29l-3.00468e-08,-3.48591e-06c0.00548744,0.636742 0.523231,1.15003 1.16,1.15l-2.66562e-08,-9.95222e-11c0.239665,0.000894806 0.473723,-0.0724668 0.67,-0.21l4.64,-3.18l-2.99697e-08,2.11793e-08c0.279979,-0.197859 0.45909,-0.50856 0.49,-0.85l-1.19393e-08,1.51803e-07c0.0266358,-0.338662 -0.0978232,-0.671773 -0.34,-0.91Zm-0.63,-6.24l2.5,1.73l-2.5,2.36Zm0,12.49v-4.07l2.47,2.38Z"></path>
    </g>
</svg>