<?xml version="1.0" encoding="UTF-8"?>
<svg version="1.1" viewBox="0 0 24 24" xmlns="http://www.w3.org/2000/svg" xmlns:xlink="http://www.w3.org/1999/xlink">
    <!--Generated by IJSVG (https://github.com/iconjar/IJSVG)-->
    <g fill="#FFF">
        <path opacity="0" d="M0,0h24v24h-24"></path>
        <path d="M12,22h-0.43l-4.94293e-07,-2.83004e-08c-5.21043,-0.29832 -9.34738,-4.49578 -9.57,-9.71l-3.30923e-07,-1.10186e-05c-0.16579,-5.52036 4.17495,-10.1299 9.6953,-10.2957c1.52312,-0.0457431 3.03655,0.257202 4.42471,0.885699l1.2715e-08,5.98517e-09c0.362489,0.17063 0.640315,0.480929 0.77,0.86l6.62447e-08,1.99109e-07c0.127742,0.38395 0.0915673,0.803577 -0.1,1.16l-1.29001,2.38l3.73993e-08,-6.91313e-08c-0.353538,0.653503 -1.14624,0.930731 -1.83,0.64l-5.12781e-07,-2.01516e-07c-1.7011,-0.668509 -3.63756,-0.241696 -4.9,1.08l3.26812e-07,-3.53108e-07c-0.835583,0.902815 -1.2561,2.11361 -1.16,3.34l-1.53103e-07,-1.50626e-06c0.120422,1.18473 0.720192,2.26866 1.66,3l2.69734e-07,2.2296e-07c0.962492,0.795588 2.21124,1.15754 3.45,1l-2.71022e-08,3.64058e-09c1.05448,-0.141646 2.00493,-0.709023 2.63,-1.57h-2.9l-7.04467e-09,1.59872e-13c-0.796923,1.81103e-05 -1.4445,-0.643095 -1.45,-1.44v-2.68l1.59872e-14,-2.18944e-07c1.20919e-07,-0.800813 0.649187,-1.45 1.45,-1.45h8.1l3.70084e-08,2.50033e-10c0.794692,0.00536904 1.43913,0.645364 1.45,1.44v1.88l2.11308e-07,-4.0582e-06c-0.276945,5.31879 -4.67401,9.48721 -10,9.48Zm0,-18l-1.10281e-07,-4.96367e-11c-4.41828,-0.00198863 -8.00161,3.57812 -8.0036,7.9964c-3.65537e-05,0.0812141 0.00116359,0.162424 0.00360003,0.243602l-2.87638e-07,-6.72845e-06c0.178165,4.16768 3.48528,7.52236 7.64999,7.76001l1.22227e-07,5.51525e-09c4.39378,0.19826 8.12357,-3.18758 8.35001,-7.58v-1.22h-7v1.58h5.31l-0.41,1.3l2.43699e-07,-8.31027e-07c-0.660848,2.25353 -2.57568,3.91435 -4.9,4.25l-8.10845e-08,1.17639e-08c-1.77836,0.258007 -3.58486,-0.222524 -5,-1.33l1.83736e-07,1.44139e-07c-2.75057,-2.1578 -3.23111,-6.13682 -1.07331,-8.8874c0.111811,-0.142527 0.229689,-0.280188 0.353307,-0.412604l6.4216e-08,-6.92127e-08c1.70826,-1.84118 4.3222,-2.53746 6.72,-1.79l0.77,-1.43l-8.5352e-07,-3.12007e-07c-0.88721,-0.324322 -1.8254,-0.486896 -2.77,-0.48Z"></path>
    </g>
</svg>