<?xml version="1.0" encoding="UTF-8"?>
<svg version="1.1" viewBox="0 0 24 24" xmlns="http://www.w3.org/2000/svg" xmlns:xlink="http://www.w3.org/1999/xlink">
    <!--Generated by IJSVG (https://github.com/iconjar/IJSVG)-->
    <g fill="#FFF">
        <path opacity="0" d="M0,0h24v24h-24Z" transform="matrix(-1,1.22465e-16,-1.22465e-16,-1,24,24)"></path>
        <path d="M18,15l-1.56343e-08,3.05462e-11c-0.233652,0.000456509 -0.460088,-0.0809189 -0.64,-0.23l-5.36,-4.48l-5.37,4.32l-3.38051e-08,2.74524e-08c-0.428724,0.348158 -1.05851,0.282847 -1.40667,-0.145877c-0.00111371,-0.00137142 -0.00222378,-0.0027458 -0.0033302,-0.0041231l-5.50079e-08,-6.77371e-08c-0.348158,-0.428724 -0.282847,-1.05851 0.145877,-1.40667c0.00137142,-0.00111371 0.0027458,-0.00222378 0.0041231,-0.0033302l6,-4.83l3.76243e-08,-3.0927e-08c0.369002,-0.303317 0.900998,-0.303317 1.27,6.18539e-08l6,5l4.1939e-08,3.47699e-08c0.42517,0.35249 0.484088,0.982908 0.131598,1.40808c-0.000531867,0.000641532 -0.00106454,0.0012824 -0.00159801,0.0019226l-9.33273e-09,1.1505e-08c-0.18842,0.232277 -0.470917,0.368022 -0.77,0.37Z"></path>
    </g>
</svg>