<?xml version="1.0" encoding="UTF-8"?>
<svg version="1.1" viewBox="0 0 24 24" xmlns="http://www.w3.org/2000/svg" xmlns:xlink="http://www.w3.org/1999/xlink">
    <!--Generated by IJSVG (https://github.com/iconjar/IJSVG)-->
    <g fill="#FFF">
        <path d="M12.7071,11.2929c0.390524,0.390524 0.390524,1.02369 0,1.41421c-0.390524,0.390524 -1.02369,0.390524 -1.41421,0c-0.390524,-0.390524 -0.390524,-1.02369 0,-1.41421c0.390524,-0.390524 1.02369,-0.390524 1.41421,0"></path>
        <path d="M16.7071,11.2929c0.390524,0.390524 0.390524,1.02369 0,1.41421c-0.390524,0.390524 -1.02369,0.390524 -1.41421,0c-0.390524,-0.390524 -0.390524,-1.02369 0,-1.41421c0.390524,-0.390524 1.02369,-0.390524 1.41421,0"></path>
        <path d="M8.70711,11.2929c0.390524,0.390524 0.390524,1.02369 0,1.41421c-0.390524,0.390524 -1.02369,0.390524 -1.41421,0c-0.390524,-0.390524 -0.390524,-1.02369 0,-1.41421c0.390524,-0.390524 1.02369,-0.390524 1.41421,0"></path>
        <path d="M19.07,4.93l5.62866e-07,5.66541e-07c-3.89251,-3.91793 -10.2241,-3.93853 -14.1421,-0.0460206c-2.91281,2.89391 -3.76062,7.27427 -2.13794,11.046l-3.88794e-09,-8.05899e-09c0.0958904,0.198763 0.127353,0.422499 0.09,0.64l-0.880001,4.23l-3.57393e-08,1.70957e-07c-0.068871,0.329442 0.0325982,0.67143 0.27,0.91l6.71446e-08,6.66576e-08c0.193593,0.192189 0.457297,0.296948 0.73,0.29h0.2l4.28,-0.86l-9.16674e-08,1.10212e-08c0.21753,-0.0261538 0.43812,0.00486665 0.64,0.0899999l1.33831e-07,5.75768e-08c5.07327,2.18262 10.9553,-0.160715 13.1379,-5.23398c1.62268,-3.77175 0.774869,-8.15211 -2.13794,-11.046Zm0.83,8.36l5.74674e-08,-3.50943e-07c-0.713989,4.36021 -4.82744,7.31605 -9.18764,6.60206c-0.62259,-0.10195 -1.23094,-0.277188 -1.81236,-0.52206l1.11796e-08,4.75528e-09c-0.395457,-0.168209 -0.820269,-0.25657 -1.25,-0.26l9.56545e-08,-6.69605e-10c-0.18772,0.00131409 -0.375016,0.0180369 -0.56,0.05l-2.82,0.57l0.57,-2.82l-7.80815e-08,4.20052e-07c0.113525,-0.610726 0.0403426,-1.24149 -0.21,-1.81l-1.90841e-07,-4.53128e-07c-1.71493,-4.07188 0.195764,-8.76301 4.26764,-10.4779c0.581421,-0.244873 1.18977,-0.42011 1.81236,-0.52206l-6.70993e-09,1.10122e-09c4.35995,-0.715546 8.47445,2.23883 9.19,6.59878c0.140813,0.858001 0.140813,1.73322 2.20244e-09,2.59122Z"></path>
        <path opacity="0" d="M0,0h24v24h-24Z"></path>
    </g>
</svg>