<?xml version="1.0" encoding="UTF-8"?>
<svg version="1.1" viewBox="0 0 24 24" xmlns="http://www.w3.org/2000/svg" xmlns:xlink="http://www.w3.org/1999/xlink">
    <!--Generated by IJSVG (https://github.com/iconjar/IJSVG)-->
    <g fill="#FFF">
        <path opacity="0" d="M0,0h24v24h-24Z" transform="matrix(6.12323e-17,1,-1,6.12323e-17,24,-7.34788e-16)"></path>
        <path d="M11.64,5.23l3.80197e-08,3.16812e-08c-0.424287,-0.353552 -1.05485,-0.29621 -1.4084,0.128077c-0.000533469,0.000640201 -0.00106614,0.00128107 -0.00159801,0.0019226l-5,6l-3.84993e-08,4.68365e-08c-0.303317,0.369002 -0.303317,0.900998 7.69985e-08,1.27l4.83,6l-7.62649e-08,-9.40124e-08c0.19063,0.234991 0.477412,0.371029 0.78,0.37l4.08381e-08,1.39238e-10c0.552282,0.00188304 1.00152,-0.444303 1.0034,-0.996585c0.000786178,-0.23058 -0.078136,-0.454348 -0.223404,-0.633415l-4.33,-5.37l4.48,-5.37l4.85224e-08,-5.91478e-08c0.347426,-0.423506 0.289465,-1.04771 -0.13,-1.4Z"></path>
        <path d="M14.29,12l4.48,-5.37l2.46097e-08,-2.96085e-08c0.353462,-0.425259 0.295259,-1.05654 -0.13,-1.41c-0.425259,-0.353462 -1.05654,-0.295259 -1.41,0.13l-5,6l-3.84993e-08,4.68365e-08c-0.303317,0.369002 -0.303317,0.900998 7.69985e-08,1.27l4.83,6l-7.62649e-08,-9.40124e-08c0.19063,0.234991 0.477412,0.371029 0.78,0.37l4.08381e-08,1.39238e-10c0.552282,0.00188304 1.00152,-0.444303 1.0034,-0.996585c0.000786178,-0.23058 -0.078136,-0.454348 -0.223404,-0.633415Z"></path>
    </g>
</svg>