<?xml version="1.0" encoding="UTF-8"?>
<svg version="1.1" viewBox="0 0 24 24" xmlns="http://www.w3.org/2000/svg" xmlns:xlink="http://www.w3.org/1999/xlink">
    <!--Generated by IJSVG (https://github.com/iconjar/IJSVG)-->
    <g fill="#FFF">
        <path opacity="0" d="M0,0h24v24h-24Z" transform="matrix(-1,1.22465e-16,-1.22465e-16,-1,24,24)"></path>
        <path d="M12.94,22h-1.89h-7.34351e-08c-0.927838,-4.05571e-08 -1.68,-0.752162 -1.68,-1.68c0,0 0,0 0,0v-1.09l9.35736e-09,1.10963e-07c-0.0110545,-0.131088 -0.0967386,-0.244035 -0.22,-0.29l-3.63201e-09,-2.32704e-09c-0.124944,-0.0800521 -0.285056,-0.0800521 -0.41,4.65408e-09l-0.74,0.8l4.05485e-08,-4.08337e-08c-0.649886,0.654457 -1.70726,0.658164 -2.36172,0.00827794c-0.00276895,-0.00274961 -0.00552825,-0.00550891 -0.00827786,-0.00827786l-1.37,-1.34l-4.60022e-08,-4.49392e-08c-0.320376,-0.312973 -0.500692,-0.742124 -0.5,-1.19l1.58123e-08,-1.11333e-05c0.000645527,-0.453475 0.180348,-0.888348 0.500008,-1.21l0.74,-0.74l-3.19083e-09,4.92013e-09c0.0729826,-0.112536 0.0729826,-0.257464 6.38165e-09,-0.37c-0.06,-0.15 -0.16,-0.26 -0.3,-0.26h-1.02001l-6.9299e-08,-4.10058e-10c-0.929451,-0.00549984 -1.68001,-0.760525 -1.68,-1.68999v-1.89l1.77636e-14,-2.53673e-07c1.401e-07,-0.927838 0.752162,-1.68 1.68,-1.68h1.09l1.55854e-08,-1.3143e-09c0.131088,-0.0110545 0.244035,-0.0967387 0.29,-0.22l-6.63379e-09,1.03539e-08c0.0800521,-0.124944 0.0800521,-0.285056 1.32676e-08,-0.41l-0.8,-0.74l-1.09643e-08,-1.08877e-08c-0.654457,-0.649886 -0.658164,-1.70726 -0.00827784,-2.36172c0.00274961,-0.00276895 0.00550891,-0.00552825 0.00827786,-0.00827786l1.34,-1.37l-7.86354e-08,8.09071e-08c0.309897,-0.31885 0.735364,-0.499133 1.18,-0.5l-6.77468e-09,2.97291e-11c0.456938,-0.00200517 0.895894,0.177895 1.22,0.5l0.74,0.74l-3.86377e-10,-2.50573e-10c0.112536,0.0729826 0.257464,0.0729826 0.37,5.01146e-10c0.15,-0.06 0.26,-0.16 0.26,-0.3v-1.02l-7.11911e-08,1.20383e-05c0.0054932,-0.929454 0.760518,-1.68002 1.68999,-1.68001h1.94001h-7.34351e-08c0.927838,-4.05571e-08 1.68,0.752162 1.68,1.68v1.09l-1.01521e-08,-1.20387e-07c0.0110545,0.131088 0.0967386,0.244035 0.22,0.29l-2.43399e-08,-1.55946e-08c0.124944,0.0800521 0.285056,0.0800521 0.41,3.11893e-08l0.69,-0.8l-3.14459e-09,3.16671e-09c0.649886,-0.654457 1.70726,-0.658164 2.36172,-0.00827786c0.00276895,0.00274961 0.00552825,0.00550891 0.00827786,0.00827786l1.37,1.34l-2.75166e-09,-2.70169e-09c0.319422,0.313621 0.499561,0.742352 0.5,1.19l4.79344e-08,2.23791e-06c0.00975585,0.455485 -0.171559,0.894266 -0.500002,1.21l-0.74,0.74l-1.95553e-09,3.01535e-09c-0.0729826,0.112536 -0.0729826,0.257464 3.91106e-09,0.37c0.06,0.15 0.16,0.26 0.3,0.26h1.09l2.45186e-09,1.16192e-10c0.90198,0.0427437 1.61101,0.787007 1.61,1.69v1.94v0c0,0.927838 -0.752162,1.68 -1.68,1.68h-1.09l-4.81621e-09,4.06146e-10c-0.131088,0.0110545 -0.244035,0.0967387 -0.29,0.22l-1.95553e-09,3.01535e-09c-0.0729826,0.112536 -0.0729826,0.257464 3.91106e-09,0.37l0.77,0.77l4.86313e-08,4.82916e-08c0.654457,0.649886 0.658163,1.70726 0.00827776,2.36172c-0.00274961,0.00276895 -0.00550891,0.00552825 -0.00827786,0.00827786l-1.31,1.33l4.66446e-08,-4.79921e-08c-0.309897,0.31885 -0.735364,0.499133 -1.18,0.5l-2.96732e-08,-3.89662e-10c-0.446535,-0.00586381 -0.873283,-0.18517 -1.19,-0.5l-0.77,-0.74l-7.54911e-09,-4.89578e-09c-0.112536,-0.0729826 -0.257464,-0.0729826 -0.37,9.79156e-09c-0.15,0.06 -0.26,0.16 -0.26,0.3v1.09l4.03187e-08,-8.50793e-07c-0.0427442,0.90198 -0.787008,1.61101 -1.69,1.61Zm-1.57,-2h1.26v-0.77l-9.48115e-08,1.02669e-05c0.0087069,-0.943075 0.585072,-1.78789 1.45999,-2.14001l9.24421e-08,-4.04078e-08c0.878644,-0.384068 1.90233,-0.198303 2.59,0.47l0.54,0.54l0.88,-0.88l-0.54,-0.55l-1.06511e-07,-1.08627e-07c-0.664015,-0.677205 -0.853585,-1.68825 -0.48,-2.56l4.6046e-08,-1.12897e-07c0.355242,-0.870996 1.19937,-1.44295 2.14,-1.45h0.780009v-1.29h-0.77l-3.7457e-08,-3.45985e-10c-0.943075,-0.00871107 -1.78789,-0.58508 -2.14,-1.46l-5.16796e-08,-1.18229e-07c-0.384068,-0.878644 -0.198303,-1.90233 0.47,-2.59l0.54,-0.54l-0.88,-0.88l-0.55,0.54l-3.7456e-08,3.42134e-08c-0.974585,0.890214 -2.4863,0.821818 -3.37652,-0.152767c-0.38031,-0.416354 -0.601154,-0.953772 -0.623484,-1.51723v-0.770004h-1.3v0.77l9.26906e-08,-1.00372e-05c-0.008707,0.943075 -0.585072,1.78789 -1.45999,2.14001l-2.37057e-08,1.03621e-08c-0.878644,0.384068 -1.90233,0.198303 -2.59,-0.47l-0.54,-0.54l-0.88,0.88l0.54,0.55l-3.62439e-08,-3.96789e-08c0.890214,0.974585 0.821818,2.4863 -0.152767,3.37652c-0.416354,0.38031 -0.953772,0.601154 -1.51723,0.623484h-0.770009v1.26h0.77l1.11516e-07,1.03006e-09c0.943075,0.0087111 1.78789,0.58508 2.14,1.46l5.35551e-08,1.2252e-07c0.384068,0.878644 0.198303,1.90233 -0.47,2.59l-0.54,0.54l0.88,0.88l0.55,-0.54l9.35478e-08,-8.54492e-08c0.974585,-0.890214 2.4863,-0.821817 3.37652,0.152767c0.38031,0.416354 0.601154,0.953772 0.623484,1.51723Z"></path>
        <path d="M12,15.5l-1.5299e-07,-3.55271e-15c-1.933,-8.4494e-08 -3.5,-1.567 -3.5,-3.5c8.4494e-08,-1.933 1.567,-3.5 3.5,-3.5c1.933,8.4494e-08 3.5,1.567 3.5,3.5v0c0,1.933 -1.567,3.5 -3.5,3.5Zm0,-5l-6.55671e-08,1.77636e-15c-0.828427,3.62117e-08 -1.5,0.671573 -1.5,1.5c3.62117e-08,0.828427 0.671573,1.5 1.5,1.5c0.828427,-3.62117e-08 1.5,-0.671573 1.5,-1.5v0c0,-0.828427 -0.671573,-1.5 -1.5,-1.5Z"></path>
    </g>
</svg>