<?xml version="1.0" encoding="UTF-8"?>
<svg version="1.1" viewBox="0 0 24 24" xmlns="http://www.w3.org/2000/svg" xmlns:xlink="http://www.w3.org/1999/xlink">
    <!--Generated by IJSVG (https://github.com/iconjar/IJSVG)-->
    <g fill="#FFF">
        <path opacity="0" d="M0,0h24v24h-24Z"></path>
        <path d="M19.54,5.08l2.37046e-07,2.35375e-07c-2.02549,-2.01121 -4.77591,-3.12148 -7.63,-3.08l1.87174e-07,4.67939e-10c-5.52285,-0.0138072 -10.0112,4.45215 -10.025,9.975c-0.0138072,5.52285 4.45215,10.0112 9.975,10.025l1.32788e-07,2.25852e-09c1.17544,0.0199924 2.21576,-0.757165 2.53,-1.89l8.99432e-08,-3.67335e-07c0.197718,-0.807495 -0.0155456,-1.66055 -0.57,-2.28l-1.70992e-08,-1.94604e-08c-0.182271,-0.207441 -0.161867,-0.523365 0.0455738,-0.705637c0.0897989,-0.0789032 0.204895,-0.123023 0.324426,-0.124363h1.65l-2.0042e-07,-9.37103e-10c3.22144,0.0150625 5.9086,-2.45835 6.16,-5.67l-1.37041e-07,4.2525e-06c0.0751875,-2.33312 -0.814715,-4.59406 -2.46,-6.25Zm-3.66,9.92h-1.65l1.13907e-08,6.44995e-11c-1.37517,-0.00778683 -2.49627,1.10069 -2.50406,2.47586c-0.00349574,0.617353 0.222474,1.21399 0.634059,1.67414l4.66646e-09,4.70847e-09c0.127466,0.128614 0.173611,0.317041 0.12,0.49c-0.05,0.21 -0.28,0.34 -0.59,0.36l3.68114e-07,4.7181e-09c-4.41792,-0.0566241 -7.95344,-3.68395 -7.89682,-8.10187c0.00432349,-0.337327 0.0299799,-0.674042 0.0768155,-1.00813l-2.34901e-07,1.5569e-06c0.588776,-3.90235 3.90425,-6.81236 7.85,-6.89h0.0800016l4.97071e-07,-6.50796e-09c2.2846,-0.0299113 4.48438,0.864428 6.1,2.48l1.3453e-07,1.34615e-07c1.26109,1.26189 1.9481,2.98663 1.9,4.77l1.87723e-07,-1.8548e-06c-0.214422,2.11859 -1.99063,3.73529 -4.12,3.75Z"></path>
        <path d="M13.0607,5.43934c0.585786,0.585786 0.585786,1.53553 0,2.12132c-0.585786,0.585786 -1.53553,0.585786 -2.12132,0c-0.585786,-0.585786 -0.585786,-1.53553 0,-2.12132c0.585786,-0.585786 1.53553,-0.585786 2.12132,0"></path>
        <path d="M15.25,7.2l-4.77946e-08,2.76092e-08c-0.717342,0.414382 -0.962939,1.33183 -0.548556,2.04917c0.414382,0.717342 1.33183,0.962939 2.04917,0.548556c0.716778,-0.414057 0.962649,-1.33049 0.549389,-2.04772l-1.06656e-08,-1.85108e-08c-0.413585,-0.717802 -1.33075,-0.964418 -2.04856,-0.550833c-0.000481368,0.000277356 -0.000962583,0.00055498 -0.00144364,0.000832871Z"></path>
        <path d="M8.75,7.2l3.91671e-08,2.25674e-08c-0.717802,-0.413585 -1.63497,-0.166969 -2.04856,0.550833c-0.413585,0.717802 -0.166969,1.63497 0.550833,2.04856c0.717238,0.41326 1.63367,0.167389 2.04772,-0.549389l5.18768e-09,-8.98044e-09c0.414382,-0.717342 0.168785,-1.63478 -0.548556,-2.04917c-0.00048106,-0.000277891 -0.000962274,-0.000555515 -0.00144364,-0.000832871Z"></path>
        <path d="M6.16,11.26l8.00236e-08,-5.40333e-08c-0.686572,0.463585 -0.867338,1.39597 -0.403753,2.08254c0.463585,0.686572 1.39597,0.867338 2.08254,0.403753c0.686572,-0.463585 0.867338,-1.39597 0.403753,-2.08254c-0.000845614,-0.00125236 -0.00169312,-0.00250344 -0.00254251,-0.00375324l2.8622e-08,4.27286e-08c-0.457974,-0.68369 -1.38347,-0.866669 -2.06716,-0.408695c-0.00429361,0.0028761 -0.00857224,0.00577452 -0.0128357,0.00869515Z"></path>
    </g>
</svg>