<?xml version="1.0" encoding="UTF-8"?>
<svg version="1.1" viewBox="0 0 24 24" xmlns="http://www.w3.org/2000/svg" xmlns:xlink="http://www.w3.org/1999/xlink">
    <!--Generated by IJSVG (https://github.com/iconjar/IJSVG)-->
    <g fill="#FFF">
        <path opacity="0" d="M0,0h24v24h-24Z" transform="matrix(6.12323e-17,-1,1,6.12323e-17,0,24)"></path>
        <path d="M21,7l2.15211e-08,-1.58416e-07c0.00946614,-0.06968 0.00946613,-0.14032 -4.30422e-08,-0.21l7.29376e-09,4.92026e-08c-0.00870327,-0.058711 -0.0255312,-0.115926 -0.05,-0.17l2.99888e-08,5.54711e-08c-0.0264214,-0.0488724 -0.0565074,-0.0956729 -0.0899997,-0.14l1.15278e-10,1.91639e-10c-0.0380474,-0.0632468 -0.0852225,-0.120531 -0.14,-0.17l-0.12,-0.07l-1.37691e-08,-1.02667e-08c-0.0577274,-0.0430433 -0.121837,-0.076785 -0.19,-0.1h-0.2l2.50364e-08,2.42417e-08c-0.0609395,-0.059005 -0.132096,-0.106443 -0.21,-0.14h-5l-4.37114e-08,1.77636e-15c-0.552285,2.41411e-08 -1,0.447715 -1,1c2.41411e-08,0.552285 0.447715,1 1,1h2.83l-4,4.71l-4.32,-2.57l1.37636e-08,8.18615e-09c-0.422713,-0.251416 -0.96549,-0.158126 -1.28,0.22l-5,6l-3.44578e-08,4.13518e-08c-0.353552,0.424287 -0.29621,1.05485 0.128077,1.4084c0.000640201,0.000533469 0.00128107,0.00106614 0.0019226,0.00159801l-2.79483e-09,-2.3159e-09c0.179912,0.149081 0.406348,0.230456 0.64,0.23l-3.8001e-08,-6.17142e-11c0.297432,0.00048304 0.579643,-0.13146 0.77,-0.36l4.45,-5.34l4.27,2.56l-9.68316e-08,-5.74335e-08c0.418104,0.247989 0.95398,0.15938 1.27,-0.21l4.24,-4.95v2.3l1.06581e-14,1.50996e-07c8.33927e-08,0.552285 0.447715,1 1,1c0.552285,-8.33927e-08 1,-0.447715 1,-1v-5Z"></path>
    </g>
</svg>