<?xml version="1.0" encoding="UTF-8"?>
<svg version="1.1" viewBox="0 0 24 24" xmlns="http://www.w3.org/2000/svg" xmlns:xlink="http://www.w3.org/1999/xlink">
    <!--Generated by IJSVG (https://github.com/iconjar/IJSVG)-->
    <g fill="#FFF">
        <path opacity="0" d="M0,0h24v24h-24Z" transform="matrix(6.12323e-17,1,-1,6.12323e-17,24,-7.34788e-16)"></path>
        <path d="M17.71,16.29l-8.29,-8.29h5.58h-4.37114e-08c0.552285,2.41411e-08 1,-0.447715 1,-1c2.41411e-08,-0.552285 -0.447715,-1 -1,-1h-7.95l-4.37114e-08,1.77636e-15c-0.552285,2.41411e-08 -1,0.447715 -1,1c0,0 0,0 0,0v8l1.06581e-14,1.50996e-07c8.33927e-08,0.552285 0.447715,1 1,1h-0.0500002h-4.37114e-08c0.552285,2.41411e-08 1,-0.447715 1,-1v-5.55l8.26,8.26l-3.12092e-08,-3.14662e-08c0.38892,0.392122 1.02208,0.394718 1.4142,0.00579839c0.00194069,-0.00192484 0.00387348,-0.00385763 0.00579832,-0.00579832l2.1693e-08,-2.0616e-08c0.400335,-0.380461 0.416447,-1.01342 0.0359859,-1.41376c-0.00198631,-0.00209007 -0.00398166,-0.00417155 -0.00598597,-0.00624436Z"></path>
    </g>
</svg>