<?xml version="1.0" encoding="UTF-8"?>
<svg version="1.1" viewBox="0 0 24 24" xmlns="http://www.w3.org/2000/svg" xmlns:xlink="http://www.w3.org/1999/xlink">
    <!--Generated by IJSVG (https://github.com/iconjar/IJSVG)-->
    <g fill="#FFF">
        <path opacity="0" d="M0,0h24v24h-24Z"></path>
        <path d="M12,2l-4.37114e-07,1.06581e-14c-5.52285,2.41411e-07 -10,4.47715 -10,10c2.41411e-07,5.52285 4.47715,10 10,10c5.52285,-2.41411e-07 10,-4.47715 10,-10l7.10543e-15,4.37114e-07c0,-5.52285 -4.47715,-10 -10,-10Zm0,18l-3.49691e-07,-7.10543e-15c-4.41828,-1.93129e-07 -8,-3.58172 -8,-8c1.93129e-07,-4.41828 3.58172,-8 8,-8c4.41828,1.93129e-07 8,3.58172 8,8v1.77636e-15c0,4.41828 -3.58172,8 -8,8c0,0 -3.55271e-15,0 -3.55271e-15,0Z"></path>
        <path d="M14.75,8h-5.5l-5.46392e-08,1.77636e-15c-0.690356,3.01764e-08 -1.25,0.559644 -1.25,1.25c0,0 0,0 0,0v5.5l1.24345e-14,1.34106e-07c1.04241e-07,0.690356 0.559644,1.25 1.25,1.25h5.5l-3.97331e-08,3.55271e-15c0.690356,-5.21204e-08 1.25,-0.559644 1.25,-1.25v-5.5v-3.97331e-08c0,-0.690356 -0.559644,-1.25 -1.25,-1.25c-1.16425e-08,0 -2.80906e-08,0 -3.97331e-08,0Zm-0.75,6h-4v-4h4Z"></path>
    </g>
</svg>