<?xml version="1.0" encoding="UTF-8"?>
<svg version="1.1" viewBox="0 0 24 24" xmlns="http://www.w3.org/2000/svg" xmlns:xlink="http://www.w3.org/1999/xlink">
    <!--Generated by IJSVG (https://github.com/iconjar/IJSVG)-->
    <g fill="#FFF">
        <path opacity="0" d="M0,0h24v24h-24Z"></path>
        <path d="M5,2l-1.31134e-07,3.10862e-15c-1.65685,7.24234e-08 -3,1.34315 -3,3c7.24234e-08,1.65685 1.34315,3 3,3c1.65685,-7.24234e-08 3,-1.34315 3,-3v0c0,-1.65685 -1.34315,-3 -3,-3Zm0,4l-4.37114e-08,-8.88178e-16c-0.552285,-2.41411e-08 -1,-0.447715 -1,-1c2.41411e-08,-0.552285 0.447715,-1 1,-1c0.552285,2.41411e-08 1,0.447715 1,1v0c0,0.552285 -0.447715,1 -1,1Z"></path>
        <path d="M12,2l-1.31134e-07,3.10862e-15c-1.65685,7.24234e-08 -3,1.34315 -3,3c7.24234e-08,1.65685 1.34315,3 3,3c1.65685,-7.24234e-08 3,-1.34315 3,-3v0c0,-1.65685 -1.34315,-3 -3,-3Zm0,4l-4.37114e-08,-8.88178e-16c-0.552285,-2.41411e-08 -1,-0.447715 -1,-1c2.41411e-08,-0.552285 0.447715,-1 1,-1c0.552285,2.41411e-08 1,0.447715 1,1v0c0,0.552285 -0.447715,1 -1,1Z"></path>
        <path d="M19,8l-1.31134e-07,-3.55271e-15c1.65685,7.24234e-08 3,-1.34315 3,-3c7.24234e-08,-1.65685 -1.34315,-3 -3,-3c-1.65685,-7.24234e-08 -3,1.34315 -3,3l3.55271e-14,4.52987e-07c2.50178e-07,1.65685 1.34315,3 3,3Zm0,-4l-4.37114e-08,8.88178e-16c0.552285,-2.41411e-08 1,0.447715 1,1c2.41411e-08,0.552285 -0.447715,1 -1,1c-0.552285,2.41411e-08 -1,-0.447715 -1,-1l1.06581e-14,1.50996e-07c-8.33927e-08,-0.552285 0.447715,-1 1,-1Z"></path>
        <path d="M5,9l-1.31134e-07,3.55271e-15c-1.65685,7.24234e-08 -3,1.34315 -3,3c7.24234e-08,1.65685 1.34315,3 3,3c1.65685,-7.24234e-08 3,-1.34315 3,-3v0c0,-1.65685 -1.34315,-3 -3,-3Zm0,4l-4.37114e-08,-1.77636e-15c-0.552285,-2.41411e-08 -1,-0.447715 -1,-1c2.41411e-08,-0.552285 0.447715,-1 1,-1c0.552285,2.41411e-08 1,0.447715 1,1v0c0,0.552285 -0.447715,1 -1,1Z"></path>
        <path d="M12,9l-1.31134e-07,3.55271e-15c-1.65685,7.24234e-08 -3,1.34315 -3,3c7.24234e-08,1.65685 1.34315,3 3,3c1.65685,-7.24234e-08 3,-1.34315 3,-3v0c0,-1.65685 -1.34315,-3 -3,-3Zm0,4l-4.37114e-08,-1.77636e-15c-0.552285,-2.41411e-08 -1,-0.447715 -1,-1c2.41411e-08,-0.552285 0.447715,-1 1,-1c0.552285,2.41411e-08 1,0.447715 1,1v0c0,0.552285 -0.447715,1 -1,1Z"></path>
        <path d="M19,9l-1.31134e-07,3.55271e-15c-1.65685,7.24234e-08 -3,1.34315 -3,3c7.24234e-08,1.65685 1.34315,3 3,3c1.65685,-7.24234e-08 3,-1.34315 3,-3v0c0,-1.65685 -1.34315,-3 -3,-3Zm0,4l-4.37114e-08,-1.77636e-15c-0.552285,-2.41411e-08 -1,-0.447715 -1,-1c2.41411e-08,-0.552285 0.447715,-1 1,-1c0.552285,2.41411e-08 1,0.447715 1,1v0c0,0.552285 -0.447715,1 -1,1Z"></path>
        <path d="M5,16l-1.31134e-07,3.55271e-15c-1.65685,7.24234e-08 -3,1.34315 -3,3c7.24234e-08,1.65685 1.34315,3 3,3c1.65685,-7.24234e-08 3,-1.34315 3,-3v0c0,-1.65685 -1.34315,-3 -3,-3Zm0,4h-4.37114e-08c-0.552285,-2.41411e-08 -1,-0.447715 -1,-1c2.41411e-08,-0.552285 0.447715,-1 1,-1c0.552285,2.41411e-08 1,0.447715 1,1v0c0,0.552285 -0.447715,1 -1,1Z"></path>
        <path d="M12,16l-1.31134e-07,3.55271e-15c-1.65685,7.24234e-08 -3,1.34315 -3,3c7.24234e-08,1.65685 1.34315,3 3,3c1.65685,-7.24234e-08 3,-1.34315 3,-3v0c0,-1.65685 -1.34315,-3 -3,-3Zm0,4h-4.37114e-08c-0.552285,-2.41411e-08 -1,-0.447715 -1,-1c2.41411e-08,-0.552285 0.447715,-1 1,-1c0.552285,2.41411e-08 1,0.447715 1,1v0c0,0.552285 -0.447715,1 -1,1Z"></path>
        <path d="M19,16l-1.31134e-07,3.55271e-15c-1.65685,7.24234e-08 -3,1.34315 -3,3c7.24234e-08,1.65685 1.34315,3 3,3c1.65685,-7.24234e-08 3,-1.34315 3,-3v0c0,-1.65685 -1.34315,-3 -3,-3Zm0,4h-4.37114e-08c-0.552285,-2.41411e-08 -1,-0.447715 -1,-1c2.41411e-08,-0.552285 0.447715,-1 1,-1c0.552285,2.41411e-08 1,0.447715 1,1v0c0,0.552285 -0.447715,1 -1,1Z"></path>
    </g>
</svg>