<?xml version="1.0" encoding="UTF-8"?>
<svg version="1.1" viewBox="0 0 24 24" xmlns="http://www.w3.org/2000/svg" xmlns:xlink="http://www.w3.org/1999/xlink">
    <!--Generated by IJSVG (https://github.com/iconjar/IJSVG)-->
    <g fill="#FFF">
        <path opacity="0" d="M0,0h24v24h-24Z"></path>
        <path d="M20.42,10.18l-7.71,-7.88l-3.03541e-08,-3.0604e-08c-0.38892,-0.392122 -1.02208,-0.394718 -1.4142,-0.00579826c-0.00194069,0.00192484 -0.00387348,0.00385763 -0.00579832,0.00579832l-7.71,7.89l1.29578e-07,-1.30624e-07c-0.376845,0.379885 -0.585747,0.894937 -0.58,1.43v8.38l-2.57609e-08,1.70679e-05c-0.00159987,1.063 0.828624,1.94153 1.89002,1.99998h14.22l8.44016e-08,-4.64975e-09c1.06139,-0.0584726 1.89159,-0.937007 1.88998,-2v-8.38l3.56479e-08,-2.42387e-05c0.000786718,-0.537066 -0.207194,-1.05341 -0.580017,-1.43999Zm-10.42,9.82v-6h4v6Zm9,0h-3v-7v0c0,-0.552285 -0.447715,-1 -1,-1h-6l-4.37114e-08,1.77636e-15c-0.552285,2.41411e-08 -1,0.447715 -1,1c0,0 0,0 0,0v7h-3v-8.42l7,-7.15l7,7.19Z"></path>
    </g>
</svg>