<?xml version="1.0" encoding="UTF-8"?>
<svg version="1.1" viewBox="0 0 24 24" xmlns="http://www.w3.org/2000/svg" xmlns:xlink="http://www.w3.org/1999/xlink">
    <!--Generated by IJSVG (https://github.com/iconjar/IJSVG)-->
    <g fill="#FFF">
        <path opacity="0" d="M0,0h24v24h-24Z" transform="matrix(6.12323e-17,-1,1,6.12323e-17,0,24)"></path>
        <path d="M10.5,17l-1.88533e-08,1.09001e-10c-0.265803,0.00153675 -0.521281,-0.102813 -0.71,-0.29l2.29995e-08,2.28117e-08c-0.392122,-0.38892 -0.394718,-1.02208 -0.00579837,-1.4142c0.00192484,-0.00194069 0.00385763,-0.00387348 0.00579832,-0.00579832l3.31,-3.29l-3.18,-3.31l1.73159e-08,1.74192e-08c-0.387724,-0.390037 -0.387724,-1.01996 -3.46318e-08,-1.41l-3.12092e-08,3.14662e-08c0.38892,-0.392122 1.02208,-0.394718 1.4142,-0.00579839c0.00194069,0.00192484 0.00387348,0.00385763 0.00579832,0.00579832l3.86,4l1.19536e-08,1.21951e-08c0.381143,0.388844 0.381143,1.01116 -2.39072e-08,1.4l-4,4l9.9443e-09,-1.07392e-08c-0.181295,0.195786 -0.433318,0.310997 -0.7,0.32Z"></path>
    </g>
</svg>