<?xml version="1.0" encoding="UTF-8"?>
<svg width="24" height="24" version="1.1" viewBox="0 0 24 24" xmlns="http://www.w3.org/2000/svg" xmlns:xlink="http://www.w3.org/1999/xlink">
    <!--Generated by IJSVG (https://github.com/iconjar/IJSVG)-->
    <g transform="scale(0.991736)">
        <path opacity="0" fill="#FFF" d="M0.1,0.1h24v24h-24Z" transform="matrix(0.999965,0.00837748,-0.00837748,0.999965,0.100004,-0.100004)"></path>
        <path fill="#FFF" d="M12,21.1l-3.6689e-07,-3.12691e-09c-1.99542,-0.0170065 -3.8994,-0.83918 -5.28,-2.28l-3.05136e-07,-3.20109e-07c-2.88474,-3.02629 -2.84044,-7.79779 0.100001,-10.77l4.64,-4.65l-3.83554e-08,4.12896e-08c0.182902,-0.196894 0.44133,-0.306089 0.71,-0.3l-1.39208e-08,-1.93538e-10c0.268706,0.00373577 0.524601,0.115464 0.71,0.31l4.56,4.72l1.86008e-07,1.94776e-07c2.88749,3.0236 2.84762,7.79508 -0.0900004,10.77l-2.07142e-08,2.11479e-08c-1.40632,1.43576 -3.34048,2.23112 -5.35,2.2Zm0.13,-15.57l-3.89,3.92l-1.23133e-07,1.24519e-07c-2.18394,2.20852 -2.21496,5.7536 -0.0699998,8l-6.2355e-07,-6.43203e-07c1.00615,1.03787 2.3846,1.63171 3.83,1.65l3.06007e-07,2.53565e-09c1.4641,0.0121319 2.87082,-0.568593 3.9,-1.61l-3.71294e-10,3.73866e-10c2.19167,-2.20686 2.21833,-5.76052 0.06,-8Z"></path>
    </g>
</svg>