<?xml version="1.0" encoding="UTF-8"?>
<svg version="1.1" viewBox="0 0 24 24" xmlns="http://www.w3.org/2000/svg" xmlns:xlink="http://www.w3.org/1999/xlink">
    <!--Generated by IJSVG (https://github.com/iconjar/IJSVG)-->
    <g fill="#FFF">
        <path opacity="0" d="M0,0h24v24h-24Z"></path>
        <path d="M12,22l-8.47121e-08,2.05535e-09c-3.22914,0.0783477 -5.91276,-2.47109 -6,-5.7v-10.17l-5.38945e-08,2.09549e-06c0.0600292,-2.33404 1.99573,-4.18033 4.33,-4.13l-6.87508e-08,1.64459e-09c2.33813,-0.0559304 4.27999,1.79197 4.34,4.13v10.18l1.13624e-09,-1.85403e-08c-0.0902018,1.47184 -1.35649,2.59188 -2.82832,2.50168c-1.34599,-0.0824891 -2.41919,-1.15569 -2.50168,-2.50168v-9.39l1.06581e-14,1.50996e-07c-8.33927e-08,-0.552285 0.447715,-1 1,-1h-4.37114e-08c0.552285,-2.41411e-08 1,0.447715 1,1v9.39l-6.98555e-09,-5.68587e-08c0.045122,0.367269 0.379431,0.628421 0.746701,0.583299c0.305268,-0.0375046 0.545795,-0.278031 0.583299,-0.583299v-10.18l-3.70018e-08,-7.04132e-07c-0.0646986,-1.23119 -1.10817,-2.18101 -2.34,-2.13l4.6623e-10,1.72342e-11c-1.22801,-0.0453964 -2.2653,0.902858 -2.33,2.13v10.17l-1.07672e-08,-2.63927e-07c0.0866727,2.12453 1.87517,3.77889 4,3.7l5.38456e-08,1.99908e-09c2.12483,0.0788868 3.91333,-1.57547 4,-3.7v-10.17l1.06581e-14,1.50996e-07c-8.33927e-08,-0.552285 0.447715,-1 1,-1c0.552285,-8.33927e-08 1,0.447715 1,1c0,0 0,1.77636e-15 0,1.77636e-15v10.17l2.56776e-07,-9.50368e-06c-0.0872379,3.22891 -2.77085,5.77835 -5.99999,5.70001Z"></path>
    </g>
</svg>