<?xml version="1.0" encoding="UTF-8"?>
<svg version="1.1" viewBox="0 0 24 24" xmlns="http://www.w3.org/2000/svg" xmlns:xlink="http://www.w3.org/1999/xlink">
    <!--Generated by IJSVG (https://github.com/iconjar/IJSVG)-->
    <g fill="#FFF">
        <path opacity="0" d="M0,0h24v24h-24Z" transform="matrix(-1,1.22465e-16,-1.22465e-16,-1,24,24)"></path>
        <path d="M21.71,11.31l-3,-3l6.9121e-08,6.91211e-08c-0.392122,-0.392122 -1.02788,-0.392122 -1.42,-1.38242e-07c-0.392122,0.392122 -0.392122,1.02788 -1.38242e-07,1.42c0,0 0,0 0,0l1.29,1.27h-5.58v-5.59l1.29,1.3l-5.44459e-08,-5.40039e-08c0.188719,0.187187 0.444197,0.291537 0.71,0.29l5.06393e-08,2.92774e-10c0.265803,0.00153675 0.521281,-0.102813 0.71,-0.29l4.18882e-08,-4.15461e-08c0.392122,-0.38892 0.394718,-1.02208 0.00579824,-1.4142c-0.00192484,-0.00194069 -0.00385763,-0.00387348 -0.00579832,-0.00579832l-3,-3l2.8115e-08,2.78867e-08c-0.188719,-0.187186 -0.444197,-0.291537 -0.71,-0.29l-9.37789e-09,3.94849e-11c-0.26234,0.00110462 -0.513739,0.105256 -0.7,0.29l-3,3l2.95364e-08,-2.93284e-08c-0.392122,0.389361 -0.394361,1.02288 -0.00500006,1.415c0.389361,0.392122 1.02288,0.394361 1.415,0.00500006c0,0 1.49621e-08,-1.48568e-08 1.49621e-08,-1.48568e-08l1.29,-1.29v5.58h-5.59l1.3,-1.29l6.9121e-08,-6.91211e-08c0.392122,-0.392122 0.392122,-1.02788 -1.38242e-07,-1.42c-0.392122,-0.392122 -1.02788,-0.392122 -1.42,1.38242e-07l-3,3l-5.31748e-08,5.36101e-08c-0.187186,0.188719 -0.291537,0.444197 -0.29,0.71l-2.30975e-08,3.9964e-06c-0.0015357,0.265803 0.102816,0.521281 0.290003,0.709999l3,3l-7.03611e-08,-6.97892e-08c0.188719,0.187185 0.444196,0.291534 0.709997,0.289997l5.06393e-08,2.92772e-10c0.265803,0.00153675 0.521281,-0.102813 0.71,-0.29l4.18882e-08,-4.15461e-08c0.392122,-0.38892 0.394718,-1.02208 0.00579824,-1.4142c-0.00192484,-0.00194069 -0.00385763,-0.00387348 -0.00579832,-0.00579832l-1.29,-1.29h5.58v5.59l-1.29,-1.3l6.9121e-08,6.91211e-08c-0.392122,-0.392122 -1.02788,-0.392122 -1.42,-1.38242e-07c-0.392122,0.392122 -0.392122,1.02788 -1.38242e-07,1.42c0,0 0,0 0,0l3,3l1.52377e-08,1.51139e-08c0.188719,0.187187 0.444197,0.291537 0.71,0.29l4.11641e-08,-1.73326e-10c0.26234,-0.00110463 0.513739,-0.105256 0.7,-0.29l3,-3l6.9121e-08,-6.91211e-08c0.392122,-0.392122 0.392122,-1.02788 -1.38242e-07,-1.42c-0.392122,-0.392122 -1.02788,-0.392122 -1.42,1.38242e-07l-1.28,1.29v-5.58h5.59l-1.3,1.29l2.29995e-08,-2.28117e-08c-0.392122,0.38892 -0.394718,1.02208 -0.00579837,1.4142c0.00192484,0.00194069 0.00385763,0.00387348 0.00579832,0.00579832l-3.14475e-08,-3.11922e-08c0.188719,0.187187 0.444197,0.291537 0.71,0.29l5.06393e-08,2.92772e-10c0.265803,0.00153675 0.521281,-0.102813 0.71,-0.29l3,-3l-1.49388e-08,1.50611e-08c0.187187,-0.188719 0.291537,-0.444197 0.29,-0.71l3.76315e-08,2.63066e-06c-0.00370276,-0.258868 -0.107658,-0.506212 -0.289998,-0.690001Z"></path>
    </g>
</svg>