<?xml version="1.0" encoding="UTF-8"?>
<svg version="1.1" viewBox="0 0 24 24" xmlns="http://www.w3.org/2000/svg" xmlns:xlink="http://www.w3.org/1999/xlink">
    <!--Generated by IJSVG (https://github.com/iconjar/IJSVG)-->
    <g fill="#FFF">
        <path opacity="0" d="M0,0h24v24h-24Z"></path>
        <path d="M19.36,7h-1.36v-2l7.76841e-08,-1.81666e-06c0.0451986,-1.05699 -0.773163,-1.95137 -1.83,-2h-8.34l3.5405e-08,-1.629e-09c-1.05684,0.0486257 -1.8752,0.943009 -1.83,2v2h-1.36l9.33471e-08,-7.01206e-10c-1.46517,0.0110061 -2.64555,1.2048 -2.64,2.67v6.66l-5.5075e-08,1.45511e-05c-0.00554168,1.4652 1.17485,2.65899 2.64001,2.66999h0.86l2.4869e-14,3.01992e-07c1.66785e-07,1.10457 0.895431,2 2,2h9l-8.74228e-08,-3.55271e-15c1.10457,4.82823e-08 2,-0.89543 2,-2h0.86l4.25844e-08,-3.20124e-10c1.46516,-0.0110143 2.64553,-1.20481 2.63999,-2.67v-6.66l5.44416e-08,-1.43838e-05c0.00554172,-1.4652 -1.17485,-2.65899 -2.64001,-2.66999Zm-11.36,-2h8v2h-8Zm-0.5,14v-4h9v4Zm12.5,-2.67l1.68131e-08,1.0772e-06c0.00562976,0.360712 -0.279409,0.659111 -0.640001,0.669999h-0.86v-2v0c0,-1.10457 -0.895431,-2 -2,-2h-9l-8.74228e-08,1.77636e-15c-1.10457,4.82823e-08 -2,0.895431 -2,2c0,0 0,0 0,0v2h-0.86l-3.02957e-08,-9.14778e-10c-0.360592,-0.0108881 -0.64563,-0.309288 -0.64,-0.67v-6.66l-1.62667e-08,-1.04219e-06c-0.00562977,-0.360713 0.27941,-0.659112 0.640002,-0.669999h14.72l-2.73771e-08,-8.26649e-10c0.360592,0.010888 0.64563,0.309288 0.64,0.67Z"></path>
    </g>
</svg>