<?xml version="1.0" encoding="UTF-8"?>
<svg version="1.1" viewBox="0 0 24 24" xmlns="http://www.w3.org/2000/svg" xmlns:xlink="http://www.w3.org/1999/xlink">
    <!--Generated by IJSVG (https://github.com/iconjar/IJSVG)-->
    <g fill="#FFF">
        <path opacity="0" d="M0,0h24v24h-24Z" transform="matrix(-1,1.22465e-16,-1.22465e-16,-1,24,24)"></path>
        <path d="M5.23,10.64l-6.92126e-08,-8.34835e-08c0.35249,0.42517 0.982908,0.484088 1.40808,0.131598c0.000641532,-0.000531867 0.0012824,-0.00106454 0.0019226,-0.001598l4.36,-3.63v11.86l1.06581e-14,1.50996e-07c8.33927e-08,0.552285 0.447715,1 1,1c0.552285,-8.33927e-08 1,-0.447715 1,-1v-11.86l4.36,3.63l5.90143e-08,4.90508e-08c0.425259,0.353462 1.05654,0.295259 1.41,-0.13c0.353462,-0.425259 0.295259,-1.05654 -0.13,-1.41l-6,-5l-0.15,-0.09l-0.13,-0.07l-4.04499e-08,-1.56085e-08c-0.231675,-0.0893969 -0.488325,-0.0893969 -0.72,-1.61115e-08l-0.13,0.07l-0.15,0.09l-6,5l-1.0924e-07,9.05666e-08c-0.42517,0.35249 -0.484088,0.982908 -0.131598,1.40808c0.000531867,0.000641532 0.00106454,0.0012824 0.00159801,0.0019226Z"></path>
    </g>
</svg>