<?xml version="1.0" encoding="UTF-8"?>
<svg version="1.1" viewBox="0 0 24 24" xmlns="http://www.w3.org/2000/svg" xmlns:xlink="http://www.w3.org/1999/xlink">
    <!--Generated by IJSVG (https://github.com/iconjar/IJSVG)-->
    <g fill="#FFF">
        <path opacity="0" d="M0,0h24v24h-24Z"></path>
        <path d="M14.31,16.38l-1.31,1.26v-5.64v0c0,-0.552285 -0.447715,-1 -1,-1c-0.552285,0 -1,0.447715 -1,1v5.59l-1.29,-1.3l6.9121e-08,6.91211e-08c-0.392122,-0.392122 -1.02788,-0.392122 -1.42,-1.38242e-07c-0.392122,0.392122 -0.392122,1.02788 -1.38242e-07,1.42c0,0 0,0 0,0l3,3l1.52377e-08,1.51139e-08c0.188719,0.187187 0.444197,0.291537 0.71,0.29l-3.82506e-08,1.52326e-10c0.25747,-0.00102532 0.504623,-0.101319 0.69,-0.28l3,-2.9l-5.32072e-08,4.39044e-08c0.425984,-0.351505 0.486362,-0.981785 0.134857,-1.40777c-0.351505,-0.425984 -0.981785,-0.486362 -1.40777,-0.134857c-0.0381873,0.0315106 -0.0739818,0.0658137 -0.107088,0.102626Z"></path>
        <path d="M17.67,7l-2.39243e-08,-6.91243e-08c-1.08382,-3.13145 -4.50097,-4.79139 -7.63242,-3.70758c-1.73904,0.601892 -3.10569,1.96854 -3.70758,3.70758l1.68674e-08,-2.25917e-09c-2.73698,0.366583 -4.65857,2.88252 -4.29199,5.6195c0.131828,0.984251 0.553752,1.90696 1.21199,2.6505l-2.43981e-08,-4.29755e-08c0.272666,0.480283 0.883052,0.648589 1.36334,0.375922c0.480283,-0.272666 0.648589,-0.883052 0.375922,-1.36334c-0.0614661,-0.108268 -0.142609,-0.204107 -0.239257,-0.282587l5.99005e-09,6.69689e-09c-1.10459,-1.23493 -0.998924,-3.13148 0.236006,-4.23607c0.553614,-0.495182 1.27124,-0.767385 2.01399,-0.763929h0.1l-6.10573e-08,-1.23133e-09c0.482761,0.00973573 0.903526,-0.326877 1,-0.8l-1.13331e-07,5.58118e-07c0.439613,-2.16496 2.55103,-3.56362 4.71599,-3.12401c1.57413,0.31964 2.80437,1.54988 3.12401,3.12401l-2.33546e-08,-1.14535e-07c0.0964736,0.473123 0.517239,0.809736 1,0.8h0.0600001l-7.86709e-08,3.66116e-10c1.65684,-0.00771053 3.00622,1.32917 3.01393,2.98601c0.0034566,0.742753 -0.268747,1.46038 -0.763929,2.01399l-1.13459e-07,1.27234e-07c-0.367572,0.412201 -0.331393,1.04433 0.0808075,1.4119c0.0030477,0.00271773 0.00611202,0.00541677 0.00919279,0.00809696l5.1203e-09,4.5157e-09c0.182304,0.160778 0.416928,0.24965 0.66,0.25l1.30319e-08,-1.65041e-11c0.287227,-0.000363721 0.56043,-0.124216 0.75,-0.34l1.12789e-08,-1.23754e-08c1.86011,-2.04095 1.71351,-5.20337 -0.327436,-7.06348c-0.764441,-0.696708 -1.72613,-1.1392 -2.75256,-1.26652Z"></path>
    </g>
</svg>