<?xml version="1.0" encoding="UTF-8"?>
<svg version="1.1" viewBox="0 0 24 24" xmlns="http://www.w3.org/2000/svg" xmlns:xlink="http://www.w3.org/1999/xlink">
    <!--Generated by IJSVG (https://github.com/iconjar/IJSVG)-->
    <g fill="#FFF">
        <path opacity="0" d="M0,0h24v24h-24Z" transform="matrix(6.12323e-17,1,-1,6.12323e-17,24,-7.34788e-16)"></path>
        <path d="M17.56,21l-5.83123e-08,2.34632e-10c-0.159923,0.000643475 -0.317668,-0.0370782 -0.46,-0.11l-5.1,-2.67l-5.1,2.67l5.41262e-08,-2.84616e-08c-0.488823,0.257042 -1.09347,0.0691458 -1.35051,-0.419677c-0.103317,-0.196481 -0.13832,-0.421755 -0.0994924,-0.640323l1,-5.63l-4.12,-4l5.56476e-08,5.55318e-08c-0.261944,-0.261399 -0.358116,-0.646086 -0.25,-1l-4.15933e-08,1.2754e-07c0.118244,-0.362578 0.432423,-0.626333 0.81,-0.68l5.7,-0.83l2.51,-5.13l7.5343e-09,-1.55564e-08c0.240735,-0.497056 0.838834,-0.704845 1.33589,-0.46411c0.202513,0.0980816 0.366029,0.261597 0.46411,0.46411l2.54,5.12l5.7,0.83l9.68763e-08,1.37695e-08c0.377577,0.0536669 0.691756,0.317422 0.81,0.68l-3.1172e-09,-1.02041e-08c0.108116,0.353914 0.0119438,0.738601 -0.25,1l-4.12,4l1,5.63l1.75678e-08,9.22571e-08c0.0728929,0.382797 -0.0832175,0.773073 -0.4,1l8.3254e-09,-5.83418e-09c-0.181082,0.126897 -0.399116,0.190197 -0.62,0.18Zm-5.56,-4.9l-3.63357e-10,9.17311e-12c0.160299,-0.0040475 0.318873,0.0338723 0.46,0.11l3.77,2l-0.72,-4.21l-5.29639e-08,-3.04772e-07c-0.0567204,-0.326388 0.0518813,-0.659683 0.29,-0.89l3,-2.93l-4.2,-0.62l-1.40393e-08,-2.82657e-09c-0.312369,-0.06289 -0.576068,-0.270878 -0.71,-0.56l-1.89,-3.75l-1.89,3.75l4.66621e-08,-9.26798e-08c-0.146841,0.291655 -0.42683,0.493246 -0.75,0.54l-4.2,0.62l3,2.93l5.85128e-09,5.65957e-09c0.238119,0.230317 0.34672,0.563612 0.29,0.89l-0.72,4.16l3.77,-2l5.24075e-09,-1.94833e-09c0.159745,-0.0593875 0.332846,-0.0732356 0.5,-0.04Z"></path>
    </g>
</svg>