<?xml version="1.0" encoding="UTF-8"?>
<svg version="1.1" viewBox="0 0 24 24" xmlns="http://www.w3.org/2000/svg" xmlns:xlink="http://www.w3.org/1999/xlink">
    <!--Generated by IJSVG (https://github.com/iconjar/IJSVG)-->
    <g fill="#FFF">
        <path opacity="0" d="M0,0h24v24h-24Z" transform="matrix(-1,1.22465e-16,-1.22465e-16,-1,24,24)"></path>
        <path d="M20.62,4.22l2.69831e-08,2.18275e-08c-0.235307,-0.190348 -0.544161,-0.263885 -0.84,-0.2l-7.78,1.75l-7.78,-1.77l2.87778e-08,6.49949e-09c-0.538716,-0.121669 -1.07406,0.216414 -1.19573,0.75513c-0.0181388,0.0803131 -0.0262893,0.162559 -0.0242664,0.24487v12.2l-2.54515e-08,1.0414e-06c-0.0116491,0.47666 0.314848,0.895246 0.780001,0.999999l8,1.8h0.44l8,-1.8l2.42878e-09,-5.46969e-10c0.465153,-0.104754 0.79165,-0.52334 0.78,-1v-12.2l1.74354e-08,3.78342e-06c-0.00140162,-0.304272 -0.14126,-0.591353 -0.379997,-0.780001Zm-15.62,2.03l6,1.35v10.15l-6,-1.35Zm14,10.15l-6,1.35v-10.15l6,-1.35Z"></path>
    </g>
</svg>