<?xml version="1.0" encoding="UTF-8"?>
<svg version="1.1" viewBox="0 0 24 24" xmlns="http://www.w3.org/2000/svg" xmlns:xlink="http://www.w3.org/1999/xlink">
    <!--Generated by IJSVG (https://github.com/iconjar/IJSVG)-->
    <g fill="#FFF">
        <path opacity="0" d="M0,0h24v24h-24Z" transform="matrix(6.12323e-17,-1,1,6.12323e-17,0,24)"></path>
        <path d="M19,4h-2h-4.37114e-08c-0.552285,2.41411e-08 -1,0.447715 -1,1c2.41411e-08,0.552285 0.447715,1 1,1h1v12h-1h-4.37114e-08c-0.552285,2.41411e-08 -1,0.447715 -1,1c2.41411e-08,0.552285 0.447715,1 1,1h2h-4.37114e-08c0.552285,2.41411e-08 1,-0.447715 1,-1v-14v0c0,-0.552285 -0.447715,-1 -1,-1Z"></path>
        <path d="M11.8,7.4l1.90071e-08,2.53428e-08c-0.331371,-0.441828 -0.958172,-0.531371 -1.4,-0.2c-0.441828,0.331371 -0.531371,0.958172 -0.2,1.4l1.8,2.4h-8l-4.37114e-08,1.77636e-15c-0.552285,2.41411e-08 -1,0.447715 -1,1c2.41411e-08,0.552285 0.447715,1 1,1h8.09l-1.72,2.44l6.82707e-08,-9.56254e-08c-0.320906,0.449486 -0.216671,1.07401 0.232815,1.39492c0.00238738,0.00170444 0.00478224,0.00339837 0.00718453,0.00508174l-1.73225e-08,-1.20925e-08c0.17,0.118673 0.372682,0.181575 0.58,0.18l-1.79224e-08,8.28742e-11c0.321857,-0.00148831 0.623324,-0.157804 0.81,-0.42l2.82,-4l1.68956e-08,-2.31213e-08c0.256796,-0.35142 0.256796,-0.82858 -3.37912e-08,-1.18Z"></path>
    </g>
</svg>