<?xml version="1.0" encoding="UTF-8"?>
<svg version="1.1" viewBox="0 0 24 24" xmlns="http://www.w3.org/2000/svg" xmlns:xlink="http://www.w3.org/1999/xlink">
    <!--Generated by IJSVG (https://github.com/iconjar/IJSVG)-->
    <g fill="#FFF">
        <path opacity="0" d="M0,0h24v24h-24Z"></path>
        <path d="M18,5h-5l-1.31134e-07,3.55271e-15c-1.65685,7.24234e-08 -3,1.34315 -3,3c0,0 0,1.77636e-15 0,1.77636e-15v8.92l-3.38,-2.7l2.84014e-08,1.88789e-08c-0.459942,-0.305731 -1.08064,-0.180718 -1.38637,0.279224c-0.269613,0.405606 -0.207801,0.946461 0.146375,1.28078l5,4l9.57155e-08,7.56354e-08c0.363445,0.287198 0.876555,0.287197 1.24,-1.51271e-07l5,-4l2.84014e-08,-1.88789e-08c0.459942,-0.305731 0.584955,-0.926432 0.279224,-1.38637c-0.305731,-0.459942 -0.926432,-0.584955 -1.38637,-0.279224c-0.0471951,0.0313714 -0.0916381,0.0666978 -0.132849,0.105598l-3.38,2.7v-8.92l1.06581e-14,1.50996e-07c-8.33927e-08,-0.552285 0.447715,-1 1,-1h5l-4.37114e-08,-8.88178e-16c0.552285,2.41411e-08 1,-0.447715 1,-1c2.41411e-08,-0.552285 -0.447715,-1 -1,-1Z"></path>
    </g>
</svg>