<?xml version="1.0" encoding="UTF-8"?>
<svg version="1.1" viewBox="0 0 24 24" xmlns="http://www.w3.org/2000/svg" xmlns:xlink="http://www.w3.org/1999/xlink">
    <!--Generated by IJSVG (https://github.com/iconjar/IJSVG)-->
    <g fill="#FFF">
        <path opacity="0" d="M0,0h24v24h-24Z" transform="matrix(-1,1.22465e-16,-1.22465e-16,-1,24,24)"></path>
        <path d="M20,5v0c0,-0.552285 -0.447715,-1 -1,-1h-5l-4.37114e-08,8.88178e-16c-0.552285,2.41411e-08 -1,0.447715 -1,1c2.41411e-08,0.552285 0.447715,1 1,1h2.57l-3.28,3.29l2.29995e-08,-2.28117e-08c-0.392122,0.38892 -0.394718,1.02208 -0.00579837,1.4142c0.00192484,0.00194069 0.00385763,0.00387348 0.00579832,0.00579832l-3.12092e-08,-3.14662e-08c0.38892,0.392122 1.02208,0.394718 1.4142,0.00579839c0.00194069,-0.00192484 0.00387348,-0.00385763 0.00579832,-0.00579832l3.29,-3.29v2.58l1.06581e-14,1.50996e-07c8.33927e-08,0.552285 0.447715,1 1,1l-4.37114e-08,-1.77636e-15c0.552285,2.41411e-08 1,-0.447715 1,-1Z"></path>
        <path d="M10.71,13.29l-3.03541e-08,-3.0604e-08c-0.38892,-0.392122 -1.02208,-0.394718 -1.4142,-0.00579826c-0.00194069,0.00192484 -0.00387348,0.00385763 -0.00579832,0.00579832l-3.29,3.28v-2.57v0c0,-0.552285 -0.447715,-1 -1,-1l-4.37114e-08,1.77636e-15c-0.552285,2.41411e-08 -1,0.447715 -1,1c0,0 0,0 0,0v5l1.15463e-14,1.50996e-07c8.33927e-08,0.552285 0.447715,1 1,1h5h-4.37114e-08c0.552285,2.41411e-08 1,-0.447715 1,-1c2.41411e-08,-0.552285 -0.447715,-1 -1,-1h-2.58l3.29,-3.29l4.18882e-08,-4.15461e-08c0.392122,-0.38892 0.394718,-1.02208 0.00579824,-1.4142c-0.00192484,-0.00194069 -0.00385763,-0.00387348 -0.00579832,-0.00579832Z"></path>
    </g>
</svg>