<?xml version="1.0" encoding="UTF-8"?>
<svg version="1.1" viewBox="0 0 24 24" xmlns="http://www.w3.org/2000/svg" xmlns:xlink="http://www.w3.org/1999/xlink">
    <!--Generated by IJSVG (https://github.com/iconjar/IJSVG)-->
    <g fill="#FFF">
        <path opacity="0" d="M0,0h24v24h-24Z" transform="matrix(6.12323e-17,1,-1,6.12323e-17,24,-7.34788e-16)"></path>
        <path d="M14.33,20h-0.21l-1.14804e-07,-1.13912e-08c-0.86859,-0.0861842 -1.58097,-0.725704 -1.76,-1.58l-2.68,-12.42l-2.76,6.4l1.26282e-08,-2.89353e-08c-0.159553,0.365589 -0.521114,0.601389 -0.92,0.6h-3l-4.37114e-08,-1.77636e-15c-0.552285,-2.41411e-08 -1,-0.447715 -1,-1c2.41411e-08,-0.552285 0.447715,-1 1,-1h2.34l2.51,-5.79l2.17782e-08,-5.00797e-08c0.440496,-1.01293 1.61873,-1.47699 2.63167,-1.03649c0.592128,0.257499 1.02351,0.785029 1.15833,1.41649l2.68,12.41l2.76,-6.38l-3.76399e-09,9.16257e-09c0.153404,-0.373426 0.516298,-0.617985 0.92,-0.62h3l-4.37114e-08,1.77636e-15c0.552285,-2.41411e-08 1,0.447715 1,1c2.41411e-08,0.552285 -0.447715,1 -1,1h-2.34l-2.51,5.79l6.23317e-08,-1.44986e-07c-0.313172,0.72845 -1.02711,1.2031 -1.82,1.21Z"></path>
    </g>
</svg>