<?xml version="1.0" encoding="UTF-8"?>
<svg version="1.1" viewBox="0 0 24 24" xmlns="http://www.w3.org/2000/svg" xmlns:xlink="http://www.w3.org/1999/xlink">
    <!--Generated by IJSVG (https://github.com/iconjar/IJSVG)-->
    <g fill="#FFF">
        <path opacity="0" d="M0,0h24v24h-24Z"></path>
        <path d="M13.9,22h-4.37114e-08c-0.21637,-9.45784e-09 -0.426904,-0.0701779 -0.6,-0.2l-4,-3.05l-8.45825e-09,-6.51077e-09c-0.248042,-0.190931 -0.392372,-0.486992 -0.39,-0.8v-3.27l-4.8,-9.22l1.98109e-08,3.82399e-08c-0.254052,-0.490383 -0.0624679,-1.09387 0.427916,-1.34792c0.142777,-0.0739681 0.301285,-0.112415 0.462084,-0.11208h14l-5.04605e-08,-8.80007e-12c0.353067,6.15606e-05 0.679936,0.186301 0.86,0.49l-7.28523e-09,-1.26184e-08c0.178633,0.309401 0.178633,0.690599 1.45705e-08,1l-5,9.21v6.3l1.63372e-08,2.3479e-06c0.00264478,0.380157 -0.210498,0.728934 -0.550002,0.899999l-1.02093e-08,4.95484e-09c-0.127997,0.0621201 -0.267776,0.0962125 -0.41,0.1Zm-3,-4.54l2,1.53v-4.55l-3.11138e-08,-7.60907e-06c-0.000622467,-0.15237 0.0335826,-0.302867 0.100003,-0.439999l4.3,-8h-10.66l4.13,8l3.21918e-08,6.28332e-08c0.0729218,0.142332 0.110643,0.300077 0.11,0.46Z"></path>
    </g>
</svg>