<?xml version="1.0" encoding="UTF-8"?>
<svg version="1.1" viewBox="0 0 24 24" xmlns="http://www.w3.org/2000/svg" xmlns:xlink="http://www.w3.org/1999/xlink">
    <!--Generated by IJSVG (https://github.com/iconjar/IJSVG)-->
    <g fill="#FFF">
        <path opacity="0" d="M0,0h24v24h-24Z"></path>
        <path d="M20.12,6.71l-2.83,-2.83l3.60949e-08,3.61398e-08c-0.562069,-0.56277 -1.32462,-0.8793 -2.12,-0.88h-6.34l1.7191e-07,-1.51335e-10c-0.795381,0.000700163 -1.55793,0.31723 -2.12,0.88l-2.83,2.83l-5.66437e-08,5.65732e-08c-0.56277,0.562069 -0.8793,1.32462 -0.88,2.12v9.17l3.37508e-14,4.52987e-07c2.50178e-07,1.65685 1.34315,3 3,3h12l-1.31134e-07,-3.55271e-15c1.65685,7.24234e-08 3,-1.34315 3,-3v-9.17l8.96204e-08,0.000103843c-0.000672676,-0.795381 -0.317176,-1.55794 -0.879926,-2.12003Zm-12,-1.42l1.44101e-08,-1.37408e-08c0.191634,-0.182734 0.445233,-0.286317 0.71,-0.29h6.34l2.84314e-08,3.95545e-10c0.264767,0.0036835 0.518366,0.107266 0.71,0.29l1.71,1.71h-11.18Zm9.88,13.71h-12h-4.37114e-08c-0.552285,-2.41411e-08 -1,-0.447715 -1,-1c0,0 0,-3.55271e-15 0,-3.55271e-15v-9h14v9v0c0,0.552285 -0.447715,1 -1,1Z"></path>
        <path d="M15,11l-4.37114e-08,1.77636e-15c-0.552285,2.41411e-08 -1,0.447715 -1,1c0,0 0,0 0,0v0c0,1.10457 -0.895431,2 -2,2c-1.10457,0 -2,-0.895431 -2,-2v0c0,-0.552285 -0.447715,-1 -1,-1c-0.552285,0 -1,0.447715 -1,1l4.44089e-14,5.19689e-07c3.33571e-07,2.20914 1.79086,4 4,4c2.20914,-3.33571e-07 4,-1.79086 4,-4v0c0,-0.552285 -0.447715,-1 -1,-1Z"></path>
    </g>
</svg>