<?xml version="1.0" encoding="UTF-8"?>
<svg version="1.1" viewBox="0 0 24 24" xmlns="http://www.w3.org/2000/svg" xmlns:xlink="http://www.w3.org/1999/xlink">
    <!--Generated by IJSVG (https://github.com/iconjar/IJSVG)-->
    <g fill="#FFF">
        <path opacity="0" d="M0,0h24v24h-24Z" transform="matrix(6.12323e-17,-1,1,6.12323e-17,0,24)"></path>
        <path d="M17,12v-0.09l1.77134e-08,3.71348e-07c-0.0045784,-0.0959832 -0.0248466,-0.190569 -0.0599999,-0.28l-7.98817e-10,-2.04897e-09c-0.0267384,-0.0685841 -0.0638362,-0.132662 -0.11,-0.19l2.13977e-08,3.68228e-08c-0.0265218,-0.0456408 -0.0566158,-0.08911 -0.09,-0.13l-2.86,-3l4.49398e-08,4.72193e-08c-0.381076,-0.400406 -1.01459,-0.416077 -1.415,-0.0350001c-0.400406,0.381076 -0.416077,1.01459 -0.0350001,1.415l1.23,1.31h-5.66l-4.37114e-08,1.77636e-15c-0.552285,2.41411e-08 -1,0.447715 -1,1c2.41411e-08,0.552285 0.447715,1 1,1h5.59l-1.3,1.29l2.29995e-08,-2.28117e-08c-0.392122,0.38892 -0.394718,1.02208 -0.00579837,1.4142c0.00192484,0.00194069 0.00385763,0.00387348 0.00579832,0.00579832l-3.12092e-08,-3.14662e-08c0.38892,0.392122 1.02208,0.394718 1.4142,0.00579839c0.00194069,-0.00192484 0.00387348,-0.00385763 0.00579832,-0.00579832l3,-3l-2.07073e-08,2.12136e-08c0.089951,-0.0921504 0.161257,-0.200807 0.21,-0.32l4.01067e-08,-9.41464e-08c0.0525365,-0.123324 0.0797422,-0.255952 0.08,-0.39Z"></path>
        <path d="M12,2l-4.37114e-07,1.06581e-14c-5.52285,2.41411e-07 -10,4.47715 -10,10c2.41411e-07,5.52285 4.47715,10 10,10c5.52285,-2.41411e-07 10,-4.47715 10,-10l7.10543e-15,4.37114e-07c0,-5.52285 -4.47715,-10 -10,-10Zm0,18l-3.49691e-07,-7.10543e-15c-4.41828,-1.93129e-07 -8,-3.58172 -8,-8c1.93129e-07,-4.41828 3.58172,-8 8,-8c4.41828,1.93129e-07 8,3.58172 8,8v1.77636e-15c0,4.41828 -3.58172,8 -8,8c0,0 -3.55271e-15,0 -3.55271e-15,0Z"></path>
    </g>
</svg>