<?xml version="1.0" encoding="UTF-8"?>
<svg version="1.1" viewBox="0 0 24 24" xmlns="http://www.w3.org/2000/svg" xmlns:xlink="http://www.w3.org/1999/xlink">
    <!--Generated by IJSVG (https://github.com/iconjar/IJSVG)-->
    <g fill="#FFF">
        <path opacity="0" d="M0,0h24v24h-24Z"></path>
        <path d="M12,2l1.83621e-07,9.18376e-12c-4.38722,-0.000219467 -7.95613,3.533 -8,7.92c0,5.48 7.05,11.58 7.35,11.84l-8.15401e-08,-6.97442e-08c0.374224,0.320088 0.925776,0.320088 1.3,1.51646e-07c0.35,-0.26 7.35,-6.36 7.35,-11.84l-5.64876e-08,-5.64828e-06c-0.0438753,-4.387 -3.61278,-7.92022 -8.00001,-7.91999Zm0,17.65c-1.67,-1.59 -6,-6 -6,-9.73l6.83897e-14,9.05975e-07c-5.00356e-07,-3.31371 2.68629,-6 6,-6c3.31371,-5.00356e-07 6,2.68629 6,6c0,0 0,5.32907e-15 0,5.32907e-15c0,3.7 -4.33,8.14 -6,9.73Z"></path>
        <path d="M12,6l-1.5299e-07,3.55271e-15c-1.933,8.4494e-08 -3.5,1.567 -3.5,3.5c8.4494e-08,1.933 1.567,3.5 3.5,3.5c1.933,-8.4494e-08 3.5,-1.567 3.5,-3.5l3.55271e-15,1.5299e-07c0,-1.933 -1.567,-3.5 -3.5,-3.5Zm0,5l-6.55671e-08,-1.77636e-15c-0.828427,-3.62117e-08 -1.5,-0.671573 -1.5,-1.5c3.62117e-08,-0.828427 0.671573,-1.5 1.5,-1.5c0.828427,3.62117e-08 1.5,0.671573 1.5,1.5l1.77636e-15,-6.55671e-08c0,0.828427 -0.671573,1.5 -1.5,1.5Z"></path>
    </g>
</svg>