<?xml version="1.0" encoding="UTF-8"?>
<svg version="1.1" viewBox="0 0 24 24" xmlns="http://www.w3.org/2000/svg" xmlns:xlink="http://www.w3.org/1999/xlink">
    <!--Generated by IJSVG (https://github.com/iconjar/IJSVG)-->
    <g fill="#FFF">
        <path opacity="0" d="M0,0h24v24h-24Z" transform="matrix(-1,1.22465e-16,-1.22465e-16,-1,24,24)"></path>
        <path d="M16.45,6.2l1.07749e-08,5.08945e-09c-0.725814,-0.342834 -1.58357,-0.241922 -2.21,0.26l-5.1,4.21l-0.14,0.15v-3.82v0c0,-0.552285 -0.447715,-1 -1,-1c-0.552285,0 -1,0.447715 -1,1v10l1.24345e-14,1.50996e-07c8.33927e-08,0.552285 0.447715,1 1,1c0.552285,-8.33927e-08 1,-0.447715 1,-1v-3.82l0.14,0.15l5.1,4.21l-1.29802e-07,-1.05265e-07c0.36762,0.298126 0.826689,0.460566 1.3,0.46l6.68367e-09,-3.93356e-11c0.314032,-0.00184809 0.624132,-0.070002 0.909999,-0.2l-1.24136e-07,5.47176e-08c0.631438,-0.278329 1.04197,-0.899988 1.05,-1.59v-8.42l7.41081e-08,6.36696e-06c-0.00803013,-0.690012 -0.418557,-1.31167 -1.04999,-1.59Zm-0.95,9.8l-4.82,-4l4.82,-3.91Z"></path>
    </g>
</svg>