<?xml version="1.0" encoding="UTF-8"?>
<svg version="1.1" viewBox="0 0 24 24" xmlns="http://www.w3.org/2000/svg" xmlns:xlink="http://www.w3.org/1999/xlink">
    <!--Generated by IJSVG (https://github.com/iconjar/IJSVG)-->
    <g fill="#FFF">
        <path opacity="0" d="M0,0h24v24h-24Z"></path>
        <path d="M12.3,22h-0.1l4.85074e-08,3.69546e-10c-2.77053,-0.0211069 -5.41597,-1.15641 -7.34,-3.15l3.71841e-07,3.97644e-07c-3.65806,-3.91191 -3.77029,-9.95497 -0.260001,-14l3.6583e-07,-4.0998e-07c1.09188,-1.22366 2.46453,-2.16392 4,-2.74l7.70484e-08,-2.96482e-08c0.36591,-0.140802 0.780345,-0.054787 1.06,0.22l2.20423e-08,2.24777e-08c0.258402,0.263507 0.350661,0.647918 0.24,1l4.62938e-08,-1.26785e-07c-1.11886,3.06424 -0.362478,6.49916 1.94,8.81l-2.40999e-07,-2.3804e-07c2.32327,2.29474 5.75879,3.04954 8.83,1.94l5.15137e-08,-1.81332e-08c0.520952,-0.183379 1.09192,0.0902786 1.2753,0.61123c0.0774255,0.219955 0.0755497,0.460052 -0.00530292,0.67877l2.47357e-07,-6.60336e-07c-0.510838,1.36372 -1.30887,2.60168 -2.34,3.63l5.40298e-07,-5.38685e-07c-1.93724,1.93146 -4.56443,3.01113 -7.3,3Zm-4.84,-17.08l-5.9467e-07,4.17063e-07c-0.502325,0.352298 -0.962067,0.761704 -1.37,1.22l3.47762e-07,-3.985e-07c-2.84939,3.26511 -2.76295,8.15759 0.199999,11.32l-2.43651e-07,-2.53055e-07c1.55265,1.61258 3.69147,2.5287 5.93,2.54h0.08l1.43192e-07,-8.19149e-11c2.69066,-0.00153917 5.21529,-1.30109 6.78,-3.49l7.36449e-07,-9.54262e-08c-5.67971,0.735955 -10.8806,-3.27175 -11.6166,-8.95146c-0.11348,-0.87578 -0.114626,-1.76247 -0.00341049,-2.63854Z"></path>
    </g>
</svg>