<?xml version="1.0" encoding="UTF-8"?>
<svg version="1.1" viewBox="0 0 24 24" xmlns="http://www.w3.org/2000/svg" xmlns:xlink="http://www.w3.org/1999/xlink">
    <!--Generated by IJSVG (https://github.com/iconjar/IJSVG)-->
    <g fill="#FFF">
        <path opacity="0" d="M0,0h24v24h-24Z"></path>
        <path d="M12,21.85l5.89393e-08,-9.22846e-10c-0.349451,0.00547156 -0.694236,-0.0807246 -1,-0.25l-0.3,-0.17l-1.14041e-06,-6.45207e-07c-4.75727,-2.6915 -7.6988,-7.73412 -7.7,-13.2v-0.14l-2.14983e-08,-2.40172e-06c-0.00645282,-0.720935 0.375612,-1.38955 1,-1.75l7,-3.94l-1.00947e-07,5.82819e-08c0.618802,-0.357266 1.3812,-0.357266 2,-1.16564e-07l7,3.94l1.72383e-07,9.95147e-08c0.62439,0.360453 1.00645,1.02906 1,1.75v0.14l-1.76851e-07,0.000182216c-0.00534185,5.47005 -2.95515,10.5136 -7.72016,13.1999l-0.3,0.17l6.51231e-08,-3.60345e-08c-0.299853,0.165918 -0.63731,0.252003 -0.98,0.25Zm0,-17.7l-7,3.94v0.14l-2.92628e-07,-0.000414274c0.0032777,4.74609 2.56376,9.12215 6.69964,11.4502l0.3,0.17l0.3,-0.17l6.08023e-08,-3.42201e-08c4.13603,-2.3278 6.69679,-6.70371 6.70036,-11.4498v-0.14Z"></path>
    </g>
</svg>