<?xml version="1.0" encoding="UTF-8"?>
<svg version="1.1" viewBox="0 0 24 24" xmlns="http://www.w3.org/2000/svg" xmlns:xlink="http://www.w3.org/1999/xlink">
    <!--Generated by IJSVG (https://github.com/iconjar/IJSVG)-->
    <g fill="#FFF">
        <path opacity="0" d="M0,0h24v24h-24Z" transform="matrix(6.12323e-17,1,-1,6.12323e-17,24,-7.34788e-16)"></path>
        <path d="M7,6h-4.37114e-08c0.552285,2.41411e-08 1,-0.447715 1,-1c2.41411e-08,-0.552285 -0.447715,-1 -1,-1h-2l-4.37114e-08,1.77636e-15c-0.552285,2.41411e-08 -1,0.447715 -1,1c0,0 0,0 0,0v14l1.15463e-14,1.50996e-07c8.33927e-08,0.552285 0.447715,1 1,1h2h-4.37114e-08c0.552285,2.41411e-08 1,-0.447715 1,-1c2.41411e-08,-0.552285 -0.447715,-1 -1,-1h-1v-12Z"></path>
        <path d="M20.82,11.42l-2.82,-4l-3.27264e-09,-4.61334e-09c-0.318383,-0.448815 -0.939552,-0.556067 -1.39,-0.24l2.06134e-08,-1.44446e-08c-0.452293,0.316938 -0.56202,0.940523 -0.245082,1.39282c0.00168337,0.00240228 0.0033773,0.00479715 0.00508174,0.00718453l1.72,2.42h-8.09l-4.37114e-08,1.77636e-15c-0.552285,2.41411e-08 -1,0.447715 -1,1c2.41411e-08,0.552285 0.447715,1 1,1h8l-1.8,2.4l5.13133e-08,-6.84178e-08c-0.331371,0.441828 -0.241828,1.06863 0.2,1.4l-7.79577e-08,-5.84683e-08c0.173096,0.129822 0.38363,0.2 0.6,0.2h-4.37114e-08c0.314757,1.37585e-08 0.611146,-0.148194 0.8,-0.4l3,-4l-9.3099e-09,1.22947e-08c0.262797,-0.347052 0.270885,-0.824242 0.02,-1.18Z"></path>
    </g>
</svg>