<?xml version="1.0" encoding="UTF-8"?>
<svg version="1.1" viewBox="0 0 24 24" xmlns="http://www.w3.org/2000/svg" xmlns:xlink="http://www.w3.org/1999/xlink">
    <!--Generated by IJSVG (https://github.com/iconjar/IJSVG)-->
    <g fill="#FFF">
        <path opacity="0" d="M0,0h24v24h-24Z"></path>
        <path d="M12,15.5l-1.88533e-08,1.09001e-10c-0.265803,0.00153675 -0.521281,-0.102813 -0.71,-0.29l-4,-4l-4.23333e-09,-4.23333e-09c-0.392122,-0.392122 -0.392122,-1.02788 8.46667e-09,-1.42c0.392122,-0.392122 1.02788,-0.392122 1.42,8.46666e-09l3.29,3.31l3.3,-3.18l-5.08352e-08,5.65261e-08c0.369306,-0.410648 1.00158,-0.444163 1.41223,-0.0748573c0.410648,0.369306 0.444163,1.00158 0.0748573,1.41223c-0.0331063,0.0368125 -0.0689008,0.0711155 -0.107088,0.102626l-4,3.86l-4.37286e-09,4.216e-09c-0.182875,0.176315 -0.425997,0.276424 -0.68,0.28Z"></path>
    </g>
</svg>