<?xml version="1.0" encoding="UTF-8"?>
<svg version="1.1" viewBox="0 0 24 24" xmlns="http://www.w3.org/2000/svg" xmlns:xlink="http://www.w3.org/1999/xlink">
    <!--Generated by IJSVG (https://github.com/iconjar/IJSVG)-->
    <g fill="#FFF">
        <path opacity="0" d="M0,0h24v24h-24Z"></path>
        <path d="M20.14,4h-9.77l-5.14674e-08,3.06738e-10c-0.740055,0.00441062 -1.45236,0.282211 -2,0.78l-0.1,0.11l-6,7.48l-3.38646e-08,4.2091e-08c-0.332687,0.413503 -0.284402,1.01488 0.11,1.37l6,5.48l2.18141e-08,1.98285e-08c0.547637,0.497789 1.25995,0.775589 2,0.78h9.77l3.60994e-08,1.98323e-10c1.01234,0.00556153 1.83901,-0.807706 1.85,-1.82v-12.36l2.87336e-08,2.65811e-06c-0.0109835,-1.01614 -0.843635,-1.83099 -1.85978,-1.82001c-7.24597e-05,7.83219e-07 -0.000144919,1.57072e-06 -0.000217379,2.3625e-06Zm-0.14,14h-9.63l1.29417e-08,3.37828e-11c-0.247836,-0.000647004 -0.486602,-0.0933024 -0.67,-0.26l-5.33,-4.85l5.38,-6.67l-5.25528e-09,4.21645e-09c0.175939,-0.141161 0.394436,-0.218692 0.62,-0.22h9.63Z"></path>
        <path d="M11.29,14.71l-3.12092e-08,-3.14662e-08c0.38892,0.392122 1.02208,0.394718 1.4142,0.00579839c0.00194069,-0.00192484 0.00387348,-0.00385763 0.00579832,-0.00579832l1.29,-1.3l1.29,1.3l-3.12092e-08,-3.14662e-08c0.38892,0.392122 1.02208,0.394718 1.4142,0.00579839c0.00194069,-0.00192484 0.00387348,-0.00385763 0.00579832,-0.00579832l4.18882e-08,-4.15461e-08c0.392122,-0.38892 0.394718,-1.02208 0.00579824,-1.4142c-0.00192484,-0.00194069 -0.00385763,-0.00387348 -0.00579832,-0.00579832l-1.3,-1.29l1.3,-1.29l6.9121e-08,-6.91211e-08c0.392122,-0.392122 0.392122,-1.02788 -1.38242e-07,-1.42c-0.392122,-0.392122 -1.02788,-0.392122 -1.42,1.38242e-07l-1.29,1.3l-1.29,-1.3l6.9121e-08,6.91211e-08c-0.392122,-0.392122 -1.02788,-0.392122 -1.42,-1.38242e-07c-0.392122,0.392122 -0.392122,1.02788 -1.38242e-07,1.42c0,0 1.77636e-15,0 1.77636e-15,0l1.3,1.29l-1.3,1.29l2.29995e-08,-2.28117e-08c-0.392122,0.38892 -0.394718,1.02208 -0.00579837,1.4142c0.00192484,0.00194069 0.00385763,0.00387348 0.00579832,0.00579832Z"></path>
    </g>
</svg>