<?xml version="1.0" encoding="UTF-8"?>
<svg version="1.1" viewBox="0 0 24 24" xmlns="http://www.w3.org/2000/svg" xmlns:xlink="http://www.w3.org/1999/xlink">
    <!--Generated by IJSVG (https://github.com/iconjar/IJSVG)-->
    <g fill="#FFF">
        <path opacity="0" d="M0,0h24v24h-24Z"></path>
        <path d="M21,6h-5v-1.67l-3.09973e-08,-8.45862e-07c-0.0488455,-1.3329 -1.16697,-2.37499 -2.5,-2.33h-3l-1.04438e-07,-3.52453e-09c-1.33304,-0.0449865 -2.45115,0.9971 -2.5,2.33v1.67h-5h-4.37114e-08c-0.552285,2.41411e-08 -1,0.447715 -1,1c2.41411e-08,0.552285 0.447715,1 1,1h1v11l3.19744e-14,4.52987e-07c2.50178e-07,1.65685 1.34315,3 3,3h10l-1.31134e-07,-3.55271e-15c1.65685,7.24234e-08 3,-1.34315 3,-3v-11h1h-4.37114e-08c0.552285,2.41411e-08 1,-0.447715 1,-1c2.41411e-08,-0.552285 -0.447715,-1 -1,-1Zm-11,-1.67c0,-0.16 0.21,-0.33 0.5,-0.33h3c0.29,0 0.5,0.17 0.5,0.33v1.67h-4Zm8,14.67v0c0,0.552285 -0.447715,1 -1,1h-10h-4.37114e-08c-0.552285,-2.41411e-08 -1,-0.447715 -1,-1c0,0 0,-3.55271e-15 0,-3.55271e-15v-11h12Z"></path>
    </g>
</svg>