<?xml version="1.0" encoding="UTF-8"?>
<svg version="1.1" viewBox="0 0 24 24" xmlns="http://www.w3.org/2000/svg" xmlns:xlink="http://www.w3.org/1999/xlink">
    <!--Generated by IJSVG (https://github.com/iconjar/IJSVG)-->
    <g fill="#FFF">
        <path opacity="0" d="M0,0h24v24h-24Z"></path>
        <path d="M20.71,19.29l-16,-16l6.9121e-08,6.91211e-08c-0.392122,-0.392122 -1.02788,-0.392122 -1.42,-1.38242e-07c-0.392122,0.392122 -0.392122,1.02788 -1.38242e-07,1.42c0,0 0,0 0,0l16,16l-3.12092e-08,-3.14662e-08c0.38892,0.392122 1.02208,0.394718 1.4142,0.00579839c0.00194069,-0.00192484 0.00387348,-0.00385763 0.00579832,-0.00579832l4.18882e-08,-4.15461e-08c0.392122,-0.38892 0.394718,-1.02208 0.00579824,-1.4142c-0.00192484,-0.00194069 -0.00385763,-0.00387348 -0.00579832,-0.00579832Z"></path>
        <path d="M12.54,18.06l0.27,-2.42l-2.81,-2.84h-3.13l1.24,-1.86l-1.44,-1.44l-2.5,3.74l1.83299e-08,-2.71181e-08c-0.30928,0.457563 -0.189073,1.07921 0.268491,1.38849c0.165793,0.112064 0.361395,0.171809 0.561509,0.171507h5.89l-0.77,7.09l-4.92802e-08,4.4136e-07c-0.0511332,0.457957 0.217291,0.891565 0.65,1.05l-9.33873e-09,-3.38953e-09c0.108997,0.039561 0.224045,0.0598636 0.34,0.06l1.56198e-08,2.35367e-11c0.332626,0.000501138 0.64373,-0.164421 0.83,-0.44l3.12,-4.67l-1.44,-1.44Z"></path>
        <path d="M11.46,5.94l-0.27,2.42l2.81,2.84h3.1l-1.24,1.86l1.44,1.44l2.5,-3.74l1.74303e-09,-2.57606e-09c0.309499,-0.457415 0.18959,-1.07912 -0.267825,-1.38862c-0.15749,-0.106562 -0.342097,-0.166012 -0.532175,-0.171378h-5.89l0.77,-7.09l4.85129e-08,-7.74424e-07c0.0275759,-0.440204 -0.23651,-0.846489 -0.650001,-0.999999l-6.0986e-08,-2.21546e-08c-0.430997,-0.15657 -0.913254,6.0814e-05 -1.17,0.38l-3.12,4.62l1.44,1.44Z"></path>
    </g>
</svg>