<?xml version="1.0" encoding="UTF-8"?>
<svg version="1.1" viewBox="0 0 24 24" xmlns="http://www.w3.org/2000/svg" xmlns:xlink="http://www.w3.org/1999/xlink">
    <!--Generated by IJSVG (https://github.com/iconjar/IJSVG)-->
    <g fill="#FFF">
        <path opacity="0" d="M0,0h24v24h-24Z" transform="matrix(-1,1.22465e-16,-1.22465e-16,-1,24,24)"></path>
        <path d="M20,14h-4.3l0.73,-4h3.57l-4.37114e-08,-1.77636e-15c0.552285,2.41411e-08 1,-0.447715 1,-1c2.41411e-08,-0.552285 -0.447715,-1 -1,-1h-3.21l0.69,-3.81l3.27414e-08,-1.60546e-07c0.11036,-0.541146 -0.238861,-1.0693 -0.780007,-1.17966c-0.0198881,-0.00405593 -0.0398951,-0.0075054 -0.0599931,-0.0103436l2.58636e-08,6.16134e-09c-0.53725,-0.127986 -1.07653,0.203788 -1.20452,0.741038c-0.00621817,0.0261021 -0.0113832,0.052444 -0.0154827,0.0789616l-0.75,4.18h-3.88l0.69,-3.81l3.39651e-08,-1.66546e-07c0.11036,-0.541146 -0.238861,-1.0693 -0.780007,-1.17966c-0.0198881,-0.00405593 -0.039895,-0.0075054 -0.0599931,-0.0103436l2.58636e-08,6.16134e-09c-0.53725,-0.127986 -1.07653,0.203788 -1.20452,0.741038c-0.00621817,0.0261021 -0.0113832,0.052444 -0.0154827,0.0789616l-0.75,4.18h-4.67l-4.37114e-08,1.77636e-15c-0.552285,2.41411e-08 -1,0.447715 -1,1c2.41411e-08,0.552285 0.447715,1 1,1h4.3l-0.73,4h-3.57l-4.37114e-08,1.77636e-15c-0.552285,2.41411e-08 -1,0.447715 -1,1c2.41411e-08,0.552285 0.447715,1 1,1h3.21l-0.69,3.81l-1.69265e-08,8.29985e-08c-0.11036,0.541146 0.238861,1.0693 0.780007,1.17966c0.0198881,0.00405593 0.039895,0.0075054 0.059993,0.0103436l5.05761e-09,1.20485e-09c0.53725,0.127986 1.07653,-0.203788 1.20452,-0.741038c0.00621817,-0.0261021 0.0113832,-0.052444 0.0154827,-0.0789616l0.75,-4.18h3.88l-0.69,3.81l-1.57029e-08,7.69985e-08c-0.11036,0.541146 0.238861,1.0693 0.780007,1.17966c0.0198881,0.00405593 0.039895,0.0075054 0.0599931,0.0103436l5.05762e-09,1.20485e-09c0.53725,0.127986 1.07653,-0.203788 1.20452,-0.741038c0.00621817,-0.0261021 0.0113832,-0.052444 0.0154827,-0.0789616l0.75,-4.18h4.67h-4.37114e-08c0.552285,2.41411e-08 1,-0.447715 1,-1c2.41411e-08,-0.552285 -0.447715,-1 -1,-1Zm-10.3,0l0.73,-4h3.87l-0.73,4Z"></path>
    </g>
</svg>