<?xml version="1.0" encoding="UTF-8"?>
<svg version="1.1" viewBox="0 0 24 24" xmlns="http://www.w3.org/2000/svg" xmlns:xlink="http://www.w3.org/1999/xlink">
    <!--Generated by IJSVG (https://github.com/iconjar/IJSVG)-->
    <g fill="#FFF">
        <path opacity="0" d="M0,0h24v24h-24Z"></path>
        <path d="M13,2l9.19265e-08,8.82806e-09c-5.49756,-0.527952 -10.3822,3.50071 -10.9101,8.99826c-0.411875,4.28885 1.96961,8.35932 5.91015,10.1017l-2.05767e-09,-9.30484e-10c1.25823,0.568974 2.61933,0.875221 4,0.9l5.9076e-07,4.85585e-11c2.19798,0.000180628 4.3348,-0.723807 6.08,-2.06l1.07139e-08,-8.16987e-09c0.438563,-0.334425 0.523569,-0.960785 0.19,-1.4l3.14454e-08,4.17615e-08c-0.332211,-0.441197 -0.959181,-0.529548 -1.40038,-0.197337c-0.00322215,0.0024262 -0.00642958,0.00487187 -0.00962214,0.00733688l4.64663e-08,-3.50987e-08c-3.52554,2.66304 -8.54237,1.96385 -11.2054,-1.56169c-2.66304,-3.52554 -1.96385,-8.54237 1.56169,-11.2054c1.58959,-1.20071 3.56997,-1.76515 5.55372,-1.58291l1.21489e-07,1.40612e-08c4.16079,0.481576 7.28341,4.03177 7.23,8.22v0.68l5.00369e-08,-9.99466e-06c-0.00472523,0.944395 -0.774139,1.70615 -1.71853,1.70142c-0.020492,-0.000102531 -0.0409806,-0.000573412 -0.0614557,-0.00141242l-1.29157e-07,-1.41798e-08c-0.949771,-0.104273 -1.65721,-0.925247 -1.62,-1.88v-4.32v0c0,-0.552285 -0.447715,-1 -1,-1l-5.31817e-08,-4.51065e-10c-0.505259,-0.00428538 -0.934332,0.369008 -1,0.87l6.50952e-09,6.13024e-09c-0.930646,-0.876422 -2.16164,-1.36309 -3.44,-1.36l-1.69707e-07,1.27195e-09c-2.81105,0.0210688 -5.07278,2.31696 -5.05171,5.12801c0.0210688,2.81105 2.31696,5.07278 5.12801,5.05171c1.61222,-0.0120836 3.12339,-0.787279 4.07369,-2.08971l1.6433e-07,2.54213e-07c1.07936,1.66974 3.30794,2.14833 4.97768,1.06897c0.205905,-0.133102 0.397673,-0.286891 0.57232,-0.458971l-8.12777e-08,7.73263e-08c0.741034,-0.705008 1.15424,-1.68728 1.14,-2.71v-0.68l3.47776e-07,-3.908e-05c0.0462985,-5.20373 -3.83221,-9.60796 -9.00004,-10.22Zm-1.82,13.09l-1.35068e-07,-3.55271e-15c-1.70656,-7.45961e-08 -3.09,-1.38344 -3.09,-3.09c7.45961e-08,-1.70656 1.38344,-3.09 3.09,-3.09c1.70656,7.45961e-08 3.09,1.38344 3.09,3.09l1.8794e-09,-5.83566e-07c-0.00548855,1.70428 -1.38572,3.08451 -3.09,3.09Z"></path>
    </g>
</svg>