<?xml version="1.0" encoding="UTF-8"?>
<svg version="1.1" viewBox="0 0 24 24" xmlns="http://www.w3.org/2000/svg" xmlns:xlink="http://www.w3.org/1999/xlink">
    <!--Generated by IJSVG (https://github.com/iconjar/IJSVG)-->
    <g fill="#FFF">
        <path opacity="0" d="M0,0h24v24h-24Z" transform="matrix(-1,1.22465e-16,-1.22465e-16,-1,24,24)"></path>
        <path d="M20.41,5.89l-4,-1.8h-0.82l-3.59,1.61l-3.59,-1.61h-0.05l-0.12,-0.09h-0.6l-4,1.8l2.2254e-08,-8.52713e-09c-0.409539,0.156924 -0.669035,0.562388 -0.64,1v12.2l-1.69037e-08,-1.01779e-05c0.000562935,0.339992 0.173833,0.656406 0.459991,0.840005l1.36533e-08,8.81944e-09c0.160955,0.103971 0.348394,0.159509 0.540009,0.160005l2.49953e-08,-1.15776e-10c0.141495,-0.000655385 0.28124,-0.0313311 0.41,-0.09l3.59,-1.61l3.59,1.61h0.05l7.07473e-08,3.30766e-08c0.228148,0.106667 0.491852,0.106667 0.72,-6.61533e-08h0.05l3.59,-1.61l3.59,1.61l5.0362e-08,2.29472e-08c0.12876,0.0586689 0.268505,0.0893446 0.41,0.09l-3.42294e-08,8.87113e-11c0.191612,-0.000496575 0.379046,-0.0560328 0.54,-0.16l-1.02042e-08,6.54685e-09c0.28616,-0.183596 0.459434,-0.500008 0.46,-0.84v-12.2l3.09779e-08,1.49e-05c-0.000813933,-0.392899 -0.23163,-0.748915 -0.589986,-0.910009Zm-15.41,1.55l2,-0.89v10l-2,0.89Zm4,-0.89l2,0.89v10l-2,-0.89Zm4,0.89l2,-0.89v10l-2,0.89Zm6,10l-2,-0.89v-10l2,0.89Z"></path>
    </g>
</svg>