<?xml version="1.0" encoding="UTF-8"?>
<svg version="1.1" viewBox="0 0 24 24" xmlns="http://www.w3.org/2000/svg" xmlns:xlink="http://www.w3.org/1999/xlink">
    <!--Generated by IJSVG (https://github.com/iconjar/IJSVG)-->
    <g fill="#FFF">
        <path opacity="0" d="M0,0h24v24h-24Z"></path>
        <path d="M12,22l-2.18557e-07,-7.10543e-15c-2.76142,-1.20706e-07 -5,-2.23858 -5,-5c6.87924e-08,-1.57379 0.740971,-3.05573 2,-4v-8l3.37508e-14,4.52987e-07c-2.50178e-07,-1.65685 1.34315,-3 3,-3l-1.31134e-07,3.55271e-15c1.65685,-7.24234e-08 3,1.34315 3,3v8l2.78516e-07,2.08887e-07c2.20914,1.65685 2.65685,4.79086 1,7c-0.944272,1.25903 -2.42621,2 -4,2Zm0,-18l-4.37114e-08,1.77636e-15c-0.552285,2.41411e-08 -1,0.447715 -1,1c0,0 0,0 0,0v8.54l1.28507e-08,3.2382e-06c0.00142284,0.358685 -0.189368,0.690658 -0.500003,0.869998l-1.82358e-07,1.05284e-07c-0.925707,0.534454 -1.49712,1.52109 -1.5,2.59l3.37508e-14,4.52987e-07c2.50178e-07,1.65685 1.34315,3 3,3c1.65685,-2.50178e-07 3,-1.34315 3,-3l-1.98362e-08,-7.35928e-06c-0.00288245,-1.06891 -0.574296,-2.05555 -1.50001,-2.59l-8.50097e-08,-4.90793e-08c-0.310634,-0.179341 -0.501424,-0.511315 -0.5,-0.87v-8.54l3.77384e-08,-2.32044e-06c0.00423573,-0.260465 -0.100964,-0.510766 -0.290002,-0.689999l3.12031e-08,3.27406e-08c-0.185398,-0.194533 -0.441289,-0.306261 -0.709992,-0.309998Z"></path>
    </g>
</svg>