<?xml version="1.0" encoding="UTF-8"?>
<svg version="1.1" viewBox="0 0 24 24" xmlns="http://www.w3.org/2000/svg" xmlns:xlink="http://www.w3.org/1999/xlink">
    <!--Generated by IJSVG (https://github.com/iconjar/IJSVG)-->
    <g fill="#FFF">
        <path opacity="0" d="M0,0h24v24h-24Z" transform="matrix(-1,1.22465e-16,-1.22465e-16,-1,24,24)"></path>
        <path d="M18,9.31l1.06581e-14,1.50996e-07c8.33927e-08,0.552285 0.447715,1 1,1l-4.37114e-08,-1.77636e-15c0.552285,2.41411e-08 1,-0.447715 1,-1v-4.31v0c0,-0.552285 -0.447715,-1 -1,-1h-4.3h-4.37114e-08c-0.552285,2.41411e-08 -1,0.447715 -1,1c0,0 0,0 0,0l1.06581e-14,1.50996e-07c8.33927e-08,0.552285 0.447715,1 1,1h1.89l-4.59,4.59l-5.84,-5.83l3.80581e-08,3.25922e-08c-0.419484,-0.359237 -1.05076,-0.310397 -1.41,0.109087c-0.320609,0.374378 -0.320609,0.926536 4.3294e-07,1.30091l5.83,5.83l-6.29,6.29l2.29995e-08,-2.28117e-08c-0.392122,0.38892 -0.394718,1.02208 -0.00579837,1.4142c0.00192484,0.00194069 0.00385763,0.00387348 0.00579832,0.00579832l-3.12092e-08,-3.14662e-08c0.38892,0.392122 1.02208,0.394718 1.4142,0.00579839c0.00194069,-0.00192484 0.00387348,-0.00385763 0.00579832,-0.00579832l12.29,-12.29Z"></path>
        <path d="M19,13.68l-4.37114e-08,1.77636e-15c-0.552285,2.41411e-08 -1,0.447715 -1,1c0,0 0,0 0,0v1.91l-2.78,-2.79l6.91211e-08,6.91211e-08c-0.392122,-0.392122 -1.02788,-0.392122 -1.42,-1.38242e-07c-0.392122,0.392122 -0.392122,1.02788 -1.38242e-07,1.42c0,0 1.77636e-15,0 1.77636e-15,0l2.77,2.78h-1.88h-4.37114e-08c-0.552285,2.41411e-08 -1,0.447715 -1,1c2.41411e-08,0.552285 0.447715,1 1,1h4.31l-4.89241e-08,-2.96996e-10c0.552275,0.00335265 1.0027,-0.441636 1.00605,-0.993911c0.000235424,-0.0387809 -0.00178533,-0.0775427 -0.00605202,-0.116089v-4.21v0c0,-0.552285 -0.447715,-1 -1,-1Z"></path>
    </g>
</svg>