<?xml version="1.0" encoding="UTF-8"?>
<svg version="1.1" viewBox="0 0 24 24" xmlns="http://www.w3.org/2000/svg" xmlns:xlink="http://www.w3.org/1999/xlink">
    <!--Generated by IJSVG (https://github.com/iconjar/IJSVG)-->
    <g fill="#FFF">
        <path opacity="0" d="M0,0h24v24h-24Z"></path>
        <path d="M19.5,20.5h-15l8.18814e-08,-1.00523e-09c-1.36033,0.0167003 -2.47807,-1.06974 -2.5,-2.43v-12.14l-9.6911e-08,6.0119e-06c0.0219256,-1.36026 1.13966,-2.4467 2.49999,-2.43001h4.6l5.42798e-08,3.58956e-10c0.299083,0.00197786 0.58158,0.137723 0.77,0.37l2.6,3.18h7l1.97081e-08,-4.81421e-10c1.36374,-0.0333127 2.49627,1.04521 2.52958,2.40895c0.000171423,0.0070176 0.000312929,0.0140359 0.000424514,0.0210547v8.59l1.00549e-07,-6.23759e-06c-0.0219254,1.36026 -1.13966,2.4467 -2.49999,2.43001Zm-15.5,-6.74v4.31l-1.27752e-09,-2.08137e-08c0.0155641,0.253574 0.233743,0.446519 0.487317,0.430955c0.00423177,-0.000259742 0.00845976,-0.000577977 0.0126827,-0.000954614h15l-2.68409e-08,-2.39388e-09c0.253047,0.0225686 0.476477,-0.164271 0.499045,-0.417317c0.000376637,-0.00422298 0.000694872,-0.00845096 0.000954615,-0.0126827v-8.59l3.32813e-09,5.42226e-08c-0.0155641,-0.253574 -0.233743,-0.446519 -0.487317,-0.430955c-0.00423177,0.000259742 -0.00845976,0.000577976 -0.0126827,0.000954613h-7.5l-2.2494e-08,-1.48756e-10c-0.299083,-0.00197785 -0.58158,-0.137723 -0.77,-0.37l-2.6,-3.18h-4.13l-1.32146e-08,-1.17857e-09c-0.253047,-0.0225686 -0.476477,0.164271 -0.499045,0.417317c-0.000376637,0.00422298 -0.000694872,0.00845096 -0.000954614,0.0126827Z"></path>
    </g>
</svg>