<?xml version="1.0" encoding="UTF-8"?>
<svg version="1.1" viewBox="0 0 24 24" xmlns="http://www.w3.org/2000/svg" xmlns:xlink="http://www.w3.org/1999/xlink">
    <!--Generated by IJSVG (https://github.com/iconjar/IJSVG)-->
    <g fill="#FFF">
        <path opacity="0" d="M0,0h24v24h-24Z"></path>
        <path d="M18,5v-1v0c0,-1.10457 -0.895431,-2 -2,-2h-8h-8.74228e-08c-1.10457,4.82823e-08 -2,0.895431 -2,2c0,0 0,0 0,0v1l-1.31134e-07,3.55271e-15c-1.65685,7.24234e-08 -3,1.34315 -3,3v11l3.37508e-14,-4.52987e-07c-2.50178e-07,1.65685 1.34315,3 3,3h12l-1.31134e-07,-3.55271e-15c1.65685,7.24234e-08 3,-1.34315 3,-3v-11v0c0,-1.65685 -1.34315,-3 -3,-3Zm-10,-1h8v4h-8v-4Zm11,15v0c0,0.552285 -0.447715,1 -1,1h-12h-4.37114e-08c-0.552285,-2.41411e-08 -1,-0.447715 -1,-1c0,0 0,-3.55271e-15 0,-3.55271e-15v-11l1.24345e-14,1.50996e-07c-8.33927e-08,-0.552285 0.447715,-1 1,-1v1l2.4869e-14,3.01992e-07c1.66785e-07,1.10457 0.895431,2 2,2h8l-8.74228e-08,-1.77636e-15c1.10457,4.82823e-08 2,-0.89543 2,-2v-1l-4.37114e-08,8.88178e-16c0.552285,-2.41411e-08 1,0.447715 1,1Z"></path>
    </g>
</svg>