<?xml version="1.0" encoding="UTF-8"?>
<svg version="1.1" viewBox="0 0 24 24" xmlns="http://www.w3.org/2000/svg" xmlns:xlink="http://www.w3.org/1999/xlink">
    <!--Generated by IJSVG (https://github.com/iconjar/IJSVG)-->
    <g fill="#FFF">
        <path opacity="0" d="M0,0h24v24h-24Z" transform="matrix(6.12323e-17,1,-1,6.12323e-17,24,-7.34788e-16)"></path>
        <path d="M8.64,5.23l3.80197e-08,3.16812e-08c-0.424287,-0.353552 -1.05485,-0.29621 -1.4084,0.128077c-0.000533469,0.000640201 -0.00106614,0.00128107 -0.00159801,0.0019226l-5,6l-3.84993e-08,4.68365e-08c-0.303317,0.369002 -0.303317,0.900998 7.69985e-08,1.27l4.83,6l-7.62649e-08,-9.40124e-08c0.19063,0.234991 0.477412,0.371029 0.78,0.37l4.08381e-08,1.39238e-10c0.552282,0.00188304 1.00152,-0.444303 1.0034,-0.996585c0.000786178,-0.23058 -0.078136,-0.454348 -0.223404,-0.633415l-4.33,-5.37l4.48,-5.36l5.48063e-08,-6.57714e-08c0.353552,-0.424287 0.29621,-1.05485 -0.128078,-1.4084c-0.000640201,-0.000533469 -0.00128107,-0.00106614 -0.0019226,-0.00159801Z"></path>
        <path d="M21.78,11.37l-4.78,-6l1.25485e-08,1.56208e-08c-0.345881,-0.430563 -0.975314,-0.499211 -1.40588,-0.15333c-0.00137731,0.00110642 -0.00275168,0.00221649 -0.0041231,0.0033302l7.44792e-08,-5.98308e-08c-0.430563,0.345881 -0.499212,0.975314 -0.15333,1.40588c0.00110642,0.00137731 0.00221649,0.00275168 0.0033302,0.0041231l4.27,5.37l-4.48,5.37l-3.44578e-08,4.13518e-08c-0.353552,0.424287 -0.29621,1.05485 0.128077,1.4084c0.000640201,0.000533469 0.00128107,0.00106614 0.0019226,0.00159801l-1.82298e-08,-1.46302e-08c0.181281,0.145486 0.407582,0.223277 0.64,0.22l-3.8001e-08,-6.17142e-11c0.297432,0.00048304 0.579643,-0.13146 0.77,-0.36l5,-6l1.51235e-08,-1.8105e-08c0.306235,-0.366609 0.310424,-0.898614 0.00999997,-1.27Z"></path>
    </g>
</svg>