<?xml version="1.0" encoding="UTF-8"?>
<svg version="1.1" viewBox="0 0 24 24" xmlns="http://www.w3.org/2000/svg" xmlns:xlink="http://www.w3.org/1999/xlink">
    <!--Generated by IJSVG (https://github.com/iconjar/IJSVG)-->
    <g fill="#FFF">
        <path opacity="0" d="M0,0h24v24h-24Z" transform="matrix(-1,1.22465e-16,-1.22465e-16,-1,24,24)"></path>
        <path d="M18.45,6.2l1.07749e-08,5.08945e-09c-0.725814,-0.342834 -1.58357,-0.241922 -2.21,0.26l-4.74,3.92v-2.59l7.41081e-08,6.36696e-06c-0.00803013,-0.690012 -0.418557,-1.31167 -1.04999,-1.59l1.07749e-08,5.08945e-09c-0.725814,-0.342834 -1.58357,-0.241922 -2.21,0.26l-5.1,4.21l1.26338e-07,-1.00578e-07c-0.734539,0.58477 -0.85595,1.65428 -0.27118,2.38882c0.0798753,0.100333 0.170847,0.191305 0.27118,0.27118l5.1,4.21l-1.29802e-07,-1.05265e-07c0.36762,0.298126 0.826689,0.460566 1.3,0.46l6.68367e-09,-3.93356e-11c0.314032,-0.00184809 0.624132,-0.070002 0.909999,-0.2l-1.24136e-07,5.47176e-08c0.631438,-0.278329 1.04197,-0.899988 1.05,-1.59v-2.59l4.74,3.92l-1.29802e-07,-1.05265e-07c0.36762,0.298126 0.826689,0.460566 1.3,0.46l6.68368e-09,-3.93356e-11c0.314032,-0.00184809 0.624132,-0.070002 0.909999,-0.2l-1.24136e-07,5.47176e-08c0.631438,-0.278329 1.04197,-0.899988 1.05,-1.59v-8.42l7.41081e-08,6.36696e-06c-0.00803013,-0.690012 -0.418557,-1.31167 -1.04999,-1.59Zm-8.95,9.8l-4.82,-4l4.82,-3.91Zm8,0l-4.82,-4l4.82,-3.91Z"></path>
    </g>
</svg>