<?xml version="1.0" encoding="UTF-8"?>
<svg version="1.1" viewBox="0 0 24 24" xmlns="http://www.w3.org/2000/svg" xmlns:xlink="http://www.w3.org/1999/xlink">
    <!--Generated by IJSVG (https://github.com/iconjar/IJSVG)-->
    <g fill="#FFF">
        <path opacity="0" d="M0,0h24v24h-24Z"></path>
        <path d="M12,2l-4.37114e-07,1.06581e-14c-5.52285,2.41411e-07 -10,4.47715 -10,10c2.41411e-07,5.52285 4.47715,10 10,10c5.52285,-2.41411e-07 10,-4.47715 10,-10l7.10543e-15,4.37114e-07c0,-5.52285 -4.47715,-10 -10,-10Zm0,18l-3.49691e-07,-7.10543e-15c-4.41828,-1.93129e-07 -8,-3.58172 -8,-8c1.93129e-07,-4.41828 3.58172,-8 8,-8c4.41828,1.93129e-07 8,3.58172 8,8v1.77636e-15c0,4.41828 -3.58172,8 -8,8c0,0 -3.55271e-15,0 -3.55271e-15,0Z"></path>
        <path d="M14.7,8.39l-3.78,5l-1.63,-2.11l2.88604e-08,3.70728e-08c-0.339655,-0.436305 -0.968695,-0.514655 -1.405,-0.175c-0.436305,0.339655 -0.514655,0.968695 -0.175,1.405c0,0 8.88178e-16,0 8.88178e-16,0l2.43,3.11l-4.4812e-10,-5.67113e-10c0.190822,0.241492 0.48222,0.381658 0.79,0.38l5.28842e-08,-1.27116e-10c0.309497,-0.000743936 0.601207,-0.144753 0.79,-0.39l4.57,-6l2.49241e-08,-3.26873e-08c0.336894,-0.441828 0.251828,-1.07311 -0.19,-1.41c-0.441828,-0.336894 -1.07311,-0.251828 -1.41,0.19c-8.56986e-09,1.12392e-08 -4.28493e-09,5.61958e-09 -1.28548e-08,1.68587e-08Z"></path>
    </g>
</svg>