<?xml version="1.0" encoding="UTF-8"?>
<svg version="1.1" viewBox="0 0 24 24" xmlns="http://www.w3.org/2000/svg" xmlns:xlink="http://www.w3.org/1999/xlink">
    <!--Generated by IJSVG (https://github.com/iconjar/IJSVG)-->
    <g fill="#FFF">
        <path opacity="0" d="M0,0h24v24h-24Z"></path>
        <path d="M9,11l-1.74846e-07,-3.55271e-15c2.20914,9.65645e-08 4,-1.79086 4,-4c9.65645e-08,-2.20914 -1.79086,-4 -4,-4c-2.20914,-9.65645e-08 -4,1.79086 -4,4l4.61853e-14,-6.03983e-07c-3.33571e-07,2.20914 1.79086,4 4,4Zm0,-6l-8.74228e-08,1.77636e-15c1.10457,-4.82823e-08 2,0.89543 2,2c4.82823e-08,1.10457 -0.89543,2 -2,2c-1.10457,4.82823e-08 -2,-0.89543 -2,-2l2.30926e-14,3.01992e-07c-1.66785e-07,-1.10457 0.89543,-2 2,-2Z"></path>
        <path d="M17,13l-1.31134e-07,-3.55271e-15c1.65685,7.24234e-08 3,-1.34315 3,-3c7.24234e-08,-1.65685 -1.34315,-3 -3,-3c-1.65685,-7.24234e-08 -3,1.34315 -3,3l3.37508e-14,4.52987e-07c2.50178e-07,1.65685 1.34315,3 3,3Zm0,-4l-4.37114e-08,1.77636e-15c0.552285,-2.41411e-08 1,0.447715 1,1c2.41411e-08,0.552285 -0.447715,1 -1,1c-0.552285,2.41411e-08 -1,-0.447715 -1,-1l1.06581e-14,1.50996e-07c-8.33927e-08,-0.552285 0.447715,-1 1,-1Z"></path>
        <path d="M17,14l7.82704e-08,-8.66969e-11c-1.10817,0.00122743 -2.18454,0.370569 -3.06,1.05l1.32203e-07,1.31684e-07c-2.73904,-2.72829 -7.17119,-2.71958 -9.89948,0.0194626c-1.30449,1.30963 -2.03802,3.08207 -2.04052,4.93054l1.42109e-14,1.50996e-07c8.33927e-08,0.552285 0.447715,1 1,1c0.552285,-8.33927e-08 1,-0.447715 1,-1l5.68434e-14,7.54979e-07c-4.16963e-07,-2.76142 2.23858,-5 5,-5c2.76142,-4.16963e-07 5,2.23858 5,5c0,0 0,3.55271e-15 0,3.55271e-15l1.06581e-14,1.50996e-07c8.33927e-08,0.552285 0.447715,1 1,1c0.552285,-8.33927e-08 1,-0.447715 1,-1l-9.31397e-08,4.56719e-05c0.00239308,-1.17157 -0.293564,-2.32445 -0.859978,-3.35001l3.30485e-07,-2.61148e-07c1.29998,-1.02724 3.18656,-0.806138 4.2138,0.493841c0.417697,0.528599 0.64531,1.18241 0.646176,1.85612l1.06581e-14,1.50996e-07c8.33927e-08,0.552285 0.447715,1 1,1c0.552285,-8.33927e-08 1,-0.447715 1,-1v0c0,-2.76142 -2.23858,-5 -5,-5Z"></path>
    </g>
</svg>