<?xml version="1.0" encoding="UTF-8"?>
<svg version="1.1" viewBox="0 0 24 24" xmlns="http://www.w3.org/2000/svg" xmlns:xlink="http://www.w3.org/1999/xlink">
    <!--Generated by IJSVG (https://github.com/iconjar/IJSVG)-->
    <g fill="#FFF">
        <path opacity="0" d="M0,0h24v24h-24Z"></path>
        <path d="M8,11l-1.5299e-07,-3.55271e-15c1.933,8.4494e-08 3.5,-1.567 3.5,-3.5c8.4494e-08,-1.933 -1.567,-3.5 -3.5,-3.5c-1.933,-8.4494e-08 -3.5,1.567 -3.5,3.5l3.64153e-14,-3.75495e-07c-2.91874e-07,1.933 1.567,3.5 3.5,3.5c4.74114e-08,7.10543e-15 1.05579e-07,1.42109e-14 1.5299e-07,1.77636e-14Zm0,-5l-6.55671e-08,1.77636e-15c0.828427,-3.62117e-08 1.5,0.671573 1.5,1.5c3.62117e-08,0.828427 -0.671573,1.5 -1.5,1.5c-0.828427,3.62117e-08 -1.5,-0.671573 -1.5,-1.5l1.5099e-14,1.60927e-07c-1.25089e-07,-0.828427 0.671573,-1.5 1.5,-1.5c2.03192e-08,-2.66454e-15 4.52479e-08,-6.21725e-15 6.55671e-08,-7.99361e-15Z"></path>
        <path d="M16,14l-1.5299e-07,3.55271e-15c-1.933,8.4494e-08 -3.5,1.567 -3.5,3.5c8.4494e-08,1.933 1.567,3.5 3.5,3.5c1.933,-8.4494e-08 3.5,-1.567 3.5,-3.5l3.55271e-15,1.5299e-07c0,-1.933 -1.567,-3.5 -3.5,-3.5Zm0,5h-6.55671e-08c-0.828427,-3.62117e-08 -1.5,-0.671573 -1.5,-1.5c3.62117e-08,-0.828427 0.671573,-1.5 1.5,-1.5c0.828427,3.62117e-08 1.5,0.671573 1.5,1.5v-6.55671e-08c0,0.828427 -0.671573,1.5 -1.5,1.5Z"></path>
        <path d="M19.74,4.26l1.58031e-09,1.58371e-09c-0.347193,-0.347939 -0.91071,-0.348544 -1.25865,-0.00135066c-0.000450701,0.000449735 -0.000900919,0.000899953 -0.00135065,0.00135065l-14.22,14.22l-1.95522e-09,1.99537e-09c-0.165003,0.168392 -0.258214,0.394249 -0.26,0.63l-1.84295e-08,1.21897e-05c-0.000739782,0.491533 0.397127,0.890599 0.888659,0.891338c0.236842,0.00035646 0.464058,-0.0937041 0.631349,-0.261359l14.22,-14.22l8.42904e-09,-8.41097e-09c0.347939,-0.347193 0.348544,-0.91071 0.00135064,-1.25865c-0.000449735,-0.000450701 -0.000899953,-0.000900919 -0.00135065,-0.00135065Z"></path>
    </g>
</svg>