<?xml version="1.0" encoding="UTF-8"?>
<svg version="1.1" viewBox="0 0 24 24" xmlns="http://www.w3.org/2000/svg" xmlns:xlink="http://www.w3.org/1999/xlink">
    <!--Generated by IJSVG (https://github.com/iconjar/IJSVG)-->
    <g fill="#FFF">
        <path opacity="0" d="M0,0h24v24h-24Z"></path>
        <path d="M12,8l9.06573e-08,1.35062e-10c-1.65685,-0.00246844 -3.002,1.33867 -3.00447,2.99553c-0.00189913,1.27473 0.80197,2.41146 2.00447,2.83447l-3.87675e-08,4.54439e-07c-0.00482535,0.0565637 -0.00482535,0.113436 1.85782e-08,0.169999v6l1.06581e-14,1.50996e-07c8.33927e-08,0.552285 0.447715,1 1,1c0.552285,-8.33927e-08 1,-0.447715 1,-1v-6l3.32365e-08,-3.89603e-07c0.00482536,-0.0565637 0.00482535,-0.113436 -7.51622e-09,-0.169999l-2.54862e-07,8.96548e-08c1.56297,-0.549816 2.38429,-2.26257 1.83447,-3.82553c-0.423011,-1.2025 -1.55975,-2.00637 -2.83447,-2.00447Zm0,4l-4.37114e-08,-1.77636e-15c-0.552285,-2.41411e-08 -1,-0.447715 -1,-1c2.41411e-08,-0.552285 0.447715,-1 1,-1c0.552285,2.41411e-08 1,0.447715 1,1v0c0,0.552285 -0.447715,1 -1,1Z"></path>
        <path d="M3.5,11l-3.09016e-07,1.14549e-05c0.0553,-2.04998 1.02351,-3.96807 2.63999,-5.23l1.70796e-08,-1.4196e-08c0.425259,-0.353462 0.483462,-0.984741 0.13,-1.41c-0.353462,-0.425259 -0.984741,-0.483462 -1.41,-0.13l-1.49711e-07,1.18219e-07c-2.07686,1.63999 -3.30977,4.12417 -3.35999,6.76999l1.76147e-07,9.27948e-06c0.0502256,2.64583 1.28314,5.13 3.36001,6.77l6.47369e-08,5.38073e-08c0.425259,0.353462 1.05654,0.295259 1.41,-0.13c0.353462,-0.425259 0.295259,-1.05654 -0.13,-1.41c-7.64926e-09,-6.35783e-09 -1.52985e-08,-1.27157e-08 -2.29478e-08,-1.90735e-08l2.64793e-07,2.06714e-07c-1.61649,-1.26193 -2.5847,-3.18002 -2.64001,-5.23001Z"></path>
        <path d="M16.64,6.24l-2.16234e-08,-1.43691e-08c-0.459985,-0.305668 -1.08067,-0.180569 -1.38634,0.279415c-0.25773,0.387846 -0.213638,0.902256 0.106336,1.24058l2.69107e-07,2.10633e-07c1.00045,0.783064 1.60131,1.97012 1.64,3.24l-7.88991e-09,2.58936e-07c-0.0386939,1.26988 -0.63955,2.45694 -1.64,3.24l-2.30766e-08,1.97312e-08c-0.419763,0.358911 -0.469093,0.990152 -0.110182,1.40991c0.18775,0.219582 0.461291,0.347235 0.750182,0.350085l-1.59501e-08,1.59211e-10c0.234901,-0.00234473 0.461478,-0.0873113 0.64,-0.24l-5.14955e-08,4.06072e-08c1.46108,-1.15215 2.32746,-2.89959 2.36,-4.76l8.96036e-08,5.1225e-06c-0.0325419,-1.86041 -0.898917,-3.60785 -2.36,-4.76Z"></path>
        <path d="M8.76,6.36l3.73997e-08,4.38395e-08c-0.355203,-0.416365 -0.979122,-0.469844 -1.4,-0.12l-4.524e-07,3.56744e-07c-1.46108,1.15215 -2.32746,2.89959 -2.36,4.76l-7.90879e-08,-4.52132e-06c0.0325421,1.86041 0.898917,3.60785 2.36,4.76l-9.14845e-08,-7.60442e-08c0.420878,0.349844 1.0448,0.296365 1.4,-0.12l2.80991e-08,-3.38045e-08c0.349844,-0.420878 0.296365,-1.0448 -0.12,-1.4l9.90061e-08,7.74934e-08c-1.00045,-0.783064 -1.6013,-1.97012 -1.64,-3.24l-4.96273e-09,1.6287e-07c0.0386937,-1.26988 0.63955,-2.45694 1.64,-3.24l1.35972e-08,-1.15998e-08c0.416365,-0.355203 0.469844,-0.979122 0.12,-1.4Z"></path>
        <path d="M19.14,4.23l1.93888e-09,1.61154e-09c-0.425259,-0.353462 -1.05654,-0.295259 -1.41,0.13c-0.353462,0.425259 -0.295259,1.05654 0.13,1.41c1.24912e-08,1.03823e-08 1.5614e-08,1.29779e-08 2.81052e-08,2.33602e-08l1.26745e-07,9.89454e-08c1.61648,1.26193 2.5847,3.18002 2.64,5.23l3.28362e-07,-1.21721e-05c-0.0552998,2.04998 -1.02351,3.96807 -2.63999,5.23l5.90143e-08,-4.90508e-08c-0.425259,0.353462 -0.483462,0.984741 -0.13,1.41c0.353462,0.425259 0.984741,0.483462 1.41,0.13l3.0676e-07,-2.42234e-07c2.07686,-1.63999 3.30977,-4.12417 3.35999,-6.76999l-1.58938e-07,-8.37295e-06c-0.0502254,-2.64583 -1.28314,-5.13 -3.36001,-6.77Z"></path>
    </g>
</svg>