<?xml version="1.0" encoding="UTF-8"?>
<svg version="1.1" viewBox="0 0 24 24" xmlns="http://www.w3.org/2000/svg" xmlns:xlink="http://www.w3.org/1999/xlink">
    <!--Generated by IJSVG (https://github.com/iconjar/IJSVG)-->
    <g fill="#FFF">
        <path opacity="0" d="M0,0h24v24h-24Z" transform="matrix(-1,1.22465e-16,-1.22465e-16,-1,24,24)"></path>
        <path d="M6.63,11.61l5.37,-4.32l5.37,4.48l-1.03789e-07,-8.60118e-08c0.177264,0.146901 0.399785,0.228139 0.63,0.23l-3.8001e-08,-6.17142e-11c0.297432,0.00048304 0.579643,-0.13146 0.77,-0.36l5.48063e-08,-6.57714e-08c0.353552,-0.424287 0.29621,-1.05485 -0.128078,-1.4084c-0.000640201,-0.000533469 -0.00128107,-0.00106614 -0.0019226,-0.00159801l-6,-5l-1.30689e-08,-1.07425e-08c-0.369002,-0.303317 -0.900998,-0.303317 -1.27,2.14851e-08l-6,4.83l7.44792e-08,-5.98308e-08c-0.430563,0.345881 -0.499212,0.975314 -0.15333,1.40588c0.00110642,0.00137731 0.00221649,0.00275168 0.0033302,0.0041231l3.32009e-08,4.06803e-08c0.349205,0.427872 0.97915,0.491645 1.40702,0.14244c0.000994241,-0.000811442 0.00198692,-0.0016248 0.00297803,-0.00244006Z"></path>
        <path d="M12.64,12.23l-1.30689e-08,-1.07425e-08c-0.369002,-0.303317 -0.900998,-0.303317 -1.27,2.14851e-08l-6,4.83l7.44792e-08,-5.98308e-08c-0.430563,0.345881 -0.499212,0.975314 -0.15333,1.40588c0.00110642,0.00137731 0.00221649,0.00275168 0.0033302,0.0041231l-6.72991e-08,-8.37759e-08c0.345881,0.430563 0.975314,0.499212 1.40588,0.15333c0.00137731,-0.00110642 0.00275168,-0.00221649 0.0041231,-0.0033302l5.37,-4.33l5.37,4.48l-1.03789e-07,-8.60118e-08c0.177264,0.146901 0.399785,0.228139 0.63,0.23l-3.8001e-08,-6.17142e-11c0.297432,0.00048304 0.579643,-0.13146 0.77,-0.36l5.48063e-08,-6.57714e-08c0.353552,-0.424287 0.29621,-1.05485 -0.128078,-1.4084c-0.000640201,-0.000533469 -0.00128107,-0.00106614 -0.0019226,-0.00159801Z"></path>
    </g>
</svg>