<?xml version="1.0" encoding="UTF-8"?>
<svg version="1.1" viewBox="0 0 24 24" xmlns="http://www.w3.org/2000/svg" xmlns:xlink="http://www.w3.org/1999/xlink">
    <!--Generated by IJSVG (https://github.com/iconjar/IJSVG)-->
    <g fill="#FFF">
        <path opacity="0" d="M0,0h24v24h-24Z"></path>
        <path d="M17,21l2.93278e-08,1.60053e-10c-0.202331,-0.0011042 -0.400119,-0.0600936 -0.57,-0.17l-6.43,-4.4h-5h-4.37114e-08c-0.552285,-2.41411e-08 -1,-0.447715 -1,-1c0,0 0,0 0,0v-6.86l1.24345e-14,1.50996e-07c-8.33927e-08,-0.552285 0.447715,-1 1,-1h5l6.41,-4.4l-5.57502e-08,4.07663e-08c0.445812,-0.325992 1.07148,-0.228858 1.39747,0.216953c0.12987,0.177604 0.197541,0.393082 0.192527,0.613046v16v0c0,0.552285 -0.447715,1 -1,1Zm-11,-6.57h4.33l4.94019e-08,-5.99149e-10c0.202845,-0.00246011 0.401641,0.05683 0.57,0.17l5.1,3.5v-12.2l-5.1,3.5l1.82151e-08,-1.22441e-08c-0.168359,0.11317 -0.367155,0.17246 -0.57,0.17h-4.33Z"></path>
    </g>
</svg>