<?xml version="1.0" encoding="UTF-8"?>
<svg version="1.1" viewBox="0 0 24 24" xmlns="http://www.w3.org/2000/svg" xmlns:xlink="http://www.w3.org/1999/xlink">
    <!--Generated by IJSVG (https://github.com/iconjar/IJSVG)-->
    <g fill="#FFF">
        <path opacity="0" d="M0,0h24v24h-24Z" transform="matrix(6.12323e-17,-1,1,6.12323e-17,0,24)"></path>
        <path d="M4,9h13l-1.6,1.2l-7.79577e-08,5.84683e-08c-0.441828,0.331371 -0.531371,0.958172 -0.2,1.4c0,0 0,0 0,0l5.13133e-08,6.84178e-08c0.188854,0.251806 0.485243,0.4 0.8,0.4l-4.37114e-08,-1.77636e-15c0.21637,9.45784e-09 0.426904,-0.0701779 0.6,-0.2l4,-3l-1.57824e-08,1.20424e-08c0.439066,-0.335021 0.523412,-0.962543 0.188391,-1.40161c-0.054113,-0.0709185 -0.117472,-0.134278 -0.188391,-0.188391l-3.86,-3l2.25706e-08,1.75708e-08c-0.436305,-0.339655 -1.06534,-0.261305 -1.405,0.175c-0.339655,0.436305 -0.261305,1.06534 0.175,1.405l1.57,1.21h-13.08l-4.37114e-08,8.88178e-16c-0.552285,2.41411e-08 -1,0.447715 -1,1c2.41411e-08,0.552285 0.447715,1 1,1Z"></path>
        <path d="M20,16h-13l1.6,-1.2l4.37822e-08,-3.28367e-08c0.441828,-0.331371 0.531371,-0.958172 0.2,-1.4c-0.331371,-0.441828 -0.958172,-0.531371 -1.4,-0.2l-4,3l8.84383e-08,-6.74811e-08c-0.439066,0.335021 -0.523412,0.962543 -0.188391,1.40161c0.054113,0.0709185 0.117472,0.134278 0.188391,0.188391l3.86,3l-7.23376e-09,-5.6141e-09c0.17455,0.135468 0.389051,0.209312 0.61,0.21l5.28842e-08,-1.27116e-10c0.309497,-0.000743936 0.601207,-0.144753 0.79,-0.39l1.90397e-08,-2.44421e-08c0.338063,-0.433986 0.262103,-1.05953 -0.17,-1.4l-1.57,-1.21h13.08h-4.37114e-08c0.552285,2.41411e-08 1,-0.447715 1,-1c2.41411e-08,-0.552285 -0.447715,-1 -1,-1Z"></path>
    </g>
</svg>