<?xml version="1.0" encoding="UTF-8"?>
<svg version="1.1" viewBox="0 0 24 24" xmlns="http://www.w3.org/2000/svg" xmlns:xlink="http://www.w3.org/1999/xlink">
    <!--Generated by IJSVG (https://github.com/iconjar/IJSVG)-->
    <g fill="#FFF">
        <path opacity="0" d="M0,0h24v24h-24Z"></path>
        <path d="M17,8h-1v-1.89v0c0,-2.20914 -1.79086,-4 -4,-4c-2.20914,0 -4,1.79086 -4,4v1.89h-1l-1.31134e-07,3.55271e-15c-1.65685,7.24234e-08 -3,1.34315 -3,3c0,0 0,1.77636e-15 0,1.77636e-15v8l3.37508e-14,4.52987e-07c2.50178e-07,1.65685 1.34315,3 3,3h10l-1.31134e-07,-3.55271e-15c1.65685,7.24234e-08 3,-1.34315 3,-3v-8v0c0,-1.65685 -1.34315,-3 -3,-3Zm-7,-1.89l-3.3909e-08,-1.37314e-06c-0.028004,-1.13404 0.866092,-2.0773 2,-2.11l1.01975e-07,2.9403e-09c1.13391,0.0326945 2.028,0.975965 2,2.11v1.89h-4Zm8,12.89v0c0,0.552285 -0.447715,1 -1,1h-10h-4.37114e-08c-0.552285,-2.41411e-08 -1,-0.447715 -1,-1c0,0 0,-3.55271e-15 0,-3.55271e-15v-8l1.24345e-14,1.50996e-07c-8.33927e-08,-0.552285 0.447715,-1 1,-1h10l-4.37114e-08,1.77636e-15c0.552285,-2.41411e-08 1,0.447715 1,1Z"></path>
        <path d="M12,12l-1.31134e-07,3.55271e-15c-1.65685,7.24234e-08 -3,1.34315 -3,3c7.24234e-08,1.65685 1.34315,3 3,3c1.65685,-7.24234e-08 3,-1.34315 3,-3v0c0,-1.65685 -1.34315,-3 -3,-3Zm0,4l-4.37114e-08,-1.77636e-15c-0.552285,-2.41411e-08 -1,-0.447715 -1,-1c2.41411e-08,-0.552285 0.447715,-1 1,-1c0.552285,2.41411e-08 1,0.447715 1,1v-1.77636e-15c0,0.552285 -0.447715,1 -1,1Z"></path>
    </g>
</svg>