<?xml version="1.0" encoding="UTF-8"?>
<svg version="1.1" viewBox="0 0 24 24" xmlns="http://www.w3.org/2000/svg" xmlns:xlink="http://www.w3.org/1999/xlink">
    <!--Generated by IJSVG (https://github.com/iconjar/IJSVG)-->
    <g fill="#FFF">
        <path opacity="0" d="M0,0h24v24h-24Z"></path>
        <path d="M20.86,10.67l-5.1,-4.21l6.73056e-08,5.39279e-08c-0.626431,-0.501922 -1.48419,-0.602834 -2.21,-0.26l-1.66569e-08,7.34214e-09c-0.631438,0.278329 -1.04197,0.899988 -1.05,1.59v2.59l-4.74,-3.92l6.73056e-08,5.39279e-08c-0.626431,-0.501922 -1.48419,-0.602834 -2.21,-0.26l4.78403e-08,-2.29037e-08c-0.611927,0.292962 -1.00098,0.91156 -1,1.59v8.42l-6.16689e-08,4.29535e-05c-0.000965766,0.678439 0.388105,1.29703 1.00004,1.58998l7.40127e-09,3.36572e-09c0.285867,0.129998 0.595968,0.198152 0.909999,0.2l1.18971e-07,1.42187e-10c0.473311,0.000565662 0.93238,-0.161874 1.3,-0.46l4.74,-3.92v2.59l-7.46778e-08,-6.41591e-06c0.00803012,0.690012 0.418557,1.31167 1.04999,1.59l7.40127e-09,3.36572e-09c0.285867,0.129998 0.595968,0.198152 0.909999,0.2l1.18971e-07,1.42187e-10c0.473311,0.000565662 0.93238,-0.161874 1.3,-0.46l5.1,-4.21l-4.78779e-09,3.81159e-09c0.734539,-0.58477 0.85595,-1.65428 0.27118,-2.38882c-0.0798753,-0.100333 -0.170847,-0.191305 -0.27118,-0.27118Zm-14.36,5.24v-7.91l4.82,4Zm8,0v-7.91l4.82,4Z"></path>
    </g>
</svg>