<?xml version="1.0" encoding="UTF-8"?>
<svg version="1.1" viewBox="0 0 24 24" xmlns="http://www.w3.org/2000/svg" xmlns:xlink="http://www.w3.org/1999/xlink">
    <!--Generated by IJSVG (https://github.com/iconjar/IJSVG)-->
    <g fill="#FFF">
        <path opacity="0" d="M0,0h24v24h-24Z" transform="matrix(-1,1.22465e-16,-1.22465e-16,-1,24,24)"></path>
        <path d="M12,7l-2.18557e-07,5.32907e-15c-2.76142,1.20706e-07 -5,2.23858 -5,5c6.87924e-08,1.57379 0.740971,3.05573 2,4v4l2.30926e-14,3.01992e-07c1.66785e-07,1.10457 0.895431,2 2,2h2l-8.74228e-08,-3.55271e-15c1.10457,4.82823e-08 2,-0.89543 2,-2v-4l2.78516e-07,-2.08887e-07c2.20914,-1.65685 2.65685,-4.79086 1,-7c-0.944272,-1.25903 -2.42621,-2 -4,-2Zm1.5,7.59l-8.50097e-08,4.90793e-08c-0.310634,0.179341 -0.501424,0.511315 -0.5,0.87v4.54h-2v-4.54l1.28507e-08,-3.2382e-06c0.00142284,-0.358685 -0.189368,-0.690658 -0.500003,-0.869998l-1.8263e-07,-1.05441e-07c-0.925707,-0.534454 -1.49712,-1.52109 -1.5,-2.59l3.37508e-14,4.52987e-07c-2.50178e-07,-1.65685 1.34315,-3 3,-3c1.65685,-2.50178e-07 3,1.34315 3,3c0,0 0,1.77636e-15 0,1.77636e-15l-1.98362e-08,7.35928e-06c-0.00288245,1.06891 -0.574296,2.05555 -1.50001,2.59Z"></path>
        <path d="M12,6l-4.37114e-08,-8.88178e-16c0.552285,2.41411e-08 1,-0.447715 1,-1v-2v0c0,-0.552285 -0.447715,-1 -1,-1c-0.552285,0 -1,0.447715 -1,1v2l1.06581e-14,1.50996e-07c8.33927e-08,0.552285 0.447715,1 1,1Z"></path>
        <path d="M21,11h-2l-4.37114e-08,1.77636e-15c-0.552285,2.41411e-08 -1,0.447715 -1,1c2.41411e-08,0.552285 0.447715,1 1,1h2l-4.37114e-08,-1.77636e-15c0.552285,2.41411e-08 1,-0.447715 1,-1c2.41411e-08,-0.552285 -0.447715,-1 -1,-1Z"></path>
        <path d="M5,11h-2l-4.37114e-08,1.77636e-15c-0.552285,2.41411e-08 -1,0.447715 -1,1c2.41411e-08,0.552285 0.447715,1 1,1h2l-4.37114e-08,-1.77636e-15c0.552285,2.41411e-08 1,-0.447715 1,-1c2.41411e-08,-0.552285 -0.447715,-1 -1,-1Z"></path>
        <path d="M7.66,6.42l-1.44,-1.42l-4.16596e-08,-3.93924e-08c-0.405929,-0.383838 -1.04616,-0.365929 -1.43,0.0400001c-0.383838,0.405929 -0.365929,1.04616 0.0400001,1.43c0,0 8.88178e-16,0 8.88178e-16,0l1.44,1.39l-2.61199e-08,-2.52212e-08c0.195251,0.188534 0.458751,0.289602 0.73,0.28l4.13942e-09,-1.57971e-11c0.272188,-0.00103876 0.532191,-0.112985 0.72,-0.31l7.07694e-09,-7.73817e-09c0.37163,-0.406353 0.344807,-1.03669 -0.06,-1.41Z"></path>
        <path d="M19.19,5.05l6.14762e-09,6.11115e-09c-0.390037,-0.387724 -1.01996,-0.387724 -1.41,-1.22223e-08l-1.44,1.37l1.73159e-08,-1.74192e-08c-0.387724,0.390037 -0.387724,1.01996 -3.46318e-08,1.41l4.13682e-08,4.33961e-08c0.187809,0.197015 0.447812,0.308961 0.72,0.31l-3.82506e-08,1.52324e-10c0.25747,-0.00102532 0.504623,-0.101319 0.69,-0.28l1.44,-1.39l4.18882e-08,-4.15461e-08c0.392122,-0.38892 0.394718,-1.02208 0.00579824,-1.4142c-0.00192484,-0.00194069 -0.00385763,-0.00387348 -0.00579832,-0.00579832Z"></path>
    </g>
</svg>