<?xml version="1.0" encoding="UTF-8"?>
<svg version="1.1" viewBox="0 0 24 24" xmlns="http://www.w3.org/2000/svg" xmlns:xlink="http://www.w3.org/1999/xlink">
    <!--Generated by IJSVG (https://github.com/iconjar/IJSVG)-->
    <g fill="#FFF">
        <path opacity="0" d="M0,0h24v24h-24Z"></path>
        <path d="M19,20.75l-2.31,-9l-5.45853e-08,6.79152e-08c0.854066,-1.06263 1.31661,-2.38671 1.31,-3.75v-4.35656e-08c0,-3.31371 -2.68629,-6 -6,-6c-3.31371,0 -6,2.68629 -6,6l-1.32876e-07,6.68073e-05c-0.00272471,1.37381 0.470836,2.7061 1.34004,3.76998l-2.34004,8.97995l2.15052e-08,-8.29258e-08c-0.138638,0.534601 0.182353,1.08037 0.716954,1.21901c0.258696,0.0670877 0.533482,0.0278325 0.763046,-0.109007l5.33,-3.13l5.68,3.14l-6.85835e-08,-4.13872e-08c0.153484,0.0926212 0.330906,0.137846 0.51,0.13l-3.3092e-08,-1.0557e-09c0.552004,0.0176099 1.01377,-0.415602 1.03138,-0.967606c0.0030353,-0.095145 -0.00753036,-0.190236 -0.0313771,-0.282394Zm-7,-16.75l-1.74846e-07,3.55271e-15c2.20914,-9.65645e-08 4,1.79086 4,4c9.65645e-08,2.20914 -1.79086,4 -4,4c-2.20914,9.65645e-08 -4,-1.79086 -4,-4l4.61853e-14,6.03983e-07c-3.33571e-07,-2.20914 1.79086,-4 4,-4Zm0.31,12.71l7.80015e-08,4.50342e-08c-0.309401,-0.178633 -0.690599,-0.178633 -1,-9.00684e-08l-3.75,2.2l1.44,-5.7l-1.91317e-07,-1.09962e-07c1.83275,1.0534 4.08725,1.0534 5.92,2.19924e-07l1.53,5.79Z"></path>
    </g>
</svg>