<?xml version="1.0" encoding="UTF-8"?>
<svg version="1.1" viewBox="0 0 24 24" xmlns="http://www.w3.org/2000/svg" xmlns:xlink="http://www.w3.org/1999/xlink">
    <!--Generated by IJSVG (https://github.com/iconjar/IJSVG)-->
    <g fill="#FFF">
        <path opacity="0" d="M0,0h24v24h-24Z" transform="matrix(-1,1.22465e-16,-1.22465e-16,-1,24,24)"></path>
        <path d="M15,5h-6l-3.0598e-07,7.10543e-15c-3.86599,1.68988e-07 -7,3.13401 -7,7c1.68988e-07,3.86599 3.13401,7 7,7h6l-3.0598e-07,-7.10543e-15c3.86599,1.68988e-07 7,-3.13401 7,-7c1.68988e-07,-3.86599 -3.13401,-7 -7,-7Zm0,12h-6l-2.18557e-07,-7.10543e-15c-2.76142,-1.20706e-07 -5,-2.23858 -5,-5c1.20706e-07,-2.76142 2.23858,-5 5,-5h6l-2.18557e-07,6.21725e-15c2.76142,-1.20706e-07 5,2.23858 5,5c1.20706e-07,2.76142 -2.23858,5 -5,5Z"></path>
        <path d="M9,9l-1.31134e-07,3.55271e-15c-1.65685,7.24234e-08 -3,1.34315 -3,3c7.24234e-08,1.65685 1.34315,3 3,3c1.65685,-7.24234e-08 3,-1.34315 3,-3v0c0,-1.65685 -1.34315,-3 -3,-3Zm0,4l-4.37114e-08,-1.77636e-15c-0.552285,-2.41411e-08 -1,-0.447715 -1,-1c2.41411e-08,-0.552285 0.447715,-1 1,-1c0.552285,2.41411e-08 1,0.447715 1,1v0c0,0.552285 -0.447715,1 -1,1Z"></path>
    </g>
</svg>