<?xml version="1.0" encoding="UTF-8"?>
<svg version="1.1" viewBox="0 0 24 24" xmlns="http://www.w3.org/2000/svg" xmlns:xlink="http://www.w3.org/1999/xlink">
    <!--Generated by IJSVG (https://github.com/iconjar/IJSVG)-->
    <g fill="#FFF">
        <path opacity="0" d="M0,0h24v24h-24Z"></path>
        <path d="M18.77,13.36l5.14579e-08,6.2068e-08c-0.35249,-0.42517 -0.982908,-0.484088 -1.40808,-0.131598c-0.000641532,0.000531867 -0.0012824,0.00106454 -0.0019226,0.00159801l-4.36,3.63v-11.86v0c0,-0.552285 -0.447715,-1 -1,-1c-0.552285,0 -1,0.447715 -1,1v11.86l-4.36,-3.63l5.63428e-09,4.68304e-09c-0.425259,-0.353462 -1.05654,-0.295259 -1.41,0.13c-0.353462,0.425259 -0.295259,1.05654 0.13,1.41c7.64926e-09,6.35783e-09 1.52985e-08,1.27157e-08 2.29478e-08,1.90735e-08l6,5l0.15,0.09l0.13,0.07l7.01052e-08,2.70516e-08c0.231675,0.0893969 0.488325,0.0893969 0.72,-6.77482e-09l0.13,-0.07l0.15,-0.09l6,-5l4.1939e-08,-3.47699e-08c0.42517,-0.35249 0.484088,-0.982908 0.131598,-1.40808c-0.000531867,-0.000641532 -0.00106454,-0.0012824 -0.00159801,-0.0019226Z"></path>
    </g>
</svg>