<?xml version="1.0" encoding="UTF-8"?>
<svg width="24" height="24" version="1.1" viewBox="0 0 24 24" xmlns="http://www.w3.org/2000/svg" xmlns:xlink="http://www.w3.org/1999/xlink">
    <!--Generated by IJSVG (https://github.com/iconjar/IJSVG)-->
    <g transform="scale(0.995851)">
        <path opacity="0" fill="#FFF" d="M0.05,0.05h24v24h-24Z" transform="matrix(0.00418878,-0.999991,0.999991,0.00418878,-0.0503691,24.0494)"></path>
        <path fill="#FFF" d="M20,6v0c0,-0.552285 -0.447715,-1 -1,-1h-4.37114e-08c-0.552285,2.41411e-08 -1,0.447715 -1,1c0,0 0,0 0,0v5l2.3561e-08,4.07662e-06c0.00153568,0.265803 -0.102816,0.521281 -0.290003,0.709999l-8.48745e-09,8.41846e-09c-0.188719,0.187185 -0.444196,0.291534 -0.709997,0.289997h-8.92l2.69,-3.39l-1.15357e-08,2.98359e-08c0.199166,-0.515123 -0.0569675,-1.09417 -0.57209,-1.29333c-0.316434,-0.122346 -0.673318,-0.0759108 -0.94791,0.123334l-4,5l-3.81174e-08,4.76086e-08c-0.2925,0.365333 -0.2925,0.884667 7.62348e-08,1.25l4,5l-7.62649e-08,-9.40124e-08c0.19063,0.234991 0.477412,0.371029 0.78,0.37l4.63976e-08,-2.69132e-10c0.225564,-0.00130841 0.444061,-0.0788394 0.62,-0.22l-3.23032e-09,2.59499e-09c0.430563,-0.345881 0.499211,-0.975314 0.15333,-1.40588c-0.00110642,-0.00137731 -0.00221649,-0.00275168 -0.0033302,-0.0041231l-2.66,-3.36h8.92l-1.31134e-07,-3.55271e-15c1.65685,7.24234e-08 3,-1.34315 3,-3Z"></path>
    </g>
</svg>