<?xml version="1.0" encoding="UTF-8"?>
<svg version="1.1" viewBox="0 0 24 24" xmlns="http://www.w3.org/2000/svg" xmlns:xlink="http://www.w3.org/1999/xlink">
    <!--Generated by IJSVG (https://github.com/iconjar/IJSVG)-->
    <g fill="#FFF">
        <path opacity="0" d="M0,0h24v24h-24Z"></path>
        <path d="M21.87,11.5c-0.64,-1.11 -4.16,-6.68 -10.14,-6.5c-5.53,0.14 -8.73,5 -9.6,6.5l2.31785e-08,-4.01463e-08c-0.178633,0.309401 -0.178633,0.690599 -4.6357e-08,1c0.63,1.09 4,6.5 9.89,6.5h0.25c5.53,-0.14 8.74,-5 9.6,-6.5l-7.28523e-09,1.26184e-08c0.178633,-0.309401 0.178633,-0.690599 1.45705e-08,-1Zm-9.65,5.5c-4.31,0.1 -7.12,-3.59 -8,-5c1,-1.61 3.61,-4.9 7.61,-5c4.29,-0.11 7.11,3.59 8,5c-1.03,1.61 -3.61,4.9 -7.61,5Z"></path>
        <path d="M12,8.5l-1.5299e-07,3.55271e-15c-1.933,8.4494e-08 -3.5,1.567 -3.5,3.5c8.4494e-08,1.933 1.567,3.5 3.5,3.5c1.933,-8.4494e-08 3.5,-1.567 3.5,-3.5l3.55271e-15,1.5299e-07c0,-1.933 -1.567,-3.5 -3.5,-3.5Zm0,5l-6.55671e-08,-1.77636e-15c-0.828427,-3.62117e-08 -1.5,-0.671573 -1.5,-1.5c3.62117e-08,-0.828427 0.671573,-1.5 1.5,-1.5c0.828427,3.62117e-08 1.5,0.671573 1.5,1.5v0c0,0.828427 -0.671573,1.5 -1.5,1.5Z"></path>
    </g>
</svg>