<?xml version="1.0" encoding="UTF-8"?>
<svg version="1.1" viewBox="0 0 24 24" xmlns="http://www.w3.org/2000/svg" xmlns:xlink="http://www.w3.org/1999/xlink">
    <!--Generated by IJSVG (https://github.com/iconjar/IJSVG)-->
    <g fill="#FFF">
        <path opacity="0" d="M0,0h24v24h-24Z"></path>
        <path d="M12.71,7.29l3.25868e-08,3.1809e-08c-0.0921504,-0.089951 -0.200807,-0.161257 -0.32,-0.21l4.07425e-08,1.73565e-08c-0.123324,-0.0525365 -0.255952,-0.0797423 -0.39,-0.08h-0.1l3.74186e-08,-1.84281e-09c-0.0927481,0.00456771 -0.184047,0.0248563 -0.27,0.06l8.61258e-09,-3.35773e-09c-0.0685841,0.0267384 -0.132662,0.0638362 -0.19,0.11l-1.04041e-07,6.04583e-08c-0.0456408,0.0265218 -0.08911,0.0566159 -0.13,0.09l-3,2.86l1.55286e-08,-1.47789e-08c-0.400406,0.381076 -0.416076,1.01459 -0.035,1.415c0.381076,0.400406 1.01459,0.416076 1.415,0.035l1.31,-1.23v5.66l1.06581e-14,1.50996e-07c8.33927e-08,0.552285 0.447715,1 1,1c0.552285,-8.33927e-08 1,-0.447715 1,-1v-5.59l1.29,1.3l-3.12092e-08,-3.14662e-08c0.38892,0.392122 1.02208,0.394718 1.4142,0.00579839c0.00194069,-0.00192484 0.00387348,-0.00385763 0.00579832,-0.00579832l4.18882e-08,-4.15461e-08c0.392122,-0.38892 0.394718,-1.02208 0.00579824,-1.4142c-0.00192484,-0.00194069 -0.00385763,-0.00387348 -0.00579832,-0.00579832Z"></path>
        <path d="M12,2l-4.37114e-07,1.06581e-14c-5.52285,2.41411e-07 -10,4.47715 -10,10c2.41411e-07,5.52285 4.47715,10 10,10c5.52285,-2.41411e-07 10,-4.47715 10,-10l7.10543e-15,4.37114e-07c0,-5.52285 -4.47715,-10 -10,-10Zm0,18l-3.49691e-07,-7.10543e-15c-4.41828,-1.93129e-07 -8,-3.58172 -8,-8c1.93129e-07,-4.41828 3.58172,-8 8,-8c4.41828,1.93129e-07 8,3.58172 8,8v1.77636e-15c0,4.41828 -3.58172,8 -8,8c0,0 -3.55271e-15,0 -3.55271e-15,0Z"></path>
    </g>
</svg>