<?xml version="1.0" encoding="UTF-8"?>
<svg version="1.1" viewBox="0 0 24 24" xmlns="http://www.w3.org/2000/svg" xmlns:xlink="http://www.w3.org/1999/xlink">
    <!--Generated by IJSVG (https://github.com/iconjar/IJSVG)-->
    <g fill="#FFF">
        <path opacity="0" d="M0,0h24v24h-24Z"></path>
        <path d="M20,20l4.18342e-08,-4.78288e-10c-0.196601,0.00224773 -0.388957,-0.0572079 -0.55,-0.17l-7.45,-4.93l-7.45,4.93l-1.27136e-08,8.19384e-09c-0.464223,0.299191 -1.08309,0.165405 -1.38228,-0.298819c-0.189732,-0.294387 -0.211625,-0.66658 -0.0577165,-0.981182l8,-16l-4.88571e-08,9.53654e-08c0.25182,-0.491533 0.854427,-0.68586 1.34596,-0.43404c0.186604,0.0956002 0.338439,0.247435 0.43404,0.43404l8,16l1.22242e-08,2.41935e-08c0.205027,0.405777 0.110533,0.898788 -0.23,1.2l4.67752e-08,-4.1252e-08c-0.182304,0.160778 -0.416928,0.24965 -0.66,0.25Zm-8,-7.3l4.26453e-08,3.33017e-10c0.196033,0.00153083 0.387293,0.0606475 0.55,0.17l4.88,3.23l-5.43,-10.86l-5.43,10.86l4.88,-3.23l1.22433e-07,-8.2285e-08c0.162707,-0.109352 0.353967,-0.168469 0.55,-0.17Z"></path>
    </g>
</svg>