<?xml version="1.0" encoding="UTF-8"?>
<svg version="1.1" viewBox="0 0 24 24" xmlns="http://www.w3.org/2000/svg" xmlns:xlink="http://www.w3.org/1999/xlink">
    <!--Generated by IJSVG (https://github.com/iconjar/IJSVG)-->
    <g fill="#FFF">
        <path opacity="0" d="M0,0h24v24h-24Z" transform="matrix(-1,1.22465e-16,-1.22465e-16,-1,24,24)"></path>
        <path d="M16,14.5l-1.88533e-08,1.09001e-10c-0.265803,0.00153675 -0.521281,-0.102813 -0.71,-0.29l-3.29,-3.31l-3.3,3.18l6.14762e-09,-6.11115e-09c-0.390037,0.387724 -1.01996,0.387724 -1.41,1.22223e-08l2.29995e-08,2.28117e-08c-0.392122,-0.38892 -0.394718,-1.02208 -0.00579837,-1.4142c0.00192484,-0.00194069 0.00385763,-0.00387348 0.00579832,-0.00579832l4,-3.86l2.35452e-08,-2.30789e-08c0.388844,-0.381143 1.01116,-0.381143 1.4,4.61578e-08l4,4l4.18882e-08,4.15461e-08c0.392122,0.38892 0.394718,1.02208 0.00579824,1.4142c-0.00192484,0.00194069 -0.00385763,0.00387348 -0.00579832,0.00579832l1.8485e-08,-1.78172e-08c-0.185377,0.178681 -0.43253,0.278975 -0.69,0.28Z"></path>
    </g>
</svg>