<?xml version="1.0" encoding="UTF-8"?>
<svg version="1.1" viewBox="0 0 24 24" xmlns="http://www.w3.org/2000/svg" xmlns:xlink="http://www.w3.org/1999/xlink">
    <!--Generated by IJSVG (https://github.com/iconjar/IJSVG)-->
    <g fill="#FFF">
        <path opacity="0" d="M0,0h24v24h-24Z"></path>
        <path d="M21.6,11.22l-4.6,-3.7v-2.52l7.21122e-08,-1.48723e-06c0.0509879,-1.05157 -0.758572,-1.94611 -1.81,-2h-11.4l2.25624e-08,-1.39305e-09c-1.04347,0.0644265 -1.84125,0.955797 -1.79,2v10l-5.97968e-08,2.55853e-06c-0.0189826,0.812233 0.455278,1.55524 1.2,1.88l-1.30159e-07,3.18424e-07c-0.626906,1.53367 0.108175,3.28517 1.64185,3.91208c1.53367,0.626906 3.28517,-0.108175 3.91208,-1.64185c0.280579,-0.686415 0.296994,-1.45242 0.0460761,-2.15023h6.36l1.21436e-07,-3.34579e-07c-0.565277,1.55744 0.239033,3.27825 1.79648,3.84352c1.55744,0.565277 3.27825,-0.239033 3.84352,-1.79648c0.24,-0.661245 0.24,-1.3858 2.42872e-07,-2.04705h0.2h-4.37114e-08c0.552285,2.41411e-08 1,-0.447715 1,-1v-4l4.53773e-09,2.25128e-07c-0.00620204,-0.3077 -0.153743,-0.595405 -0.4,-0.78Zm-1.6,1.26v2.52h-3v-4.92Zm-13,5.52v0c0,0.552285 -0.447715,1 -1,1c-0.552285,0 -1,-0.447715 -1,-1c0,-0.552285 0.447715,-1 1,-1h-4.37114e-08c0.552285,-2.41411e-08 1,0.447715 1,1Zm5,-3h-8v-10h11v10Zm7,3v0c0,0.552285 -0.447715,1 -1,1c-0.552285,0 -1,-0.447715 -1,-1c0,-0.552285 0.447715,-1 1,-1h-4.37114e-08c0.552285,-2.41411e-08 1,0.447715 1,1Z"></path>
    </g>
</svg>