<?xml version="1.0" encoding="UTF-8"?>
<svg version="1.1" viewBox="0 0 24 24" xmlns="http://www.w3.org/2000/svg" xmlns:xlink="http://www.w3.org/1999/xlink">
    <!--Generated by IJSVG (https://github.com/iconjar/IJSVG)-->
    <g fill="#FFF">
        <path opacity="0" d="M0,0h24v24h-24Z"></path>
        <path d="M8,12l1.06581e-14,1.50996e-07c8.33927e-08,0.552285 0.447715,1 1,1h6l-4.37114e-08,-1.77636e-15c0.552285,2.41411e-08 1,-0.447715 1,-1c2.41411e-08,-0.552285 -0.447715,-1 -1,-1h-6l-4.37114e-08,1.77636e-15c-0.552285,2.41411e-08 -1,0.447715 -1,1c0,0 0,0 0,0Z"></path>
        <path d="M9,16h-1.79l2.39939e-07,-6.40448e-09c-2.1295,0.0568408 -3.95286,-1.51532 -4.21,-3.63l9.71865e-08,1.04605e-06c-0.204366,-2.19967 1.41314,-4.14852 3.61281,-4.35289c0.128711,-0.0119583 0.257926,-0.0176703 0.38719,-0.017116h2l-4.37114e-08,-1.77636e-15c0.552285,2.41411e-08 1,-0.447715 1,-1c2.41411e-08,-0.552285 -0.447715,-1 -1,-1h-1.79l-2.15038e-07,-2.87362e-09c-3.06472,-0.0409547 -5.6918,2.18098 -6.16,5.21l4.46308e-08,-3.36017e-07c-0.436305,3.28486 1.8729,6.30146 5.15776,6.73776c0.262636,0.0348841 0.527294,0.0523341 0.792236,0.0522354h2h-4.37114e-08c0.552285,2.41411e-08 1,-0.447715 1,-1c2.41411e-08,-0.552285 -0.447715,-1 -1,-1Z"></path>
        <path d="M23,11.24l1.46715e-07,9.7328e-07c-0.462685,-3.06937 -3.13686,-5.31499 -6.24,-5.24h-1.51c-0.810001,2.48974e-08 -1.25,0.45 -1.25,1l1.06581e-14,1.50996e-07c8.33927e-08,0.552285 0.447715,1 1,1h1.79l2.32944e-07,-6.21775e-09c2.1295,-0.0568405 3.95286,1.51532 4.21,3.63l1.1081e-07,1.1927e-06c0.204365,2.19967 -1.41315,4.14852 -3.61281,4.35288c-0.128711,0.0119582 -0.257925,0.0176701 -0.387189,0.0171158h-2l-4.37114e-08,1.77636e-15c-0.552285,2.41411e-08 -1,0.447715 -1,1c2.41411e-08,0.552285 0.447715,1 1,1h2l-3.23545e-07,-2.60748e-09c3.3136,0.0267047 6.02145,-2.63785 6.04816,-5.95145c0.00217832,-0.270293 -0.013911,-0.540424 -0.048158,-0.808548Z"></path>
    </g>
</svg>