<?xml version="1.0" encoding="UTF-8"?>
<svg version="1.1" viewBox="0 0 24 24" xmlns="http://www.w3.org/2000/svg" xmlns:xlink="http://www.w3.org/1999/xlink">
    <!--Generated by IJSVG (https://github.com/iconjar/IJSVG)-->
    <g fill="#FFF">
        <path opacity="0" d="M0,0h24v24h-24Z" transform="matrix(-1,1.22465e-16,-1.22465e-16,-1,24,24)"></path>
        <path d="M17,9v0c0,-2.76142 -2.23858,-5 -5,-5c-2.76142,1.77636e-15 -5,2.23858 -5,5l1.15463e-14,1.50996e-07c8.33927e-08,0.552285 0.447715,1 1,1c0.552285,-8.33927e-08 1,-0.447715 1,-1l3.37508e-14,4.52987e-07c-2.50178e-07,-1.65685 1.34315,-3 3,-3c1.65685,-2.50178e-07 3,1.34315 3,3c2.50178e-07,1.65685 -1.34315,3 -3,3l-4.37114e-08,1.77636e-15c-0.552285,2.41411e-08 -1,0.447715 -1,1c0,0 0,0 0,0v2l1.06581e-14,1.50996e-07c8.33927e-08,0.552285 0.447715,1 1,1c0.552285,-8.33927e-08 1,-0.447715 1,-1v-1.1l2.16504e-07,-4.41936e-08c2.32833,-0.475269 4.00048,-2.52366 4,-4.9Z"></path>
        <path d="M12.7071,18.2929c0.390524,0.390524 0.390524,1.02369 0,1.41421c-0.390524,0.390524 -1.02369,0.390524 -1.41421,0c-0.390524,-0.390524 -0.390524,-1.02369 0,-1.41421c0.390524,-0.390524 1.02369,-0.390524 1.41421,0"></path>
    </g>
</svg>