<?xml version="1.0" encoding="UTF-8"?>
<svg version="1.1" viewBox="0 0 24 24" xmlns="http://www.w3.org/2000/svg" xmlns:xlink="http://www.w3.org/1999/xlink">
    <!--Generated by IJSVG (https://github.com/iconjar/IJSVG)-->
    <g fill="#FFF">
        <path opacity="0" d="M0,0h24v24h-24Z"></path>
        <path d="M18.28,8.37l-3.43039e-10,-4.24713e-10c-0.347939,-0.430782 -0.979218,-0.497939 -1.41,-0.15c-0.430782,0.347939 -0.497939,0.979218 -0.15,1.41c0,0 9.38773e-09,1.16229e-08 9.38773e-09,1.16229e-08l7.57395e-08,1.02976e-07c1.03696,1.40986 1.03696,3.33014 -6.33154e-08,4.74l-3.54958e-08,4.37547e-08c-0.347943,0.428899 -0.282314,1.05865 0.146585,1.4066c0.179068,0.145268 0.402835,0.22419 0.633415,0.223404l5.34708e-08,1.8181e-10c0.302588,0.00102884 0.58937,-0.135009 0.78,-0.37l6.64686e-08,-8.74777e-08c1.6302,-2.14546 1.6302,-5.11454 -1.32937e-07,-7.26Z"></path>
        <path d="M19.64,5.23l1.93888e-09,1.61154e-09c-0.425259,-0.353462 -1.05654,-0.295259 -1.41,0.13c-0.353462,0.425259 -0.295259,1.05654 0.13,1.41c1.24912e-08,1.03823e-08 1.5614e-08,1.29779e-08 2.81052e-08,2.33602e-08l2.40243e-08,1.85678e-08c1.62437,1.25543 2.59461,3.17753 2.64,5.23l2.90894e-07,-1.31533e-05c-0.0453896,2.05247 -1.01562,3.97457 -2.63999,5.23l-1.0924e-07,9.05666e-08c-0.42517,0.35249 -0.484088,0.982908 -0.131598,1.40808c0.000531867,0.000641532 0.00106454,0.0012824 0.00159801,0.0019226l-7.50079e-09,-9.00558e-09c0.190352,0.22854 0.472559,0.360486 0.769989,0.360009l4.74208e-08,9.26548e-11c0.233652,0.000456502 0.460088,-0.0809189 0.64,-0.23l-1.14869e-07,8.98015e-08c2.08712,-1.63166 3.32262,-4.12104 3.36,-6.77l6.13104e-08,4.34491e-06c-0.0373784,-2.64896 -1.27288,-5.13835 -3.36,-6.77Z"></path>
        <path d="M15,3.12l7.80015e-08,4.50342e-08c-0.309401,-0.178633 -0.690599,-0.178633 -1,-9.00684e-08l-6.48,4.45h-5h-4.37114e-08c-0.552285,2.41411e-08 -1,0.447715 -1,1c0,0 0,0 0,0v6.86l1.24345e-14,1.50996e-07c8.33927e-08,0.552285 0.447715,1 1,1h5l6.41,4.4l2.14986e-08,1.39087e-08c0.169881,0.109906 0.367669,0.168896 0.57,0.17h-4.37114e-08c0.552285,2.41411e-08 1,-0.447715 1,-1v-16l1.1912e-08,-8.5577e-07c0.00504219,-0.362248 -0.186234,-0.698893 -0.500001,-0.88Zm-1.47,15l-5.13,-3.52l1.82151e-08,1.22441e-08c-0.168359,-0.11317 -0.367155,-0.17246 -0.57,-0.17h-4.33v-4.86h4.33l4.94019e-08,5.99149e-10c0.202845,0.00246011 0.401641,-0.05683 0.57,-0.17l5.1,-3.5Z"></path>
    </g>
</svg>