<?xml version="1.0" encoding="UTF-8"?>
<svg version="1.1" viewBox="0 0 24 24" xmlns="http://www.w3.org/2000/svg" xmlns:xlink="http://www.w3.org/1999/xlink">
    <!--Generated by IJSVG (https://github.com/iconjar/IJSVG)-->
    <g fill="#FFF">
        <path opacity="0" d="M0,0h24v24h-24Z" transform="matrix(-1,1.22465e-16,-1.22465e-16,-1,24,24)"></path>
        <path d="M20.79,11.34l-3.34,-6.68l3.37915e-08,6.76867e-08c-0.508797,-1.01916 -1.5509,-1.66224 -2.69,-1.66h-5.52l-5.02755e-08,-9.88045e-11c-1.1391,-0.00223861 -2.1812,0.640842 -2.69,1.66l-3.34,6.68l-9.40564e-08,1.88709e-07c-0.139304,0.279491 -0.211224,0.587719 -0.21,0.9v5.76l3.55271e-14,4.52987e-07c2.50178e-07,1.65685 1.34315,3 3,3h12l-1.31134e-07,-3.55271e-15c1.65685,7.24234e-08 3,-1.34315 3,-3v-5.76l-2.36275e-08,6.02744e-06c0.00122461,-0.312281 -0.0706944,-0.620509 -0.209997,-0.900001Zm-12.45,-5.79l-3.87465e-08,7.68979e-08c0.171065,-0.339504 0.519843,-0.552646 0.9,-0.55h5.52l5.55611e-08,-3.8667e-10c0.380157,-0.00264565 0.728934,0.210496 0.9,0.55l2.72,5.45h-2.38l-4.37114e-08,1.77636e-15c-0.552285,2.41411e-08 -1,0.447715 -1,1c0,0 0,0 0,0v3h-6v-3v0c0,-0.552285 -0.447715,-1 -1,-1h-2.38Zm9.66,13.45h-12h-4.37114e-08c-0.552285,-2.41411e-08 -1,-0.447715 -1,-1c0,0 0,-3.55271e-15 0,-3.55271e-15v-5h2v3l1.06581e-14,1.50996e-07c8.33927e-08,0.552285 0.447715,1 1,1h8h-4.37114e-08c0.552285,2.41411e-08 1,-0.447715 1,-1v-3h2v5v0c0,0.552285 -0.447715,1 -1,1Z"></path>
    </g>
</svg>