<?xml version="1.0" encoding="UTF-8"?>
<svg version="1.1" viewBox="0 0 24 24" xmlns="http://www.w3.org/2000/svg" xmlns:xlink="http://www.w3.org/1999/xlink">
    <!--Generated by IJSVG (https://github.com/iconjar/IJSVG)-->
    <g fill="#FFF">
        <path opacity="0" d="M0,0h24v24h-24Z"></path>
        <path d="M12,2l-4.37114e-07,1.06581e-14c-5.52285,2.41411e-07 -10,4.47715 -10,10c2.41411e-07,5.52285 4.47715,10 10,10c5.52285,-2.41411e-07 10,-4.47715 10,-10l7.10543e-15,4.37114e-07c0,-5.52285 -4.47715,-10 -10,-10Zm0,18l-3.49691e-07,-7.10543e-15c-4.41828,-1.93129e-07 -8,-3.58172 -8,-8c1.93129e-07,-4.41828 3.58172,-8 8,-8c4.41828,1.93129e-07 8,3.58172 8,8v1.77636e-15c0,4.41828 -3.58172,8 -8,8c0,0 -3.55271e-15,0 -3.55271e-15,0Z"></path>
        <path d="M12,7l-2.18557e-07,5.32907e-15c-2.76142,1.20706e-07 -5,2.23858 -5,5c1.20706e-07,2.76142 2.23858,5 5,5c2.76142,-1.20706e-07 5,-2.23858 5,-5v0c0,-2.76142 -2.23858,-5 -5,-5Zm0,8l-1.31134e-07,-3.55271e-15c-1.65685,-7.24234e-08 -3,-1.34315 -3,-3c7.24234e-08,-1.65685 1.34315,-3 3,-3c1.65685,7.24234e-08 3,1.34315 3,3v0c0,1.65685 -1.34315,3 -3,3Z"></path>
    </g>
</svg>