<?xml version="1.0" encoding="UTF-8"?>
<svg version="1.1" viewBox="0 0 24 24" xmlns="http://www.w3.org/2000/svg" xmlns:xlink="http://www.w3.org/1999/xlink">
    <!--Generated by IJSVG (https://github.com/iconjar/IJSVG)-->
    <g fill="#FFF">
        <path opacity="0" d="M0,0h24v24h-24Z"></path>
        <path d="M21,9l-4.37114e-08,1.77636e-15c-0.552285,2.41411e-08 -1,0.447715 -1,1c0,0 0,0 0,0v4l1.06581e-14,1.50996e-07c8.33927e-08,0.552285 0.447715,1 1,1c0.552285,-8.33927e-08 1,-0.447715 1,-1v-4v0c0,-0.552285 -0.447715,-1 -1,-1Z"></path>
        <path d="M15.83,6h-3.1l-1.14,2h4.23l1.09355e-09,9.01476e-10c0.127232,0.104885 0.194573,0.265755 0.18,0.43v7.14l1.3464e-08,1.59454e-07c0.0136814,0.162029 -0.049219,0.32113 -0.17,0.43h-2.83l-1.15,2h4l-1.16535e-07,7.91831e-09c1.26065,-0.0856582 2.21855,-1.16831 2.15,-2.43v-7.14l4.98076e-08,-9.26185e-07c0.0682435,-1.26901 -0.901383,-2.35481 -2.17,-2.43Z"></path>
        <path d="M4,15.57v-7.14l9.21131e-09,1.2276e-07c-0.0121406,-0.161799 0.0505007,-0.320245 0.17,-0.43h2.83l1.13,-2h-4l-1.05238e-07,8.06538e-09c-1.25267,0.0960042 -2.19894,1.17555 -2.13,2.43v7.14l-4.61162e-08,8.57543e-07c-0.0682435,1.26901 0.901383,2.35481 2.17,2.43h3.1l1.14,-2h-4.23l3.4166e-08,2.81649e-08c-0.127232,-0.104885 -0.194573,-0.265755 -0.18,-0.43Z"></path>
        <path d="M9,20l-1.52248e-08,6.05844e-11c-0.55228,0.00219762 -1.00177,-0.443733 -1.00397,-0.996013c-0.000703869,-0.176888 0.0455252,-0.350797 0.133971,-0.503987l3.15,-5.5h-4.28l-1.02828e-08,-6.20677e-11c-0.355111,-0.00214346 -0.682448,-0.192455 -0.86,-0.5l2.31785e-08,4.01463e-08c-0.178633,-0.309401 -0.178633,-0.690599 -4.6357e-08,-1l4,-7l-1.65384e-08,2.87768e-08c0.276142,-0.480488 0.889512,-0.646142 1.37,-0.37c0.480488,0.276142 0.646142,0.889512 0.37,1.37l-3.16,5.5h4.28l4.20687e-08,2.53928e-10c0.355111,0.00214348 0.682448,0.192455 0.86,0.5l-7.28523e-09,-1.26184e-08c0.178633,0.309401 0.178633,0.690599 1.45705e-08,1l-4,7l2.19222e-08,-3.79723e-08c-0.177552,0.307545 -0.504889,0.497857 -0.86,0.5Z"></path>
    </g>
</svg>