<?xml version="1.0" encoding="UTF-8"?>
<svg version="1.1" viewBox="0 0 24 24" xmlns="http://www.w3.org/2000/svg" xmlns:xlink="http://www.w3.org/1999/xlink">
    <!--Generated by IJSVG (https://github.com/iconjar/IJSVG)-->
    <g fill="#FFF">
        <path opacity="0" d="M0,0h24v24h-24Z" transform="matrix(-1,1.22465e-16,-1.22465e-16,-1,24,24)"></path>
        <path d="M4.70711,6.29289c0.390524,0.390524 0.390524,1.02369 0,1.41421c-0.390524,0.390524 -1.02369,0.390524 -1.41421,0c-0.390524,-0.390524 -0.390524,-1.02369 -4.44089e-16,-1.41421c0.390524,-0.390524 1.02369,-0.390524 1.41421,0"></path>
        <path d="M4.70711,11.2929c0.390524,0.390524 0.390524,1.02369 0,1.41421c-0.390524,0.390524 -1.02369,0.390524 -1.41421,0c-0.390524,-0.390524 -0.390524,-1.02369 -4.44089e-16,-1.41421c0.390524,-0.390524 1.02369,-0.390524 1.41421,0"></path>
        <path d="M4.70711,16.2929c0.390524,0.390524 0.390524,1.02369 0,1.41421c-0.390524,0.390524 -1.02369,0.390524 -1.41421,0c-0.390524,-0.390524 -0.390524,-1.02369 -4.44089e-16,-1.41421c0.390524,-0.390524 1.02369,-0.390524 1.41421,0"></path>
        <path d="M7.94,13c-0.519143,0 -0.94,-0.420857 -0.94,-0.94v-0.12c0,-0.519143 0.420857,-0.94 0.94,-0.94h12.12c0.519143,0 0.94,0.420857 0.94,0.94v0.12c0,0.519143 -0.420857,0.94 -0.94,0.94Z"></path>
        <path d="M7.94,18c-0.519143,0 -0.94,-0.420857 -0.94,-0.94v-0.12c0,-0.519143 0.420857,-0.94 0.94,-0.94h12.12c0.519143,0 0.94,0.420857 0.94,0.94v0.12c0,0.519143 -0.420857,0.94 -0.94,0.94Z"></path>
        <path d="M7.94,8c-0.519143,0 -0.94,-0.420857 -0.94,-0.94v-0.12c0,-0.519143 0.420857,-0.94 0.94,-0.94h12.12c0.519143,0 0.94,0.420857 0.94,0.94v0.12c0,0.519143 -0.420857,0.94 -0.94,0.94Z"></path>
    </g>
</svg>