<?xml version="1.0" encoding="UTF-8"?>
<svg version="1.1" viewBox="0 0 24 24" xmlns="http://www.w3.org/2000/svg" xmlns:xlink="http://www.w3.org/1999/xlink">
    <!--Generated by IJSVG (https://github.com/iconjar/IJSVG)-->
    <g fill="#FFF">
        <path opacity="0" d="M0,0h24v24h-24Z"></path>
        <path d="M21,16h-3v-7.44v0c0,-1.41385 -1.14615,-2.56 -2.56,-2.56c0,0 -1.77636e-15,0 -1.77636e-15,0h-7.44v-3v0c0,-0.552285 -0.447715,-1 -1,-1c-0.552285,0 -1,0.447715 -1,1v3h-3l-4.37114e-08,1.77636e-15c-0.552285,2.41411e-08 -1,0.447715 -1,1c2.41411e-08,0.552285 0.447715,1 1,1h3v7.44l3.01981e-14,-3.86549e-07c-2.13485e-07,1.41385 1.14615,2.56 2.56,2.56h7.44v3l1.06581e-14,1.50996e-07c8.33927e-08,0.552285 0.447715,1 1,1c0.552285,-8.33927e-08 1,-0.447715 1,-1v-3h3h-4.37114e-08c0.552285,2.41411e-08 1,-0.447715 1,-1c2.41411e-08,-0.552285 -0.447715,-1 -1,-1Zm-12.44,0l-2.44784e-08,-1.77636e-15c-0.309279,-1.3519e-08 -0.56,-0.250721 -0.56,-0.56c0,0 0,-1.77636e-15 0,-1.77636e-15v-7.44h7.44l-2.44784e-08,1.77636e-15c0.309279,-1.3519e-08 0.56,0.250721 0.56,0.56v7.44Z"></path>
    </g>
</svg>