<?xml version="1.0" encoding="UTF-8"?>
<svg version="1.1" viewBox="0 0 24 24" xmlns="http://www.w3.org/2000/svg" xmlns:xlink="http://www.w3.org/1999/xlink">
    <!--Generated by IJSVG (https://github.com/iconjar/IJSVG)-->
    <g fill="#FFF">
        <path opacity="0" d="M0,0h24v24h-24Z"></path>
        <path d="M4.71,3.29l6.9121e-08,6.91211e-08c-0.392122,-0.392122 -1.02788,-0.392122 -1.42,-1.38242e-07c-0.392122,0.392122 -0.392122,1.02788 -1.38242e-07,1.42c0,0 0,1.77636e-15 0,1.77636e-15l16,16l-3.12092e-08,-3.14662e-08c0.38892,0.392122 1.02208,0.394718 1.4142,0.00579839c0.00194069,-0.00192484 0.00387348,-0.00385763 0.00579832,-0.00579832l4.18882e-08,-4.15461e-08c0.392122,-0.38892 0.394718,-1.02208 0.00579824,-1.4142c-0.00192484,-0.00194069 -0.00385763,-0.00387348 -0.00579832,-0.00579832Z"></path>
        <path d="M16.91,14.08l1.44,1.44l-6.87598e-08,9.4594e-08c1.55444,-2.13847 1.52601,-5.04237 -0.0699999,-7.15l-3.43036e-10,-4.24714e-10c-0.347939,-0.430782 -0.979218,-0.497939 -1.41,-0.15c-0.430782,0.347939 -0.497939,0.979218 -0.15,1.41c0,0 9.38773e-09,1.16229e-08 9.38773e-09,1.16229e-08l4.08784e-08,5.56967e-08c0.959717,1.30761 1.03477,3.06534 0.19,4.45Z"></path>
        <path d="M21,12l1.41194e-07,-1.10069e-05c-0.0209712,1.63494 -0.65641,3.20213 -1.77999,4.39l1.42,1.42l6.11827e-08,-6.40832e-08c1.49584,-1.56676 2.33958,-3.64392 2.35999,-5.80999l6.13104e-08,4.34491e-06c-0.0373784,-2.64896 -1.27288,-5.13835 -3.36,-6.77l1.93888e-09,1.61154e-09c-0.425259,-0.353462 -1.05654,-0.295259 -1.41,0.13c-0.353462,0.425259 -0.295259,1.05654 0.13,1.41c1.24912e-08,1.03823e-08 1.5614e-08,1.29779e-08 2.81052e-08,2.33602e-08l-1.94559e-07,-1.5037e-07c1.62437,1.25543 2.5946,3.17753 2.64,5.23Z"></path>
        <path d="M13.5,18.1l-5.1,-3.5l1.82151e-08,1.22441e-08c-0.168359,-0.11317 -0.367155,-0.17246 -0.57,-0.17h-4.33v-4.86h3.24l-2,-2h-2.24h-4.37114e-08c-0.552285,2.41411e-08 -1,0.447715 -1,1c0,0 0,0 0,0v6.86l1.24345e-14,1.50996e-07c8.33927e-08,0.552285 0.447715,1 1,1h5l6.41,4.4l2.14986e-08,1.39087e-08c0.169881,0.109906 0.367669,0.168896 0.57,0.17h-4.37114e-08c0.552285,2.41411e-08 1,-0.447715 1,-1v-1.67l-2,-2Z"></path>
        <path d="M13.5,5.9v4.77l2,2v-8.67l2.88038e-09,-3.4373e-07c0.00462777,-0.552265 -0.43932,-1.00372 -0.991586,-1.00834c-0.206599,-0.00173122 -0.408663,0.0605719 -0.578415,0.178345l-4.7,3.23l1.44,1.44Z"></path>
    </g>
</svg>