<?xml version="1.0" encoding="UTF-8"?>
<svg version="1.1" viewBox="0 0 24 24" xmlns="http://www.w3.org/2000/svg" xmlns:xlink="http://www.w3.org/1999/xlink">
    <!--Generated by IJSVG (https://github.com/iconjar/IJSVG)-->
    <g fill="#FFF">
        <path opacity="0" d="M0,0h24v24h-24Z"></path>
        <path d="M20.3,13.43l2.96524e-08,9.24179e-09c-0.524475,-0.163463 -1.08261,0.126766 -1.25,0.65l9.8746e-09,-3.01921e-08c-0.969567,2.9645 -3.75119,4.95658 -6.87,4.92l-3.79386e-07,4.31232e-09c-3.91361,0.0444844 -7.12513,-3.08652 -7.18,-7l2.20382e-08,-1.57175e-06c0.0548729,-3.91348 3.26639,-7.04448 7.18,-7l-2.21475e-08,5.34932e-11c1.69758,-0.00410003 3.34291,0.586807 4.65,1.67l-2.17,-0.36l6.71748e-08,1.10531e-08c-0.544957,-0.0896683 -1.05942,0.279416 -1.14909,0.824373c-0.000308484,0.0018748 -0.000611624,0.00375048 -0.000909416,0.00562701l2.33108e-08,-1.41671e-07c-0.0896684,0.544957 0.279416,1.05942 0.824373,1.14909c0.0018748,0.000308484 0.00375048,0.000611624 0.00562701,0.000909416l4.24,0.7h0.17l-3.52019e-08,4.14104e-11c0.115955,-0.000136399 0.231002,-0.0204389 0.34,-0.0599999l-1.80305e-09,6.84427e-10c0.0366309,-0.0139049 0.0704929,-0.034222 0.1,-0.06l-2.34602e-08,8.72348e-09c0.0717,-0.0266611 0.139088,-0.0637245 0.2,-0.11l0.09,-0.11c0,-0.05 0.09,-0.09 0.13,-0.15c0.04,-0.06 0,-0.1 0.05,-0.14l-5.4515e-10,1.14895e-09c0.0276324,-0.0582382 0.0510265,-0.118394 0.07,-0.18l0.75,-4l4.52083e-08,-2.37939e-07c0.104934,-0.552285 -0.257716,-1.08507 -0.81,-1.19c-0.552285,-0.104934 -1.08507,0.257716 -1.19,0.81l-0.27,1.45l2.23384e-08,1.93593e-08c-1.67401,-1.45076 -3.81482,-2.24957 -6.03,-2.25l-2.98993e-07,-2.64654e-09c-5.01814,-0.0444179 -9.12505,3.98197 -9.18,9l8.94062e-08,8.16425e-06c0.0549545,5.01803 4.16187,9.04441 9.18001,8.99999l2.406e-07,3.69663e-09c4.00975,0.0616067 7.58926,-2.5033 8.81999,-6.32l6.00675e-08,-2.02742e-07c0.156887,-0.529533 -0.145201,-1.08599 -0.674734,-1.24287c-0.00839062,-0.00248593 -0.0168135,-0.00486162 -0.0252665,-0.00712644Z"></path>
    </g>
</svg>