<?xml version="1.0" encoding="UTF-8"?>
<svg version="1.1" viewBox="0 0 24 24" xmlns="http://www.w3.org/2000/svg" xmlns:xlink="http://www.w3.org/1999/xlink">
    <!--Generated by IJSVG (https://github.com/iconjar/IJSVG)-->
    <g fill="#FFF">
        <path opacity="0" d="M0,0h24v24h-24Z"></path>
        <path d="M12,2l-4.37114e-07,1.06581e-14c-5.52285,2.41411e-07 -10,4.47715 -10,10c0,0 0,5.32907e-15 0,5.32907e-15l1.06581e-14,1.50996e-07c8.33927e-08,0.552285 0.447715,1 1,1h8v6l3.37508e-14,4.52987e-07c2.50178e-07,1.65685 1.34315,3 3,3c1.65685,-2.50178e-07 3,-1.34315 3,-3v0c0,-0.552285 -0.447715,-1 -1,-1c-0.552285,0 -1,0.447715 -1,1v0c0,0.552285 -0.447715,1 -1,1c-0.552285,0 -1,-0.447715 -1,-1v-6h8l-4.37114e-08,-1.77636e-15c0.552285,2.41411e-08 1,-0.447715 1,-1v-2.78379e-08c0,-5.52285 -4.47715,-10 -10,-10c0,0 -1.78834e-07,1.77636e-15 -1.78834e-07,1.77636e-15Zm-7.94,9l-4.675e-08,3.79562e-07c0.540111,-4.38514 4.53282,-7.50215 8.91796,-6.96204c3.64304,0.448708 6.51334,3.319 6.96204,6.96204Z"></path>
    </g>
</svg>