<?xml version="1.0" encoding="UTF-8"?>
<svg version="1.1" viewBox="0 0 24 24" xmlns="http://www.w3.org/2000/svg" xmlns:xlink="http://www.w3.org/1999/xlink">
    <!--Generated by IJSVG (https://github.com/iconjar/IJSVG)-->
    <g fill="#FFF">
        <path opacity="0" d="M0,0h24v24h-24Z"></path>
        <path d="M12,2l-4.37114e-07,1.06581e-14c-5.52285,2.41411e-07 -10,4.47715 -10,10c2.41411e-07,5.52285 4.47715,10 10,10c5.52285,-2.41411e-07 10,-4.47715 10,-10l7.10543e-15,4.37114e-07c0,-5.52285 -4.47715,-10 -10,-10Zm0,18l-3.49691e-07,-7.10543e-15c-4.41828,-1.93129e-07 -8,-3.58172 -8,-8c1.93129e-07,-4.41828 3.58172,-8 8,-8c4.41828,1.93129e-07 8,3.58172 8,8v1.77636e-15c0,4.41828 -3.58172,8 -8,8c0,0 -3.55271e-15,0 -3.55271e-15,0Z"></path>
        <path d="M15.68,8.32l-1.23202e-08,-1.32762e-08c-0.280186,-0.301927 -0.716839,-0.401166 -1.1,-0.25l-4.21,1.7l5.8494e-08,-2.37679e-08c-0.250043,0.1016 -0.4484,0.299957 -0.55,0.55l-1.75,4.26l-1.41453e-08,3.81802e-08c-0.126431,0.341254 -0.057491,0.724252 0.18,1h0.05l-1.97803e-08,-2.83054e-08c0.162965,0.233201 0.417545,0.385949 0.7,0.42l2.81384e-08,3.44739e-10c0.130013,0.00159286 0.259089,-0.0221843 0.38,-0.07l4.21,-1.7l-2.90457e-08,1.18022e-08c0.250043,-0.1016 0.4484,-0.299957 0.55,-0.55l1.75,-4.26l-3.05869e-10,7.12172e-10c0.161125,-0.375155 0.0779967,-0.810586 -0.21,-1.1Zm-4.88,4.89l0.71,-1.74l1.69,-0.68l-0.71,1.74Z"></path>
    </g>
</svg>