<?xml version="1.0" encoding="UTF-8"?>
<svg version="1.1" viewBox="0 0 24 24" xmlns="http://www.w3.org/2000/svg" xmlns:xlink="http://www.w3.org/1999/xlink">
    <!--Generated by IJSVG (https://github.com/iconjar/IJSVG)-->
    <g fill="#FFF">
        <path opacity="0" d="M0,0h24v24h-24Z"></path>
        <path d="M4.71,3.29l6.9121e-08,6.91211e-08c-0.392122,-0.392122 -1.02788,-0.392122 -1.42,-1.38242e-07c-0.392122,0.392122 -0.392122,1.02788 -1.38242e-07,1.42c0,0 0,1.77636e-15 0,1.77636e-15l5.63,5.63l-1.26446e-07,2.35223e-07c-0.91524,1.70259 -0.276967,3.82476 1.42562,4.74c1.03478,0.556251 2.2796,0.556251 3.31438,-2.52892e-07l5.63,5.63l-3.12092e-08,-3.14662e-08c0.38892,0.392122 1.02208,0.394718 1.4142,0.00579839c0.00194069,-0.00192484 0.00387348,-0.00385763 0.00579832,-0.00579832l4.18882e-08,-4.15461e-08c0.392122,-0.38892 0.394718,-1.02208 0.00579824,-1.4142c-0.00192484,-0.00194069 -0.00385763,-0.00387348 -0.00579832,-0.00579832Zm7.29,10.21l-6.55671e-08,-1.77636e-15c-0.828427,-3.62117e-08 -1.5,-0.671573 -1.5,-1.5c0,0 0,-1.77636e-15 0,-1.77636e-15v-0.07l1.56,1.56Z"></path>
        <path d="M12.22,17c-4.3,0.1 -7.12,-3.59 -8,-5l-2.38993e-07,3.81228e-07c0.626471,-0.999308 1.37936,-1.91353 2.24,-2.72l-1.46,-1.41l3.21447e-07,-3.02877e-07c-1.12867,1.06347 -2.09559,2.28644 -2.87,3.63l2.31785e-08,-4.01463e-08c-0.178633,0.309401 -0.178633,0.690599 -4.6357e-08,1c0.63,1.09 4,6.5 9.89,6.5h0.25l-5.48806e-07,1.62795e-08c1.10755,-0.0328536 2.20076,-0.259619 3.23,-0.67l-1.58,-1.58l5.25915e-07,-1.38353e-07c-0.555631,0.14617 -1.12581,0.23002 -1.7,0.25Z"></path>
        <path d="M21.87,11.5c-0.64,-1.11 -4.17,-6.68 -10.14,-6.5l-2.79597e-07,8.29383e-09c-1.10755,0.0328537 -2.20076,0.259619 -3.23,0.67l1.58,1.58l-2.87983e-07,7.57598e-08c0.555631,-0.14617 1.12581,-0.23002 1.7,-0.25c4.29,-0.11 7.11,3.59 8,5l-6.52498e-08,1.01878e-07c-0.641937,1.00229 -1.41175,1.91666 -2.29,2.72l1.51,1.41l-3.02668e-07,2.80906e-07c1.14284,-1.06067 2.12335,-2.28378 2.91,-3.63l5.16538e-09,-9.82365e-09c0.166423,-0.316509 0.151172,-0.697795 -0.04,-1Z"></path>
    </g>
</svg>