<?xml version="1.0" encoding="UTF-8"?>
<svg version="1.1" viewBox="0 0 24 24" xmlns="http://www.w3.org/2000/svg" xmlns:xlink="http://www.w3.org/1999/xlink">
    <!--Generated by IJSVG (https://github.com/iconjar/IJSVG)-->
    <g fill="#FFF">
        <path opacity="0" d="M0,0h24v24h-24Z"></path>
        <path d="M17.81,13.39l-3.45911e-07,2.84135e-07c1.76041,-1.44602 2.90159,-3.51017 3.19,-5.77l4.927e-08,-4.10584e-07c0.0662739,-0.552285 -0.327716,-1.05373 -0.88,-1.12c-0.552285,-0.0662739 -1.05373,0.327716 -1.12,0.88l2.19678e-08,-1.54949e-07c-0.548099,3.86599 -4.12643,6.55568 -7.99242,6.00758c-3.11661,-0.441856 -5.56572,-2.89096 -6.00758,-6.00758l4.927e-08,4.10584e-07c-0.0662739,-0.552285 -0.567715,-0.946274 -1.12,-0.88c-0.552285,0.0662739 -0.946274,0.567715 -0.88,1.12l-3.41113e-07,-2.69508e-06c0.285835,2.25834 1.42332,4.32228 3.18,5.77l-2.3,2.32l-7.33806e-08,8.56872e-08c-0.359237,0.419484 -0.310397,1.05076 0.109087,1.41c0.374378,0.320609 0.926536,0.320608 1.30091,-6.44886e-07l2.61,-2.6l-9.1176e-07,-4.60751e-07c0.969803,0.490083 2.01986,0.801712 3.1,0.92v3.56l1.06581e-14,1.50996e-07c8.33927e-08,0.552285 0.447715,1 1,1c0.552285,-8.33927e-08 1,-0.447715 1,-1v-3.56l-1.52243e-07,1.66724e-08c1.08014,-0.118288 2.1302,-0.429917 3.1,-0.919999l2.61,2.6l-1.0446e-07,-8.94569e-08c0.419484,0.359237 1.05076,0.310397 1.41,-0.109087c0.320609,-0.374378 0.320609,-0.926536 -3.19211e-07,-1.30091Z"></path>
    </g>
</svg>