<?xml version="1.0" encoding="UTF-8"?>
<svg version="1.1" viewBox="0 0 24 24" xmlns="http://www.w3.org/2000/svg" xmlns:xlink="http://www.w3.org/1999/xlink">
    <!--Generated by IJSVG (https://github.com/iconjar/IJSVG)-->
    <g fill="#FFF">
        <path opacity="0" d="M0,0h24v24h-24Z"></path>
        <path d="M21.66,10.37l-8.43227e-09,1.48296e-08c0.0335875,-0.0590695 0.0572362,-0.123259 0.07,-0.19l0.75,-4l4.76658e-08,-2.6481e-07c0.0994111,-0.552285 -0.267716,-1.08059 -0.82,-1.18c-0.552285,-0.0994111 -1.08059,0.267716 -1.18,0.82l-0.37,2l-7.34541e-08,-1.34141e-07c-2.4457,-4.46629 -8.04896,-6.1043 -12.5152,-3.6586c-1.82331,0.998428 -3.25571,2.58372 -4.06475,4.4986l2.69429e-08,-6.68188e-08c-0.205989,0.510854 0.0399215,1.0921 0.55,1.3l-9.75563e-09,-4.03921e-09c0.510276,0.211274 1.09521,-0.0311148 1.30648,-0.541391c0.00118591,-0.00286425 0.0023585,-0.005734 0.00351772,-0.00860915l-1.97313e-07,4.84804e-07c1.10231,-2.70842 3.75629,-4.46052 6.68,-4.41l-2.0133e-07,9.39052e-10c2.57149,-0.0119941 4.95248,1.35402 6.24,3.58l-1.65,-0.27l8.84023e-08,1.41444e-08c-0.552285,-0.0883656 -1.07163,0.287715 -1.16,0.84c-0.0883656,0.552285 0.287715,1.07163 0.84,1.16c1.4049e-08,2.24783e-09 7.02448e-09,1.12392e-09 2.10734e-08,3.37175e-09l4.25,0.71h0.16l6.58575e-09,7.92344e-11c0.116085,0.00139666 0.231405,-0.018954 0.34,-0.06l-1.80305e-09,6.84427e-10c0.0366309,-0.0139049 0.0704929,-0.034222 0.1,-0.06l-2.34602e-08,8.72348e-09c0.0717,-0.0266611 0.139088,-0.0637245 0.2,-0.11l0.08,-0.1l-3.27871e-09,3.0695e-09c0.0518626,-0.0485534 0.0987607,-0.102151 0.14,-0.16l1.02301e-08,-2.12919e-08c0.0243265,-0.0506307 0.0411691,-0.104527 0.05,-0.16Z"></path>
        <path d="M19.88,14.07l-3.7878e-08,-1.55192e-08c-0.511054,-0.209386 -1.09509,0.0351633 -1.30447,0.546217c-0.00187676,0.00458064 -0.00371948,0.00917516 -0.00552801,0.0137832l-7.93388e-08,1.91548e-07c-1.10962,2.67896 -3.74062,4.4105 -6.64,4.37l-4.25484e-07,1.98455e-09c-2.57149,0.0119939 -4.95248,-1.35402 -6.24,-3.58l1.65,0.27h0.16l-1.39481e-09,-1.11585e-10c0.552285,0.0441828 1.03582,-0.367715 1.08,-0.92c0.0441828,-0.552285 -0.367715,-1.03582 -0.92,-1.08l-4.25,-0.69l2.96981e-08,5.47558e-09c-0.109081,-0.0201117 -0.220919,-0.0201117 -0.33,-1.09512e-08h-0.08l-5.94582e-08,1.58144e-08c-0.113173,0.0301013 -0.221084,0.0773123 -0.32,0.14l4.37282e-08,-3.37819e-08c-0.0674229,0.0520871 -0.127913,0.112577 -0.18,0.18l-0.09,0.1l-2.39609e-08,4.67283e-08c-0.0309092,0.0602791 -0.0544133,0.124076 -0.07,0.19l-1.10952e-08,1.61804e-08c-0.0350438,0.0511053 -0.0588977,0.109036 -0.07,0.17l-0.75,4l-2.26287e-08,9.36354e-08c-0.129735,0.536831 0.200281,1.07719 0.737112,1.20692c0.0208173,0.00503088 0.0417908,0.00939172 0.0628882,0.0130758h0.18l2.51089e-09,4.09557e-11c0.489004,0.00797625 0.912033,-0.338907 1,-0.82l0.37,-2l-5.43698e-07,-9.94163e-07c2.44329,4.4676 8.04567,6.10863 12.5133,3.66535c1.8235,-0.997255 3.25657,-2.58136 4.06673,-4.49534l1.50494e-08,-4.03152e-08c0.190644,-0.510709 -0.0628756,-1.08002 -0.57,-1.28Z"></path>
    </g>
</svg>