<?xml version="1.0" encoding="UTF-8"?>
<svg version="1.1" viewBox="0 0 24 24" xmlns="http://www.w3.org/2000/svg" xmlns:xlink="http://www.w3.org/1999/xlink">
    <!--Generated by IJSVG (https://github.com/iconjar/IJSVG)-->
    <g fill="#FFF">
        <path opacity="0" d="M0,0h24v24h-24Z" transform="matrix(6.12323e-17,-1,1,6.12323e-17,0,24)"></path>
        <path d="M5,6.09v12l-1.29,-1.3l6.9121e-08,6.91211e-08c-0.392122,-0.392122 -1.02788,-0.392122 -1.42,-1.38242e-07c-0.392122,0.392122 -0.392122,1.02788 -1.38242e-07,1.42c0,0 0,0 0,0l3,3l-3.12092e-08,-3.14662e-08c0.38892,0.392122 1.02208,0.394718 1.4142,0.00579839c0.00194069,-0.00192484 0.00387348,-0.00385763 0.00579832,-0.00579832l3,-3l4.18882e-08,-4.15461e-08c0.392122,-0.38892 0.394718,-1.02208 0.00579824,-1.4142c-0.00192484,-0.00194069 -0.00385763,-0.00387348 -0.00579832,-0.00579832l-3.03541e-08,-3.0604e-08c-0.38892,-0.392122 -1.02208,-0.394718 -1.4142,-0.00579826c-0.00194069,0.00192484 -0.00387348,0.00385763 -0.00579832,0.00579832l-1.29,1.3v-12l-3.38747e-08,-1.74475e-06c-0.0167238,-0.861402 0.668023,-1.57326 1.52942,-1.58999c0.000192271,-3.73288e-06 0.000384544,-7.43021e-06 0.000576816,-1.1092e-05h2.47l-4.37114e-08,-8.88178e-16c0.552285,2.41411e-08 1,-0.447715 1,-1c2.41411e-08,-0.552285 -0.447715,-1 -1,-1h-2.47l-1.60009e-07,1.34271e-09c-1.96606,0.0164982 -3.5465,1.62368 -3.53,3.58975c7.07218e-07,8.42779e-05 1.41743e-06,0.000168556 2.13063e-06,0.000252834Z"></path>
        <path d="M14.29,5.79l-4.23333e-09,4.23333e-09c-0.392122,0.392122 -0.392122,1.02788 8.46667e-09,1.42c0.392122,0.392122 1.02788,0.392122 1.42,-8.46667e-09l1.29,-1.3v12l3.44988e-08,1.7769e-06c0.0167238,0.861402 -0.668023,1.57326 -1.52942,1.58999c-0.000192271,3.73288e-06 -0.000384544,7.4302e-06 -0.000576816,1.1092e-05h-2.47h-4.37114e-08c-0.552285,2.41411e-08 -1,0.447715 -1,1c2.41411e-08,0.552285 0.447715,1 1,1h2.47l-1.94909e-07,1.63556e-09c1.96606,-0.0164981 3.5465,-1.62368 3.53,-3.58975c-7.07091e-07,-8.42636e-05 -1.41717e-06,-0.000168527 -2.13025e-06,-0.000252791v-12l1.29,1.3l-3.12092e-08,-3.14662e-08c0.38892,0.392122 1.02208,0.394718 1.4142,0.00579839c0.00194069,-0.00192484 0.00387348,-0.00385763 0.00579832,-0.00579832l4.18882e-08,-4.15461e-08c0.392122,-0.38892 0.394718,-1.02208 0.00579824,-1.4142c-0.00192484,-0.00194069 -0.00385763,-0.00387348 -0.00579832,-0.00579832l-3,-3l-3.03541e-08,-3.0604e-08c-0.38892,-0.392122 -1.02208,-0.394718 -1.4142,-0.00579826c-0.00194069,0.00192484 -0.00387348,0.00385763 -0.00579832,0.00579832Z"></path>
    </g>
</svg>