<?xml version="1.0" encoding="UTF-8"?>
<svg version="1.1" viewBox="0 0 24 24" xmlns="http://www.w3.org/2000/svg" xmlns:xlink="http://www.w3.org/1999/xlink">
    <!--Generated by IJSVG (https://github.com/iconjar/IJSVG)-->
    <g fill="#FFF">
        <path opacity="0" d="M0,0h24v24h-24Z"></path>
        <path d="M18.78,14.38l1.85721e-09,2.3193e-09c-0.343454,-0.428908 -0.96863,-0.500357 -1.4,-0.16l-3.38,2.7v-8.92v0c0,-1.65685 -1.34315,-3 -3,-3h-5h-4.37114e-08c-0.552285,2.41411e-08 -1,0.447715 -1,1c2.41411e-08,0.552285 0.447715,1 1,1h5h-4.37114e-08c0.552285,-2.41411e-08 1,0.447715 1,1v8.92l-3.38,-2.7l2.84014e-08,1.88789e-08c-0.459942,-0.305731 -1.08064,-0.180718 -1.38637,0.279224c-0.269613,0.405606 -0.207801,0.946461 0.146375,1.28078l5,4l9.57155e-08,7.56353e-08c0.363445,0.287198 0.876555,0.287197 1.24,-1.51271e-07l5,-4l1.00866e-08,-8.077e-09c0.428908,-0.343454 0.500357,-0.96863 0.16,-1.4Z"></path>
    </g>
</svg>