<?xml version="1.0" encoding="UTF-8"?>
<svg version="1.1" viewBox="0 0 24 24" xmlns="http://www.w3.org/2000/svg" xmlns:xlink="http://www.w3.org/1999/xlink">
    <!--Generated by IJSVG (https://github.com/iconjar/IJSVG)-->
    <g fill="#FFF">
        <path opacity="0" d="M0,0h24v24h-24Z" transform="matrix(6.12323e-17,-1,1,6.12323e-17,0,24)"></path>
        <path d="M18.78,11.37l-4.78,-6l1.25485e-08,1.56208e-08c-0.345881,-0.430563 -0.975314,-0.499211 -1.40588,-0.15333c-0.00137731,0.00110642 -0.00275168,0.00221649 -0.0041231,0.0033302l7.44792e-08,-5.98308e-08c-0.430563,0.345881 -0.499212,0.975314 -0.15333,1.40588c0.00110642,0.00137731 0.00221649,0.00275168 0.0033302,0.0041231l4.27,5.37l-4.48,5.37l-3.44578e-08,4.13518e-08c-0.353552,0.424287 -0.29621,1.05485 0.128077,1.4084c0.000640201,0.000533469 0.00128107,0.00106614 0.0019226,0.00159801l-1.82298e-08,-1.46302e-08c0.181281,0.145486 0.407582,0.223277 0.64,0.22l-3.8001e-08,-6.17142e-11c0.297432,0.00048304 0.579643,-0.13146 0.77,-0.36l5,-6l1.51235e-08,-1.8105e-08c0.306235,-0.366609 0.310424,-0.898614 0.00999997,-1.27Z"></path>
        <path d="M7,5.37l-3.20322e-08,-4.09301e-08c-0.347939,-0.444589 -0.990411,-0.522939 -1.435,-0.175c-0.444589,0.347939 -0.522939,0.990411 -0.175,1.435l4.32,5.37l-4.48,5.36l-3.44578e-08,4.13518e-08c-0.353552,0.424287 -0.29621,1.05485 0.128077,1.4084c0.000640201,0.000533469 0.00128107,0.00106614 0.0019226,0.00159801l-8.16837e-10,-6.76859e-10c0.179912,0.149081 0.406348,0.230456 0.64,0.23l-3.8001e-08,-6.17142e-11c0.297432,0.00048304 0.579643,-0.13146 0.77,-0.36l5,-6l2.08347e-08,-2.53466e-08c0.303317,-0.369002 0.303317,-0.900998 -4.16695e-08,-1.27Z"></path>
    </g>
</svg>