<?xml version="1.0" encoding="UTF-8"?>
<svg version="1.1" viewBox="0 0 24 24" xmlns="http://www.w3.org/2000/svg" xmlns:xlink="http://www.w3.org/1999/xlink">
    <!--Generated by IJSVG (https://github.com/iconjar/IJSVG)-->
    <g fill="#FFF">
        <path opacity="0" d="M0,0h24v24h-24Z"></path>
        <path d="M19.4,7.34l-2.74,-2.74l4.22452e-09,3.96812e-09c-0.740276,-0.695346 -1.88418,-0.725449 -2.66,-0.07l-9,9l-7.28216e-08,7.34369e-08c-0.323234,0.325965 -0.524495,0.753204 -0.57,1.21l-0.43,4.17l-4.51763e-08,4.91195e-07c-0.0272738,0.296545 0.0790372,0.589816 0.29,0.8l-3.17523e-08,-3.14944e-08c0.188719,0.187186 0.444197,0.291536 0.71,0.29h0.09l4.17,-0.38l3.4611e-08,-3.44784e-09c0.456796,-0.0455046 0.884035,-0.246766 1.21,-0.57l9,-9l7.81433e-08,-8.25537e-08c0.72729,-0.768338 0.695986,-1.98023 -0.0700002,-2.71Zm-10.32,10.28l-3,0.28l0.27,-3l5.65,-5.58l2.7,2.7Zm6.92,-6.94l-2.68,-2.68l1.95,-2l2.73,2.73Z"></path>
    </g>
</svg>