<?xml version="1.0" encoding="UTF-8"?>
<svg version="1.1" viewBox="0 0 24 24" xmlns="http://www.w3.org/2000/svg" xmlns:xlink="http://www.w3.org/1999/xlink">
    <!--Generated by IJSVG (https://github.com/iconjar/IJSVG)-->
    <g fill="#FFF">
        <path opacity="0" d="M0,0h24v24h-24Z" transform="matrix(-1,1.22465e-16,-1.22465e-16,-1,24,24)"></path>
        <path d="M20,22h-1.67l-8.74228e-08,-3.55271e-15c-1.10457,-4.82823e-08 -2,-0.895431 -2,-2c0,0 0,0 0,0v-5.37l-8.89661e-09,2.09676e-07c0.0184159,-0.434027 -0.269276,-0.821786 -0.69,-0.93l8.53867e-08,1.30015e-08c-0.240304,-0.0365901 -0.484677,0.0327095 -0.67,0.19l-5.46613e-09,4.6389e-09c-0.190814,0.161937 -0.300567,0.399734 -0.3,0.65v5.46v0c0,1.10457 -0.895431,2 -2,2h-1.67l-8.74228e-08,-3.55271e-15c-1.10457,-4.82823e-08 -2,-0.895431 -2,-2c0,0 0,0 0,0v-5.46l7.28306e-14,8.5441e-07c-5.42052e-07,-3.58985 2.91015,-6.5 6.5,-6.5c3.58985,-5.42052e-07 6.5,2.91015 6.5,6.5c1.06581e-14,5.77547e-08 2.4869e-14,1.58825e-07 3.19744e-14,2.1658e-07v5.46v0c0,1.10457 -0.895431,2 -2,2Zm-4.5,-10.31l-1.38205e-07,8.72463e-09c0.156511,-0.00988024 0.313489,-0.00988025 0.47,-1.74492e-08l2.50879e-07,4.82591e-08c1.38577,0.266567 2.38056,1.48898 2.36,2.9v5.41h1.67v-5.46v0c0,-2.48528 -2.01472,-4.5 -4.5,-4.5c-2.48528,0 -4.5,2.01472 -4.5,4.5v5.46h1.67v-5.46l-8.63951e-10,-6.9746e-05c-2.36495e-07,-1.56623 1.26387,-2.83898 2.83007,-2.84993Z"></path>
        <path d="M6,22h-2l-8.74228e-08,-3.55271e-15c-1.10457,-4.82823e-08 -2,-0.895431 -2,-2c0,0 0,0 0,0v-10l2.30926e-14,3.01992e-07c-1.66785e-07,-1.10457 0.89543,-2 2,-2h2l-8.74228e-08,1.77636e-15c1.10457,-4.82823e-08 2,0.89543 2,2v10v0c0,1.10457 -0.895431,2 -2,2Zm-2,-12v10h2v-10Z"></path>
        <path d="M5,7l-1.31134e-07,-3.55271e-15c-1.65685,-7.24234e-08 -3,-1.34315 -3,-3c7.24234e-08,-1.65685 1.34315,-3 3,-3c1.65685,7.24234e-08 3,1.34315 3,3v0c0,1.65685 -1.34315,3 -3,3Zm0,-4l-4.37114e-08,8.88178e-16c-0.552285,2.41411e-08 -1,0.447715 -1,1c2.41411e-08,0.552285 0.447715,1 1,1c0.552285,-2.41411e-08 1,-0.447715 1,-1v0c0,-0.552285 -0.447715,-1 -1,-1Z"></path>
    </g>
</svg>