<?xml version="1.0" encoding="UTF-8"?>
<svg version="1.1" viewBox="0 0 24 24" xmlns="http://www.w3.org/2000/svg" xmlns:xlink="http://www.w3.org/1999/xlink">
    <!--Generated by IJSVG (https://github.com/iconjar/IJSVG)-->
    <g fill="#FFF">
        <path opacity="0" d="M0,0h24v24h-24Z" transform="matrix(-1,1.22465e-16,-1.22465e-16,-1,24,24)"></path>
        <path d="M12,6l-4.37114e-08,-8.88178e-16c0.552285,2.41411e-08 1,-0.447715 1,-1v-2v0c0,-0.552285 -0.447715,-1 -1,-1c-0.552285,0 -1,0.447715 -1,1v2l1.06581e-14,1.50996e-07c8.33927e-08,0.552285 0.447715,1 1,1Z"></path>
        <path d="M21,11h-2l-4.37114e-08,1.77636e-15c-0.552285,2.41411e-08 -1,0.447715 -1,1c2.41411e-08,0.552285 0.447715,1 1,1h2l-4.37114e-08,-1.77636e-15c0.552285,2.41411e-08 1,-0.447715 1,-1c2.41411e-08,-0.552285 -0.447715,-1 -1,-1Z"></path>
        <path d="M6,12v0c0,-0.552285 -0.447715,-1 -1,-1h-2l-4.37114e-08,1.77636e-15c-0.552285,2.41411e-08 -1,0.447715 -1,1c2.41411e-08,0.552285 0.447715,1 1,1h2l-4.37114e-08,-1.77636e-15c0.552285,2.41411e-08 1,-0.447715 1,-1Z"></path>
        <path d="M6.22,5l-4.16596e-08,-3.93924e-08c-0.405929,-0.383838 -1.04616,-0.365929 -1.43,0.0400001c-0.383838,0.405929 -0.365929,1.04616 0.0400001,1.43c0,0 8.88178e-16,0 8.88178e-16,0l1.44,1.39l-2.61199e-08,-2.52212e-08c0.195251,0.188534 0.458751,0.289602 0.73,0.28l4.13942e-09,-1.57971e-11c0.272188,-0.00103876 0.532191,-0.112985 0.72,-0.31l5.0936e-09,-5.12399e-09c0.387724,-0.390037 0.387724,-1.01996 -1.01872e-08,-1.41Z"></path>
        <path d="M17,8.14l-3.82506e-08,1.52324e-10c0.25747,-0.00102532 0.504623,-0.101319 0.69,-0.28l1.44,-1.39l-3.2052e-08,3.34901e-08c0.381864,-0.398997 0.367975,-1.03201 -0.0310219,-1.41387c-0.363088,-0.347497 -0.927682,-0.371523 -1.31898,-0.0561268l-1.44,1.42l1.73159e-08,-1.74192e-08c-0.387724,0.390037 -0.387724,1.01996 -3.46318e-08,1.41l-7.50183e-08,-7.91678e-08c0.173142,0.182719 0.408824,0.293418 0.66,0.31Z"></path>
        <path d="M12,18h-4.37114e-08c-0.552285,2.41411e-08 -1,0.447715 -1,1c0,0 0,3.55271e-15 0,3.55271e-15v2l1.06581e-14,1.50996e-07c8.33927e-08,0.552285 0.447715,1 1,1c0.552285,-8.33927e-08 1,-0.447715 1,-1v-2v0c0,-0.552285 -0.447715,-1 -1,-1Z"></path>
        <path d="M17.73,16.14l1.73506e-09,1.67481e-09c-0.397645,-0.383838 -1.03116,-0.372645 -1.415,0.025c-0.383838,0.397645 -0.372645,1.03116 0.025,1.415c0,0 0,0 0,0l1.44,1.42l4.73159e-08,4.56066e-08c0.185378,0.178681 0.43253,0.278975 0.69,0.28l8.56711e-09,5.00364e-11c0.270714,0.00158111 0.530502,-0.106664 0.72,-0.3l4.18882e-08,-4.15461e-08c0.392122,-0.38892 0.394718,-1.02208 0.00579824,-1.4142c-0.00192484,-0.00194069 -0.00385763,-0.00387348 -0.00579832,-0.00579832Z"></path>
        <path d="M6.27,16.14l-1.44,1.39l2.29995e-08,-2.28117e-08c-0.392122,0.38892 -0.394718,1.02208 -0.00579837,1.4142c0.00192484,0.00194069 0.00385763,0.00387348 0.00579832,0.00579832l-3.17488e-09,-3.23918e-09c0.189498,0.193336 0.449286,0.301581 0.72,0.3l-1.14838e-08,-9.78595e-11c0.246514,0.00210063 0.485117,-0.0869302 0.67,-0.25l1.44,-1.39l-7.54316e-09,7.28125e-09c0.397645,-0.383838 0.408838,-1.01735 0.025,-1.415c-0.383838,-0.397645 -1.01735,-0.408838 -1.415,-0.025Z"></path>
        <path d="M12,8l-1.74846e-07,3.55271e-15c-2.20914,9.65645e-08 -4,1.79086 -4,4c9.65645e-08,2.20914 1.79086,4 4,4c2.20914,-9.65645e-08 4,-1.79086 4,-4v0c0,-2.20914 -1.79086,-4 -4,-4Zm0,6l-8.74228e-08,-1.77636e-15c-1.10457,-4.82823e-08 -2,-0.895431 -2,-2c4.82823e-08,-1.10457 0.895431,-2 2,-2c1.10457,4.82823e-08 2,0.895431 2,2v0c0,1.10457 -0.895431,2 -2,2Z"></path>
    </g>
</svg>