<?xml version="1.0" encoding="UTF-8"?>
<svg version="1.1" viewBox="0 0 24 24" xmlns="http://www.w3.org/2000/svg" xmlns:xlink="http://www.w3.org/1999/xlink">
    <!--Generated by IJSVG (https://github.com/iconjar/IJSVG)-->
    <g fill="#FFF">
        <path opacity="0" d="M0,0h24v24h-24Z"></path>
        <path d="M20,6.83l2.74142e-08,-2.06721e-06c0.00995147,-0.750426 -0.286119,-1.47255 -0.820001,-2l1.91015e-07,1.83125e-07c-1.11795,-1.07178 -2.88205,-1.07178 -4,-3.76309e-07l-6.6,6.6h-0.22l1.45571e-07,-3.90978e-09c-2.35203,0.0631711 -4.24229,1.95783 -4.3,4.31l-0.0599987,3.26l-2.14502e-08,8.4187e-07c-0.00694813,0.272702 0.0978114,0.536407 0.290001,0.73l5.3869e-08,4.8549e-08c0.194678,0.175452 0.447931,0.271759 0.709999,0.269999l3.26,-0.06l-1.50451e-07,3.69114e-09c2.35217,-0.0577074 4.24683,-1.94797 4.31,-4.3v-0.23l6.61,-6.6l3.79017e-08,-3.72228e-08c0.53081,-0.521302 0.826815,-1.23604 0.82,-1.98Zm-11.75,11.11l-2.25,0.06v-2.23l-4.41501e-08,2.64873e-06c0.0218322,-1.30984 1.08998,-2.36018 2.4,-2.36l-1.15711e-07,2.0032e-11c1.18741,-0.000205583 2.15017,0.962216 2.15037,2.14963c2.3301e-06,0.0134583 -0.000121706,0.0269162 -0.000372091,0.0403722l8.26481e-08,-3.42228e-06c-0.0305272,1.2641 -1.03661,2.28768 -2.3,2.34Zm9.52,-10.55l-5.87,5.87l1.47457e-07,2.19483e-07c-0.153604,-0.228633 -0.327652,-0.442846 -0.52,-0.64l8.13967e-08,8.16833e-08c-0.194557,-0.195242 -0.409065,-0.36953 -0.64,-0.52l5.87,-5.86l2.51671e-08,-2.40232e-08c0.324596,-0.309842 0.835404,-0.309842 1.16,4.48288e-08l1.72171e-09,1.76385e-09c0.153551,0.157309 0.23657,0.370271 0.23,0.59l5.72974e-09,1.63467e-06c0.000735166,0.209802 -0.0820151,0.41128 -0.230001,0.56Z"></path>
    </g>
</svg>