<?xml version="1.0" encoding="UTF-8"?>
<svg version="1.1" viewBox="0 0 24 24" xmlns="http://www.w3.org/2000/svg" xmlns:xlink="http://www.w3.org/1999/xlink">
    <!--Generated by IJSVG (https://github.com/iconjar/IJSVG)-->
    <g fill="#FFF">
        <path opacity="0" d="M0,0h24v24h-24Z" transform="matrix(6.12323e-17,-1,1,6.12323e-17,0,24)"></path>
        <path d="M10,19l-1.56343e-08,3.05462e-11c-0.233652,0.000456509 -0.460088,-0.0809189 -0.64,-0.23l-1.0924e-07,-9.05666e-08c-0.42517,-0.35249 -0.484088,-0.982908 -0.131598,-1.40808c0.000531867,-0.000641532 0.00106454,-0.0012824 0.00159801,-0.0019226l4.48,-5.36l-4.32,-5.37l-5.50079e-08,-6.77371e-08c-0.348158,-0.428724 -0.282847,-1.05851 0.145877,-1.40667c0.00137142,-0.00111371 0.0027458,-0.00222378 0.0041231,-0.0033302l-2.46175e-08,2.16602e-08c0.414635,-0.364824 1.04651,-0.324445 1.41133,0.09019c0.0169846,0.0193036 0.0332185,0.0392551 0.0486653,0.05981l4.83,6l2.08347e-08,2.53466e-08c0.303317,0.369002 0.303317,0.900998 -4.16695e-08,1.27l-5,6l3.18391e-08,-3.84089e-08c-0.203463,0.245446 -0.511765,0.379168 -0.83,0.36Z"></path>
    </g>
</svg>