<?xml version="1.0" encoding="UTF-8"?>
<svg version="1.1" viewBox="0 0 24 24" xmlns="http://www.w3.org/2000/svg" xmlns:xlink="http://www.w3.org/1999/xlink">
    <!--Generated by IJSVG (https://github.com/iconjar/IJSVG)-->
    <g fill="#FFF">
        <path opacity="0" d="M0,0h24v24h-24Z"></path>
        <path d="M19.74,4.26l1.58031e-09,1.58371e-09c-0.347193,-0.347939 -0.91071,-0.348544 -1.25865,-0.00135066c-0.000450701,0.000449735 -0.000900919,0.000899953 -0.00135065,0.00135065l-14.22,14.22l-1.95522e-09,1.99537e-09c-0.165003,0.168392 -0.258214,0.394249 -0.26,0.63l-1.84295e-08,1.21897e-05c-0.000739782,0.491533 0.397127,0.890599 0.888659,0.891338c0.236842,0.00035646 0.464058,-0.0937041 0.631349,-0.261359l14.22,-14.22l8.42904e-09,-8.41097e-09c0.347939,-0.347193 0.348544,-0.91071 0.00135064,-1.25865c-0.000449735,-0.000450701 -0.000899953,-0.000900919 -0.00135065,-0.00135065Z"></path>
        <path d="M6.7,14.63l7.56883e-07,9.98219e-07c-1.75187,-2.31046 -2.70007,-5.13047 -2.7,-8.03l-9.94559e-08,2.60447e-05c0.00546753,-1.43366 1.16631,-2.59453 2.59997,-2.60003h0.33l1.07003,4.64l-0.55,0.29c-0.87,0.45 -1.5,0.78 -1.17,1.58l-5.33505e-07,-1.53112e-06c0.373383,1.07158 0.90238,2.0824 1.57,3l1.43,-1.42l6.67093e-07,9.92617e-07c-0.303508,-0.451612 -0.571001,-0.926411 -0.8,-1.42c1.23,-0.669998 1.24,-0.669998 1.37,-0.819998l4.95589e-08,-5.07198e-08c0.237139,-0.242695 0.335032,-0.589083 0.26,-0.92l-1.37,-5.93l-1.07714e-08,-4.64247e-08c-0.0779702,-0.336052 -0.323646,-0.608184 -0.65,-0.72l-1.06751e-07,-3.81281e-08c-0.233533,-0.0834103 -0.474688,-0.143699 -0.719998,-0.18l3.93804e-07,9.13114e-08c-0.252748,-0.0586049 -0.510667,-0.0921009 -0.770001,-0.1l-1.33728e-07,-4.44089e-14c-2.54051,-7.97508e-07 -4.6,2.05949 -4.6,4.6c-1.61648e-13,5.1192e-07 -2.36255e-13,1.01777e-06 -2.27374e-13,1.52969e-06l-4.9486e-07,-0.00389286c5.17973e-07,3.43038 1.15056,6.76164 3.2676,9.46083Z"></path>
        <path d="M21.94,16.64l8.31986e-08,4.91721e-07c-0.0420267,-0.248386 -0.1056,-0.492642 -0.19,-0.73l1.13793e-08,3.32126e-08c-0.111816,-0.326355 -0.383948,-0.57203 -0.72,-0.65l-6,-1.37l8.9776e-08,2.03558e-08c-0.330917,-0.0750319 -0.677305,0.0228605 -0.92,0.26c-0.14,0.13 -0.15,0.14 -0.8,1.38l-1.08847e-07,-5.14446e-08c-0.489239,-0.231231 -0.960546,-0.498639 -1.41,-0.799998l-1.43,1.43l-2.3848e-08,-1.74903e-08c0.899321,0.659571 1.88965,1.18505 2.94,1.56c0.84,0.34 1.17,-0.29 1.62,-1.16l0.29,-0.55l4.68,1.06v0.33l1.04797e-07,-2.74418e-05c-0.00546745,1.43366 -1.16631,2.59453 -2.59997,2.60003l-5.20693e-07,-1.16516e-09c-2.88926,-0.00646538 -5.69772,-0.95432 -8,-2.7l-1.46,1.43l8.39434e-07,6.58732e-07c2.69865,2.11772 6.0296,3.26912 9.45997,3.27l-2.01072e-07,-7.10543e-15c2.54051,1.11049e-07 4.6,-2.05949 4.6,-4.6l1.01985e-07,-8.46413e-05c0.000304426,-0.254528 -0.0197641,-0.508672 -0.0600132,-0.759997Z"></path>
    </g>
</svg>