<?xml version="1.0" encoding="UTF-8"?>
<svg version="1.1" viewBox="0 0 24 24" xmlns="http://www.w3.org/2000/svg" xmlns:xlink="http://www.w3.org/1999/xlink">
    <!--Generated by IJSVG (https://github.com/iconjar/IJSVG)-->
    <g fill="#FFF">
        <path opacity="0" d="M0,0h24v24h-24Z"></path>
        <path d="M12,2l-4.29415e-07,8.36049e-09c-5.62185,0.109455 -10.0948,4.74789 -10,10.37v4.63l4.61853e-14,6.03983e-07c3.33571e-07,2.20914 1.79086,4 4,4c2.20914,-3.33571e-07 4,-1.79086 4,-4c-3.33571e-07,-2.20914 -1.79086,-4 -4,-4l2.5021e-08,-1.04887e-10c-0.70496,0.00295515 -1.39601,0.196448 -2,0.56v-1.19l-8.90199e-08,-4.23336e-06c-0.0949972,-4.51766 3.48266,-8.26079 8,-8.37l-2.08715e-07,-5.04595e-09c4.51734,0.109212 8.095,3.85234 8,8.37v1.19l2.87991e-08,1.73346e-08c-0.603993,-0.363552 -1.29504,-0.557045 -2,-0.56l-1.74846e-07,1.77636e-15c-2.20914,9.65645e-08 -4,1.79086 -4,4c9.65645e-08,2.20914 1.79086,4 4,4c2.20914,-9.65645e-08 4,-1.79086 4,-4c0,0 0,0 0,0v-4.63l3.6771e-07,-2.1813e-05c0.0947683,-5.62211 -4.37818,-10.2605 -10,-10.37Zm-6,13l-8.74228e-08,1.77636e-15c1.10457,-4.82823e-08 2,0.89543 2,2c4.82823e-08,1.10457 -0.89543,2 -2,2c-1.10457,4.82823e-08 -2,-0.89543 -2,-2l2.30926e-14,3.01992e-07c-1.66785e-07,-1.10457 0.89543,-2 2,-2Zm12,4l-8.74228e-08,-3.55271e-15c-1.10457,-4.82823e-08 -2,-0.895431 -2,-2c4.82823e-08,-1.10457 0.895431,-2 2,-2c1.10457,4.82823e-08 2,0.895431 2,2v0c0,1.10457 -0.895431,2 -2,2Z"></path>
    </g>
</svg>