<?xml version="1.0" encoding="UTF-8"?>
<svg version="1.1" viewBox="0 0 24 24" xmlns="http://www.w3.org/2000/svg" xmlns:xlink="http://www.w3.org/1999/xlink">
    <!--Generated by IJSVG (https://github.com/iconjar/IJSVG)-->
    <g fill="#FFF">
        <path opacity="0" d="M0,0h24v24h-24Z"></path>
        <path d="M18,21h-6l-1.31134e-07,-3.55271e-15c-1.65685,-7.24234e-08 -3,-1.34315 -3,-3c0,0 0,-3.55271e-15 0,-3.55271e-15v-6l3.37508e-14,4.52987e-07c-2.50178e-07,-1.65685 1.34315,-3 3,-3h6l-1.31134e-07,3.55271e-15c1.65685,-7.24234e-08 3,1.34315 3,3v6v0c0,1.65685 -1.34315,3 -3,3Zm-6,-10l-4.37114e-08,1.77636e-15c-0.552285,2.41411e-08 -1,0.447715 -1,1c0,0 0,0 0,0v6l1.06581e-14,1.50996e-07c8.33927e-08,0.552285 0.447715,1 1,1h6h-4.37114e-08c0.552285,2.41411e-08 1,-0.447715 1,-1v-6v0c0,-0.552285 -0.447715,-1 -1,-1Z"></path>
        <path d="M9.73,15h-4.06l9.62869e-08,3.58613e-10c-1.47232,-0.00548352 -2.66452,-1.19768 -2.67,-2.67v-6.66l-5.87351e-08,1.57827e-05c0.0054749,-1.47232 1.19766,-2.66452 2.66998,-2.67002h6.66l1.17582e-07,4.37236e-10c1.47233,0.00547499 2.66453,1.19767 2.67002,2.67v3.73h-2v-3.73h-1.77636e-15c0,-0.370031 -0.299969,-0.67 -0.67,-0.67h-6.66l-2.92866e-08,8.88178e-16c-0.370031,1.61746e-08 -0.67,0.299969 -0.67,0.67v6.66l7.99361e-15,1.01167e-07c5.58731e-08,0.370031 0.299969,0.67 0.67,0.67h4.06Z"></path>
    </g>
</svg>