<?xml version="1.0" encoding="UTF-8"?>
<svg version="1.1" viewBox="0 0 24 24" xmlns="http://www.w3.org/2000/svg" xmlns:xlink="http://www.w3.org/1999/xlink">
    <!--Generated by IJSVG (https://github.com/iconjar/IJSVG)-->
    <g fill="#FFF">
        <path opacity="0" d="M0,0h24v24h-24Z"></path>
        <path d="M12.87,22l-9.77662e-08,-1.11186e-10c-0.482887,-0.000549188 -0.946205,-0.190905 -1.29,-0.53l-6.41,-6.42l4.95482e-08,4.92646e-08c-0.164488,-0.163546 -0.267005,-0.379187 -0.29,-0.61l-0.88,-9.35l-4.51763e-08,-4.91195e-07c-0.0272738,-0.296545 0.0790372,-0.589816 0.29,-0.8l-7.5099e-09,7.53774e-09c0.210184,-0.210963 0.503455,-0.317274 0.8,-0.29l9.35,0.88l6.59615e-08,6.57137e-09c0.230813,0.0229946 0.446454,0.125512 0.61,0.29l6.42,6.41l2.72362e-08,2.73181e-08c0.708179,0.710309 0.708179,1.85969 -5.44724e-08,2.57l-7.32,7.32l3.2904e-08,-3.27476e-08c-0.340115,0.338498 -0.800148,0.528981 -1.28,0.53Zm-6,-8.11l6,6l7.05,-7.05l-6,-6l-7.81,-0.73Z"></path>
        <path d="M11.5607,9.43934c0.585786,0.585786 0.585786,1.53553 0,2.12132c-0.585786,0.585786 -1.53553,0.585786 -2.12132,0c-0.585786,-0.585786 -0.585786,-1.53553 0,-2.12132c0.585786,-0.585786 1.53553,-0.585786 2.12132,0"></path>
    </g>
</svg>