<?xml version="1.0" encoding="UTF-8"?>
<svg version="1.1" viewBox="0 0 24 24" xmlns="http://www.w3.org/2000/svg" xmlns:xlink="http://www.w3.org/1999/xlink">
    <!--Generated by IJSVG (https://github.com/iconjar/IJSVG)-->
    <g fill="#FFF">
        <path opacity="0" d="M0,0h24v24h-24Z"></path>
        <path d="M8.9,5.17l-2.26867e-07,2.05556e-07c1.01482,-0.919494 2.38209,-1.34722 3.74,-1.17l1.74828e-07,2.83867e-08c2.39113,0.388245 4.13125,2.4781 4.08,4.9v4.5l-2.45655e-08,-2.15091e-06c0.0022919,0.200684 0.0360347,0.399768 0.0999992,0.59l3.6,3.6l-4.02016e-08,3.30224e-08c0.195982,-0.160984 0.35033,-0.366781 0.45,-0.6l6.21845e-08,-1.47033e-07c0.257628,-0.60915 0.119084,-1.31374 -0.35,-1.78l-1.8,-1.81v-4.46l2.46543e-07,-1.7052e-05c0.0495105,-3.42466 -2.43454,-6.36111 -5.82002,-6.87999l2.34679e-08,3.14385e-09c-1.92269,-0.257571 -3.86276,0.329556 -5.32,1.61l4.84502e-07,-4.01571e-07c-0.203548,0.168707 -0.397202,0.349006 -0.58,0.54l1.47,1.43l3.86453e-08,-4.83366e-08c0.132745,-0.166035 0.276396,-0.323048 0.43,-0.47Z"></path>
        <path d="M14,16.86l-0.83,-0.86h-7.66l1.18,-1.18l-3.61853e-08,3.59706e-08c0.378039,-0.375796 0.590422,-0.886955 0.59,-1.42v-3.29l-2,-2l4.2853e-08,-8.23987e-07c-0.0102211,0.196534 -0.0102212,0.393466 -8.57058e-08,0.59v4.7l-1.8,1.81l-1.43554e-07,1.41696e-07c-0.640689,0.632394 -0.647413,1.66443 -0.0150192,2.30512c0.309916,0.313981 0.733868,0.488928 1.17502,0.484881h3.36v0.34l-6.86402e-08,-1.49184e-06c0.0972507,2.11368 1.88602,3.7504 4,3.66l9.47688e-08,4.29979e-09c1.95447,0.088677 3.66921,-1.29168 4,-3.22l-0.83,-0.78Zm-2,3.14l-8.99105e-08,6.34645e-09c-1.00341,0.0708266 -1.88478,-0.660718 -2,-1.66v-0.34h4v0.34l-3.7189e-08,3.22546e-07c-0.115216,0.999282 -0.996595,1.73083 -2,1.66Z"></path>
        <path d="M20.71,19.29l-1.3,-1.29l-2,-2l-9.52,-9.53l-1.47,-1.47l-1.71,-1.71l6.9121e-08,6.91211e-08c-0.392122,-0.392122 -1.02788,-0.392122 -1.42,-1.38242e-07c-0.392122,0.392122 -0.392122,1.02788 -1.38242e-07,1.42c0,0 0,1.77636e-15 0,1.77636e-15l2.24,2.29l1.75,1.7l7.31,7.3l0.07,0.07l1.34,1.34l0.59,0.59l2.7,2.71l-3.12092e-08,-3.14662e-08c0.38892,0.392122 1.02208,0.394718 1.4142,0.00579839c0.00194069,-0.00192484 0.00387348,-0.00385763 0.00579832,-0.00579832l4.18882e-08,-4.15461e-08c0.392122,-0.38892 0.394718,-1.02208 0.00579824,-1.4142c-0.00192484,-0.00194069 -0.00385763,-0.00387348 -0.00579832,-0.00579832Z"></path>
    </g>
</svg>