<?xml version="1.0" encoding="UTF-8"?>
<svg version="1.1" viewBox="0 0 24 24" xmlns="http://www.w3.org/2000/svg" xmlns:xlink="http://www.w3.org/1999/xlink">
    <!--Generated by IJSVG (https://github.com/iconjar/IJSVG)-->
    <g fill="#FFF">
        <path opacity="0" d="M0,0h24v24h-24Z"></path>
        <path d="M11.11,23l-5.22208e-08,-6.14335e-11c-0.115955,-0.000136409 -0.231002,-0.0204389 -0.34,-0.0599999l7.61653e-08,2.78877e-08c-0.432709,-0.158435 -0.701133,-0.592043 -0.65,-1.05l0.77,-7.09h-5.89l3.00203e-08,-4.52758e-11c-0.552284,0.000832951 -1.00067,-0.446207 -1.00151,-0.998491c-0.000301811,-0.200114 0.0594427,-0.395716 0.171507,-0.561509l7.89,-11.8l4.37395e-08,-6.47267e-08c0.256746,-0.379939 0.739003,-0.53657 1.17,-0.38l-5.37016e-08,-1.9937e-08c0.41349,0.15351 0.677576,0.559796 0.65,1l-0.77,7.14h5.89l1.76615e-09,-2.66276e-12c0.552284,-0.000832934 1.00067,0.446207 1.00151,0.998491c0.000301804,0.200114 -0.0594428,0.395716 -0.171507,0.561509l-7.89,11.8l-3.43576e-08,5.08306e-08c-0.18627,0.275579 -0.497374,0.440501 -0.83,0.44Zm-4.24,-10.2h5.13l1.67e-08,3.94724e-11c0.282178,0.000666968 0.550941,0.120521 0.74,0.33l-7.68175e-09,-8.54721e-09c0.190876,0.212381 0.281854,0.496231 0.25,0.78l-0.45,4.15l4.59,-6.86h-5.13l-3.84971e-08,2.33698e-10c-0.552275,0.0033526 -1.0027,-0.441637 -1.00605,-0.993911c-0.00023542,-0.0387809 0.00178534,-0.0775427 0.00605203,-0.116089l0.45,-4.15Z"></path>
    </g>
</svg>