<?xml version="1.0" encoding="UTF-8"?>
<svg version="1.1" viewBox="0 0 24 24" xmlns="http://www.w3.org/2000/svg" xmlns:xlink="http://www.w3.org/1999/xlink">
    <!--Generated by IJSVG (https://github.com/iconjar/IJSVG)-->
    <g fill="#FFF">
        <path opacity="0" d="M0,0h24v24h-24Z" transform="matrix(6.12323e-17,1,-1,6.12323e-17,24,-7.34788e-16)"></path>
        <path d="M19,9l1.16532e-07,-3.27505e-10c-1.26825,0.00356432 -2.39725,0.804271 -2.82,2h-13.18l-4.37114e-08,1.77636e-15c-0.552285,2.41411e-08 -1,0.447715 -1,1c2.41411e-08,0.552285 0.447715,1 1,1h13.18l9.97827e-09,2.82224e-08c0.552291,1.56209 2.26634,2.3807 3.82843,1.82841c1.56209,-0.552291 2.3807,-2.26634 1.82841,-3.82843c-0.424817,-1.20155 -1.56241,-2.00355 -2.83685,-1.99998Zm0,4l-4.37114e-08,-1.77636e-15c-0.552285,-2.41411e-08 -1,-0.447715 -1,-1c2.41411e-08,-0.552285 0.447715,-1 1,-1c0.552285,2.41411e-08 1,0.447715 1,1v0c0,0.552285 -0.447715,1 -1,1Z"></path>
        <path d="M3,7h1.18l1.21436e-07,3.34579e-07c0.565277,1.55744 2.28608,2.36175 3.84352,1.79648c0.835347,-0.303191 1.49329,-0.96113 1.79648,-1.79648h11.18l-4.37114e-08,-8.88178e-16c0.552285,2.41411e-08 1,-0.447715 1,-1c2.41411e-08,-0.552285 -0.447715,-1 -1,-1h-11.18l2.60847e-09,7.18682e-09c-0.565276,-1.55744 -2.28608,-2.36175 -3.84352,-1.79648c-0.835347,0.30319 -1.49329,0.96113 -1.79648,1.79648h-1.18l-4.37114e-08,8.88178e-16c-0.552285,2.41411e-08 -1,0.447715 -1,1c2.41411e-08,0.552285 0.447715,1 1,1Zm4,-2l-4.37114e-08,8.88178e-16c0.552285,-2.41411e-08 1,0.447715 1,1c2.41411e-08,0.552285 -0.447715,1 -1,1c-0.552285,2.41411e-08 -1,-0.447715 -1,-1l1.15463e-14,1.50996e-07c-8.33927e-08,-0.552285 0.447715,-1 1,-1Z"></path>
        <path d="M21,17h-7.18l2.60847e-09,7.18682e-09c-0.565276,-1.55744 -2.28608,-2.36175 -3.84352,-1.79648c-0.835347,0.30319 -1.49329,0.96113 -1.79648,1.79648h-5.18h-4.37114e-08c-0.552285,2.41411e-08 -1,0.447715 -1,1c2.41411e-08,0.552285 0.447715,1 1,1h5.18l1.21436e-07,3.34579e-07c0.565277,1.55744 2.28608,2.36175 3.84352,1.79648c0.835347,-0.303191 1.49329,-0.96113 1.79648,-1.79648h7.18h-4.37114e-08c0.552285,2.41411e-08 1,-0.447715 1,-1c2.41411e-08,-0.552285 -0.447715,-1 -1,-1Zm-10,2h-4.37114e-08c-0.552285,-2.41411e-08 -1,-0.447715 -1,-1c2.41411e-08,-0.552285 0.447715,-1 1,-1c0.552285,2.41411e-08 1,0.447715 1,1v0c0,0.552285 -0.447715,1 -1,1Z"></path>
    </g>
</svg>