<?xml version="1.0" encoding="UTF-8"?>
<svg version="1.1" viewBox="0 0 24 24" xmlns="http://www.w3.org/2000/svg" xmlns:xlink="http://www.w3.org/1999/xlink">
    <!--Generated by IJSVG (https://github.com/iconjar/IJSVG)-->
    <g fill="#FFF">
        <path opacity="0" d="M0,0h24v24h-24Z"></path>
        <path d="M20,13.18h-4.06l2.3,-2.47l5.0936e-09,-5.12399e-09c0.387724,-0.390037 0.387724,-1.01996 -1.01872e-08,-1.41l-4.19,-3.86l3.64261e-08,3.52973e-08c-0.189166,-0.183305 -0.447192,-0.277793 -0.71,-0.26l-4.80423e-08,1.15747e-09c-0.265216,0.00638982 -0.517025,0.117905 -0.7,0.31l-1.82,2v-3.49v0c0,-0.552285 -0.447715,-1 -1,-1h-5.82h-4.37114e-08c-0.552285,2.41411e-08 -1,0.447715 -1,1c0,0 0,0 0,0v13.09l4.61853e-14,5.46682e-07c3.26065e-07,2.15943 1.75057,3.91 3.91,3.91h13.09h-4.37114e-08c0.552285,2.41411e-08 1,-0.447715 1,-1v-5.82v0c0,-0.552285 -0.447715,-1 -1,-1Zm-6.58,-5.59l2.67,2.49l-5.27,5.66v-5.36Zm-4.6,2.41v3h-3.82v-3Zm0,-5v3h-3.82v-3Zm-3.82,12.09v-2.09h3.82v2.09v0c0,1.05486 -0.855136,1.91 -1.91,1.91c-1.05486,0 -1.91,-0.855136 -1.91,-1.91Zm14,1.91h-8.49l3.56,-3.82h4.93Z"></path>
    </g>
</svg>