<?xml version="1.0" encoding="UTF-8"?>
<svg version="1.1" viewBox="0 0 24 24" xmlns="http://www.w3.org/2000/svg" xmlns:xlink="http://www.w3.org/1999/xlink">
    <!--Generated by IJSVG (https://github.com/iconjar/IJSVG)-->
    <g fill="#FFF">
        <path opacity="0" d="M0,0h24v24h-24Z" transform="matrix(6.12323e-17,1,-1,6.12323e-17,24,-7.34788e-16)"></path>
        <path d="M22.56,16.3l-7.67,-12.72l2.24869e-07,3.5178e-07c-1.02028,-1.5961 -3.14127,-2.0629 -4.73738,-1.04262c-0.419016,0.267848 -0.774776,0.623608 -1.04262,1.04262l-7.67,12.72l1.04513e-07,-1.74218e-07c-0.551454,0.919247 -0.570515,2.06289 -0.0500002,3l-3.91986e-09,-6.87073e-09c0.601974,1.05514 1.72523,1.70464 2.94,1.7h15.34l-1.29108e-07,-1.37769e-09c1.2065,0.0128745 2.32783,-0.620256 2.94,-1.66l6.75078e-08,-1.19299e-07c0.536086,-0.947362 0.516951,-2.11078 -0.0500001,-3.04Zm-1.7,2.05l1.57287e-08,-2.7037e-08c-0.244957,0.421072 -0.703332,0.671445 -1.19,0.65h-15.34l4.16471e-08,-1.83516e-09c-0.486668,0.0214448 -0.945043,-0.228928 -1.19,-0.65l2.31785e-08,4.01463e-08c-0.178633,-0.309401 -0.178633,-0.690599 -4.6357e-08,-1l7.68,-12.73l9.21575e-08,-1.21734e-07c0.493361,-0.651696 1.42161,-0.780052 2.07331,-0.286691c0.108263,0.0819596 0.204732,0.178428 0.286692,0.286692l7.67,12.72l1.00599e-08,1.68087e-08c0.185606,0.310122 0.189429,0.696263 0.00999998,1.01Z"></path>
        <path d="M12.7071,15.2929c0.390524,0.390524 0.390524,1.02369 0,1.41421c-0.390524,0.390524 -1.02369,0.390524 -1.41421,0c-0.390524,-0.390524 -0.390524,-1.02369 0,-1.41421c0.390524,-0.390524 1.02369,-0.390524 1.41421,0"></path>
        <path d="M12,8l-4.37114e-08,1.77636e-15c-0.552285,2.41411e-08 -1,0.447715 -1,1c0,0 0,0 0,0v4l1.06581e-14,1.50996e-07c8.33927e-08,0.552285 0.447715,1 1,1c0.552285,-8.33927e-08 1,-0.447715 1,-1v-4v0c0,-0.552285 -0.447715,-1 -1,-1Z"></path>
    </g>
</svg>