<?xml version="1.0" encoding="UTF-8"?>
<svg version="1.1" viewBox="0 0 24 24" xmlns="http://www.w3.org/2000/svg" xmlns:xlink="http://www.w3.org/1999/xlink">
    <!--Generated by IJSVG (https://github.com/iconjar/IJSVG)-->
    <g fill="#FFF">
        <path opacity="0" d="M0,0h24v24h-24Z" transform="matrix(6.12323e-17,1,-1,6.12323e-17,24,-7.34788e-16)"></path>
        <path d="M16,10h-8.92l2.7,-3.38l5.75381e-08,-6.09561e-08c0.379102,-0.401622 0.360846,-1.03452 -0.0407762,-1.41363c-0.401622,-0.379102 -1.03452,-0.360846 -1.41363,0.0407762c-0.0389,0.0412108 -0.0742265,0.0856538 -0.105598,0.132849l-4,5l6.47907e-08,-8.19918e-08c-0.287198,0.363445 -0.287198,0.876555 -1.29581e-07,1.24l4,5l-8.50409e-08,-1.07621e-07c0.188647,0.238738 0.475728,0.378598 0.78,0.380001l4.63976e-08,-2.69132e-10c0.225564,-0.00130841 0.444061,-0.0788394 0.62,-0.22l1.00866e-08,-8.077e-09c0.428908,-0.343454 0.500357,-0.96863 0.16,-1.4l-2.7,-3.38h8.92l-4.37114e-08,1.77636e-15c0.552285,-2.41411e-08 1,0.447715 1,1v5l1.06581e-14,1.50996e-07c8.33927e-08,0.552285 0.447715,1 1,1c0.552285,-8.33927e-08 1,-0.447715 1,-1v-5v0c0,-1.65685 -1.34315,-3 -3,-3Z"></path>
    </g>
</svg>