<?xml version="1.0" encoding="UTF-8"?>
<svg version="1.1" viewBox="0 0 24 24" xmlns="http://www.w3.org/2000/svg" xmlns:xlink="http://www.w3.org/1999/xlink">
    <!--Generated by IJSVG (https://github.com/iconjar/IJSVG)-->
    <g fill="#FFF">
        <path opacity="0" d="M0,0h24v24h-24"></path>
        <path d="M8.51,20h-0.08l2.01986e-07,1.76853e-09c-1.61164,-0.0141111 -3.19997,-0.38643 -4.65,-1.09l-8.18623e-08,-3.84535e-08c-0.547496,-0.257178 -0.863694,-0.840928 -0.78,-1.44l-1.79088e-08,1.18666e-07c0.0909613,-0.60272 0.558923,-1.07875 1.16,-1.18l5.04197e-07,-6.72681e-08c0.89861,-0.119889 1.76309,-0.422796 2.54,-0.89l-5.71594e-07,-4.46896e-07c-2.74799,-2.1485 -4.09582,-5.63135 -3.51,-9.07l-5.24085e-08,3.59376e-07c0.0796199,-0.545971 0.470374,-0.995338 1,-1.15l4.07639e-08,-1.28021e-08c0.515762,-0.161978 1.07842,-0.000656797 1.43,0.41l1.92382e-07,2.52265e-07c1.18025,1.54763 2.94483,2.54201 4.88,2.75l-5.24307e-08,1.35051e-06c0.0457389,-1.17815 0.552036,-2.29128 1.41,-3.1l8.13835e-09,-7.79306e-09c1.78306,-1.70741 4.61264,-1.64608 6.32005,0.136979c0.0167936,0.0175377 0.033444,0.0352119 0.0499496,0.053021l2.71221e-08,2.39782e-08c0.214941,0.190026 0.524074,0.229658 0.78,0.1l7.85707e-08,-3.70568e-08c0.694327,-0.32747 1.52266,-0.0300736 1.85013,0.664253c0.137724,0.292012 0.1695,0.622859 0.0898741,0.935747l1.16323e-08,-4.79167e-08c-0.23065,0.950115 -0.667661,1.83779 -1.28,2.6l1.51235e-07,-3.18768e-06c-0.280939,5.92155 -5.28654,10.5074 -11.21,10.27Zm0,-2h0.08l4.1349e-07,1.42222e-08c4.85171,0.166878 8.92009,-3.63093 9.08696,-8.48265c0.00123061,-0.0357781 0.00224263,-0.0715634 0.00303602,-0.107354l-4.87218e-08,9.40514e-07c0.0165121,-0.318748 0.147958,-0.620718 0.369999,-0.85l2.26427e-08,-2.86628e-08c0.243905,-0.308754 0.451908,-0.644242 0.62,-1l-7.14158e-08,1.3589e-10c-0.728618,0.0013864 -1.42331,-0.307768 -1.91,-0.85l7.36105e-08,7.29882e-08c-0.467456,-0.463504 -1.10177,-0.719393 -1.76,-0.71l1.00615e-07,2.60173e-09c-0.664683,-0.0171875 -1.30883,0.231115 -1.79,0.69l7.93974e-08,-7.53418e-08c-0.654123,0.62071 -0.928423,1.54266 -0.72,2.42l0.26,1.14l-1.17,0.08l-3.68441e-07,3.00439e-08c-2.42648,0.197863 -4.81748,-0.679568 -6.54,-2.4l-2.9031e-07,1.04703e-05c-0.0744298,2.68445 1.36789,5.18241 3.73001,6.45999l0.95,0.54l-0.63,0.9l-4.44356e-08,5.82765e-08c-0.681308,0.893523 -1.61482,1.5623 -2.68,1.92l-5.62869e-07,-1.41077e-07c0.68331,0.171264 1.38556,0.255265 2.08999,0.249996Zm10.49,-11.35Z"></path>
    </g>
</svg>