<?xml version="1.0" encoding="UTF-8"?>
<svg version="1.1" viewBox="0 0 24 24" xmlns="http://www.w3.org/2000/svg" xmlns:xlink="http://www.w3.org/1999/xlink">
    <!--Generated by IJSVG (https://github.com/iconjar/IJSVG)-->
    <g fill="#FFF">
        <path opacity="0" d="M0,0h24v24h-24Z"></path>
        <path d="M20.66,7.26c0,-0.07 -0.1,-0.14 -0.15,-0.21l-0.09,-0.1l-1.50595e-08,-1.85966e-08c-0.232822,-0.287507 -0.526551,-0.519758 -0.86,-0.68l-6.4,-3l1.50956e-07,6.95633e-08c-0.717095,-0.33045 -1.5429,-0.33045 -2.26,-2.54249e-07l-6.4,3l7.6793e-09,-3.77234e-09c-0.331741,0.162963 -0.624925,0.394783 -0.86,0.68l-0.12,0.0500002l-1.10217e-07,1.13931e-07c-0.0581692,0.0601295 -0.108563,0.127321 -0.15,0.2l-7.30652e-08,1.1553e-07c-0.238563,0.377213 -0.366735,0.813691 -0.37,1.26v7.06l-1.71639e-09,-6.11896e-07c0.00273214,0.974055 0.573182,1.85708 1.46,2.26l6.4,3l-1.99281e-07,-9.23255e-08c0.719912,0.333531 1.55009,0.333531 2.27,1.84651e-07l6.4,-3l-4.78035e-08,2.14608e-08c0.884188,-0.396944 1.45771,-1.27088 1.47,-2.24v-7.08l-1.67018e-08,-1.37869e-06c-0.00512498,-0.423043 -0.122454,-0.837144 -0.340001,-1.2Zm-8.95,-2.2l3.90852e-08,-1.69193e-08c0.185037,-0.0800995 0.394963,-0.0800995 0.58,3.38387e-08l5.33,2.48l-5.62,2.61l-5.62,-2.61Zm-6.41,10.94l1.11477e-08,4.32287e-09c-0.178085,-0.0690582 -0.296665,-0.239023 -0.3,-0.43v-6.47l6,2.79v6.72Zm13.39,0l-5.69,2.61v-6.72l6,-2.79v6.44l1.85307e-08,8.03736e-07c0.00469315,0.203564 -0.11956,0.387939 -0.310001,0.459999Z"></path>
    </g>
</svg>