<?xml version="1.0" encoding="UTF-8"?>
<svg version="1.1" viewBox="0 0 24 24" xmlns="http://www.w3.org/2000/svg" xmlns:xlink="http://www.w3.org/1999/xlink">
    <!--Generated by IJSVG (https://github.com/iconjar/IJSVG)-->
    <g fill="#FFF">
        <path opacity="0" d="M0,0h24v24h-24Z"></path>
        <path d="M21.08,7l4.98985e-08,8.64566e-08c-0.351482,-0.608995 -0.996945,-0.988679 -1.7,-1h-12.8l-0.58,-2.26l-1.84443e-10,-6.86653e-10c-0.120664,-0.449218 -0.535131,-0.755924 -1,-0.74h-2h-2.2638e-08c-0.552285,2.41411e-08 -1,0.447715 -1,1c2.41411e-08,0.552285 0.447715,1 1,1h1.24l2.76,10.26l2.38926e-08,8.89491e-08c0.120664,0.449218 0.535131,0.755923 1,0.74h9l-2.16003e-08,6.54676e-11c0.376558,-0.0011413 0.72055,-0.21372 0.89,-0.55l3.28,-6.56l1.65852e-08,-3.47635e-08c0.288756,-0.605248 0.254961,-1.31493 -0.0900001,-1.89Zm-4.7,7h-7.62l-1.63,-6h12.25Z"></path>
        <path d="M8.56066,18.4393c0.585786,0.585786 0.585786,1.53553 0,2.12132c-0.585786,0.585786 -1.53553,0.585786 -2.12132,0c-0.585786,-0.585786 -0.585786,-1.53553 0,-2.12132c0.585786,-0.585786 1.53553,-0.585786 2.12132,0"></path>
        <path d="M18.5607,18.4393c0.585786,0.585786 0.585786,1.53553 0,2.12132c-0.585786,0.585786 -1.53553,0.585786 -2.12132,0c-0.585786,-0.585786 -0.585786,-1.53553 0,-2.12132c0.585786,-0.585786 1.53553,-0.585786 2.12132,0"></path>
    </g>
</svg>