<?xml version="1.0" encoding="UTF-8"?>
<svg version="1.1" viewBox="0 0 24 24" xmlns="http://www.w3.org/2000/svg" xmlns:xlink="http://www.w3.org/1999/xlink">
    <!--Generated by IJSVG (https://github.com/iconjar/IJSVG)-->
    <g fill="#FFF">
        <path opacity="0" d="M0,0h24v24h-24Z"></path>
        <path d="M12,2l-4.37114e-07,1.06581e-14c-5.52285,2.41411e-07 -10,4.47715 -10,10c2.41411e-07,5.52285 4.47715,10 10,10c5.52285,-2.41411e-07 10,-4.47715 10,-10l7.10543e-15,4.37114e-07c0,-5.52285 -4.47715,-10 -10,-10Zm0,18l-3.49691e-07,-7.10543e-15c-4.41828,-1.93129e-07 -8,-3.58172 -8,-8c1.93129e-07,-4.41828 3.58172,-8 8,-8c4.41828,1.93129e-07 8,3.58172 8,8v1.77636e-15c0,4.41828 -3.58172,8 -8,8c0,0 -3.55271e-15,0 -3.55271e-15,0Z"></path>
        <path d="M12.34,7.45l2.51754e-08,2.32004e-08c-0.500881,-0.461588 -1.22892,-0.579648 -1.85,-0.3l-1.30693e-08,5.28675e-09c-0.603307,0.244048 -0.998682,0.829203 -1,1.48v6.74l-4.04623e-08,-2.0037e-05c0.00131013,0.650797 0.396678,1.23596 0.999981,1.48001l3.68189e-08,1.66988e-08c0.216777,0.0983165 0.451971,0.149446 0.69,0.15l-7.48427e-08,3.31582e-10c0.428914,-0.00190026 0.842013,-0.162154 1.16,-0.45l3.66002,-3.36999l1.85125e-08,-1.69523e-08c0.651696,-0.596774 0.696219,-1.60886 0.0994446,-2.26056c-0.0316746,-0.0345897 -0.0648549,-0.0677699 -0.0994446,-0.0994446Zm-0.84,7.15v-5.2l2.81,2.6Z"></path>
    </g>
</svg>