<?xml version="1.0" encoding="UTF-8"?>
<svg version="1.1" viewBox="0 0 24 24" xmlns="http://www.w3.org/2000/svg" xmlns:xlink="http://www.w3.org/1999/xlink">
    <!--Generated by IJSVG (https://github.com/iconjar/IJSVG)-->
    <g fill="#FFF">
        <path opacity="0" d="M0,0h24v24h-24Z"></path>
        <path d="M20.71,19.29l-3.4,-3.39l-6.89619e-08,8.78567e-08c1.09698,-1.39755 1.69221,-3.12334 1.69,-4.9v0c0,-4.41828 -3.58172,-8 -8,-8c-4.41828,0 -8,3.58172 -8,8c0,4.41828 3.58172,8 8,8l4.08241e-07,5.07665e-10c1.77666,0.0022093 3.50245,-0.593016 4.9,-1.69l3.39,3.4l-3.12092e-08,-3.14662e-08c0.38892,0.392122 1.02208,0.394718 1.4142,0.00579839c0.00194069,-0.00192484 0.00387348,-0.00385763 0.00579832,-0.00579832l4.18882e-08,-4.15461e-08c0.392122,-0.38892 0.394718,-1.02208 0.00579824,-1.4142c-0.00192484,-0.00194069 -0.00385763,-0.00387348 -0.00579832,-0.00579832Zm-15.71,-8.29l6.83897e-14,9.05975e-07c-5.00356e-07,-3.31371 2.68629,-6 6,-6c3.31371,-5.00356e-07 6,2.68629 6,6c5.00356e-07,3.31371 -2.68629,6 -6,6l-2.62268e-07,-7.10543e-15c-3.31371,-1.44847e-07 -6,-2.68629 -6,-6c0,0 0,-1.77636e-15 0,-1.77636e-15Z"></path>
        <path d="M13,10h-4l-4.37114e-08,1.77636e-15c-0.552285,2.41411e-08 -1,0.447715 -1,1c2.41411e-08,0.552285 0.447715,1 1,1h4l-4.37114e-08,-1.77636e-15c0.552285,2.41411e-08 1,-0.447715 1,-1c2.41411e-08,-0.552285 -0.447715,-1 -1,-1Z"></path>
    </g>
</svg>