<?xml version="1.0" encoding="UTF-8"?>
<svg version="1.1" viewBox="0 0 24 24" xmlns="http://www.w3.org/2000/svg" xmlns:xlink="http://www.w3.org/1999/xlink">
    <!--Generated by IJSVG (https://github.com/iconjar/IJSVG)-->
    <g fill="#FFF">
        <path opacity="0" d="M0,0h24v24h-24Z"></path>
        <path d="M20.78,8.37l-3.43039e-10,-4.24713e-10c-0.347939,-0.430782 -0.979218,-0.497939 -1.41,-0.15c-0.430782,0.347939 -0.497939,0.979218 -0.15,1.41c0,0 9.38773e-09,1.16229e-08 9.38773e-09,1.16229e-08l7.57395e-08,1.02976e-07c1.03696,1.40986 1.03696,3.33014 -6.33154e-08,4.74l-3.54958e-08,4.37547e-08c-0.347943,0.428899 -0.282314,1.05865 0.146585,1.4066c0.179068,0.145268 0.402835,0.22419 0.633415,0.223404l5.34708e-08,1.8181e-10c0.302588,0.00102884 0.58937,-0.135009 0.78,-0.37l6.64686e-08,-8.74777e-08c1.6302,-2.14546 1.6302,-5.11454 -1.32937e-07,-7.26Z"></path>
        <path d="M16.47,3.12l7.80015e-08,4.50342e-08c-0.309401,-0.178633 -0.690599,-0.178633 -1,-9.00684e-08l-6.47,4.45h-5h-4.37114e-08c-0.552285,2.41411e-08 -1,0.447715 -1,1c0,0 0,0 0,0v6.86l1.24345e-14,1.50996e-07c8.33927e-08,0.552285 0.447715,1 1,1h5l6.41,4.4l8.18227e-08,5.29518e-08c0.175588,0.113632 0.380869,0.172781 0.59,0.17h-4.37114e-08c0.552285,2.41411e-08 1,-0.447715 1,-1v-16l4.32723e-08,1.62666e-05c-0.00097753,-0.368594 -0.204641,-0.706765 -0.529986,-0.880009Zm-1.47,14.98l-5.1,-3.5l1.82151e-08,1.22441e-08c-0.168359,-0.11317 -0.367155,-0.17246 -0.57,-0.17h-4.33v-4.86h4.33l4.94019e-08,5.99149e-10c0.202845,0.00246011 0.401641,-0.05683 0.57,-0.17l5.1,-3.5Z"></path>
    </g>
</svg>