<?xml version="1.0" encoding="UTF-8"?>
<svg version="1.1" viewBox="0 0 24 24" xmlns="http://www.w3.org/2000/svg" xmlns:xlink="http://www.w3.org/1999/xlink">
    <!--Generated by IJSVG (https://github.com/iconjar/IJSVG)-->
    <g fill="#FFF">
        <path opacity="0" d="M0,0h24v24h-24Z"></path>
        <path d="M17.91,5h-12l1.3,-1.29l6.9121e-08,-6.91211e-08c0.392122,-0.392122 0.392122,-1.02788 -1.38242e-07,-1.42c-0.392122,-0.392122 -1.02788,-0.392122 -1.42,1.38242e-07l-3,3l2.29995e-08,-2.28117e-08c-0.392122,0.38892 -0.394718,1.02208 -0.00579837,1.4142c0.00192484,0.00194069 0.00385763,0.00387348 0.00579832,0.00579832l3,3l-3.12092e-08,-3.14662e-08c0.38892,0.392122 1.02208,0.394718 1.4142,0.00579839c0.00194069,-0.00192484 0.00387348,-0.00385763 0.00579832,-0.00579832l4.18882e-08,-4.15461e-08c0.392122,-0.38892 0.394718,-1.02208 0.00579824,-1.4142c-0.00192484,-0.00194069 -0.00385763,-0.00387348 -0.00579832,-0.00579832l-1.3,-1.29h12l5.27676e-08,-1.02452e-09c0.861402,-0.0167247 1.57326,0.668021 1.58999,1.52942c3.73309e-06,0.000192271 7.43062e-06,0.000384544 1.10926e-05,0.000576816v2.47l1.06581e-14,1.50996e-07c8.33927e-08,0.552285 0.447715,1 1,1c0.552285,-8.33927e-08 1,-0.447715 1,-1v-2.47l1.41228e-07,1.68347e-05c-0.0164888,-1.96606 -1.62367,-3.54651 -3.58973,-3.53002c-8.42671e-05,7.06725e-07 -0.000168534,1.41644e-06 -0.000252801,2.12915e-06Z"></path>
        <path d="M18.21,14.29l6.9121e-08,6.91211e-08c-0.392122,-0.392122 -1.02788,-0.392122 -1.42,-1.38242e-07c-0.392122,0.392122 -0.392122,1.02788 -1.38242e-07,1.42c0,0 0,0 0,0l1.3,1.29h-12l-3.19004e-09,6.19345e-11c-0.861402,0.0167248 -1.57326,-0.668021 -1.58999,-1.52942c-3.73309e-06,-0.000192271 -7.43064e-06,-0.000384544 -1.10926e-05,-0.000576816v-2.47v0c0,-0.552285 -0.447715,-1 -1,-1c-0.552285,0 -1,0.447715 -1,1v2.47l-1.41414e-07,-1.68569e-05c0.0164888,1.96606 1.62367,3.54651 3.58973,3.53002c8.429e-05,-7.06916e-07 0.00016858,-1.41683e-06 0.00025287,-2.12973e-06h12l-1.3,1.29l2.29995e-08,-2.28117e-08c-0.392122,0.38892 -0.394718,1.02208 -0.00579837,1.4142c0.00192484,0.00194069 0.00385763,0.00387348 0.00579832,0.00579832l-3.12092e-08,-3.14662e-08c0.38892,0.392122 1.02208,0.394718 1.4142,0.00579839c0.00194069,-0.00192484 0.00387348,-0.00385763 0.00579832,-0.00579832l3,-3l4.18882e-08,-4.15461e-08c0.392122,-0.38892 0.394718,-1.02208 0.00579824,-1.4142c-0.00192484,-0.00194069 -0.00385763,-0.00387348 -0.00579832,-0.00579832Z"></path>
    </g>
</svg>