<?xml version="1.0" encoding="UTF-8"?>
<svg version="1.1" viewBox="0 0 24 24" xmlns="http://www.w3.org/2000/svg" xmlns:xlink="http://www.w3.org/1999/xlink">
    <!--Generated by IJSVG (https://github.com/iconjar/IJSVG)-->
    <g fill="#FFF">
        <path opacity="0" d="M0,0h24v24h-24Z"></path>
        <path d="M5,20c-0.55228,0 -1,-0.44772 -1,-1v0c0,-0.55228 0.44772,-1 1,-1h14c0.55228,0 1,0.44772 1,1v0c0,0.55228 -0.44772,1 -1,1Z"></path>
        <path d="M4,19c-0.55228,0 -1,-0.44772 -1,-1v0c0,-0.55228 0.44772,-1 1,-1h2c0.55228,0 1,0.44772 1,1v0c0,0.55228 -0.44772,1 -1,1Z" transform="matrix(6.12323e-17,-1,1,6.12323e-17,-13,23)"></path>
        <path d="M18,19c-0.55228,0 -1,-0.44772 -1,-1v0c0,-0.55228 0.44772,-1 1,-1h2c0.55228,0 1,0.44772 1,1v0c0,0.55228 -0.44772,1 -1,1Z" transform="matrix(6.12323e-17,-1,1,6.12323e-17,1,37)"></path>
        <path d="M12,15l2.55692e-08,-1.94207e-10c-0.207318,0.00157466 -0.41,-0.0613267 -0.58,-0.18l-4,-2.82l1.05579e-07,7.48961e-08c-0.448815,-0.318383 -0.556067,-0.939551 -0.24,-1.39l-2.12879e-08,3.03793e-08c0.316938,-0.452293 0.940523,-0.56202 1.39282,-0.245082c0.00240228,0.00168337 0.00479715,0.0033773 0.00718453,0.00508174l3.42,2.39l3.4,-2.56l-8.39181e-08,6.29386e-08c0.441828,-0.331371 1.06863,-0.241828 1.4,0.2c0.331371,0.441828 0.241828,1.06863 -0.2,1.4l-4,3l5.57032e-08,-4.17774e-08c-0.173096,0.129822 -0.38363,0.2 -0.6,0.2Z"></path>
        <path d="M12,13l-4.37114e-08,-1.77636e-15c-0.552285,-2.41411e-08 -1,-0.447715 -1,-1c0,0 0,0 0,0v-8l1.06581e-14,1.50996e-07c-8.33927e-08,-0.552285 0.447715,-1 1,-1c0.552285,-8.33927e-08 1,0.447715 1,1c0,0 0,0 0,0v8v0c0,0.552285 -0.447715,1 -1,1Z"></path>
    </g>
</svg>