<?xml version="1.0" encoding="UTF-8"?>
<svg version="1.1" viewBox="0 0 24 24" xmlns="http://www.w3.org/2000/svg" xmlns:xlink="http://www.w3.org/1999/xlink">
    <!--Generated by IJSVG (https://github.com/iconjar/IJSVG)-->
    <g fill="#FFF">
        <path opacity="0" d="M0,0h24v24h-24Z"></path>
        <path d="M10,6l2.30926e-14,3.01992e-07c-1.66785e-07,-1.10457 0.89543,-2 2,-2c1.10457,-1.66785e-07 2,0.89543 2,2c0,0 0,1.77636e-15 0,1.77636e-15v5l1.58534e-08,1.97533e-07c0.0042735,0.0532477 0.00427349,0.106752 -3.17069e-08,0.16l1.6,1.59l6.43705e-08,-1.32907e-07c0.264197,-0.545494 0.400974,-1.14389 0.4,-1.75v-5l5.40236e-08,4.82825e-06c-0.0247153,-2.209 -1.8355,-3.97971 -4.0445,-3.955c-1.88586,0.0210998 -3.50077,1.35661 -3.8755,3.20499l1.92,1.92Z"></path>
        <path d="M19,11v0c0,-0.552285 -0.447715,-1 -1,-1c-0.552285,0 -1,0.447715 -1,1l6.80629e-11,-2.04402e-08c-0.00290898,0.873659 -0.241271,1.73038 -0.69,2.48l1.47,1.52l7.4048e-08,-1.08381e-07c0.804748,-1.17787 1.23042,-2.5735 1.22,-4Z"></path>
        <path d="M12,15h0.16l-4.16,-4.17v0.17l4.61853e-14,6.03983e-07c3.33571e-07,2.20914 1.79086,4 4,4Z"></path>
        <path d="M20.71,19.29l-16,-16l6.9121e-08,6.91211e-08c-0.392122,-0.392122 -1.02788,-0.392122 -1.42,-1.38242e-07c-0.392122,0.392122 -0.392122,1.02788 -1.38242e-07,1.42c0,0 0,0 0,0l16,16l-3.12092e-08,-3.14662e-08c0.38892,0.392122 1.02208,0.394718 1.4142,0.00579839c0.00194069,-0.00192484 0.00387348,-0.00385763 0.00579832,-0.00579832l4.18882e-08,-4.15461e-08c0.392122,-0.38892 0.394718,-1.02208 0.00579824,-1.4142c-0.00192484,-0.00194069 -0.00385763,-0.00387348 -0.00579832,-0.00579832Z"></path>
        <path d="M15,20h-2v-2.08l5.51723e-07,-7.6806e-08c0.565896,-0.0787791 1.12002,-0.226545 1.65,-0.44l-1.6,-1.6l3.31204e-07,-7.74371e-08c-0.344182,0.0804713 -0.696537,0.120741 -1.05,0.12l-2.18557e-07,-3.55271e-15c-2.76142,-1.20706e-07 -5,-2.23858 -5,-5c0,0 0,-1.77636e-15 0,-1.77636e-15v0c0,-0.552285 -0.447715,-1 -1,-1c-0.552285,0 -1,0.447715 -1,1l-2.18573e-07,-0.000188667c0.00398082,3.47658 2.5589,6.42342 5.99981,6.92016v2.08003h-1.99981h-4.37114e-08c-0.552285,2.41411e-08 -1,0.447715 -1,1c2.41411e-08,0.552285 0.447715,1 1,1h6h-4.37114e-08c0.552285,2.41411e-08 1,-0.447715 1,-1c2.41411e-08,-0.552285 -0.447715,-1 -1,-1Z"></path>
    </g>
</svg>