<?xml version="1.0" encoding="UTF-8"?>
<svg version="1.1" viewBox="0 0 24 24" xmlns="http://www.w3.org/2000/svg" xmlns:xlink="http://www.w3.org/1999/xlink">
    <!--Generated by IJSVG (https://github.com/iconjar/IJSVG)-->
    <g fill="#FFF">
        <path opacity="0" d="M0,0h24v24h-24Z"></path>
        <path d="M17,15.59l-2,-2l-6.59,-6.59l-2,-2l-1.7,-1.71l6.9121e-08,6.91211e-08c-0.392122,-0.392122 -1.02788,-0.392122 -1.42,-1.38242e-07c-0.392122,0.392122 -0.392122,1.02788 -1.38242e-07,1.42c0,0 0,1.77636e-15 0,1.77636e-15l0.54,0.53l1.76,1.76l9.34,9.34l1.46,1.46l2.9,2.91l-3.12092e-08,-3.14662e-08c0.38892,0.392122 1.02208,0.394718 1.4142,0.00579839c0.00194069,-0.00192484 0.00387348,-0.00385763 0.00579832,-0.00579832l4.18882e-08,-4.15461e-08c0.392122,-0.38892 0.394718,-1.02208 0.00579824,-1.4142c-0.00192484,-0.00194069 -0.00385763,-0.00387348 -0.00579832,-0.00579832Z"></path>
        <path d="M14,17h-9h-4.37114e-08c-0.552285,-2.41411e-08 -1,-0.447715 -1,-1c0,0 0,0 0,0v-8l-3.97224e-09,1.97072e-07c0.00620205,-0.3077 0.153743,-0.595405 0.4,-0.78l-1.4,-1.42l-9.55198e-08,8.54186e-08c-0.627018,0.560711 -0.989832,1.3589 -1,2.2v8l3.37508e-14,4.52987e-07c2.50178e-07,1.65685 1.34315,3 3,3h9l-1.15235e-07,-1.99574e-10c0.592063,0.0010254 1.17064,-0.176731 1.66,-0.51l-1.52,-1.49l3.3446e-08,-3.36145e-09c-0.0465494,0.00467839 -0.0934506,0.0046784 -0.14,6.7229e-09Z"></path>
        <path d="M21,7.15l7.26523e-08,3.27124e-08c-0.621081,-0.279648 -1.34912,-0.161588 -1.85,0.3l-2.15,2v-1.45v0c0,-1.65685 -1.34315,-3 -3,-3h-6.17l2,2h4.17l-4.37114e-08,1.77636e-15c0.552285,-2.41411e-08 1,0.447715 1,1v4.17l4.72,4.72l1.96778e-07,7.37414e-08c0.191906,0.0719156 0.395063,0.109161 0.6,0.11l-2.47111e-08,5.75433e-11c0.238029,-0.000554274 0.473223,-0.0516835 0.69,-0.15l-1.166e-07,4.71666e-08c0.603307,-0.244048 0.998682,-0.829203 1,-1.48v-6.74l3.29126e-08,7.26476e-06c-0.00295808,-0.653261 -0.402761,-1.23912 -1.00999,-1.48Zm-1,7.45l-2.81,-2.6l2.81,-2.6Z"></path>
    </g>
</svg>