<?xml version="1.0" encoding="UTF-8"?>
<svg version="1.1" viewBox="0 0 24 24" xmlns="http://www.w3.org/2000/svg" xmlns:xlink="http://www.w3.org/1999/xlink">
    <!--Generated by IJSVG (https://github.com/iconjar/IJSVG)-->
    <g fill="#FFF">
        <path opacity="0" d="M0,0h24v24h-24Z"></path>
        <path d="M18,15l1.41157e-07,-1.1649e-10c-0.785602,0.000648287 -1.5396,0.30943 -2.1,0.86l-7.9,-3.52v-0.34v-0.33l7.9,-3.53l1.08486e-07,1.06337e-07c1.18323,1.1598 3.08263,1.1408 4.24243,-0.0424307c1.1598,-1.18323 1.1408,-3.08263 -0.0424307,-4.24243c-1.18323,-1.1598 -3.08263,-1.1408 -4.24243,0.0424307c-0.550269,0.561387 -0.858206,1.31633 -0.857569,2.10243v0.34l-7.9,3.52l6.728e-08,6.61002e-08c-1.18189,-1.16116 -3.08131,-1.14436 -4.24247,0.0375251c-1.16116,1.18189 -1.14436,3.08131 0.0375251,4.24247c1.16713,1.14667 3.03782,1.14667 4.20495,1.322e-07l7.9,3.53v0.33l3.55271e-14,4.52987e-07c2.50178e-07,1.65685 1.34315,3 3,3c1.65685,-2.50178e-07 3,-1.34315 3,-3c-2.50178e-07,-1.65685 -1.34315,-3 -3,-3Zm0,-10h-4.37114e-08c0.552285,-2.41411e-08 1,0.447715 1,1c2.41411e-08,0.552285 -0.447715,1 -1,1c-0.552285,2.41411e-08 -1,-0.447715 -1,-1l1.06581e-14,1.50996e-07c-8.33927e-08,-0.552285 0.447715,-1 1,-1Zm-13,8l-4.37114e-08,-1.77636e-15c-0.552285,-2.41411e-08 -1,-0.447715 -1,-1c2.41411e-08,-0.552285 0.447715,-1 1,-1c0.552285,2.41411e-08 1,0.447715 1,1v0c0,0.552285 -0.447715,1 -1,1Zm13,6h-4.37114e-08c-0.552285,-2.41411e-08 -1,-0.447715 -1,-1c2.41411e-08,-0.552285 0.447715,-1 1,-1c0.552285,2.41411e-08 1,0.447715 1,1v0c0,0.552285 -0.447715,1 -1,1Z"></path>
    </g>
</svg>