<?xml version="1.0" encoding="UTF-8"?>
<svg version="1.1" viewBox="0 0 24 24" xmlns="http://www.w3.org/2000/svg" xmlns:xlink="http://www.w3.org/1999/xlink">
    <!--Generated by IJSVG (https://github.com/iconjar/IJSVG)-->
    <g fill="#FFF">
        <path opacity="0" d="M0,0h24v24h-24Z" transform="matrix(6.12323e-17,-1,1,6.12323e-17,0,24)"></path>
        <path d="M20.22,21l1.24787e-08,-3.63567e-10c-0.470697,0.0137136 -0.887184,-0.302817 -1,-0.76l-3.487e-08,-1.38161e-07c-0.922655,-3.65571 -4.04641,-6.33493 -7.8,-6.69v1.12l-2.19111e-08,4.60963e-05c-0.00034969,0.716165 -0.429867,1.36237 -1.09004,1.63997l1.27626e-07,-5.8664e-08c-0.715216,0.328752 -1.55676,0.207405 -2.14996,-0.310018l-5.06,-4.41l-4.08221e-08,-3.47613e-08c-0.740062,-0.630186 -0.829133,-1.74099 -0.198948,-2.48105c0.0609005,-0.0715188 0.127429,-0.138047 0.198948,-0.198948l5.06,-4.42l-7.69953e-08,6.74325e-08c0.6014,-0.526707 1.45868,-0.644682 2.18,-0.3l1.18237e-08,4.97212e-09c0.660168,0.277614 1.08967,0.923835 1.09,1.64v1.17l-3.34206e-07,-2.58395e-08c5.63065,0.43534 9.9942,5.10282 10.05,10.75l1.97239e-07,-0.000121352c-0.00135959,0.839538 -0.105457,1.67576 -0.309971,2.49l-1.34452e-09,5.44866e-09c-0.112816,0.457183 -0.529303,0.773714 -1,0.76Zm-9.77,-9.5l-1.23111e-07,9.1516e-10c3.43895,-0.0255638 6.69447,1.54861 8.81,4.26l1.65112e-07,6.42668e-07c-1.03085,-4.01241 -4.66751,-6.80285 -8.81,-6.76l-4.37114e-08,-1.77636e-15c-0.552285,-2.41411e-08 -1,-0.447715 -1,-1c0,0 0,0 0,0v-1.92l-4.82,4.17l4.82,4.21v-2l4.39847e-10,-1.09875e-08c0.0214812,-0.536604 0.462966,-0.96043 1,-0.96Z"></path>
    </g>
</svg>