<?xml version="1.0" encoding="UTF-8"?>
<svg version="1.1" viewBox="0 0 24 24" xmlns="http://www.w3.org/2000/svg" xmlns:xlink="http://www.w3.org/1999/xlink">
    <!--Generated by IJSVG (https://github.com/iconjar/IJSVG)-->
    <g fill="#FFF">
        <path opacity="0" d="M0,0h24v24h-24Z"></path>
        <path d="M13.4142,10.5858c0.781049,0.781049 0.781049,2.04738 0,2.82843c-0.781049,0.781049 -2.04738,0.781049 -2.82843,0c-0.781049,-0.781049 -0.781049,-2.04738 0,-2.82843c0.781049,-0.781049 2.04738,-0.781049 2.82843,0"></path>
        <path d="M20.4142,10.5858c0.781049,0.781049 0.781049,2.04738 0,2.82843c-0.781049,0.781049 -2.04738,0.781049 -2.82843,0c-0.781049,-0.781049 -0.781049,-2.04738 0,-2.82843c0.781049,-0.781049 2.04738,-0.781049 2.82843,0"></path>
        <path d="M6.41421,10.5858c0.781049,0.781049 0.781049,2.04738 0,2.82843c-0.781049,0.781049 -2.04738,0.781049 -2.82843,0c-0.781049,-0.781049 -0.781049,-2.04738 -4.44089e-16,-2.82843c0.781049,-0.781049 2.04738,-0.781049 2.82843,0"></path>
    </g>
</svg>