<?xml version="1.0" encoding="UTF-8"?>
<svg version="1.1" viewBox="0 0 24 24" xmlns="http://www.w3.org/2000/svg" xmlns:xlink="http://www.w3.org/1999/xlink">
    <!--Generated by IJSVG (https://github.com/iconjar/IJSVG)-->
    <g fill="#FFF">
        <path opacity="0" d="M0,0h24v24h-24Z"></path>
        <path d="M21,4l5.83284e-08,5.14421e-07c-0.0104162,-0.091865 -0.0305282,-0.182369 -0.0599998,-0.27v-0.09l1.67315e-08,3.88423e-08c-0.0479393,-0.111292 -0.115707,-0.212944 -0.2,-0.3l-2.52302e-08,-2.37046e-08c-0.0848668,-0.0797352 -0.183008,-0.144035 -0.29,-0.19h-0.09l2.01744e-08,1.54083e-08c-0.0921629,-0.0703899 -0.19761,-0.121413 -0.31,-0.15h-0.0500003l4.90019e-08,7.4344e-09c-0.0994311,-0.0150853 -0.200569,-0.0150853 -0.3,-1.48688e-08l-18,6l6.69256e-08,-2.19974e-08c-0.524671,0.172451 -0.810201,0.737579 -0.63775,1.26225c0.0992042,0.301822 0.335928,0.538546 0.63775,0.63775l8.53,2.84l2.84,8.53l-2.57209e-08,-7.82542e-08c0.172451,0.524671 0.737579,0.810201 1.26225,0.63775c0.301822,-0.0992042 0.538546,-0.335928 0.63775,-0.63775l6,-18l3.1077e-08,-1.23296e-07c0.0222352,-0.0882167 0.0323283,-0.179055 0.03,-0.270001Zm-4.7,2.29l-5.57,5.57l-5.57,-1.86Zm-2.3,12.55l-1.86,-5.57l5.57,-5.57Z"></path>
    </g>
</svg>