<?xml version="1.0" encoding="UTF-8"?>
<svg version="1.1" viewBox="0 0 24 24" xmlns="http://www.w3.org/2000/svg" xmlns:xlink="http://www.w3.org/1999/xlink">
    <!--Generated by IJSVG (https://github.com/iconjar/IJSVG)-->
    <g fill="#FFF">
        <path opacity="0" d="M0,0h24v24h-24Z"></path>
        <path d="M12,15l-1.74846e-07,-3.55271e-15c2.20914,9.65645e-08 4,-1.79086 4,-4v-5v0c0,-2.20914 -1.79086,-4 -4,-4c-2.20914,0 -4,1.79086 -4,4v5l4.61853e-14,6.03983e-07c3.33571e-07,2.20914 1.79086,4 4,4Zm-2,-9l2.30926e-14,3.01992e-07c-1.66785e-07,-1.10457 0.89543,-2 2,-2c1.10457,-1.66785e-07 2,0.89543 2,2c0,0 0,1.77636e-15 0,1.77636e-15v5v0c0,1.10457 -0.895431,2 -2,2c-1.10457,0 -2,-0.895431 -2,-2Z"></path>
        <path d="M19,11v0c0,-0.552285 -0.447715,-1 -1,-1c-0.552285,0 -1,0.447715 -1,1v0c0,2.76142 -2.23858,5 -5,5c-2.76142,0 -5,-2.23858 -5,-5v0c0,-0.552285 -0.447715,-1 -1,-1c-0.552285,0 -1,0.447715 -1,1l-2.18573e-07,-0.000188667c0.00398082,3.47658 2.5589,6.42342 5.99981,6.92016v2.08003h-2.10981h-3.89031e-08c-0.491533,2.14856e-08 -0.89,0.398467 -0.89,0.89c0,0 0,0 0,0v0.22l1.06581e-14,-1.34386e-07c-7.42195e-08,0.491533 0.398466,0.89 0.89,0.89h6.22h-3.89031e-08c0.491533,2.14856e-08 0.89,-0.398467 0.89,-0.89c0,0 0,-3.55271e-15 0,-3.55271e-15v-0.22v0c0,-0.491533 -0.398467,-0.89 -0.89,-0.89c0,0 0,0 0,0h-2.11v-2.08l-9.024e-08,1.3025e-08c3.44093,-0.496653 5.99593,-3.44342 6,-6.92Z"></path>
    </g>
</svg>