<?xml version="1.0" encoding="UTF-8"?>
<svg version="1.1" viewBox="0 0 24 24" xmlns="http://www.w3.org/2000/svg" xmlns:xlink="http://www.w3.org/1999/xlink">
    <!--Generated by IJSVG (https://github.com/iconjar/IJSVG)-->
    <g fill="#FFF">
        <path opacity="0" d="M0,0h24v24h-24Z" transform="matrix(-1,1.22465e-16,-1.22465e-16,-1,24,24)"></path>
        <path d="M20.05,11h-14.14l1.3,-1.29l6.9121e-08,-6.91211e-08c0.392122,-0.392122 0.392122,-1.02788 -1.38242e-07,-1.42c-0.392122,-0.392122 -1.02788,-0.392122 -1.42,1.38242e-07l-3,3l2.29995e-08,-2.28117e-08c-0.392122,0.38892 -0.394718,1.02208 -0.00579837,1.4142c0.00192484,0.00194069 0.00385763,0.00387348 0.00579832,0.00579832l3,3l-3.12092e-08,-3.14662e-08c0.38892,0.392122 1.02208,0.394718 1.4142,0.00579839c0.00194069,-0.00192484 0.00387348,-0.00385763 0.00579832,-0.00579832l4.18882e-08,-4.15461e-08c0.392122,-0.38892 0.394718,-1.02208 0.00579824,-1.4142c-0.00192484,-0.00194069 -0.00385763,-0.00387348 -0.00579832,-0.00579832l-1.3,-1.29h14.14l3.38371e-08,-1.6535e-09c0.513909,-0.0251129 0.924887,-0.436091 0.95,-0.95v-0.05l7.31899e-09,-5.86546e-06c0.000663935,-0.533333 -0.417339,-0.973331 -0.950006,-0.999994Z"></path>
        <path d="M3.95,19c-0.524666,0 -0.95,-0.425334 -0.95,-0.95v-0.1c0,-0.524666 0.425334,-0.95 0.95,-0.95h16.1c0.524666,0 0.95,0.425334 0.95,0.95v0.1c0,0.524666 -0.425334,0.95 -0.95,0.95Z"></path>
        <path d="M3.95,7c-0.524666,0 -0.95,-0.425334 -0.95,-0.95v-0.1c0,-0.524666 0.425334,-0.95 0.95,-0.95h16.1c0.524666,0 0.95,0.425334 0.95,0.95v0.1c0,0.524666 -0.425334,0.95 -0.95,0.95Z"></path>
    </g>
</svg>