<?xml version="1.0" encoding="UTF-8"?>
<svg version="1.1" viewBox="0 0 24 24" xmlns="http://www.w3.org/2000/svg" xmlns:xlink="http://www.w3.org/1999/xlink">
    <!--Generated by IJSVG (https://github.com/iconjar/IJSVG)-->
    <g fill="#FFF">
        <path opacity="0" d="M0,0h24v24h-24Z"></path>
        <path d="M12,16l-1.56343e-08,3.05462e-11c-0.233652,0.000456509 -0.460088,-0.0809189 -0.64,-0.23l-6,-5l4.33797e-08,3.60559e-08c-0.425259,-0.353462 -0.483462,-0.984741 -0.13,-1.41c0.353462,-0.425259 0.984741,-0.483462 1.41,-0.13c0,0 1.62265e-08,1.3487e-08 1.62265e-08,1.3487e-08l5.36,4.48l5.36,-4.32l5.84801e-08,-4.74905e-08c0.428724,-0.348158 1.05851,-0.282847 1.40667,0.145877c0.00111371,0.00137142 0.00222378,0.0027458 0.0033302,0.0041231l-9.33957e-09,-1.0486e-08c0.367328,0.412418 0.330776,1.04453 -0.0816424,1.41185c-0.0188383,0.0167787 -0.0383047,0.0328385 -0.0583576,0.048145l-6,4.83l-3.64001e-08,2.4685e-08c-0.185084,0.125516 -0.406899,0.185371 -0.63,0.17Z"></path>
    </g>
</svg>