<?xml version="1.0" encoding="UTF-8"?>
<svg version="1.1" viewBox="0 0 24 24" xmlns="http://www.w3.org/2000/svg" xmlns:xlink="http://www.w3.org/1999/xlink">
    <!--Generated by IJSVG (https://github.com/iconjar/IJSVG)-->
    <g fill="#FFF">
        <path opacity="0" d="M0,0h24v24h-24Z"></path>
        <path d="M13.67,22h-0.06l1.91467e-08,1.15403e-09c-0.452561,-0.0272773 -0.830145,-0.355611 -0.92,-0.8l-1.69,-8.2l-8.2,-1.69l-8.93507e-08,-1.77456e-08c-0.541704,-0.107586 -0.893627,-0.63394 -0.786041,-1.17564c0.070104,-0.352979 0.324464,-0.641067 0.666041,-0.754355l16,-5.33l7.24749e-08,-2.99254e-08c0.51048,-0.210781 1.09518,0.0321733 1.30596,0.542653c0.0958307,0.232088 0.100843,0.491733 0.0140413,0.727347l-5.33,16l1.01471e-08,-3.01851e-08c-0.142994,0.425371 -0.551848,0.703391 -1,0.68Zm-6.8,-11.9l5.19,1.06l1.11825e-07,2.15707e-08c0.396728,0.0765282 0.708424,0.384279 0.79,0.78l1.05,5.19l3.52,-10.55Z"></path>
    </g>
</svg>