<?xml version="1.0" encoding="UTF-8"?>
<svg version="1.1" viewBox="0 0 24 24" xmlns="http://www.w3.org/2000/svg" xmlns:xlink="http://www.w3.org/1999/xlink">
    <!--Generated by IJSVG (https://github.com/iconjar/IJSVG)-->
    <g fill="#FFF">
        <path opacity="0" d="M0,0h24v24h-24Z"></path>
        <path d="M4.71,3.29l6.9121e-08,6.91211e-08c-0.392122,-0.392122 -1.02788,-0.392122 -1.42,-1.38242e-07c-0.392122,0.392122 -0.392122,1.02788 -1.38242e-07,1.42c0,0 0,1.77636e-15 0,1.77636e-15l16,16l-3.12092e-08,-3.14662e-08c0.38892,0.392122 1.02208,0.394718 1.4142,0.00579839c0.00194069,-0.00192484 0.00387348,-0.00385763 0.00579832,-0.00579832l4.18882e-08,-4.15461e-08c0.392122,-0.38892 0.394718,-1.02208 0.00579824,-1.4142c-0.00192484,-0.00194069 -0.00385763,-0.00387348 -0.00579832,-0.00579832Z"></path>
        <path d="M12.3,19.68l-0.3,0.17l-0.3,-0.17l-3.97102e-07,-2.2351e-07c-4.13595,-2.32793 -6.69657,-6.70391 -6.7,-11.45v-0.14l0.16,-0.0899995l-1.43,-1.44l1.97703e-08,-1.62499e-08c-0.45813,0.376552 -0.725531,0.936995 -0.73,1.53v0.14l1.75554e-07,0.000180888c0.00534137,5.47005 2.95514,10.5136 7.72016,13.1999l0.3,0.17l-1.00947e-07,-5.82819e-08c0.618802,0.357266 1.3812,0.357266 2,1.16564e-07l0.3,-0.17l1.34289e-07,-7.75768e-08c1.09003,-0.629691 2.09772,-1.39218 3,-2.27l-1.42,-1.42l5.19011e-07,-5.0381e-07c-0.77916,0.75634 -1.65311,1.40844 -2.6,1.94Z"></path>
        <path d="M20,6.34l-7,-3.94l1.56003e-07,9.00684e-08c-0.618802,-0.357266 -1.3812,-0.357266 -2,-1.80137e-07l-3.68,2.09l1.46,1.51l3.22,-1.85l7,3.94v0.14l5.39275e-07,0.00102214c0.00107794,2.20761 -0.560053,4.37914 -1.6305,6.30987l1.47049,1.45911l3.84041e-08,-6.3802e-08c1.41205,-2.34588 2.15875,-5.03193 2.16,-7.77v-0.14l2.17005e-08,-2.42431e-06c0.00645281,-0.720935 -0.375612,-1.38955 -1,-1.75Z"></path>
    </g>
</svg>