<?xml version="1.0" encoding="UTF-8"?>
<svg version="1.1" viewBox="0 0 24 24" xmlns="http://www.w3.org/2000/svg" xmlns:xlink="http://www.w3.org/1999/xlink">
    <!--Generated by IJSVG (https://github.com/iconjar/IJSVG)-->
    <g fill="#FFF">
        <path opacity="0" d="M0,0h24v24h-24Z" transform="matrix(-1,1.22465e-16,-1.22465e-16,-1,24,24)"></path>
        <path d="M22,12v0c0,-5.52285 -4.47715,-10 -10,-10l-4.37114e-07,1.06581e-14c-5.52285,2.41411e-07 -10,4.47715 -10,10c2.41411e-07,5.52285 4.47715,10 10,10l-4.37114e-07,-1.06581e-14c5.52285,2.41411e-07 10,-4.47715 10,-10Zm-2.07,-1h-2.93l1.04501e-07,1.49019e-06c-0.164927,-2.35186 -0.970733,-4.61365 -2.33,-6.54l-2.79139e-07,-9.91386e-08c2.8479,1.01146 4.88273,3.54146 5.26,6.54Zm-10.85,2h5.92l4.85161e-07,-4.68368e-06c-0.255916,2.47058 -1.30895,4.79076 -3,6.61l5.65745e-08,6.06488e-08c-1.68993,-1.81163 -2.71881,-4.1407 -2.92,-6.61Zm0,-2l-8.07477e-08,8.52315e-07c0.232885,-2.45817 1.25759,-4.77428 2.92,-6.6l3.31733e-07,3.51468e-07c1.70471,1.80612 2.76013,4.12804 3,6.6Zm0.36,-6.57l1.73966e-07,-2.46607e-07c-1.36645,1.93702 -2.1852,4.20672 -2.37,6.57h-3l1.31697e-07,-1.03773e-06c0.385436,-3.0371 2.47034,-5.5879 5.37,-6.57Zm-5.37,8.57h3l-3.31233e-07,-4.74908e-06c0.16469,2.36127 0.977878,4.63127 2.35,6.56l6.65372e-07,2.27276e-07c-2.8889,-0.986782 -4.96438,-3.53166 -5.35,-6.56Zm10.55,6.55l7.10772e-08,-1.00212e-07c1.36841,-1.92932 2.19066,-4.19225 2.38,-6.55h2.95l1.06008e-08,-8.29756e-08c-0.385775,3.01959 -2.45185,5.55857 -5.33,6.55Z"></path>
    </g>
</svg>