<?xml version="1.0" encoding="UTF-8"?>
<svg version="1.1" viewBox="0 0 24 24" xmlns="http://www.w3.org/2000/svg" xmlns:xlink="http://www.w3.org/1999/xlink">
    <!--Generated by IJSVG (https://github.com/iconjar/IJSVG)-->
    <g fill="#FFF">
        <path opacity="0" d="M24,24h-24v-24"></path>
        <path d="M18.4,3h-12.8l-1.6876e-08,6.17703e-10c-1.48356,0.0543017 -2.64498,1.29613 -2.6,2.78v1.22l1.06581e-14,1.50996e-07c8.33927e-08,0.552285 0.447715,1 1,1c0.552285,-8.33927e-08 1,-0.447715 1,-1v-1.22l-3.15275e-08,-3.25044e-07c-0.0366091,-0.377435 0.225803,-0.71857 0.6,-0.78h12.8l1.88193e-08,3.08945e-09c0.374197,0.0614297 0.636609,0.402565 0.6,0.78v12.44l2.64786e-08,2.7299e-07c0.0366091,0.377435 -0.225803,0.71857 -0.6,0.78h-1.4h-4.37114e-08c-0.552285,2.41411e-08 -1,0.447715 -1,1c2.41411e-08,0.552285 0.447715,1 1,1h1.4l1.02642e-07,-3.75696e-09c1.48356,-0.0543018 2.64498,-1.29613 2.6,-2.78v-12.44l-5.35193e-08,1.76555e-06c0.0449811,-1.48387 -1.11644,-2.7257 -2.6,-2.78Z"></path>
        <path d="M3.86,14l4.55309e-09,-5.69345e-10c-0.548017,0.0685273 -0.93672,0.568335 -0.868193,1.11635c0.00224501,0.0179535 0.00497687,0.0358428 0.00819256,0.053648l-4.24595e-08,-2.64862e-07c0.0870641,0.543106 0.596402,0.91394 1.14,0.83l-4.88862e-08,6.83427e-09c0.780802,-0.109156 1.56717,0.157912 2.12,0.72l5.78886e-08,5.76754e-08c0.748783,0.746026 0.95243,1.88006 0.51,2.84l3.26948e-08,-6.96524e-08c-0.234617,0.499823 -0.0197405,1.09521 0.48,1.33l1.80139e-08,7.93923e-09c0.132391,0.0583484 0.275325,0.0889771 0.42,0.09l1.03662e-08,2.56506e-11c0.390571,0.000966459 0.745961,-0.225546 0.91,-0.58l9.18411e-08,-1.95222e-07c1.06266,-2.25885 0.0929597,-4.95147 -2.16589,-6.01413c-0.795709,-0.374336 -1.68333,-0.508437 -2.55411,-0.385873Z"></path>
        <path d="M3.86,10.08l-1.11225e-07,1.55715e-08c-0.552285,0.0773199 -0.93732,0.587715 -0.86,1.14c0.0773199,0.552285 0.587715,0.93732 1.14,0.86l-3.33633e-07,4.69552e-08c1.87128,-0.263363 3.75729,0.370247 5.09,1.71l2.22734e-07,2.21065e-07c1.56373,1.55201 2.15109,3.83618 1.53,5.95l6.50678e-09,-2.08124e-08c-0.1648,0.527124 0.128922,1.08804 0.656046,1.25284c0.00795462,0.00248693 0.01594,0.00487431 0.0239543,0.0071616l-1.15218e-08,-1.81436e-09c0.0927617,0.0146074 0.187238,0.0146074 0.28,5.53058e-08l3.55971e-08,1.4168e-09c0.459171,0.0182755 0.871694,-0.278741 1,-0.72l-7.00722e-08,2.35278e-07c1.26114,-4.23447 -1.14921,-8.68954 -5.38368,-9.95068c-1.11374,-0.331701 -2.28637,-0.416782 -3.43632,-0.249323Z"></path>
        <path d="M4.70711,18.2929c0.390524,0.390524 0.390524,1.02369 0,1.41421c-0.390524,0.390524 -1.02369,0.390524 -1.41421,0c-0.390524,-0.390524 -0.390524,-1.02369 -4.44089e-16,-1.41421c0.390524,-0.390524 1.02369,-0.390524 1.41421,0"></path>
    </g>
</svg>