<?xml version="1.0" encoding="UTF-8"?>
<svg version="1.1" viewBox="0 0 24 24" xmlns="http://www.w3.org/2000/svg" xmlns:xlink="http://www.w3.org/1999/xlink">
    <!--Generated by IJSVG (https://github.com/iconjar/IJSVG)-->
    <g fill="#FFF">
        <path opacity="0" d="M0,0h24v24h-24Z"></path>
        <path d="M20,11l-4.37114e-08,1.77636e-15c-0.552285,2.41411e-08 -1,0.447715 -1,1c0,0 0,0 0,0v6v0c0,0.552285 -0.447715,1 -1,1h-12h-4.37114e-08c-0.552285,-2.41411e-08 -1,-0.447715 -1,-1c0,0 0,-3.55271e-15 0,-3.55271e-15v-12l1.24345e-14,1.50996e-07c-8.33927e-08,-0.552285 0.447715,-1 1,-1h6h-4.37114e-08c0.552285,2.41411e-08 1,-0.447715 1,-1c2.41411e-08,-0.552285 -0.447715,-1 -1,-1h-6l-1.31134e-07,3.55271e-15c-1.65685,7.24234e-08 -3,1.34315 -3,3c0,0 0,0 0,0v12l3.55271e-14,-4.52987e-07c-2.50178e-07,1.65685 1.34315,3 3,3h12l-1.31134e-07,-3.55271e-15c1.65685,7.24234e-08 3,-1.34315 3,-3v-6v0c0,-0.552285 -0.447715,-1 -1,-1Z"></path>
        <path d="M16,5h1.58l-6.29,6.28l2.29995e-08,-2.28117e-08c-0.392122,0.38892 -0.394718,1.02208 -0.00579837,1.4142c0.00192484,0.00194069 0.00385763,0.00387348 0.00579832,0.00579832l-3.12092e-08,-3.14662e-08c0.38892,0.392122 1.02208,0.394718 1.4142,0.00579839c0.00194069,-0.00192484 0.00387348,-0.00385763 0.00579832,-0.00579832l6.29,-6.28v1.58l1.06581e-14,1.50996e-07c8.33927e-08,0.552285 0.447715,1 1,1l-4.37114e-08,-1.77636e-15c0.552285,2.41411e-08 1,-0.447715 1,-1v-4v0c0,-0.552285 -0.447715,-1 -1,-1h-4l-4.37114e-08,8.88178e-16c-0.552285,2.41411e-08 -1,0.447715 -1,1c2.41411e-08,0.552285 0.447715,1 1,1Z"></path>
    </g>
</svg>