<?xml version="1.0" encoding="UTF-8"?>
<svg version="1.1" viewBox="0 0 24 24" xmlns="http://www.w3.org/2000/svg" xmlns:xlink="http://www.w3.org/1999/xlink">
    <!--Generated by IJSVG (https://github.com/iconjar/IJSVG)-->
    <g fill="#FFF">
        <path opacity="0" d="M0,0h24v24h-24Z"></path>
        <path d="M16,6h-4.37114e-08c-0.552285,2.41411e-08 -1,0.447715 -1,1c0,0 0,0 0,0v3.82l-0.14,-0.15l-5.1,-4.21l6.73056e-08,5.3928e-08c-0.626431,-0.501922 -1.48419,-0.602834 -2.21,-0.26l4.78403e-08,-2.29037e-08c-0.611927,0.292962 -1.00098,0.91156 -1,1.59v8.42l-6.16689e-08,4.29535e-05c-0.000965766,0.678439 0.388105,1.29703 1.00004,1.58998l7.40127e-09,3.36572e-09c0.285867,0.129998 0.595968,0.198152 0.909999,0.2l1.18971e-07,1.42187e-10c0.473311,0.000565662 0.93238,-0.161874 1.3,-0.46l5.1,-4.21l0.14,-0.15v3.81998l8.88178e-15,1.08849e-07c8.33927e-08,0.552285 0.447715,1 1,1c0.552285,-8.33927e-08 1,-0.447715 1,-1v-10v0c0,-0.552285 -0.447715,-1 -1,-1Zm-7.5,9.91v-7.91l4.82,4Z"></path>
    </g>
</svg>