<?xml version="1.0" encoding="UTF-8"?>
<svg version="1.1" viewBox="0 0 24 24" xmlns="http://www.w3.org/2000/svg" xmlns:xlink="http://www.w3.org/1999/xlink">
    <!--Generated by IJSVG (https://github.com/iconjar/IJSVG)-->
    <g fill="#FFF">
        <path opacity="0" d="M0,0h24v24h-24Z"></path>
        <path d="M19,15v-11l1.74354e-08,3.78342e-06c-0.00140162,-0.304272 -0.14126,-0.591353 -0.379997,-0.780001l2.69831e-08,2.18275e-08c-0.235307,-0.190348 -0.544161,-0.263885 -0.84,-0.2l-9,2l-9.48644e-08,2.1393e-08c-0.457715,0.10322 -0.782112,0.510793 -0.780003,0.979998v8.34l1.40316e-07,6.62419e-08c-1.743,-0.822859 -3.82304,-0.0769346 -4.6459,1.66607c-0.822859,1.743 -0.0769346,3.82304 1.66607,4.6459c1.743,0.822859 3.82304,0.0769346 4.6459,-1.66607c0.216488,-0.458571 0.330442,-0.958811 0.333932,-1.4659l7.22495e-08,-1.20942e-06c0.0103455,-0.173179 0.0103455,-0.346821 -1.44499e-07,-0.52v-10.2l7,-1.55v7.09l-6.35226e-08,-2.99899e-08c-1.74299,-0.822889 -3.82304,-0.0770002 -4.64593,1.66599c-0.822889,1.74299 -0.0770002,3.82304 1.66599,4.64593c1.74299,0.822889 3.82304,0.0770002 4.64593,-1.66599c0.217941,-0.461628 0.331958,-0.965447 0.334012,-1.47593l6.40457e-08,-1.14601e-06c0.00949313,-0.169867 0.00949309,-0.340133 -1.28092e-07,-0.51Zm-12.46,4l5.97586e-08,2.06057e-11c-0.822904,-0.000283735 -1.48977,-0.667609 -1.48949,-1.49051c0.000283735,-0.822904 0.667609,-1.48977 1.49051,-1.48949c0.707076,0.000243798 1.31661,0.497404 1.45897,1.19l3.22726e-08,3.27595e-07c0.00982757,0.0997585 0.00982755,0.200241 -6.45452e-08,0.3l3.05635e-08,0.000301793c0,0.811329 -0.649133,1.47353 -1.4603,1.4897Zm9,-2l-4.84762e-08,3.77828e-10c-0.828402,0.00645658 -1.50519,-0.659862 -1.51165,-1.48826c-0.00645658,-0.828402 0.659862,-1.50519 1.48826,-1.51165c0.720983,-0.00561935 1.34397,0.502512 1.48338,1.20991l3.22726e-08,3.27595e-07c0.00982757,0.0997585 0.00982755,0.200241 -6.45452e-08,0.3l3.51116e-08,-5.28533e-06c-0.00545021,0.820635 -0.66936,1.48455 -1.48999,1.49Z"></path>
    </g>
</svg>