<?xml version="1.0" encoding="UTF-8"?>
<svg version="1.1" viewBox="0 0 24 24" xmlns="http://www.w3.org/2000/svg" xmlns:xlink="http://www.w3.org/1999/xlink">
    <!--Generated by IJSVG (https://github.com/iconjar/IJSVG)-->
    <g fill="#FFF">
        <path opacity="0" d="M0,0h24v24h-24Z" transform="matrix(6.12323e-17,1,-1,6.12323e-17,24,-7.34788e-16)"></path>
        <path d="M21,6v0c0,-1.65685 -1.34315,-3 -3,-3h-12l6.13241e-08,-3.63102e-10c-1.65683,0.00981006 -2.99199,1.36088 -2.98218,3.01771c0.00496865,0.839157 0.361183,1.63787 0.982185,2.20229v9.78l3.37508e-14,4.52987e-07c2.50178e-07,1.65685 1.34315,3 3,3h10l-1.31134e-07,-3.55271e-15c1.65685,7.24234e-08 3,-1.34315 3,-3v-9.78l1.24477e-08,-1.11331e-08c0.632144,-0.565385 0.995446,-1.37192 1,-2.22Zm-15,-1h12h-4.37114e-08c0.552285,-2.41411e-08 1,0.447715 1,1c2.41411e-08,0.552285 -0.447715,1 -1,1h-12l-4.37114e-08,-1.77636e-15c-0.552285,-2.41411e-08 -1,-0.447715 -1,-1c2.41411e-08,-0.552285 0.447715,-1 1,-1Zm12,13v0c0,0.552285 -0.447715,1 -1,1h-10h-4.37114e-08c-0.552285,-2.41411e-08 -1,-0.447715 -1,-1c0,0 0,-3.55271e-15 0,-3.55271e-15v-9h12Z"></path>
        <path d="M9.87,14c-0.480484,0 -0.87,-0.389516 -0.87,-0.87v-0.26c0,-0.480484 0.389516,-0.87 0.87,-0.87h4.26c0.480484,0 0.87,0.389516 0.87,0.87v0.26c0,0.480484 -0.389516,0.87 -0.87,0.87Z"></path>
    </g>
</svg>