<?xml version="1.0" encoding="UTF-8"?>
<svg version="1.1" viewBox="0 0 24 24" xmlns="http://www.w3.org/2000/svg" xmlns:xlink="http://www.w3.org/1999/xlink">
    <!--Generated by IJSVG (https://github.com/iconjar/IJSVG)-->
    <g fill="#FFF">
        <path opacity="0" d="M0,0h24v24h-24Z"></path>
        <path d="M15.83,6h-11.66l1.16338e-07,-6.895e-09c-1.26862,0.0751871 -2.23824,1.16099 -2.17,2.43v7.14l-5.76485e-08,1.07199e-06c-0.0682435,1.26901 0.901383,2.35481 2.17,2.43h11.66l-8.32344e-09,4.93309e-10c1.26862,-0.0751877 2.23824,-1.16099 2.17,-2.43v-7.14l4.98261e-08,-9.26531e-07c0.0682435,-1.26901 -0.901383,-2.35481 -2.17,-2.43Zm0.17,9.57l1.3464e-08,1.59454e-07c0.0136814,0.162029 -0.049219,0.32113 -0.17,0.43h-11.65l3.4166e-08,2.81649e-08c-0.127232,-0.104885 -0.194573,-0.265755 -0.18,-0.43v-7.14l-1.87849e-08,-2.50349e-07c-0.0121405,-0.161799 0.0505009,-0.320245 0.17,-0.43h11.65l1.09355e-09,9.01478e-10c0.127232,0.104885 0.194573,0.265755 0.18,0.43Z"></path>
        <path d="M21,9l-4.37114e-08,1.77636e-15c-0.552285,2.41411e-08 -1,0.447715 -1,1c0,0 0,0 0,0v4l1.06581e-14,1.50996e-07c8.33927e-08,0.552285 0.447715,1 1,1c0.552285,-8.33927e-08 1,-0.447715 1,-1v-4v0c0,-0.552285 -0.447715,-1 -1,-1Z"></path>
    </g>
</svg>