<?xml version="1.0" encoding="UTF-8"?>
<svg version="1.1" viewBox="0 0 24 24" xmlns="http://www.w3.org/2000/svg" xmlns:xlink="http://www.w3.org/1999/xlink">
    <!--Generated by IJSVG (https://github.com/iconjar/IJSVG)-->
    <g fill="#FFF">
        <path opacity="0" d="M0,0h24v24h-24Z" transform="matrix(6.12323e-17,1,-1,6.12323e-17,24,-7.34788e-16)"></path>
        <path d="M16.21,16h-8.42l-7.57234e-08,1.0964e-10c-0.678439,0.000982294 -1.29704,-0.388073 -1.59,-1l-3.41154e-08,-7.22258e-08c-0.342834,-0.725814 -0.241921,-1.58357 0.26,-2.21l4.21,-5.1l-1.00011e-07,1.15395e-07c0.636614,-0.734539 1.74815,-0.813922 2.48269,-0.177308c0.0632429,0.0548117 0.122496,0.114065 0.177308,0.177307l4.21,5.1l3.81118e-08,4.7566e-08c0.501922,0.626431 0.602834,1.48419 0.26,2.21l5.61243e-08,-1.1723e-07c-0.292962,0.611927 -0.91156,1.00098 -1.59,1Zm-8.21,-2h7.9l-3.9,-4.82Z"></path>
    </g>
</svg>