<?xml version="1.0" encoding="UTF-8"?>
<svg version="1.1" viewBox="0 0 24 24" xmlns="http://www.w3.org/2000/svg" xmlns:xlink="http://www.w3.org/1999/xlink">
    <!--Generated by IJSVG (https://github.com/iconjar/IJSVG)-->
    <g fill="#FFF">
        <path opacity="0" d="M0,0h24v24h-24Z"></path>
        <path d="M21,7.15l7.26523e-08,3.27124e-08c-0.621081,-0.279648 -1.34912,-0.161588 -1.85,0.3l-2.15,2v-1.45v0c0,-1.65685 -1.34315,-3 -3,-3h-9l-1.31134e-07,3.55271e-15c-1.65685,7.24234e-08 -3,1.34315 -3,3c0,0 0,1.77636e-15 0,1.77636e-15v8l3.19744e-14,-4.52987e-07c-2.50178e-07,1.65685 1.34315,3 3,3h9l-1.31134e-07,-3.55271e-15c1.65685,7.24234e-08 3,-1.34315 3,-3c0,0 0,0 0,0v-1.45l2.16,2l2.07361e-07,1.87706e-07c0.317987,0.287846 0.731086,0.4481 1.16,0.45l-2.47111e-08,5.75433e-11c0.238029,-0.000554274 0.473223,-0.0516835 0.69,-0.15l-1.166e-07,4.71666e-08c0.603307,-0.244048 0.998682,-0.829203 1,-1.48v-6.74l3.25156e-08,7.17717e-06c-0.00295808,-0.653261 -0.402761,-1.23912 -1.00999,-1.48Zm-6,8.85v0c0,0.552285 -0.447715,1 -1,1h-9h-4.37114e-08c-0.552285,-2.41411e-08 -1,-0.447715 -1,-1c0,0 0,0 0,0v-8l1.24345e-14,1.50996e-07c-8.33927e-08,-0.552285 0.447715,-1 1,-1h9h-4.37114e-08c0.552285,-2.41411e-08 1,0.447715 1,1Zm5,-1.4l-2.81,-2.6l2.81,-2.6Z"></path>
    </g>
</svg>