<?xml version="1.0" encoding="UTF-8"?>
<svg version="1.1" viewBox="0 0 24 24" xmlns="http://www.w3.org/2000/svg" xmlns:xlink="http://www.w3.org/1999/xlink">
    <!--Generated by IJSVG (https://github.com/iconjar/IJSVG)-->
    <g fill="#FFF">
        <path opacity="0" d="M0,0h24v24h-24Z" transform="matrix(6.12323e-17,-1,1,6.12323e-17,0,24)"></path>
        <path d="M21,12v0c0,-0.552285 -0.447715,-1 -1,-1c-0.552285,0 -1,0.447715 -1,1v2.3l-4.24,-5l5.16815e-10,6.0408e-10c-0.31602,-0.36938 -0.851896,-0.457989 -1.27,-0.21l-4.27,2.61l-4.45,-5.34l-4.02432e-09,-4.84176e-09c-0.353462,-0.425259 -0.984741,-0.483462 -1.41,-0.13c-0.425259,0.353462 -0.483462,0.984741 -0.13,1.41l5,6l2.80986e-08,3.37821e-08c0.31451,0.378126 0.857287,0.471416 1.28,0.22l4.28,-2.57l4,4.71h-2.79l-4.37114e-08,1.77636e-15c-0.552285,2.41411e-08 -1,0.447715 -1,1c2.41411e-08,0.552285 0.447715,1 1,1h5l4.30662e-08,-1.05814e-09c0.123072,-0.00302387 0.244763,-0.026686 0.36,-0.07l0.14,-0.08l4.67639e-08,-2.35697e-08c0.0521403,-0.0262794 0.102276,-0.0563607 0.15,-0.09l1.76664e-08,-1.59544e-08c0.0547774,-0.0494691 0.101953,-0.106753 0.14,-0.17l-1.36616e-08,1.8081e-08c0.0334923,-0.0443268 0.0635784,-0.0911273 0.0899998,-0.14l9.36821e-09,-2.0703e-08c0.0244688,-0.0540741 0.0412967,-0.111289 0.05,-0.17l2.79411e-08,-6.07537e-08c0.0405483,-0.0881662 0.064288,-0.183125 0.0700001,-0.28Z"></path>
    </g>
</svg>