<?xml version="1.0" encoding="UTF-8"?>
<svg version="1.1" viewBox="0 0 24 24" xmlns="http://www.w3.org/2000/svg" xmlns:xlink="http://www.w3.org/1999/xlink">
    <!--Generated by IJSVG (https://github.com/iconjar/IJSVG)-->
    <g fill="#FFF">
        <path opacity="0" d="M0,0h24v24h-24Z"></path>
        <path d="M16.62,6.21l-1.28705e-08,-1.01896e-08c-0.433009,-0.342814 -1.06194,-0.269696 -1.40475,0.163313c-0.00175873,0.00222146 -0.00350801,0.00445038 -0.00524779,0.0066867l-7,9l-3.43,-4.18l5.77751e-09,7.69067e-09c-0.33172,-0.441566 -0.958592,-0.530613 -1.40016,-0.198893c-0.441566,0.33172 -0.530613,0.958592 -0.198893,1.40016c0.0125062,0.0166475 0.0255293,0.0329003 0.0390503,0.0487347l4.17,5.18l-7.62649e-08,-9.40124e-08c0.19063,0.234991 0.477412,0.371029 0.78,0.37l3.60876e-08,1.61156e-09c0.321714,0.0143667 0.630659,-0.127078 0.83,-0.38l7.83,-10l1.15142e-08,-1.52854e-08c0.332297,-0.441132 0.244069,-1.06812 -0.197062,-1.40042c-0.00428678,-0.00322916 -0.00859948,-0.00642375 -0.0129377,-0.00958347Z"></path>
        <path d="M21.62,6.21l-1.28705e-08,-1.01896e-08c-0.433009,-0.342814 -1.06194,-0.269696 -1.40475,0.163313c-0.00175873,0.00222146 -0.00350801,0.00445038 -0.00524779,0.0066867l-7,9l-0.61,-0.75l-1.26,1.62l1.1,1.37l-7.62649e-08,-9.40124e-08c0.19063,0.234991 0.477412,0.371029 0.78,0.37l3.26927e-08,-1.50724e-10c0.304272,-0.00140278 0.591353,-0.141263 0.78,-0.38l7.83,-10l-1.84308e-08,2.48824e-08c0.328728,-0.443797 0.235446,-1.07005 -0.208351,-1.39878c-0.000549104,-0.000406731 -0.00109863,-0.000812898 -0.00164856,-0.0012185Z"></path>
        <path d="M8.71,13.06l1.29,-1.62l-0.2,-0.24l3.26354e-08,4.52138e-08c-0.323233,-0.447815 -0.948292,-0.548809 -1.39611,-0.225576c-0.0114773,0.00828431 -0.0227774,0.0168114 -0.0338927,0.0255754l7.44792e-08,-5.98308e-08c-0.430563,0.345881 -0.499212,0.975314 -0.15333,1.40588c0.00110642,0.00137731 0.00221649,0.00275168 0.0033302,0.0041231Z"></path>
    </g>
</svg>