<?xml version="1.0" encoding="UTF-8"?>
<svg version="1.1" viewBox="0 0 24 24" xmlns="http://www.w3.org/2000/svg" xmlns:xlink="http://www.w3.org/1999/xlink">
    <!--Generated by IJSVG (https://github.com/iconjar/IJSVG)-->
    <g fill="#FFF">
        <path opacity="0" d="M0,0h24v24h-24Z"></path>
        <path d="M20.52,15.21l-1.8,-1.81v-4.46l2.46543e-07,-1.7052e-05c0.0495105,-3.42466 -2.43454,-6.36111 -5.82002,-6.87999l1.04993e-07,1.38268e-08c-3.69053,-0.486017 -7.0763,2.11176 -7.56231,5.80229c-0.037887,0.287693 -0.0571556,0.577532 -0.0576853,0.867708v4.67l-1.8,1.81l-1.47208e-07,1.49663e-07c-0.635143,0.645733 -0.626558,1.68409 0.0191745,2.31923c0.304477,0.299484 0.71377,0.46838 1.14084,0.470772h3.36v0.34l-6.88636e-08,-1.4967e-06c0.0972507,2.11368 1.88602,3.7504 4,3.66l1.06988e-07,4.57508e-09c2.11398,0.0903991 3.90275,-1.54632 4,-3.66v-0.34h3.36l4.30051e-08,-2.41386e-10c0.905733,-0.00508386 1.63585,-0.743447 1.63077,-1.64918c-0.00239711,-0.427064 -0.171292,-0.836349 -0.470769,-1.14082Zm-6.52,3.13l-3.72724e-08,3.23269e-07c-0.115216,0.999282 -0.996595,1.73083 -2,1.66l-8.99105e-08,6.34644e-09c-1.00341,0.0708266 -1.88478,-0.660718 -2,-1.66v-0.34h4Zm-8.49,-2.34l1.18,-1.18l-3.61853e-08,3.59706e-08c0.378039,-0.375796 0.590422,-0.886955 0.59,-1.42v-4.67l-1.32101e-07,0.000167252c0.00105384,-1.36481 0.591587,-2.66265 1.61987,-3.56006l-3.86799e-07,3.5049e-07c1.01483,-0.919569 2.38216,-1.34734 3.74013,-1.17011l1.74828e-07,2.83867e-08c2.39113,0.388245 4.13125,2.4781 4.08,4.9v4.5l-4.6195e-08,7.99281e-06c-0.00307139,0.531606 0.205631,1.04256 0.580006,1.42l1.19,1.17999Z"></path>
    </g>
</svg>