<?xml version="1.0" encoding="UTF-8"?>
<svg version="1.1" viewBox="0 0 24 24" xmlns="http://www.w3.org/2000/svg" xmlns:xlink="http://www.w3.org/1999/xlink">
    <!--Generated by IJSVG (https://github.com/iconjar/IJSVG)-->
    <g fill="#FFF">
        <path opacity="0" d="M0,0h24v24h-24Z" transform="matrix(6.12323e-17,1,-1,6.12323e-17,24,-7.34788e-16)"></path>
        <path d="M13.36,17l2.76469e-08,1.05508e-10c-0.272188,-0.00103875 -0.532191,-0.112985 -0.72,-0.31l-3.86,-4l-3.14263e-08,-3.20613e-08c-0.381143,-0.388844 -0.381143,-1.01116 6.28526e-08,-1.4l4,-4l-4.23333e-09,4.23333e-09c0.392122,-0.392122 1.02788,-0.392122 1.42,-8.46667e-09c0.392122,0.392122 0.392122,1.02788 8.46667e-09,1.42l-3.3,3.29l3.18,3.3l5.0936e-09,5.124e-09c0.387724,0.390037 0.387724,1.01996 -1.01872e-08,1.41l-2.70647e-08,2.6853e-08c-0.191163,0.189668 -0.450743,0.294221 -0.72,0.29Z"></path>
    </g>
</svg>