<?xml version="1.0" encoding="UTF-8"?>
<svg version="1.1" viewBox="0 0 24 24" xmlns="http://www.w3.org/2000/svg" xmlns:xlink="http://www.w3.org/1999/xlink">
    <!--Generated by IJSVG (https://github.com/iconjar/IJSVG)-->
    <g fill="#FFF">
        <path opacity="0" d="M0,0h24v24h-24Z"></path>
        <path d="M20.12,8.71l-4.83,-4.83l3.60949e-08,3.61398e-08c-0.562069,-0.56277 -1.32462,-0.8793 -2.12,-0.88h-7.17l-1.31134e-07,3.55271e-15c-1.65685,7.24234e-08 -3,1.34315 -3,3c0,0 0,1.77636e-15 0,1.77636e-15v12l3.37508e-14,-4.52987e-07c-2.50178e-07,1.65685 1.34315,3 3,3h12l-1.31134e-07,-3.55271e-15c1.65685,7.24234e-08 3,-1.34315 3,-3v-7.17l8.96204e-08,0.000103843c-0.000672676,-0.795381 -0.317176,-1.55794 -0.879926,-2.12003Zm-10.12,10.29v-2h4v2Zm9,-1v0c0,0.552285 -0.447715,1 -1,1h-2v-3v0c0,-0.552285 -0.447715,-1 -1,-1h-6l-4.37114e-08,1.77636e-15c-0.552285,2.41411e-08 -1,0.447715 -1,1c0,0 0,3.55271e-15 0,3.55271e-15v3h-2h-4.37114e-08c-0.552285,-2.41411e-08 -1,-0.447715 -1,-1c0,0 0,-3.55271e-15 0,-3.55271e-15v-12l1.06581e-14,1.50996e-07c-8.33927e-08,-0.552285 0.447715,-1 1,-1h2v5l1.06581e-14,1.50996e-07c8.33927e-08,0.552285 0.447715,1 1,1h4l-4.37114e-08,-1.77636e-15c0.552285,2.41411e-08 1,-0.447715 1,-1c2.41411e-08,-0.552285 -0.447715,-1 -1,-1h-3v-4h3.17l2.84314e-08,3.95543e-10c0.264767,0.0036835 0.518366,0.107266 0.71,0.29l4.83,4.83l6.07279e-08,6.1225e-08c0.187186,0.188719 0.291537,0.444197 0.29,0.71Z"></path>
    </g>
</svg>