<?xml version="1.0" encoding="UTF-8"?>
<svg version="1.1" viewBox="0 0 24 24" xmlns="http://www.w3.org/2000/svg" xmlns:xlink="http://www.w3.org/1999/xlink">
    <!--Generated by IJSVG (https://github.com/iconjar/IJSVG)-->
    <g fill="#FFF">
        <path opacity="0" d="M0,0h24v24h-24Z"></path>
        <path d="M19.4,7.34l-2.74,-2.74l-4.40428e-08,-4.46175e-08c-0.724127,-0.733575 -1.89829,-0.764474 -2.66,-0.0699999l-2,2l-1.29,-1.24l6.9121e-08,6.91211e-08c-0.392122,-0.392122 -1.02788,-0.392122 -1.42,-1.38242e-07c-0.392122,0.392122 -0.392122,1.02788 -1.38242e-07,1.42c0,0 1.77636e-15,1.77636e-15 1.77636e-15,1.77636e-15l1.24,1.29l-5.53,5.53l-7.28216e-08,7.34369e-08c-0.323234,0.325965 -0.524495,0.753204 -0.57,1.21l-0.43,4.17l-4.51763e-08,4.91195e-07c-0.0272738,0.296545 0.0790372,0.589816 0.29,0.8l-3.17523e-08,-3.14944e-08c0.188719,0.187186 0.444197,0.291536 0.71,0.29h0.09l4.17,-0.38l3.4611e-08,-3.44784e-09c0.456796,-0.0455046 0.884035,-0.246766 1.21,-0.57l5.58,-5.58l1.24,1.24l-3.12092e-08,-3.14662e-08c0.38892,0.392122 1.02208,0.394718 1.4142,0.00579839c0.00194069,-0.00192484 0.00387348,-0.00385763 0.00579832,-0.00579832l4.18882e-08,-4.15461e-08c0.392122,-0.38892 0.394718,-1.02208 0.00579824,-1.4142c-0.00192484,-0.00194069 -0.00385763,-0.00387348 -0.00579832,-0.00579832l-1.24,-1.24l2,-2l7.81433e-08,-8.25537e-08c0.72729,-0.768338 0.695986,-1.98023 -0.0700002,-2.71Zm-10.32,10.28l-3,0.28l0.27,-3l5.65,-5.54l2.69,2.7Zm7,-7l-2.72,-2.62l1.91,-2l2.73,2.73Z"></path>
    </g>
</svg>