<?xml version="1.0" encoding="UTF-8"?>
<svg version="1.1" viewBox="0 0 24 24" xmlns="http://www.w3.org/2000/svg" xmlns:xlink="http://www.w3.org/1999/xlink">
    <!--Generated by IJSVG (https://github.com/iconjar/IJSVG)-->
    <g fill="#FFF">
        <path opacity="0" d="M24,24h-24v-24"></path>
        <path d="M19.27,4.68l4.5401e-08,3.27144e-08c-0.462991,-0.333615 -1.05731,-0.426477 -1.6,-0.25l-2.90501e-08,8.16899e-09c-0.705843,0.198485 -1.43689,0.292814 -2.17,0.28l4.70131e-07,2.55183e-08c-1.08341,-0.0588065 -2.14569,-0.323528 -3.13,-0.78l2.28659e-07,1.05751e-07c-1.21598,-0.562368 -2.53127,-0.878444 -3.87,-0.93c-2.89,0 -4,1 -4.2,1.14l-5.27708e-09,5.17233e-09c-0.193336,0.189498 -0.301581,0.449286 -0.3,0.72v15.14l1.24345e-14,1.50996e-07c8.33927e-08,0.552285 0.447715,1 1,1c0.552285,-8.33927e-08 1,-0.447715 1,-1v-4.3l2.32026e-07,-8.8835e-08c0.796828,-0.305079 1.64747,-0.444584 2.5,-0.41l-1.99074e-07,-1.08055e-08c1.08341,0.0588065 2.14569,0.323528 3.13,0.78l7.78136e-07,3.59873e-07c1.21598,0.562368 2.53126,0.878444 3.87,0.93l2.02653e-07,7.65367e-09c1.20551,0.0455289 2.40473,-0.194315 3.5,-0.7l3.62612e-08,-1.70341e-08c0.602301,-0.282939 0.990483,-0.88462 1,-1.55v-8.64l4.21559e-08,3.36072e-05c-0.000704555,-0.565963 -0.272017,-1.09746 -0.729973,-1.43001Zm-1.27,9.91l-6.10392e-07,2.32787e-07c-0.79712,0.304 -1.64754,0.443468 -2.5,0.41l9.87161e-08,5.23101e-09c-1.08475,-0.0574813 -2.1479,-0.325816 -3.13,-0.789999l5.09108e-07,2.31613e-07c-1.2183,-0.55425 -2.53261,-0.866697 -3.87,-0.92l4.67715e-07,8.05829e-09c-0.8425,-0.0145155 -1.68319,0.0830046 -2.5,0.289999v-8.16l2.11026e-07,-8.29975e-08c0.794964,-0.312663 1.6465,-0.455721 2.49999,-0.42l1.66647e-07,8.83069e-09c1.08475,0.0574813 2.1479,0.325816 3.13,0.79l-2.0994e-07,-9.55098e-08c1.2183,0.55425 2.53261,0.866697 3.87,0.92l4.05485e-08,5.98698e-10c0.84301,0.012447 1.68387,-0.0884561 2.5,-0.3Z"></path>
    </g>
</svg>