<?xml version="1.0" encoding="UTF-8"?>
<svg version="1.1" viewBox="0 0 24 24" xmlns="http://www.w3.org/2000/svg" xmlns:xlink="http://www.w3.org/1999/xlink">
    <!--Generated by IJSVG (https://github.com/iconjar/IJSVG)-->
    <g fill="#FFF">
        <path opacity="0" d="M0,0h24v24h-24Z"></path>
        <path d="M9.29,21l-2.37821e-07,-1.14276e-09c-1.66887,-0.00801919 -3.26474,-0.685276 -4.43,-1.88l1.38527e-07,1.31295e-07c-2.40509,-2.27952 -2.50689,-6.07714 -0.227374,-8.48223c0.00245544,-0.00259071 0.00491319,-0.00517922 0.00737325,-0.00776554l7.36,-7.43l2.73539e-07,-2.73039e-07c0.79424,-0.792787 1.87811,-1.22634 3,-1.2l1.99168e-07,6.7822e-10c1.20133,0.00409089 2.35068,0.490494 3.19,1.35l1.18601e-08,1.1419e-08c1.72111,1.6571 1.788,4.3907 0.15,6.13l-7.4,7.43l1.48199e-07,-1.49201e-07c-0.478757,0.481995 -1.13065,0.752115 -1.81,0.75l1.60798e-07,-2.13795e-10c-0.734016,0.00097596 -1.43727,-0.294751 -1.95,-0.82l-9.47897e-08,-9.1776e-08c-1.05576,-1.0222 -1.09145,-2.70394 -0.0799998,-3.77l6.83,-6.86l2.18585e-08,-1.4517e-08c0.460065,-0.305546 1.08072,-0.180284 1.38626,0.279781c0.228441,0.343966 0.22198,0.792968 -0.0162622,1.13022l-6.83,6.86l6.77627e-09,-8.16383e-09c-0.23695,0.285469 -0.201353,0.708177 0.08,0.95l-3.86321e-08,-3.88981e-08c0.140713,0.141682 0.330406,0.224001 0.53,0.23l2.55478e-08,3.66054e-10c0.149335,0.00213969 0.293337,-0.0554613 0.4,-0.16l7.39,-7.43l2.54707e-08,-2.82958e-08c0.863131,-0.958866 0.796322,-2.43313 -0.15,-3.31l-3.33273e-08,-3.46013e-08c-0.877119,-0.91065 -2.31319,-0.976525 -3.27,-0.15l-7.39,7.39l-6.16662e-10,6.62341e-10c-1.50535,1.61685 -1.41496,4.1479 0.201898,5.65325c0.00601682,0.00560187 0.0120509,0.0111852 0.0181021,0.0167499l5.38839e-08,5.58581e-08c0.786362,0.815173 1.8674,1.28002 3,1.29l7.96816e-08,6.47027e-10c0.976367,0.00792826 1.91564,-0.373541 2.61,-1.06l7.39,-7.43l-3.03154e-08,3.05304e-08c0.389361,-0.392122 1.02288,-0.394361 1.415,-0.00500008c0.392122,0.389361 0.394361,1.02288 0.00500008,1.415c0,0 -1.48568e-08,1.49621e-08 -1.48568e-08,1.49621e-08l-7.39,7.43l1.82142e-07,-1.85363e-07c-1.05985,1.07859 -2.50784,1.68732 -4.02,1.69Z"></path>
    </g>
</svg>