<?xml version="1.0" encoding="UTF-8"?>
<svg version="1.1" viewBox="0 0 24 24" xmlns="http://www.w3.org/2000/svg" xmlns:xlink="http://www.w3.org/1999/xlink">
    <!--Generated by IJSVG (https://github.com/iconjar/IJSVG)-->
    <g fill="#FFF">
        <path opacity="0" d="M0,0h24v24h-24Z"></path>
        <path d="M12,2l-4.37114e-07,1.06581e-14c-5.52285,2.41411e-07 -10,4.47715 -10,10c2.41411e-07,5.52285 4.47715,10 10,10c5.52285,-2.41411e-07 10,-4.47715 10,-10l7.10543e-15,4.37114e-07c0,-5.52285 -4.47715,-10 -10,-10Zm0,18l-3.49691e-07,-7.10543e-15c-4.41828,-1.93129e-07 -8,-3.58172 -8,-8c1.93129e-07,-4.41828 3.58172,-8 8,-8c4.41828,1.93129e-07 8,3.58172 8,8v1.77636e-15c0,4.41828 -3.58172,8 -8,8c0,0 -3.55271e-15,0 -3.55271e-15,0Z"></path>
        <path d="M15,11h-2v-2v0c0,-0.552285 -0.447715,-1 -1,-1c-0.552285,0 -1,0.447715 -1,1v2h-2l-4.37114e-08,1.77636e-15c-0.552285,2.41411e-08 -1,0.447715 -1,1c2.41411e-08,0.552285 0.447715,1 1,1h2v2l1.06581e-14,1.50996e-07c8.33927e-08,0.552285 0.447715,1 1,1c0.552285,-8.33927e-08 1,-0.447715 1,-1v-2h2l-4.37114e-08,-1.77636e-15c0.552285,2.41411e-08 1,-0.447715 1,-1c2.41411e-08,-0.552285 -0.447715,-1 -1,-1Z"></path>
    </g>
</svg>