<?xml version="1.0" encoding="UTF-8"?>
<svg version="1.1" viewBox="0 0 24 24" xmlns="http://www.w3.org/2000/svg" xmlns:xlink="http://www.w3.org/1999/xlink">
    <!--Generated by IJSVG (https://github.com/iconjar/IJSVG)-->
    <g fill="#FFF">
        <path opacity="0" d="M0,0h24v24h-24Z"></path>
        <path d="M18,8l-1.74846e-07,3.55271e-15c-2.20914,9.65645e-08 -4,1.79086 -4,4c0,0 0,1.77636e-15 0,1.77636e-15l-9.59736e-08,-2.29108e-05c0.00295103,0.70496 0.19644,1.39601 0.559988,2h-5.11999l1.47124e-08,-2.44427e-08c0.363552,-0.603993 0.557045,-1.29504 0.56,-2v0c0,-2.20914 -1.79086,-4 -4,-4c-2.20914,0 -4,1.79086 -4,4c0,2.20914 1.79086,4 4,4h12l-1.74846e-07,-3.55271e-15c2.20914,9.65645e-08 4,-1.79086 4,-4c9.65645e-08,-2.20914 -1.79086,-4 -4,-4Zm-14,4l2.30926e-14,3.01992e-07c-1.66785e-07,-1.10457 0.89543,-2 2,-2c1.10457,-1.66785e-07 2,0.89543 2,2c1.66785e-07,1.10457 -0.89543,2 -2,2l-8.74228e-08,-1.77636e-15c-1.10457,-4.82823e-08 -2,-0.895431 -2,-2c0,0 0,0 0,0Zm14,2l-8.74228e-08,-1.77636e-15c-1.10457,-4.82823e-08 -2,-0.895431 -2,-2c4.82823e-08,-1.10457 0.895431,-2 2,-2c1.10457,4.82823e-08 2,0.895431 2,2v0c0,1.10457 -0.895431,2 -2,2Z"></path>
    </g>
</svg>