<?xml version="1.0" encoding="UTF-8"?>
<svg version="1.1" viewBox="0 0 24 24" xmlns="http://www.w3.org/2000/svg" xmlns:xlink="http://www.w3.org/1999/xlink">
    <!--Generated by IJSVG (https://github.com/iconjar/IJSVG)-->
    <defs>
        <path d="M0,0h24v24h-24Z" id="a"></path>
    </defs>
    <g fill="#FFF">
        <use opacity="0" xlink:href="#a"></use>
        <use opacity="0" xlink:href="#a"></use>
        <path d="M12,2l-4.37114e-07,1.06581e-14c-5.52285,2.41411e-07 -10,4.47715 -10,10c2.41411e-07,5.52285 4.47715,10 10,10c5.52285,-2.41411e-07 10,-4.47715 10,-10l7.10543e-15,4.37114e-07c0,-5.52285 -4.47715,-10 -10,-10Zm0,2l-1.61072e-07,-1.05218e-09c0.602575,0.00393624 1.20288,0.0743625 1.79,0.21l1.28228e-07,-2.89456e-07c-0.173829,0.392393 -0.441737,0.735865 -0.78,1c-0.22,0.17 -0.46,0.31 -0.7,0.46l-3.4335e-07,1.69049e-07c-0.759777,0.374078 -1.40037,0.952344 -1.85,1.67l7.17829e-08,-1.49603e-07c-0.492569,1.02657 -0.706392,2.16466 -0.62,3.3c0,1.36 0,2.16 -0.95,2.87c-1.37,1.07 -3.46,0.47 -4.76,-0.07l-2.92492e-07,-1.63587e-06c-0.0849871,-0.475323 -0.128484,-0.957135 -0.13,-1.43999l9.23706e-14,1.20797e-06c-6.67141e-07,-4.41828 3.58172,-8 8,-8Zm-7,11.8l-3.62594e-07,-9.42557e-08c0.65343,0.169858 1.32492,0.260509 2,0.27l-2.29239e-07,-6.30558e-09c1.1296,0.0310714 2.23641,-0.321416 3.14,-1c1.71,-1.34 1.71,-3.06 1.71,-4.44l-2.03921e-07,-2.1475e-06c-0.0758437,-0.798717 0.0514318,-1.60365 0.370001,-2.34l8.37987e-08,-1.14107e-07c0.28941,-0.394082 0.675019,-0.707389 1.12,-0.91l8.30587e-07,-4.85375e-07c0.31794,-0.185796 0.625099,-0.389456 0.92,-0.61l-5.05704e-08,3.99447e-08c0.621453,-0.490875 1.10402,-1.13545 1.4,-1.87l8.52757e-07,4.36309e-07c1.40695,0.71986 2.56917,1.84032 3.34,3.22c-1.43,0.2 -3.46,0.67 -3.86,2.53l-2.66172e-07,1.31015e-06c-0.0902849,0.444402 -0.137172,0.896526 -0.14,1.35l2.21355e-08,3.46581e-07c0.0323718,0.506853 -0.0675626,1.01342 -0.29,1.47l-0.1,0.17c-0.65,1.08 -1.38,2.31 -0.39,4c0.12,0.21 0.25,0.41 0.38,0.61l2.10778e-08,2.43484e-08c0.266148,0.307446 0.44563,0.680216 0.52,1.08l-4.27973e-08,1.88643e-08c-0.983508,0.433513 -2.04522,0.661509 -3.12,0.67l1.14814e-07,5.73216e-10c-2.92581,-0.0146073 -5.61026,-1.62528 -7,-4.2Zm11.93,2.52l-1.94762e-08,-4.49583e-08c-0.172984,-0.39931 -0.383954,-0.781066 -0.63,-1.14c-0.11,-0.16 -0.22,-0.32 -0.32,-0.49c-0.39,-0.68 -0.25,-1 0.38,-2l0.1,-0.17l-8.94457e-08,1.70701e-07c0.391906,-0.747927 0.578252,-1.58648 0.54,-2.43l-1.36419e-07,-4.55586e-05c-0.0010029,-0.3354 0.0291292,-0.670169 0.0900084,-0.999999c0.16,-0.73 1.71,-0.93 2.67,-1l2.06705e-08,8.03661e-08c0.793163,3.08379 -0.332653,6.34315 -2.86,8.28Z"></path>
    </g>
</svg>