<?xml version="1.0" encoding="UTF-8"?>
<svg version="1.1" viewBox="0 0 24 24" xmlns="http://www.w3.org/2000/svg" xmlns:xlink="http://www.w3.org/1999/xlink">
    <!--Generated by IJSVG (https://github.com/iconjar/IJSVG)-->
    <g fill="#FFF">
        <path opacity="0" d="M0,0h24v24h-24Z"></path>
        <path d="M7,14.18v-11.18v0c0,-0.552285 -0.447715,-1 -1,-1c-0.552285,0 -1,0.447715 -1,1v11.18l-3.20367e-08,1.16278e-08c-1.55744,0.565276 -2.36175,2.28608 -1.79648,3.84352c0.30319,0.835347 0.96113,1.49329 1.79648,1.79648v1.18l1.15463e-14,1.50996e-07c8.33927e-08,0.552285 0.447715,1 1,1c0.552285,-8.33927e-08 1,-0.447715 1,-1v-1.18l-2.14495e-07,7.78515e-08c1.55744,-0.565276 2.36175,-2.28608 1.79648,-3.84352c-0.30319,-0.835347 -0.96113,-1.49329 -1.79648,-1.79648Zm-1,3.82h-4.37114e-08c-0.552285,-2.41411e-08 -1,-0.447715 -1,-1c2.41411e-08,-0.552285 0.447715,-1 1,-1c0.552285,2.41411e-08 1,0.447715 1,1v0c0,0.552285 -0.447715,1 -1,1Z"></path>
        <path d="M21,13l4.61451e-08,1.64352e-05c-0.00355742,-1.26825 -0.804258,-2.39726 -1.99998,-2.82001v-7.18001v0c0,-0.552285 -0.447715,-1 -1,-1c-0.552285,0 -1,0.447715 -1,1v7.18l-3.20367e-08,1.16278e-08c-1.55744,0.565276 -2.36175,2.28608 -1.79648,3.84352c0.30319,0.835347 0.96113,1.49329 1.79648,1.79648v5.18l1.06581e-14,1.50996e-07c8.33927e-08,0.552285 0.447715,1 1,1c0.552285,-8.33927e-08 1,-0.447715 1,-1v-5.18l-4.03529e-08,1.4267e-08c1.19572,-0.422754 1.99642,-1.55175 1.99998,-2.82Zm-3,1l-4.37114e-08,-1.77636e-15c-0.552285,-2.41411e-08 -1,-0.447715 -1,-1c2.41411e-08,-0.552285 0.447715,-1 1,-1c0.552285,2.41411e-08 1,0.447715 1,1v0c0,0.552285 -0.447715,1 -1,1Z"></path>
        <path d="M15,5l2.26351e-08,-8.06576e-06c0.00464741,-1.65685 -1.33473,-3.00376 -2.99157,-3.0084c-1.65685,-0.00464741 -3.00376,1.33473 -3.0084,2.99157c-0.00357474,1.27443 0.798435,2.41203 1.99998,2.83684v13.18l1.06581e-14,1.50996e-07c8.33927e-08,0.552285 0.447715,1 1,1c0.552285,-8.33927e-08 1,-0.447715 1,-1v-13.18l-1.42076e-07,5.02312e-08c1.19573,-0.422751 1.99643,-1.55175 1.99999,-2.82Zm-3,1l-4.37114e-08,-8.88178e-16c-0.552285,-2.41411e-08 -1,-0.447715 -1,-1c2.41411e-08,-0.552285 0.447715,-1 1,-1c0.552285,2.41411e-08 1,0.447715 1,1v0c0,0.552285 -0.447715,1 -1,1Z"></path>
    </g>
</svg>