<?xml version="1.0" encoding="UTF-8"?>
<svg version="1.1" viewBox="0 0 24 24" xmlns="http://www.w3.org/2000/svg" xmlns:xlink="http://www.w3.org/1999/xlink">
    <!--Generated by IJSVG (https://github.com/iconjar/IJSVG)-->
    <g fill="#FFF">
        <path opacity="0" d="M0,0h24v24h-24Z" transform="matrix(-1,1.22465e-16,-1.22465e-16,-1,24,24)"></path>
        <path d="M18,3h-12l-1.31134e-07,3.55271e-15c-1.65685,7.24234e-08 -3,1.34315 -3,3c0,0 0,1.77636e-15 0,1.77636e-15v12l3.37508e-14,-4.52987e-07c-2.50178e-07,1.65685 1.34315,3 3,3h12l-1.31134e-07,-3.55271e-15c1.65685,7.24234e-08 3,-1.34315 3,-3v-12v0c0,-1.65685 -1.34315,-3 -3,-3Zm1,15v0c0,0.552285 -0.447715,1 -1,1h-12h-4.37114e-08c-0.552285,-2.41411e-08 -1,-0.447715 -1,-1c0,0 0,-3.55271e-15 0,-3.55271e-15v-12l1.24345e-14,1.50996e-07c-8.33927e-08,-0.552285 0.447715,-1 1,-1h12l-4.37114e-08,8.88178e-16c0.552285,-2.41411e-08 1,0.447715 1,1Z"></path>
        <path d="M14.7,8.39l-3.78,5l-1.63,-2.11l2.88604e-08,3.70728e-08c-0.339655,-0.436305 -0.968695,-0.514655 -1.405,-0.175c-0.436305,0.339655 -0.514655,0.968695 -0.175,1.405c0,0 8.88178e-16,0 8.88178e-16,0l2.43,3.11l-4.4812e-10,-5.67113e-10c0.190822,0.241492 0.48222,0.381658 0.79,0.38l5.28842e-08,-1.27116e-10c0.309497,-0.000743936 0.601207,-0.144753 0.79,-0.39l4.57,-6l2.49241e-08,-3.26873e-08c0.336894,-0.441828 0.251828,-1.07311 -0.19,-1.41c-0.441828,-0.336894 -1.07311,-0.251828 -1.41,0.19c-8.56986e-09,1.12392e-08 -4.28493e-09,5.61958e-09 -1.28548e-08,1.68587e-08Z"></path>
    </g>
</svg>