<?xml version="1.0" encoding="UTF-8"?>
<svg version="1.1" viewBox="0 0 24 24" xmlns="http://www.w3.org/2000/svg" xmlns:xlink="http://www.w3.org/1999/xlink">
    <!--Generated by IJSVG (https://github.com/iconjar/IJSVG)-->
    <defs>
        <path d="M0,0h24v24h-24Z" id="a"></path>
    </defs>
    <g fill="#FFF">
        <use opacity="0" transform="matrix(-1,1.22465e-16,-1.22465e-16,-1,24,24)" xlink:href="#a"></use>
        <use opacity="0" transform="matrix(-1,1.22465e-16,-1.22465e-16,-1,24,24)" xlink:href="#a"></use>
        <path d="M13,22h-4h-4.37114e-08c-0.552285,-2.41411e-08 -1,-0.447715 -1,-1c0,0 0,-3.55271e-15 0,-3.55271e-15v-6.2h-2h-4.37114e-08c-0.552285,-2.41411e-08 -1,-0.447715 -1,-1c0,0 0,0 0,0v-3.6l1.24345e-14,1.50996e-07c-8.33927e-08,-0.552285 0.447715,-1 1,-1h2v-1.7l9.17357e-09,-1.99404e-07c0.145926,-3.17197 2.82733,-5.62993 6,-5.5h3h-4.37114e-08c0.552285,-2.41411e-08 1,0.447715 1,1v3.6v0c0,0.552285 -0.447715,1 -1,1h-3v1.6h3l5.54073e-08,-4.19803e-10c0.313008,-0.00237155 0.609069,0.141958 0.8,0.39l3.52136e-09,4.69515e-09c0.188854,0.251806 0.248132,0.577833 0.16,0.88l-1,3.6l2.07956e-08,-7.4363e-08c-0.124511,0.445238 -0.537996,0.747082 -1,0.73h-1.96v6.2v0c0,0.552285 -0.447715,1 -1,1Zm-3,-2h2v-6.2l1.06581e-14,1.50996e-07c-8.33927e-08,-0.552285 0.447715,-1 1,-1h2.24l0.44,-1.6h-2.68l-4.37114e-08,-1.77636e-15c-0.552285,-2.41411e-08 -1,-0.447715 -1,-1c0,0 0,0 0,0v-2.7l5.68251e-09,-1.1351e-07c0.0533326,-1.06533 0.933333,-1.90133 2,-1.9h2v-1.6h-2l-5.42812e-08,-3.3071e-09c-2.06694,-0.125929 -3.85044,1.43463 -4,3.5v2.7v0c0,0.552285 -0.447715,1 -1,1h-2v1.6h2l-4.37114e-08,1.77636e-15c0.552285,-2.41411e-08 1,0.447715 1,1Z"></path>
    </g>
</svg>