<svg width="158" height="50" viewBox="0 0 158 50" fill="none" xmlns="http://www.w3.org/2000/svg">
<path d="M13.4777 47.1259C24.8324 53.7194 40.0935 48.2865 46.6491 36.8663C53.2048 25.4461 49.3144 10.8432 37.9597 4.24972C26.605 -2.34369 9.27623 -1.78855 2.72053 9.63162C-3.8351 21.0518 2.12303 40.5325 13.4777 47.1259Z" fill="url(#paint0_linear)"/>
<path d="M23.2416 7.6768C21.7824 7.6768 20.4672 8.0224 19.296 8.7136C17.1264 10.0192 15.8496 12.0736 15.4656 14.8768C15.408 15.3184 15.3792 15.856 15.3792 16.4896C15.3792 17.1232 15.4944 17.8336 15.7248 18.6208C16.0512 19.792 16.6944 20.848 17.6544 21.7888C18.5952 22.7296 19.776 23.3728 21.1968 23.7184C21.792 21.5296 22.6944 19.4848 23.904 17.584C25.1136 15.664 26.64 14.0704 28.4832 12.8032C30.3264 11.5168 32.2656 10.8736 34.3008 10.8736C36.0672 10.8736 37.1424 11.584 37.5264 13.0048C37.6416 13.3696 37.6992 13.7536 37.6992 14.1568C37.6992 15.328 37.2576 16.624 36.3744 18.0448C34.992 20.3296 32.976 22.0672 30.3264 23.2576C28.2528 24.1984 26.016 24.6688 23.616 24.6688H23.04C22.6368 26.0896 22.4352 27.4624 22.4352 28.7872C22.4352 31.2832 23.0688 33.0112 24.336 33.9712C24.5088 32.3968 24.912 30.9184 25.5456 29.536C26.1792 28.1536 27.0528 26.992 28.1664 26.0512C29.2992 25.1104 30.5472 24.64 31.9104 24.64C33.4848 24.64 34.464 25.3408 34.848 26.7424C34.944 27.1264 34.992 27.52 34.992 27.9232C34.992 28.9792 34.656 30.112 33.984 31.3216C32.928 33.184 31.4592 34.4512 29.5776 35.1232C28.2144 35.584 26.8608 35.6608 25.5168 35.3536C25.4976 35.6032 25.488 35.8528 25.488 36.1024C25.488 37.504 25.7856 38.6848 26.3808 39.6448C27.0528 40.7776 28.1472 41.344 29.664 41.344C29.6064 41.7088 29.2896 41.8912 28.7136 41.8912C27.1776 41.8912 26.0448 41.2576 25.3152 39.9904C24.6048 38.7232 24.2496 37.2256 24.2496 35.4976C24.2496 35.3056 24.2496 35.1232 24.2496 34.9504C22.5984 34.24 21.504 32.8768 20.9664 30.8608C20.6976 29.9008 20.5632 28.8832 20.5632 27.808C20.5632 26.7328 20.7168 25.5904 21.024 24.3808C19.68 24.0736 18.5184 23.5168 17.5392 22.7104C16.56 21.904 15.8592 20.9824 15.4368 19.9456C14.88 18.5824 14.6016 17.3248 14.6016 16.1728C14.6016 15.0208 14.784 13.936 15.1488 12.9184C15.5136 11.9008 16.0416 10.9408 16.7328 10.0384C17.4048 9.1168 18.3168 8.3776 19.4688 7.8208C20.6208 7.2448 21.888 6.9568 23.2704 6.9568C25.9968 6.9568 27.8592 8.0128 28.8576 10.1248C28.9728 10.3552 28.8384 10.5088 28.4544 10.5856C27.9936 10.624 27.7056 10.5184 27.5904 10.2688C27.0144 8.5408 25.5648 7.6768 23.2416 7.6768ZM33.9264 11.6224C32.832 11.6224 31.7184 11.9872 30.5856 12.7168C29.472 13.4272 28.4544 14.368 27.5328 15.5392C25.5744 18.0352 24.144 20.848 23.2416 23.9776H23.6448C27.408 23.9776 30.576 22.7776 33.1488 20.3776C34.8576 18.784 35.904 17.0656 36.288 15.2224C36.3648 14.8192 36.4032 14.4544 36.4032 14.128C36.4032 13.1296 36.0384 12.4096 35.3088 11.968C34.944 11.7376 34.4832 11.6224 33.9264 11.6224ZM32.1696 25.4176C30.6144 25.4176 29.1936 26.368 27.9072 28.2688C26.64 30.1696 25.8624 32.2816 25.5744 34.6048C26.0736 34.7584 26.6016 34.8352 27.1584 34.8352C29.2704 34.8352 31.0464 33.9136 32.4864 32.0704C33.6192 30.6496 34.1856 29.248 34.1856 27.8656C34.1856 26.4832 33.6864 25.6864 32.688 25.4752C32.5344 25.4368 32.3616 25.4176 32.1696 25.4176ZM44.9346 10.528C45.7986 10.528 46.2306 11.104 46.2306 12.256C46.2306 12.544 46.2018 12.88 46.1442 13.264C45.8562 15.088 45.0978 16.9696 43.869 18.9088C42.9858 20.3104 42.1506 21.1936 41.3634 21.5584C40.9794 23.632 40.6434 25.5136 40.3554 27.2032H40.557C42.1698 23.6128 43.8018 21.8176 45.453 21.8176C46.0482 21.8176 46.509 22 46.8354 22.3648C47.181 22.7296 47.3538 23.2288 47.3538 23.8624C47.3538 24.496 47.1042 25.888 46.605 28.0384C46.1058 30.1696 45.8562 31.6576 45.8562 32.5024C45.8562 33.7504 46.0866 34.3744 46.5474 34.3744C46.5474 34.5088 46.461 34.6432 46.2882 34.7776C46.1154 34.912 45.9138 34.9792 45.6834 34.9792C44.5698 34.9792 44.013 34.1056 44.013 32.3584C44.013 31.2832 44.2914 29.6896 44.8482 27.5776C45.4242 25.4464 45.7122 24.0736 45.7122 23.4592C45.7122 22.8448 45.4722 22.5376 44.9922 22.5376C44.4354 22.5376 43.821 23.008 43.149 23.9488C42.477 24.8896 41.853 26.0896 41.277 27.5488C40.317 29.8912 39.597 31.8496 39.117 33.424C39.0018 33.808 38.8386 34 38.6274 34C38.2818 34 38.0226 33.7888 37.8498 33.3664C37.7538 33.136 37.7058 32.896 37.7058 32.6464C37.7058 32.3776 37.7826 31.8976 37.9362 31.2064C38.0898 30.496 38.349 29.2576 38.7138 27.4912C39.0594 25.7248 39.357 24.2656 39.6066 23.1136C39.8562 21.9424 40.1442 20.6368 40.4706 19.1968C40.797 17.7376 41.1042 16.5568 41.3922 15.6544C41.6994 14.7328 42.045 13.8496 42.429 13.0048C43.1586 11.3536 43.9938 10.528 44.9346 10.528ZM45.5682 12.3136C45.5682 11.6992 45.3954 11.3248 45.0498 11.1904C43.917 11.1904 42.7458 14.3584 41.5362 20.6944C42.3042 20.1568 43.101 19.0816 43.9266 17.4688C45.021 15.2992 45.5682 13.5808 45.5682 12.3136ZM54.7599 16.7488C55.2015 16.7488 55.4223 17.0464 55.4223 17.6416C55.4223 18.2368 55.1343 18.7168 54.5583 19.0816C54.2703 19.2736 54.0207 19.3696 53.8095 19.3696C53.5023 19.3696 53.3199 19.2736 53.2623 19.0816L53.2335 18.9952C53.4063 18.9952 53.5311 18.8128 53.6079 18.448C53.6847 18.064 53.7999 17.6896 53.9535 17.3248C54.1263 16.9408 54.3951 16.7488 54.7599 16.7488ZM52.9167 33.3088C53.4159 33.3088 54.1167 32.6464 55.0191 31.3216C55.9215 29.9968 56.6991 28.672 57.3519 27.3472L58.3311 25.36H59.1087C58.9935 25.5904 58.8399 25.9072 58.6479 26.3104C58.4751 26.6944 58.1199 27.3952 57.5823 28.4128C57.0447 29.4112 56.5263 30.2944 56.0271 31.0624C55.5471 31.8304 54.9999 32.5312 54.3855 33.1648C53.7903 33.7792 53.2719 34.0864 52.8303 34.0864C51.4095 34.0864 50.6991 33.1648 50.6991 31.3216C50.6991 29.9392 51.0927 27.6928 51.8799 24.5824C51.9567 24.256 52.0143 24.0064 52.0527 23.8336C52.1103 23.6608 52.1679 23.44 52.2255 23.1712C52.2831 22.8832 52.3407 22.624 52.3983 22.3936C52.4943 21.9904 52.6671 21.7888 52.9167 21.7888C53.2623 21.7888 53.5119 22.0384 53.6655 22.5376C53.7423 22.768 53.7807 23.0464 53.7807 23.3728C53.7807 23.6992 53.7423 24.0448 53.6655 24.4096C53.5887 24.7552 53.4639 25.2736 53.2911 25.9648C53.1183 26.656 52.9839 27.2224 52.8879 27.664C52.7919 28.1056 52.6863 28.6432 52.5711 29.2768C52.3599 30.3328 52.2543 31.2736 52.2543 32.0992C52.2543 32.9056 52.4751 33.3088 52.9167 33.3088ZM65.1709 21.2416C66.0349 21.2416 66.4669 22.144 66.4669 23.9488C66.4669 24.1408 66.4573 24.3424 66.4381 24.5536C66.6685 24.6304 67.0045 24.6688 67.4461 24.6688C67.8877 24.6688 68.2813 24.4864 68.6269 24.1216C68.9725 23.7568 69.1453 23.4208 69.1453 23.1136C69.1453 23.0368 69.1933 22.9888 69.2893 22.9696C69.3853 22.9312 69.4717 22.9312 69.5485 22.9696C69.6445 23.008 69.6925 23.0656 69.6925 23.1424C69.6925 23.6992 69.4525 24.2272 68.9725 24.7264C68.5117 25.2256 67.8877 25.4752 67.1005 25.4752C66.8893 25.4752 66.6493 25.456 66.3805 25.4176C66.2269 26.7232 65.9197 28.0192 65.4589 29.3056C64.9981 30.5728 64.3837 31.6768 63.6157 32.6176C62.8669 33.5392 62.0893 34 61.2829 34C59.3821 34 58.4317 32.6848 58.4317 30.0544C58.4317 28.4224 58.7773 26.08 59.4685 23.0272C60.1789 19.9552 61.1197 17.104 62.2909 14.4736C63.4621 11.8432 64.5757 10.528 65.6317 10.528C66.4381 10.528 66.8413 11.0272 66.8413 12.0256C66.8413 12.3712 66.7933 12.7744 66.6973 13.2352C66.3325 15.0592 65.4877 16.9408 64.1629 18.88C63.1645 20.3392 62.2525 21.2416 61.4269 21.5872C60.4477 25.8688 59.9581 28.8832 59.9581 30.6304C59.9581 32.3584 60.4189 33.2224 61.3405 33.2224C62.3389 33.2224 63.2413 32.368 64.0477 30.6592C64.8733 28.9504 65.4301 27.1264 65.7181 25.1872C65.1037 24.88 64.6717 24.4 64.4221 23.7472C64.2685 23.3632 64.1917 23.0368 64.1917 22.768C64.1917 22.48 64.2301 22.2304 64.3069 22.0192C64.4605 21.5008 64.7485 21.2416 65.1709 21.2416ZM66.2077 12.0832C66.2077 11.5072 66.0349 11.2096 65.6893 11.1904C65.0941 11.1904 64.4317 12.1024 63.7021 13.9264C62.9725 15.7504 62.2813 18.016 61.6285 20.7232C62.6845 20.032 63.7117 18.6496 64.7101 16.576C65.7085 14.5024 66.2077 13.0048 66.2077 12.0832ZM71.2216 34.0288C69.7048 34.0288 68.9464 32.8864 68.9464 30.6016C68.9464 29.2768 69.292 27.8272 69.9832 26.2528C70.9432 24.1216 72.1624 22.7296 73.6408 22.0768C74.1592 21.8656 74.6776 21.76 75.196 21.76C75.7336 21.76 76.156 21.9136 76.4632 22.2208C76.7704 22.528 76.924 22.8736 76.924 23.2576C76.924 23.4304 76.828 23.5168 76.636 23.5168C76.4632 23.4976 76.3768 23.4016 76.3768 23.2288C76.3768 23.056 76.2808 22.9024 76.0888 22.768C75.916 22.6144 75.6568 22.5376 75.3112 22.5376C74.1016 22.5376 73.0072 23.6224 72.028 25.792C71.1064 27.808 70.6456 29.7184 70.6456 31.5232C70.6456 32.6368 70.8856 33.1936 71.3656 33.1936C71.8648 33.1936 72.46 32.7808 73.1512 31.9552C73.8616 31.1104 74.5144 30.1312 75.1096 29.0176C76.396 26.6752 77.1544 25.168 77.3848 24.496C77.6152 23.824 77.8648 23.488 78.1336 23.488C78.6136 23.488 78.8536 23.8912 78.8536 24.6976C78.8536 24.9472 78.8248 25.2352 78.7672 25.5616C78.1336 28.6336 77.788 30.4096 77.7304 30.8896C77.692 31.3696 77.6728 31.7152 77.6728 31.9264C77.6728 32.848 77.8936 33.3088 78.3352 33.3088C78.8344 33.3088 79.5352 32.6464 80.4376 31.3216C81.34 29.9968 82.1176 28.672 82.7704 27.3472L83.7496 25.36H84.5272C84.412 25.5904 84.2584 25.9072 84.0664 26.3104C83.8936 26.6944 83.5384 27.3952 83.0008 28.4128C82.4632 29.4112 81.9448 30.2944 81.4456 31.0624C80.9656 31.8304 80.4184 32.5312 79.804 33.1648C79.2088 33.7792 78.6904 34.0864 78.2488 34.0864C76.828 34.0864 76.1176 33.0496 76.1176 30.976C76.1176 30.2848 76.1944 29.4784 76.348 28.5568H76.1464C74.188 32.2048 72.5464 34.0288 71.2216 34.0288ZM85.0866 30.1984C85.0866 32.2144 85.6242 33.2224 86.6994 33.2224C87.429 33.2224 88.1106 32.7712 88.7442 31.8688C89.9538 30.1792 90.693 27.952 90.9618 25.1872C90.2898 24.8992 89.8194 24.4288 89.5506 23.776C89.3778 23.3728 89.2914 23.0368 89.2914 22.768C89.2914 22.48 89.3298 22.2304 89.4066 22.0192C89.5794 21.5008 89.8962 21.2416 90.357 21.2416C90.8178 21.2416 91.1634 21.5392 91.3938 22.1344C91.6434 22.7104 91.7682 23.4496 91.7682 24.352C91.7682 24.4096 91.7682 24.4768 91.7682 24.5536C91.9986 24.6304 92.3346 24.6688 92.7762 24.6688C93.237 24.6688 93.6402 24.4864 93.9858 24.1216C94.3314 23.7568 94.5042 23.4208 94.5042 23.1136C94.5042 23.0368 94.5522 22.9888 94.6482 22.9696C94.7442 22.9312 94.8306 22.9312 94.9074 22.9696C95.0034 23.008 95.0514 23.0656 95.0514 23.1424C95.0514 23.6992 94.8114 24.2272 94.3314 24.7264C93.8706 25.2256 93.2466 25.4752 92.4594 25.4752C92.2674 25.4752 92.0178 25.456 91.7106 25.4176C91.5954 26.7232 91.317 28.0192 90.8754 29.3056C90.453 30.5728 89.8578 31.6768 89.0898 32.6176C88.3218 33.5392 87.4962 34 86.613 34C84.9426 34 83.9154 33.1072 83.5314 31.3216C83.4354 30.8032 83.3874 30.2752 83.3874 29.7376C83.3874 28.528 83.6658 27.232 84.2226 25.8496C84.9522 24.0448 85.8546 22.9216 86.9298 22.48C87.4866 22.288 87.8706 22.2592 88.0818 22.3936C88.293 22.528 88.4274 22.6816 88.485 22.8544C87.6018 22.8544 86.8146 23.68 86.1234 25.3312C85.4322 26.9824 85.0866 28.6048 85.0866 30.1984ZM100.007 18.6208H100.065C100.237 18.64 100.372 18.7168 100.468 18.8512C100.564 18.9856 100.612 19.1296 100.612 19.2832C100.612 19.4176 100.477 19.7152 100.209 20.176C99.9589 20.6368 99.8341 21.0112 99.8341 21.2992C99.8341 21.568 99.8725 21.8272 99.9493 22.0768C100.026 22.3072 100.266 22.8832 100.669 23.8048C101.553 25.8208 101.994 27.6256 101.994 29.2192C101.994 30.7936 101.562 32.0992 100.698 33.136C99.8533 34.1728 98.8357 34.6912 97.6453 34.6912C96.4741 34.6912 95.8885 33.9808 95.8885 32.56C95.8885 31.12 96.3973 29.584 97.4149 27.952C98.0101 27.0112 98.6533 26.3008 99.3445 25.8208C99.5365 25.6864 99.6613 25.7152 99.7189 25.9072C99.7957 26.0992 99.7573 26.2528 99.6037 26.368C98.4901 27.1744 97.6261 28.4512 97.0117 30.1984C96.4549 31.7728 96.3973 32.8672 96.8389 33.4816C96.9925 33.712 97.2133 33.8272 97.5013 33.8272C98.3461 33.8272 99.0085 33.2608 99.4885 32.128C99.9685 30.9952 100.209 29.584 100.209 27.8944C100.209 26.4352 100.036 25.0816 99.6901 23.8336C99.3445 22.5856 99.1525 21.8656 99.1141 21.6736C98.5381 22.768 97.9141 23.9968 97.2421 25.36H96.4645C97.5589 23.1904 98.4037 21.5584 98.9989 20.464C99.0757 19.2352 99.4117 18.6208 100.007 18.6208ZM109.407 16.7488C109.848 16.7488 110.069 17.0464 110.069 17.6416C110.069 18.2368 109.781 18.7168 109.205 19.0816C108.917 19.2736 108.668 19.3696 108.456 19.3696C108.149 19.3696 107.967 19.2736 107.909 19.0816L107.88 18.9952C108.053 18.9952 108.178 18.8128 108.255 18.448C108.332 18.064 108.447 17.6896 108.6 17.3248C108.773 16.9408 109.042 16.7488 109.407 16.7488ZM107.564 33.3088C108.063 33.3088 108.764 32.6464 109.666 31.3216C110.568 29.9968 111.346 28.672 111.999 27.3472L112.978 25.36H113.756C113.64 25.5904 113.487 25.9072 113.295 26.3104C113.122 26.6944 112.767 27.3952 112.229 28.4128C111.692 29.4112 111.173 30.2944 110.674 31.0624C110.194 31.8304 109.647 32.5312 109.032 33.1648C108.437 33.7792 107.919 34.0864 107.477 34.0864C106.056 34.0864 105.346 33.1648 105.346 31.3216C105.346 29.9392 105.74 27.6928 106.527 24.5824C106.604 24.256 106.661 24.0064 106.7 23.8336C106.757 23.6608 106.815 23.44 106.872 23.1712C106.93 22.8832 106.988 22.624 107.045 22.3936C107.141 21.9904 107.314 21.7888 107.564 21.7888C107.909 21.7888 108.159 22.0384 108.312 22.5376C108.389 22.768 108.428 23.0464 108.428 23.3728C108.428 23.6992 108.389 24.0448 108.312 24.4096C108.236 24.7552 108.111 25.2736 107.938 25.9648C107.765 26.656 107.631 27.2224 107.535 27.664C107.439 28.1056 107.333 28.6432 107.218 29.2768C107.007 30.3328 106.901 31.2736 106.901 32.0992C106.901 32.9056 107.122 33.3088 107.564 33.3088ZM113.223 34C112.685 34 112.416 33.5872 112.416 32.7616C112.416 32.32 112.954 29.104 114.029 23.1136C114.087 22.7104 114.259 22.5088 114.547 22.5088C114.893 22.5088 115.152 22.7584 115.325 23.2576C115.421 23.5264 115.469 23.824 115.469 24.1504C115.469 24.4576 115.431 24.7936 115.354 25.1584L114.893 27.4624H115.066C116.794 23.584 118.445 21.6448 120.019 21.6448C120.634 21.6448 121.104 21.8368 121.431 22.2208C121.757 22.5856 121.92 23.0944 121.92 23.7472C121.92 24.4 121.661 25.8112 121.143 27.9808C120.624 30.1504 120.365 31.6576 120.365 32.5024C120.365 33.7504 120.595 34.3744 121.056 34.3744C121.056 34.5088 120.97 34.6432 120.797 34.7776C120.624 34.912 120.423 34.9792 120.192 34.9792C119.079 34.9792 118.522 34.1056 118.522 32.3584C118.522 31.2832 118.81 29.6608 119.386 27.4912C119.981 25.3024 120.279 23.9104 120.279 23.3152C120.279 22.7008 120.039 22.3936 119.559 22.3936C118.867 22.3936 118.032 23.296 117.053 25.1008C116.093 26.9056 115.315 28.6336 114.72 30.2848C114.144 31.9168 113.808 32.944 113.712 33.3664C113.635 33.7888 113.472 34 113.223 34ZM133.8 23.488C134.28 23.488 134.52 23.8912 134.52 24.6976C134.52 25.2736 134.203 26.944 133.57 29.7088C132.936 32.4544 132.37 34.7296 131.87 36.5344C131.371 38.3392 130.901 39.6736 130.459 40.5376C130.018 41.4208 129.48 42.304 128.846 43.1872C128.232 44.0704 127.55 44.6752 126.802 45.0016C126.053 45.328 125.189 45.4912 124.21 45.4912C122.386 45.4912 121.474 44.56 121.474 42.6976C121.474 41.6032 121.886 40.4224 122.712 39.1552C123.902 37.2928 125.496 36.064 127.493 35.4688C128.203 35.2576 128.942 35.152 129.71 35.152C129.845 35.152 129.912 35.2864 129.912 35.5552C129.912 35.824 129.845 35.9584 129.71 35.9584C127.445 35.9584 125.544 36.8512 124.008 38.6368C122.875 39.9808 122.309 41.2768 122.309 42.5248C122.309 43.7728 122.789 44.4928 123.749 44.6848L124.21 44.7136C125.784 44.7136 127.032 44.0608 127.954 42.7552C128.894 41.4304 129.634 39.76 130.171 37.744C130.709 35.7088 131.4 32.5216 132.245 28.1824H132.014C129.941 32.08 128.232 34.0288 126.888 34.0288C125.371 34.0288 124.613 32.8864 124.613 30.6016C124.613 29.2768 124.958 27.8272 125.65 26.2528C126.61 24.1216 127.829 22.7296 129.307 22.0768C129.826 21.8656 130.344 21.76 130.862 21.76C131.4 21.76 131.822 21.9136 132.13 22.2208C132.437 22.528 132.59 22.8736 132.59 23.2576C132.59 23.4304 132.494 23.5168 132.302 23.5168C132.13 23.4976 132.043 23.4016 132.043 23.2288C132.043 23.056 131.947 22.9024 131.755 22.768C131.582 22.6144 131.323 22.5376 130.978 22.5376C129.768 22.5376 128.674 23.6224 127.694 25.792C126.773 27.808 126.312 29.7184 126.312 31.5232C126.312 32.6368 126.552 33.1936 127.032 33.1936C127.666 33.1936 128.491 32.4448 129.509 30.9472C131.045 28.6816 132.245 26.464 133.109 24.2944C133.339 23.7568 133.57 23.488 133.8 23.488ZM138.701 29.7952C138.701 32.1184 139.527 33.28 141.178 33.28C141.792 33.28 142.436 33.0112 143.108 32.4736C143.799 31.9168 144.423 31.2544 144.98 30.4864C146.208 28.72 147.072 27.28 147.572 26.1664L147.946 25.36H148.724C148.397 26.128 147.917 27.0784 147.284 28.2112C146.65 29.3248 146.045 30.2656 145.469 31.0336C144.893 31.8016 144.212 32.5024 143.424 33.136C142.637 33.7504 141.888 34.0576 141.178 34.0576C138.336 34.0576 136.916 32.464 136.916 29.2768C136.916 27.7984 137.348 26.32 138.212 24.8416C139.402 22.7872 140.871 21.76 142.618 21.76C143.847 21.76 144.461 22.432 144.461 23.776C144.461 24.7744 144.077 25.8112 143.309 26.8864C142.234 28.3456 140.976 29.0848 139.536 29.104C139.325 29.104 139.191 29.008 139.133 28.816L139.104 28.7008C140.103 28.7008 141.053 28.048 141.956 26.7424C142.877 25.4176 143.338 24.3136 143.338 23.4304C143.338 22.8352 143.108 22.5376 142.647 22.5376C141.629 22.5376 140.679 23.4304 139.796 25.216C139.066 26.7328 138.701 28.2592 138.701 29.7952ZM148.247 34C147.71 34 147.441 33.5872 147.441 32.7616C147.441 32.32 147.978 29.104 149.054 23.1136C149.13 22.7104 149.303 22.5088 149.572 22.5088C149.918 22.5088 150.177 22.7584 150.35 23.2576C150.446 23.5264 150.494 23.824 150.494 24.1504C150.494 24.4576 150.455 24.7936 150.378 25.1584L149.918 27.52H150.062C151.713 23.68 153.23 21.76 154.612 21.76C155.38 21.76 155.889 22.1344 156.138 22.8832C156.234 23.1712 156.282 23.5072 156.282 23.8912C156.282 24.256 156.177 24.6592 155.966 25.1008C155.601 25.8496 155.054 26.224 154.324 26.224C154.17 26.224 154.046 26.1856 153.95 26.1088C153.873 26.032 153.825 25.9264 153.806 25.792C153.959 25.792 154.161 25.5136 154.41 24.9568C154.66 24.3808 154.804 23.8528 154.842 23.3728C154.881 22.8928 154.718 22.6144 154.353 22.5376C153.681 22.5376 152.884 23.4112 151.962 25.1584C151.041 26.9056 150.302 28.576 149.745 30.1696C149.188 31.7632 148.862 32.8 148.766 33.28C148.67 33.76 148.497 34 148.247 34Z" fill="#723FC5"/>
<path d="M54 13L54.8981 16.1094H57.8042L55.4531 18.0312L56.3511 21.1406L54 19.2188L51.6489 21.1406L52.5469 18.0312L50.1958 16.1094H53.1019L54 13Z" fill="#723FC5"/>
<path d="M59.6288 11.152C59.0528 11.8624 58.4 12.5536 57.6704 13.2256C56.96 13.8976 56.4992 14.2336 56.288 14.2336C56.096 14.2336 56 14.128 56 13.9168C56 13.7056 56.2208 13.2544 56.6624 12.5632C57.1232 11.8528 57.6704 11.1424 58.304 10.432C58.5344 10.144 58.7552 10 58.9664 10C59.1776 10 59.3792 10.048 59.5712 10.144C59.7632 10.2208 59.8592 10.3552 59.8592 10.5472C59.8592 10.72 59.7824 10.9216 59.6288 11.152Z" fill="#723FC5"/>
<defs>
<linearGradient id="paint0_linear" x1="-10.7279" y1="32.9249" x2="33.657" y2="58.5506" gradientUnits="userSpaceOnUse">
<stop stop-color="#F073C8"/>
<stop offset="1" stop-color="#9E6AFF"/>
</linearGradient>
</defs>
</svg>
