<svg width="291" height="87" viewBox="0 0 291 87" fill="none" xmlns="http://www.w3.org/2000/svg">
<path d="M72 76C92.9868 76 110 58.9868 110 38C110 17.0132 92.9868 0 72 0C51.0132 0 34 17.0132 34 38C34 58.9868 51.0132 76 72 76Z" fill="url(#paint0_linear)"/>
<path d="M5 25.16H14.36V67.64H40.712V75.56H5V25.16ZM99.5 64.5L71 23L47 75.56L99.5 64.5ZM124.714 25.16H134.074V67.64H160.426V75.56H124.714V25.16ZM182.216 25.16H191.576V67.64H217.928V75.56H182.216V25.16ZM272.757 63.896H247.557L242.589 75.56H232.941L255.621 25.16H264.837L287.589 75.56H277.797L272.757 63.896ZM269.661 56.552L260.157 34.52L250.725 56.552H269.661Z" fill="#5A5A5A"/>
<defs>
<linearGradient id="paint0_linear" x1="48.8696" y1="8.26087" x2="87.6956" y2="71.0435" gradientUnits="userSpaceOnUse">
<stop stop-color="#7E56C8"/>
<stop offset="1" stop-color="#CFC5F5"/>
</linearGradient>
</defs>
</svg>
