<svg width="137" height="112" viewBox="0 0 137 112" fill="none" xmlns="http://www.w3.org/2000/svg">
<path d="M32.3075 0L53.1642 16.4103C44.7124 25.4359 38.7144 33.9145 35.1702 41.8461C31.6259 49.7778 29.8537 57.9829 29.8537 66.4615L17.1761 54.5641H57.6627V112H0V74.2564C0 60.3077 2.45373 47.453 7.3612 35.6923C12.2687 23.9316 20.5841 12.0342 32.3075 0ZM111.645 0L132.501 16.4103C124.05 25.4359 118.052 33.9145 114.507 41.8461C110.963 49.7778 109.191 57.9829 109.191 66.4615L96.5134 54.5641H137V112H79.3373V74.2564C79.3373 60.3077 81.791 47.453 86.6985 35.6923C91.606 23.9316 99.9214 12.0342 111.645 0Z" fill="#d3c5f5"/>
</svg>
