<svg width="24" height="24" viewBox="0 0 24 24" fill="none" xmlns="http://www.w3.org/2000/svg">
<path d="M5 12.9987L16.86 12.9987L13.23 17.3587C13.0603 17.563 12.9786 17.8262 13.003 18.0907C13.0274 18.3551 13.1558 18.599 13.36 18.7687C13.5642 18.9385 13.8275 19.0201 14.0919 18.9958C14.3564 18.9714 14.6003 18.843 14.77 18.6387L19.77 12.6387C19.8036 12.591 19.8337 12.5409 19.86 12.4887C19.86 12.4387 19.86 12.4087 19.93 12.3587C19.9753 12.2441 19.9991 12.122 20 11.9987C19.9991 11.8755 19.9753 11.7534 19.93 11.6387C19.93 11.5887 19.93 11.5587 19.86 11.5087C19.8337 11.4566 19.8036 11.4065 19.77 11.3587L14.77 5.35875C14.676 5.24587 14.5582 5.15508 14.4252 5.09286C14.2921 5.03064 14.1469 4.99851 14 4.99875C13.7663 4.99829 13.5399 5.07967 13.36 5.22875C13.2587 5.3127 13.175 5.4158 13.1137 5.53214C13.0523 5.64849 13.0145 5.7758 13.0025 5.90677C12.9904 6.03775 13.0043 6.16982 13.0433 6.29543C13.0824 6.42103 13.1458 6.5377 13.23 6.63875L16.86 10.9987L5 10.9987C4.73478 10.9987 4.48043 11.1041 4.29289 11.2916C4.10536 11.4792 4 11.7335 4 11.9987C4 12.264 4.10536 12.5183 4.29289 12.7059C4.48043 12.8934 4.73478 12.9987 5 12.9987Z" fill="white"/>
</svg>
