<svg width="36" height="36" viewBox="0 0 36 36" fill="none" xmlns="http://www.w3.org/2000/svg">
<path d="M13.7159 8.00378H27.9962L30.8523 10.8598L27.9962 13.7159H13.7159C13.3372 13.7159 12.974 13.5655 12.7062 13.2976C12.4384 13.0298 12.2879 12.6666 12.2879 12.2879V9.43181C12.2879 9.05308 12.4384 8.68985 12.7062 8.42204C12.974 8.15424 13.3372 8.00378 13.7159 8.00378" stroke="#E65B8D" stroke-width="2.14205" stroke-linecap="round" stroke-linejoin="round"/>
<path d="M19.428 19.428H9.43179L6.57573 22.2841L9.43179 25.1402H19.428C19.8067 25.1402 20.17 24.9897 20.4378 24.7219C20.7056 24.4541 20.856 24.0909 20.856 23.7121V20.8561C20.856 20.4773 20.7056 20.1141 20.4378 19.8463C20.17 19.5785 19.8067 19.428 19.428 19.428Z" stroke="#E65B8D" stroke-width="2.14205" stroke-linecap="round" stroke-linejoin="round"/>
<path d="M18 32.2803V25.1401" stroke="#E65B8D" stroke-width="2.14205" stroke-linecap="round" stroke-linejoin="round"/>
<path d="M18 19.428V13.7159" stroke="#E65B8D" stroke-width="2.14205" stroke-linecap="round" stroke-linejoin="round"/>
<path d="M18 8.00378V5.14772" stroke="#E65B8D" stroke-width="2.14205" stroke-linecap="round" stroke-linejoin="round"/>
</svg>
